M48
; DRILL file {KiCad (5.1.8)-1} date 06/27/21 10:57:42
; FORMAT={-:-/ absolute / metric / decimal}
; #@! TF.CreationDate,2021-06-27T10:57:42+02:00
; #@! TF.GenerationSoftware,Kicad,Pcbnew,(5.1.8)-1
FMAT,2
METRIC
T1C0.400
T2C0.500
T3C0.700
T4C0.710
T5C0.762
T6C0.800
T7C0.900
T8C1.000
T9C1.100
T10C1.300
T11C3.200
%
G90
G05
T1
X113.665Y-93.345
X116.205Y-105.41
X117.475Y-105.41
X117.475Y-120.015
X120.65Y-99.695
X121.92Y-97.155
X123.19Y-89.535
X132.08Y-114.3
X135.89Y-114.3
T2
X188.608Y-64.516
X189.311Y-62.819
X189.311Y-66.213
X191.008Y-62.116
X191.008Y-66.916
X192.705Y-62.819
X192.705Y-66.213
X193.408Y-64.516
X188.735Y-147.604
X189.438Y-145.907
X189.438Y-149.301
X191.135Y-145.204
X191.135Y-150.004
X192.832Y-145.907
X192.832Y-149.301
X193.535Y-147.604
X101.74Y-147.604
X102.443Y-145.907
X102.443Y-149.301
X104.14Y-145.204
X104.14Y-150.004
X105.837Y-145.907
X105.837Y-149.301
X106.54Y-147.604
X101.74Y-64.008
X102.443Y-62.311
X102.443Y-65.705
X104.14Y-61.608
X104.14Y-66.408
X105.837Y-62.311
X105.837Y-65.705
X106.54Y-64.008
T3
X150.495Y-128.778
X158.115Y-128.778
X133.35Y-72.39
X133.35Y-80.01
X150.495Y-118.999
X158.115Y-118.999
T4
X151.892Y-93.472
X151.892Y-96.012
X151.892Y-98.552
X159.512Y-93.472
X159.512Y-96.012
X159.512Y-98.552
X151.892Y-103.886
X151.892Y-106.426
X151.892Y-108.966
X159.512Y-103.886
X159.512Y-106.426
X159.512Y-108.966
T5
X111.125Y-121.92
X113.665Y-121.92
X113.665Y-144.78
X116.205Y-121.92
X116.205Y-144.78
X118.745Y-121.92
X118.745Y-144.78
X121.285Y-121.92
X121.285Y-144.78
X123.825Y-121.92
X123.825Y-144.78
X126.365Y-144.78
T6
X138.176Y-106.426
X148.336Y-106.426
X137.668Y-96.012
X147.828Y-96.012
X138.43Y-115.57
X138.43Y-125.73
X119.38Y-115.57
X121.88Y-115.57
X104.14Y-70.358
X104.14Y-80.518
X135.89Y-132.715
X138.43Y-132.715
X140.97Y-132.715
X104.14Y-83.566
X104.14Y-93.726
T7
X163.83Y-118.745
X166.37Y-118.745
X163.83Y-128.27
X166.37Y-128.27
X132.08Y-68.072
X134.62Y-68.072
T8
X109.855Y-70.485
X109.855Y-73.025
X109.855Y-75.565
X109.855Y-78.105
X109.855Y-80.645
X109.855Y-83.185
X109.855Y-85.725
X109.855Y-88.265
X109.855Y-90.805
X109.855Y-93.345
X109.855Y-95.885
X109.855Y-98.425
X109.855Y-100.965
X109.855Y-103.505
X109.855Y-106.045
X125.095Y-70.485
X125.095Y-73.025
X125.095Y-75.565
X125.095Y-78.105
X125.095Y-80.645
X125.095Y-83.185
X125.095Y-85.725
X125.095Y-88.265
X125.095Y-90.805
X125.095Y-93.345
X125.095Y-95.885
X125.095Y-98.425
X125.095Y-100.965
X125.095Y-103.505
X125.095Y-106.045
T9
X179.324Y-96.426
X179.324Y-101.426
X179.324Y-106.426
X184.404Y-96.426
X184.404Y-101.426
X184.404Y-106.426
X162.306Y-106.172
X172.466Y-106.172
X162.306Y-96.012
X172.466Y-96.012
X132.08Y-95.25
X132.08Y-105.41
T10
X145.088Y-68.22
X145.088Y-76.22
X183.588Y-68.22
X183.588Y-78.97
T11
X191.008Y-64.516
X191.135Y-147.604
X104.14Y-147.604
X104.14Y-64.008
T0
M30
