M48
; DRILL file {KiCad (5.1.8)-1} date 03/01/22 18:10:36
; FORMAT={-:-/ absolute / metric / decimal}
; #@! TF.CreationDate,2022-03-01T18:10:36+01:00
; #@! TF.GenerationSoftware,Kicad,Pcbnew,(5.1.8)-1
FMAT,2
METRIC
T1C0.400
T2C0.500
T3C0.710
T4C0.762
T5C0.800
T6C1.000
T7C1.100
T8C1.300
T9C3.200
%
G90
G05
T1
X129.413Y-107.569
X138.557Y-115.57
T2
X188.735Y-147.574
X189.438Y-145.877
X189.438Y-149.271
X191.135Y-145.174
X191.135Y-149.974
X192.832Y-145.877
X192.832Y-149.271
X193.535Y-147.574
X101.74Y-147.574
X102.443Y-145.877
X102.443Y-149.271
X104.14Y-145.174
X104.14Y-149.974
X105.837Y-145.877
X105.837Y-149.271
X106.54Y-147.574
X188.608Y-64.516
X189.311Y-62.819
X189.311Y-66.213
X191.008Y-62.116
X191.008Y-66.916
X192.705Y-62.819
X192.705Y-66.213
X193.408Y-64.516
X101.74Y-64.008
X102.443Y-62.311
X102.443Y-65.705
X104.14Y-61.608
X104.14Y-66.408
X105.837Y-62.311
X105.837Y-65.705
X106.54Y-64.008
T3
X151.892Y-93.472
X151.892Y-96.012
X151.892Y-98.552
X159.512Y-93.472
X159.512Y-96.012
X159.512Y-98.552
X151.892Y-103.886
X151.892Y-106.426
X151.892Y-108.966
X159.512Y-103.886
X159.512Y-106.426
X159.512Y-108.966
T4
X111.125Y-121.92
X113.665Y-121.92
X113.665Y-144.78
X116.205Y-121.92
X116.205Y-144.78
X118.745Y-121.92
X118.745Y-144.78
X121.285Y-121.92
X121.285Y-144.78
X123.825Y-121.92
X123.825Y-144.78
X126.365Y-144.78
T5
X136.906Y-146.431
X139.446Y-146.431
X141.986Y-146.431
X114.681Y-70.485
X114.681Y-80.645
X138.176Y-106.426
X148.336Y-106.426
X137.668Y-96.012
X147.828Y-96.012
X114.3Y-135.382
X124.46Y-135.382
X119.38Y-115.57
X121.88Y-115.57
X139.319Y-127.381
X139.319Y-137.541
X114.681Y-84.328
X114.681Y-94.488
X114.3Y-129.032
X124.46Y-129.032
T6
X109.855Y-70.485
X109.855Y-73.025
X109.855Y-75.565
X109.855Y-78.105
X109.855Y-80.645
X109.855Y-83.185
X109.855Y-85.725
X109.855Y-88.265
X109.855Y-90.805
X109.855Y-93.345
X109.855Y-95.885
X109.855Y-98.425
X109.855Y-100.965
X109.855Y-103.505
X109.855Y-106.045
X125.095Y-70.485
X125.095Y-73.025
X125.095Y-75.565
X125.095Y-78.105
X125.095Y-80.645
X125.095Y-83.185
X125.095Y-85.725
X125.095Y-88.265
X125.095Y-90.805
X125.095Y-93.345
X125.095Y-95.885
X125.095Y-98.425
X125.095Y-100.965
X125.095Y-103.505
X125.095Y-106.045
T7
X163.449Y-98.552
X173.609Y-98.552
X132.08Y-95.25
X132.08Y-105.41
X182.499Y-99.314
X182.499Y-104.314
X182.499Y-109.314
X187.579Y-99.314
X187.579Y-104.314
X187.579Y-109.314
X163.322Y-108.966
X173.482Y-108.966
T8
X145.088Y-68.22
X145.088Y-76.22
X183.588Y-68.22
X183.588Y-78.97
T9
X191.135Y-147.574
X104.14Y-147.574
X191.008Y-64.516
X104.14Y-64.008
T0
M30
