%FSLAX45Y45*%
G04 Gerber Fmt 4.5, Leading zero omitted, Abs format (unit mm)*
G04 Created by KiCad (PCBNEW (5.1.8)-1) date 2022-03-01 18:10:37*
%MOMM*%
%LPD*%
G01*
G04 APERTURE LIST*
%ADD10C,0.200000*%
%ADD11C,0.300000*%
G04 APERTURE END LIST*
D10*
X12921300Y-10736900D02*
X12961300Y-10776900D01*
X12961300Y-10736900D02*
X12921300Y-10776900D01*
X13835700Y-11537000D02*
X13875700Y-11577000D01*
X13875700Y-11537000D02*
X13835700Y-11577000D01*
X18898500Y-14757400D02*
G75*
G03*
X18898500Y-14757400I-25000J0D01*
G01*
X18968794Y-14587694D02*
G75*
G03*
X18968794Y-14587694I-25000J0D01*
G01*
X18968794Y-14927106D02*
G75*
G03*
X18968794Y-14927106I-25000J0D01*
G01*
X19138500Y-14517400D02*
G75*
G03*
X19138500Y-14517400I-25000J0D01*
G01*
X19138500Y-14997400D02*
G75*
G03*
X19138500Y-14997400I-25000J0D01*
G01*
X19308206Y-14587694D02*
G75*
G03*
X19308206Y-14587694I-25000J0D01*
G01*
X19308206Y-14927106D02*
G75*
G03*
X19308206Y-14927106I-25000J0D01*
G01*
X19378500Y-14757400D02*
G75*
G03*
X19378500Y-14757400I-25000J0D01*
G01*
X10199000Y-14757400D02*
G75*
G03*
X10199000Y-14757400I-25000J0D01*
G01*
X10269294Y-14587694D02*
G75*
G03*
X10269294Y-14587694I-25000J0D01*
G01*
X10269294Y-14927106D02*
G75*
G03*
X10269294Y-14927106I-25000J0D01*
G01*
X10439000Y-14517400D02*
G75*
G03*
X10439000Y-14517400I-25000J0D01*
G01*
X10439000Y-14997400D02*
G75*
G03*
X10439000Y-14997400I-25000J0D01*
G01*
X10608706Y-14587694D02*
G75*
G03*
X10608706Y-14587694I-25000J0D01*
G01*
X10608706Y-14927106D02*
G75*
G03*
X10608706Y-14927106I-25000J0D01*
G01*
X10679000Y-14757400D02*
G75*
G03*
X10679000Y-14757400I-25000J0D01*
G01*
X18885800Y-6451600D02*
G75*
G03*
X18885800Y-6451600I-25000J0D01*
G01*
X18956094Y-6281894D02*
G75*
G03*
X18956094Y-6281894I-25000J0D01*
G01*
X18956094Y-6621306D02*
G75*
G03*
X18956094Y-6621306I-25000J0D01*
G01*
X19125800Y-6211600D02*
G75*
G03*
X19125800Y-6211600I-25000J0D01*
G01*
X19125800Y-6691600D02*
G75*
G03*
X19125800Y-6691600I-25000J0D01*
G01*
X19295506Y-6281894D02*
G75*
G03*
X19295506Y-6281894I-25000J0D01*
G01*
X19295506Y-6621306D02*
G75*
G03*
X19295506Y-6621306I-25000J0D01*
G01*
X19365800Y-6451600D02*
G75*
G03*
X19365800Y-6451600I-25000J0D01*
G01*
X10199000Y-6400800D02*
G75*
G03*
X10199000Y-6400800I-25000J0D01*
G01*
X10269294Y-6231094D02*
G75*
G03*
X10269294Y-6231094I-25000J0D01*
G01*
X10269294Y-6570506D02*
G75*
G03*
X10269294Y-6570506I-25000J0D01*
G01*
X10439000Y-6160800D02*
G75*
G03*
X10439000Y-6160800I-25000J0D01*
G01*
X10439000Y-6640800D02*
G75*
G03*
X10439000Y-6640800I-25000J0D01*
G01*
X10608706Y-6231094D02*
G75*
G03*
X10608706Y-6231094I-25000J0D01*
G01*
X10608706Y-6570506D02*
G75*
G03*
X10608706Y-6570506I-25000J0D01*
G01*
X10679000Y-6400800D02*
G75*
G03*
X10679000Y-6400800I-25000J0D01*
G01*
X15189200Y-9311700D02*
X15189200Y-9382700D01*
X15153700Y-9347200D02*
X15224700Y-9347200D01*
X15189200Y-9565700D02*
X15189200Y-9636700D01*
X15153700Y-9601200D02*
X15224700Y-9601200D01*
X15189200Y-9819700D02*
X15189200Y-9890700D01*
X15153700Y-9855200D02*
X15224700Y-9855200D01*
X15951200Y-9311700D02*
X15951200Y-9382700D01*
X15915700Y-9347200D02*
X15986700Y-9347200D01*
X15951200Y-9565700D02*
X15951200Y-9636700D01*
X15915700Y-9601200D02*
X15986700Y-9601200D01*
X15951200Y-9819700D02*
X15951200Y-9890700D01*
X15915700Y-9855200D02*
X15986700Y-9855200D01*
X15189200Y-10353100D02*
X15189200Y-10424100D01*
X15153700Y-10388600D02*
X15224700Y-10388600D01*
X15189200Y-10607100D02*
X15189200Y-10678100D01*
X15153700Y-10642600D02*
X15224700Y-10642600D01*
X15189200Y-10861100D02*
X15189200Y-10932100D01*
X15153700Y-10896600D02*
X15224700Y-10896600D01*
X15951200Y-10353100D02*
X15951200Y-10424100D01*
X15915700Y-10388600D02*
X15986700Y-10388600D01*
X15951200Y-10607100D02*
X15951200Y-10678100D01*
X15915700Y-10642600D02*
X15986700Y-10642600D01*
X15951200Y-10861100D02*
X15951200Y-10932100D01*
X15915700Y-10896600D02*
X15986700Y-10896600D01*
X11139441Y-12218941D02*
X11139441Y-12165059D01*
X11085559Y-12165059D01*
X11085559Y-12218941D01*
X11139441Y-12218941D01*
X11393441Y-12218941D02*
X11393441Y-12165059D01*
X11339559Y-12165059D01*
X11339559Y-12218941D01*
X11393441Y-12218941D01*
X11393441Y-14504941D02*
X11393441Y-14451059D01*
X11339559Y-14451059D01*
X11339559Y-14504941D01*
X11393441Y-14504941D01*
X11647441Y-12218941D02*
X11647441Y-12165059D01*
X11593559Y-12165059D01*
X11593559Y-12218941D01*
X11647441Y-12218941D01*
X11647441Y-14504941D02*
X11647441Y-14451059D01*
X11593559Y-14451059D01*
X11593559Y-14504941D01*
X11647441Y-14504941D01*
X11901441Y-12218941D02*
X11901441Y-12165059D01*
X11847559Y-12165059D01*
X11847559Y-12218941D01*
X11901441Y-12218941D01*
X11901441Y-14504941D02*
X11901441Y-14451059D01*
X11847559Y-14451059D01*
X11847559Y-14504941D01*
X11901441Y-14504941D01*
X12155441Y-12218941D02*
X12155441Y-12165059D01*
X12101559Y-12165059D01*
X12101559Y-12218941D01*
X12155441Y-12218941D01*
X12155441Y-14504941D02*
X12155441Y-14451059D01*
X12101559Y-14451059D01*
X12101559Y-14504941D01*
X12155441Y-14504941D01*
X12409441Y-12218941D02*
X12409441Y-12165059D01*
X12355559Y-12165059D01*
X12355559Y-12218941D01*
X12409441Y-12218941D01*
X12409441Y-14504941D02*
X12409441Y-14451059D01*
X12355559Y-14451059D01*
X12355559Y-14504941D01*
X12409441Y-14504941D01*
X12663441Y-14504941D02*
X12663441Y-14451059D01*
X12609559Y-14451059D01*
X12609559Y-14504941D01*
X12663441Y-14504941D01*
X13690600Y-14683100D02*
X13730600Y-14643100D01*
X13690600Y-14603100D01*
X13650600Y-14643100D01*
X13690600Y-14683100D01*
X13944600Y-14683100D02*
X13984600Y-14643100D01*
X13944600Y-14603100D01*
X13904600Y-14643100D01*
X13944600Y-14683100D01*
X14198600Y-14683100D02*
X14238600Y-14643100D01*
X14198600Y-14603100D01*
X14158600Y-14643100D01*
X14198600Y-14683100D01*
X11468100Y-7088500D02*
X11508100Y-7048500D01*
X11468100Y-7008500D01*
X11428100Y-7048500D01*
X11468100Y-7088500D01*
X11468100Y-8104500D02*
X11508100Y-8064500D01*
X11468100Y-8024500D01*
X11428100Y-8064500D01*
X11468100Y-8104500D01*
X13817600Y-10682600D02*
X13857600Y-10642600D01*
X13817600Y-10602600D01*
X13777600Y-10642600D01*
X13817600Y-10682600D01*
X14833600Y-10682600D02*
X14873600Y-10642600D01*
X14833600Y-10602600D01*
X14793600Y-10642600D01*
X14833600Y-10682600D01*
X13766800Y-9641200D02*
X13806800Y-9601200D01*
X13766800Y-9561200D01*
X13726800Y-9601200D01*
X13766800Y-9641200D01*
X14782800Y-9641200D02*
X14822800Y-9601200D01*
X14782800Y-9561200D01*
X14742800Y-9601200D01*
X14782800Y-9641200D01*
X11430000Y-13578200D02*
X11470000Y-13538200D01*
X11430000Y-13498200D01*
X11390000Y-13538200D01*
X11430000Y-13578200D01*
X12446000Y-13578200D02*
X12486000Y-13538200D01*
X12446000Y-13498200D01*
X12406000Y-13538200D01*
X12446000Y-13578200D01*
X11938000Y-11597000D02*
X11978000Y-11557000D01*
X11938000Y-11517000D01*
X11898000Y-11557000D01*
X11938000Y-11597000D01*
X12188000Y-11597000D02*
X12228000Y-11557000D01*
X12188000Y-11517000D01*
X12148000Y-11557000D01*
X12188000Y-11597000D01*
X13931900Y-12778100D02*
X13971900Y-12738100D01*
X13931900Y-12698100D01*
X13891900Y-12738100D01*
X13931900Y-12778100D01*
X13931900Y-13794100D02*
X13971900Y-13754100D01*
X13931900Y-13714100D01*
X13891900Y-13754100D01*
X13931900Y-13794100D01*
X11468100Y-8472800D02*
X11508100Y-8432800D01*
X11468100Y-8392800D01*
X11428100Y-8432800D01*
X11468100Y-8472800D01*
X11468100Y-9488800D02*
X11508100Y-9448800D01*
X11468100Y-9408800D01*
X11428100Y-9448800D01*
X11468100Y-9488800D01*
X11430000Y-12943200D02*
X11470000Y-12903200D01*
X11430000Y-12863200D01*
X11390000Y-12903200D01*
X11430000Y-12943200D01*
X12446000Y-12943200D02*
X12486000Y-12903200D01*
X12446000Y-12863200D01*
X12406000Y-12903200D01*
X12446000Y-12943200D01*
X10935500Y-6998500D02*
X11035500Y-7098500D01*
X11035500Y-6998500D02*
X10935500Y-7098500D01*
X11035500Y-7048500D02*
G75*
G03*
X11035500Y-7048500I-50000J0D01*
G01*
X10935500Y-7252500D02*
X11035500Y-7352500D01*
X11035500Y-7252500D02*
X10935500Y-7352500D01*
X11035500Y-7302500D02*
G75*
G03*
X11035500Y-7302500I-50000J0D01*
G01*
X10935500Y-7506500D02*
X11035500Y-7606500D01*
X11035500Y-7506500D02*
X10935500Y-7606500D01*
X11035500Y-7556500D02*
G75*
G03*
X11035500Y-7556500I-50000J0D01*
G01*
X10935500Y-7760500D02*
X11035500Y-7860500D01*
X11035500Y-7760500D02*
X10935500Y-7860500D01*
X11035500Y-7810500D02*
G75*
G03*
X11035500Y-7810500I-50000J0D01*
G01*
X10935500Y-8014500D02*
X11035500Y-8114500D01*
X11035500Y-8014500D02*
X10935500Y-8114500D01*
X11035500Y-8064500D02*
G75*
G03*
X11035500Y-8064500I-50000J0D01*
G01*
X10935500Y-8268500D02*
X11035500Y-8368500D01*
X11035500Y-8268500D02*
X10935500Y-8368500D01*
X11035500Y-8318500D02*
G75*
G03*
X11035500Y-8318500I-50000J0D01*
G01*
X10935500Y-8522500D02*
X11035500Y-8622500D01*
X11035500Y-8522500D02*
X10935500Y-8622500D01*
X11035500Y-8572500D02*
G75*
G03*
X11035500Y-8572500I-50000J0D01*
G01*
X10935500Y-8776500D02*
X11035500Y-8876500D01*
X11035500Y-8776500D02*
X10935500Y-8876500D01*
X11035500Y-8826500D02*
G75*
G03*
X11035500Y-8826500I-50000J0D01*
G01*
X10935500Y-9030500D02*
X11035500Y-9130500D01*
X11035500Y-9030500D02*
X10935500Y-9130500D01*
X11035500Y-9080500D02*
G75*
G03*
X11035500Y-9080500I-50000J0D01*
G01*
X10935500Y-9284500D02*
X11035500Y-9384500D01*
X11035500Y-9284500D02*
X10935500Y-9384500D01*
X11035500Y-9334500D02*
G75*
G03*
X11035500Y-9334500I-50000J0D01*
G01*
X10935500Y-9538500D02*
X11035500Y-9638500D01*
X11035500Y-9538500D02*
X10935500Y-9638500D01*
X11035500Y-9588500D02*
G75*
G03*
X11035500Y-9588500I-50000J0D01*
G01*
X10935500Y-9792500D02*
X11035500Y-9892500D01*
X11035500Y-9792500D02*
X10935500Y-9892500D01*
X11035500Y-9842500D02*
G75*
G03*
X11035500Y-9842500I-50000J0D01*
G01*
X10935500Y-10046500D02*
X11035500Y-10146500D01*
X11035500Y-10046500D02*
X10935500Y-10146500D01*
X11035500Y-10096500D02*
G75*
G03*
X11035500Y-10096500I-50000J0D01*
G01*
X10935500Y-10300500D02*
X11035500Y-10400500D01*
X11035500Y-10300500D02*
X10935500Y-10400500D01*
X11035500Y-10350500D02*
G75*
G03*
X11035500Y-10350500I-50000J0D01*
G01*
X10935500Y-10554500D02*
X11035500Y-10654500D01*
X11035500Y-10554500D02*
X10935500Y-10654500D01*
X11035500Y-10604500D02*
G75*
G03*
X11035500Y-10604500I-50000J0D01*
G01*
X12459500Y-6998500D02*
X12559500Y-7098500D01*
X12559500Y-6998500D02*
X12459500Y-7098500D01*
X12559500Y-7048500D02*
G75*
G03*
X12559500Y-7048500I-50000J0D01*
G01*
X12459500Y-7252500D02*
X12559500Y-7352500D01*
X12559500Y-7252500D02*
X12459500Y-7352500D01*
X12559500Y-7302500D02*
G75*
G03*
X12559500Y-7302500I-50000J0D01*
G01*
X12459500Y-7506500D02*
X12559500Y-7606500D01*
X12559500Y-7506500D02*
X12459500Y-7606500D01*
X12559500Y-7556500D02*
G75*
G03*
X12559500Y-7556500I-50000J0D01*
G01*
X12459500Y-7760500D02*
X12559500Y-7860500D01*
X12559500Y-7760500D02*
X12459500Y-7860500D01*
X12559500Y-7810500D02*
G75*
G03*
X12559500Y-7810500I-50000J0D01*
G01*
X12459500Y-8014500D02*
X12559500Y-8114500D01*
X12559500Y-8014500D02*
X12459500Y-8114500D01*
X12559500Y-8064500D02*
G75*
G03*
X12559500Y-8064500I-50000J0D01*
G01*
X12459500Y-8268500D02*
X12559500Y-8368500D01*
X12559500Y-8268500D02*
X12459500Y-8368500D01*
X12559500Y-8318500D02*
G75*
G03*
X12559500Y-8318500I-50000J0D01*
G01*
X12459500Y-8522500D02*
X12559500Y-8622500D01*
X12559500Y-8522500D02*
X12459500Y-8622500D01*
X12559500Y-8572500D02*
G75*
G03*
X12559500Y-8572500I-50000J0D01*
G01*
X12459500Y-8776500D02*
X12559500Y-8876500D01*
X12559500Y-8776500D02*
X12459500Y-8876500D01*
X12559500Y-8826500D02*
G75*
G03*
X12559500Y-8826500I-50000J0D01*
G01*
X12459500Y-9030500D02*
X12559500Y-9130500D01*
X12559500Y-9030500D02*
X12459500Y-9130500D01*
X12559500Y-9080500D02*
G75*
G03*
X12559500Y-9080500I-50000J0D01*
G01*
X12459500Y-9284500D02*
X12559500Y-9384500D01*
X12559500Y-9284500D02*
X12459500Y-9384500D01*
X12559500Y-9334500D02*
G75*
G03*
X12559500Y-9334500I-50000J0D01*
G01*
X12459500Y-9538500D02*
X12559500Y-9638500D01*
X12559500Y-9538500D02*
X12459500Y-9638500D01*
X12559500Y-9588500D02*
G75*
G03*
X12559500Y-9588500I-50000J0D01*
G01*
X12459500Y-9792500D02*
X12559500Y-9892500D01*
X12559500Y-9792500D02*
X12459500Y-9892500D01*
X12559500Y-9842500D02*
G75*
G03*
X12559500Y-9842500I-50000J0D01*
G01*
X12459500Y-10046500D02*
X12559500Y-10146500D01*
X12559500Y-10046500D02*
X12459500Y-10146500D01*
X12559500Y-10096500D02*
G75*
G03*
X12559500Y-10096500I-50000J0D01*
G01*
X12459500Y-10300500D02*
X12559500Y-10400500D01*
X12559500Y-10300500D02*
X12459500Y-10400500D01*
X12559500Y-10350500D02*
G75*
G03*
X12559500Y-10350500I-50000J0D01*
G01*
X12459500Y-10554500D02*
X12559500Y-10654500D01*
X12559500Y-10554500D02*
X12459500Y-10654500D01*
X12559500Y-10604500D02*
G75*
G03*
X12559500Y-10604500I-50000J0D01*
G01*
X16289900Y-9800200D02*
X16399900Y-9910200D01*
X16399900Y-9800200D02*
X16289900Y-9910200D01*
X16344900Y-9800200D02*
X16344900Y-9910200D01*
X16289900Y-9855200D02*
X16399900Y-9855200D01*
X17305900Y-9800200D02*
X17415900Y-9910200D01*
X17415900Y-9800200D02*
X17305900Y-9910200D01*
X17360900Y-9800200D02*
X17360900Y-9910200D01*
X17305900Y-9855200D02*
X17415900Y-9855200D01*
X13153000Y-9470000D02*
X13263000Y-9580000D01*
X13263000Y-9470000D02*
X13153000Y-9580000D01*
X13208000Y-9470000D02*
X13208000Y-9580000D01*
X13153000Y-9525000D02*
X13263000Y-9525000D01*
X13153000Y-10486000D02*
X13263000Y-10596000D01*
X13263000Y-10486000D02*
X13153000Y-10596000D01*
X13208000Y-10486000D02*
X13208000Y-10596000D01*
X13153000Y-10541000D02*
X13263000Y-10541000D01*
X18194900Y-9876400D02*
X18304900Y-9986400D01*
X18304900Y-9876400D02*
X18194900Y-9986400D01*
X18249900Y-9876400D02*
X18249900Y-9986400D01*
X18194900Y-9931400D02*
X18304900Y-9931400D01*
X18194900Y-10376400D02*
X18304900Y-10486400D01*
X18304900Y-10376400D02*
X18194900Y-10486400D01*
X18249900Y-10376400D02*
X18249900Y-10486400D01*
X18194900Y-10431400D02*
X18304900Y-10431400D01*
X18194900Y-10876400D02*
X18304900Y-10986400D01*
X18304900Y-10876400D02*
X18194900Y-10986400D01*
X18249900Y-10876400D02*
X18249900Y-10986400D01*
X18194900Y-10931400D02*
X18304900Y-10931400D01*
X18702900Y-9876400D02*
X18812900Y-9986400D01*
X18812900Y-9876400D02*
X18702900Y-9986400D01*
X18757900Y-9876400D02*
X18757900Y-9986400D01*
X18702900Y-9931400D02*
X18812900Y-9931400D01*
X18702900Y-10376400D02*
X18812900Y-10486400D01*
X18812900Y-10376400D02*
X18702900Y-10486400D01*
X18757900Y-10376400D02*
X18757900Y-10486400D01*
X18702900Y-10431400D02*
X18812900Y-10431400D01*
X18702900Y-10876400D02*
X18812900Y-10986400D01*
X18812900Y-10876400D02*
X18702900Y-10986400D01*
X18757900Y-10876400D02*
X18757900Y-10986400D01*
X18702900Y-10931400D02*
X18812900Y-10931400D01*
X16277200Y-10841600D02*
X16387200Y-10951600D01*
X16387200Y-10841600D02*
X16277200Y-10951600D01*
X16332200Y-10841600D02*
X16332200Y-10951600D01*
X16277200Y-10896600D02*
X16387200Y-10896600D01*
X17293200Y-10841600D02*
X17403200Y-10951600D01*
X17403200Y-10841600D02*
X17293200Y-10951600D01*
X17348200Y-10841600D02*
X17348200Y-10951600D01*
X17293200Y-10896600D02*
X17403200Y-10896600D01*
X14443800Y-6757000D02*
X14573800Y-6887000D01*
X14573800Y-6757000D02*
X14443800Y-6887000D01*
X14554762Y-6867962D02*
X14554762Y-6776038D01*
X14462838Y-6776038D01*
X14462838Y-6867962D01*
X14554762Y-6867962D01*
X14443800Y-7557000D02*
X14573800Y-7687000D01*
X14573800Y-7557000D02*
X14443800Y-7687000D01*
X14554762Y-7667962D02*
X14554762Y-7576038D01*
X14462838Y-7576038D01*
X14462838Y-7667962D01*
X14554762Y-7667962D01*
X18293800Y-6757000D02*
X18423800Y-6887000D01*
X18423800Y-6757000D02*
X18293800Y-6887000D01*
X18404762Y-6867962D02*
X18404762Y-6776038D01*
X18312838Y-6776038D01*
X18312838Y-6867962D01*
X18404762Y-6867962D01*
X18293800Y-7832000D02*
X18423800Y-7962000D01*
X18423800Y-7832000D02*
X18293800Y-7962000D01*
X18404762Y-7942962D02*
X18404762Y-7851038D01*
X18312838Y-7851038D01*
X18312838Y-7942962D01*
X18404762Y-7942962D01*
X18953500Y-14597400D02*
X19273500Y-14917400D01*
X19273500Y-14597400D02*
X18953500Y-14917400D01*
X19113500Y-14917400D02*
X19273500Y-14757400D01*
X19113500Y-14597400D01*
X18953500Y-14757400D01*
X19113500Y-14917400D01*
X10254000Y-14597400D02*
X10574000Y-14917400D01*
X10574000Y-14597400D02*
X10254000Y-14917400D01*
X10414000Y-14917400D02*
X10574000Y-14757400D01*
X10414000Y-14597400D01*
X10254000Y-14757400D01*
X10414000Y-14917400D01*
X18940800Y-6291600D02*
X19260800Y-6611600D01*
X19260800Y-6291600D02*
X18940800Y-6611600D01*
X19100800Y-6611600D02*
X19260800Y-6451600D01*
X19100800Y-6291600D01*
X18940800Y-6451600D01*
X19100800Y-6611600D01*
X10254000Y-6240800D02*
X10574000Y-6560800D01*
X10574000Y-6240800D02*
X10254000Y-6560800D01*
X10414000Y-6560800D02*
X10574000Y-6400800D01*
X10414000Y-6240800D01*
X10254000Y-6400800D01*
X10414000Y-6560800D01*
D11*
X286429Y-465714D02*
X286429Y-165714D01*
X357857Y-165714D01*
X400714Y-180000D01*
X429286Y-208571D01*
X443571Y-237143D01*
X457857Y-294286D01*
X457857Y-337143D01*
X443571Y-394286D01*
X429286Y-422857D01*
X400714Y-451428D01*
X357857Y-465714D01*
X286429Y-465714D01*
X586429Y-465714D02*
X586429Y-265714D01*
X586429Y-322857D02*
X600714Y-294286D01*
X615000Y-280000D01*
X643571Y-265714D01*
X672143Y-265714D01*
X772143Y-465714D02*
X772143Y-265714D01*
X772143Y-165714D02*
X757857Y-180000D01*
X772143Y-194286D01*
X786428Y-180000D01*
X772143Y-165714D01*
X772143Y-194286D01*
X957857Y-465714D02*
X929286Y-451428D01*
X915000Y-422857D01*
X915000Y-165714D01*
X1115000Y-465714D02*
X1086429Y-451428D01*
X1072143Y-422857D01*
X1072143Y-165714D01*
X1457857Y-465714D02*
X1457857Y-165714D01*
X1557857Y-380000D01*
X1657857Y-165714D01*
X1657857Y-465714D01*
X1929286Y-465714D02*
X1929286Y-308571D01*
X1915000Y-280000D01*
X1886428Y-265714D01*
X1829286Y-265714D01*
X1800714Y-280000D01*
X1929286Y-451428D02*
X1900714Y-465714D01*
X1829286Y-465714D01*
X1800714Y-451428D01*
X1786428Y-422857D01*
X1786428Y-394286D01*
X1800714Y-365714D01*
X1829286Y-351428D01*
X1900714Y-351428D01*
X1929286Y-337143D01*
X2072143Y-265714D02*
X2072143Y-565714D01*
X2072143Y-280000D02*
X2100714Y-265714D01*
X2157857Y-265714D01*
X2186429Y-280000D01*
X2200714Y-294286D01*
X2215000Y-322857D01*
X2215000Y-408571D01*
X2200714Y-437143D01*
X2186429Y-451428D01*
X2157857Y-465714D01*
X2100714Y-465714D01*
X2072143Y-451428D01*
X2343571Y-437143D02*
X2357857Y-451428D01*
X2343571Y-465714D01*
X2329286Y-451428D01*
X2343571Y-437143D01*
X2343571Y-465714D01*
X2343571Y-280000D02*
X2357857Y-294286D01*
X2343571Y-308571D01*
X2329286Y-294286D01*
X2343571Y-280000D01*
X2343571Y-308571D01*
X-40000Y-940000D02*
X0Y-980000D01*
X0Y-940000D02*
X-40000Y-980000D01*
X343571Y-795714D02*
X372143Y-795714D01*
X400714Y-810000D01*
X415000Y-824286D01*
X429286Y-852857D01*
X443571Y-910000D01*
X443571Y-981428D01*
X429286Y-1038571D01*
X415000Y-1067143D01*
X400714Y-1081429D01*
X372143Y-1095714D01*
X343571Y-1095714D01*
X315000Y-1081429D01*
X300714Y-1067143D01*
X286429Y-1038571D01*
X272143Y-981428D01*
X272143Y-910000D01*
X286429Y-852857D01*
X300714Y-824286D01*
X315000Y-810000D01*
X343571Y-795714D01*
X572143Y-1067143D02*
X586429Y-1081429D01*
X572143Y-1095714D01*
X557857Y-1081429D01*
X572143Y-1067143D01*
X572143Y-1095714D01*
X843571Y-895714D02*
X843571Y-1095714D01*
X772143Y-781428D02*
X700714Y-995714D01*
X886428Y-995714D01*
X1057857Y-795714D02*
X1086429Y-795714D01*
X1115000Y-810000D01*
X1129286Y-824286D01*
X1143571Y-852857D01*
X1157857Y-910000D01*
X1157857Y-981428D01*
X1143571Y-1038571D01*
X1129286Y-1067143D01*
X1115000Y-1081429D01*
X1086429Y-1095714D01*
X1057857Y-1095714D01*
X1029286Y-1081429D01*
X1015000Y-1067143D01*
X1000714Y-1038571D01*
X986428Y-981428D01*
X986428Y-910000D01*
X1000714Y-852857D01*
X1015000Y-824286D01*
X1029286Y-810000D01*
X1057857Y-795714D01*
X1286429Y-1095714D02*
X1286429Y-895714D01*
X1286429Y-924286D02*
X1300714Y-910000D01*
X1329286Y-895714D01*
X1372143Y-895714D01*
X1400714Y-910000D01*
X1415000Y-938571D01*
X1415000Y-1095714D01*
X1415000Y-938571D02*
X1429286Y-910000D01*
X1457857Y-895714D01*
X1500714Y-895714D01*
X1529286Y-910000D01*
X1543571Y-938571D01*
X1543571Y-1095714D01*
X1686428Y-1095714D02*
X1686428Y-895714D01*
X1686428Y-924286D02*
X1700714Y-910000D01*
X1729286Y-895714D01*
X1772143Y-895714D01*
X1800714Y-910000D01*
X1815000Y-938571D01*
X1815000Y-1095714D01*
X1815000Y-938571D02*
X1829286Y-910000D01*
X1857857Y-895714D01*
X1900714Y-895714D01*
X1929286Y-910000D01*
X1943571Y-938571D01*
X1943571Y-1095714D01*
X2529286Y-781428D02*
X2272143Y-1167143D01*
X2915000Y-795714D02*
X2943571Y-795714D01*
X2972143Y-810000D01*
X2986428Y-824286D01*
X3000714Y-852857D01*
X3015000Y-910000D01*
X3015000Y-981428D01*
X3000714Y-1038571D01*
X2986428Y-1067143D01*
X2972143Y-1081429D01*
X2943571Y-1095714D01*
X2915000Y-1095714D01*
X2886428Y-1081429D01*
X2872143Y-1067143D01*
X2857857Y-1038571D01*
X2843571Y-981428D01*
X2843571Y-910000D01*
X2857857Y-852857D01*
X2872143Y-824286D01*
X2886428Y-810000D01*
X2915000Y-795714D01*
X3143571Y-1067143D02*
X3157857Y-1081429D01*
X3143571Y-1095714D01*
X3129286Y-1081429D01*
X3143571Y-1067143D01*
X3143571Y-1095714D01*
X3343571Y-795714D02*
X3372143Y-795714D01*
X3400714Y-810000D01*
X3415000Y-824286D01*
X3429286Y-852857D01*
X3443571Y-910000D01*
X3443571Y-981428D01*
X3429286Y-1038571D01*
X3415000Y-1067143D01*
X3400714Y-1081429D01*
X3372143Y-1095714D01*
X3343571Y-1095714D01*
X3315000Y-1081429D01*
X3300714Y-1067143D01*
X3286428Y-1038571D01*
X3272143Y-981428D01*
X3272143Y-910000D01*
X3286428Y-852857D01*
X3300714Y-824286D01*
X3315000Y-810000D01*
X3343571Y-795714D01*
X3729286Y-1095714D02*
X3557857Y-1095714D01*
X3643571Y-1095714D02*
X3643571Y-795714D01*
X3615000Y-838571D01*
X3586428Y-867143D01*
X3557857Y-881428D01*
X3986428Y-795714D02*
X3929286Y-795714D01*
X3900714Y-810000D01*
X3886428Y-824286D01*
X3857857Y-867143D01*
X3843571Y-924286D01*
X3843571Y-1038571D01*
X3857857Y-1067143D01*
X3872143Y-1081429D01*
X3900714Y-1095714D01*
X3957857Y-1095714D01*
X3986428Y-1081429D01*
X4000714Y-1067143D01*
X4015000Y-1038571D01*
X4015000Y-967143D01*
X4000714Y-938571D01*
X3986428Y-924286D01*
X3957857Y-910000D01*
X3900714Y-910000D01*
X3872143Y-924286D01*
X3857857Y-938571D01*
X3843571Y-967143D01*
X4129286Y-795714D02*
X4129286Y-852857D01*
X4243571Y-795714D02*
X4243571Y-852857D01*
X4686429Y-1210000D02*
X4672143Y-1195714D01*
X4643571Y-1152857D01*
X4629286Y-1124286D01*
X4615000Y-1081429D01*
X4600714Y-1010000D01*
X4600714Y-952857D01*
X4615000Y-881428D01*
X4629286Y-838571D01*
X4643571Y-810000D01*
X4672143Y-767143D01*
X4686429Y-752857D01*
X4786429Y-824286D02*
X4800714Y-810000D01*
X4829286Y-795714D01*
X4900714Y-795714D01*
X4929286Y-810000D01*
X4943571Y-824286D01*
X4957857Y-852857D01*
X4957857Y-881428D01*
X4943571Y-924286D01*
X4772143Y-1095714D01*
X4957857Y-1095714D01*
X5315000Y-1095714D02*
X5315000Y-795714D01*
X5443571Y-1095714D02*
X5443571Y-938571D01*
X5429286Y-910000D01*
X5400714Y-895714D01*
X5357857Y-895714D01*
X5329286Y-910000D01*
X5315000Y-924286D01*
X5629286Y-1095714D02*
X5600714Y-1081429D01*
X5586429Y-1067143D01*
X5572143Y-1038571D01*
X5572143Y-952857D01*
X5586429Y-924286D01*
X5600714Y-910000D01*
X5629286Y-895714D01*
X5672143Y-895714D01*
X5700714Y-910000D01*
X5715000Y-924286D01*
X5729286Y-952857D01*
X5729286Y-1038571D01*
X5715000Y-1067143D01*
X5700714Y-1081429D01*
X5672143Y-1095714D01*
X5629286Y-1095714D01*
X5900714Y-1095714D02*
X5872143Y-1081429D01*
X5857857Y-1052857D01*
X5857857Y-795714D01*
X6129286Y-1081429D02*
X6100714Y-1095714D01*
X6043571Y-1095714D01*
X6015000Y-1081429D01*
X6000714Y-1052857D01*
X6000714Y-938571D01*
X6015000Y-910000D01*
X6043571Y-895714D01*
X6100714Y-895714D01*
X6129286Y-910000D01*
X6143571Y-938571D01*
X6143571Y-967143D01*
X6000714Y-995714D01*
X6257857Y-1081429D02*
X6286428Y-1095714D01*
X6343571Y-1095714D01*
X6372143Y-1081429D01*
X6386428Y-1052857D01*
X6386428Y-1038571D01*
X6372143Y-1010000D01*
X6343571Y-995714D01*
X6300714Y-995714D01*
X6272143Y-981428D01*
X6257857Y-952857D01*
X6257857Y-938571D01*
X6272143Y-910000D01*
X6300714Y-895714D01*
X6343571Y-895714D01*
X6372143Y-910000D01*
X6486428Y-1210000D02*
X6500714Y-1195714D01*
X6529286Y-1152857D01*
X6543571Y-1124286D01*
X6557857Y-1081429D01*
X6572143Y-1010000D01*
X6572143Y-952857D01*
X6557857Y-881428D01*
X6543571Y-838571D01*
X6529286Y-810000D01*
X6500714Y-767143D01*
X6486428Y-752857D01*
X0Y-1356000D02*
G75*
G03*
X0Y-1356000I-25000J0D01*
G01*
X343571Y-1191714D02*
X372143Y-1191714D01*
X400714Y-1206000D01*
X415000Y-1220286D01*
X429286Y-1248857D01*
X443571Y-1306000D01*
X443571Y-1377429D01*
X429286Y-1434571D01*
X415000Y-1463143D01*
X400714Y-1477428D01*
X372143Y-1491714D01*
X343571Y-1491714D01*
X315000Y-1477428D01*
X300714Y-1463143D01*
X286429Y-1434571D01*
X272143Y-1377429D01*
X272143Y-1306000D01*
X286429Y-1248857D01*
X300714Y-1220286D01*
X315000Y-1206000D01*
X343571Y-1191714D01*
X572143Y-1463143D02*
X586429Y-1477428D01*
X572143Y-1491714D01*
X557857Y-1477428D01*
X572143Y-1463143D01*
X572143Y-1491714D01*
X857857Y-1191714D02*
X715000Y-1191714D01*
X700714Y-1334571D01*
X715000Y-1320286D01*
X743571Y-1306000D01*
X815000Y-1306000D01*
X843571Y-1320286D01*
X857857Y-1334571D01*
X872143Y-1363143D01*
X872143Y-1434571D01*
X857857Y-1463143D01*
X843571Y-1477428D01*
X815000Y-1491714D01*
X743571Y-1491714D01*
X715000Y-1477428D01*
X700714Y-1463143D01*
X1057857Y-1191714D02*
X1086429Y-1191714D01*
X1115000Y-1206000D01*
X1129286Y-1220286D01*
X1143571Y-1248857D01*
X1157857Y-1306000D01*
X1157857Y-1377429D01*
X1143571Y-1434571D01*
X1129286Y-1463143D01*
X1115000Y-1477428D01*
X1086429Y-1491714D01*
X1057857Y-1491714D01*
X1029286Y-1477428D01*
X1015000Y-1463143D01*
X1000714Y-1434571D01*
X986428Y-1377429D01*
X986428Y-1306000D01*
X1000714Y-1248857D01*
X1015000Y-1220286D01*
X1029286Y-1206000D01*
X1057857Y-1191714D01*
X1286429Y-1491714D02*
X1286429Y-1291714D01*
X1286429Y-1320286D02*
X1300714Y-1306000D01*
X1329286Y-1291714D01*
X1372143Y-1291714D01*
X1400714Y-1306000D01*
X1415000Y-1334571D01*
X1415000Y-1491714D01*
X1415000Y-1334571D02*
X1429286Y-1306000D01*
X1457857Y-1291714D01*
X1500714Y-1291714D01*
X1529286Y-1306000D01*
X1543571Y-1334571D01*
X1543571Y-1491714D01*
X1686428Y-1491714D02*
X1686428Y-1291714D01*
X1686428Y-1320286D02*
X1700714Y-1306000D01*
X1729286Y-1291714D01*
X1772143Y-1291714D01*
X1800714Y-1306000D01*
X1815000Y-1334571D01*
X1815000Y-1491714D01*
X1815000Y-1334571D02*
X1829286Y-1306000D01*
X1857857Y-1291714D01*
X1900714Y-1291714D01*
X1929286Y-1306000D01*
X1943571Y-1334571D01*
X1943571Y-1491714D01*
X2529286Y-1177429D02*
X2272143Y-1563143D01*
X2915000Y-1191714D02*
X2943571Y-1191714D01*
X2972143Y-1206000D01*
X2986428Y-1220286D01*
X3000714Y-1248857D01*
X3015000Y-1306000D01*
X3015000Y-1377429D01*
X3000714Y-1434571D01*
X2986428Y-1463143D01*
X2972143Y-1477428D01*
X2943571Y-1491714D01*
X2915000Y-1491714D01*
X2886428Y-1477428D01*
X2872143Y-1463143D01*
X2857857Y-1434571D01*
X2843571Y-1377429D01*
X2843571Y-1306000D01*
X2857857Y-1248857D01*
X2872143Y-1220286D01*
X2886428Y-1206000D01*
X2915000Y-1191714D01*
X3143571Y-1463143D02*
X3157857Y-1477428D01*
X3143571Y-1491714D01*
X3129286Y-1477428D01*
X3143571Y-1463143D01*
X3143571Y-1491714D01*
X3343571Y-1191714D02*
X3372143Y-1191714D01*
X3400714Y-1206000D01*
X3415000Y-1220286D01*
X3429286Y-1248857D01*
X3443571Y-1306000D01*
X3443571Y-1377429D01*
X3429286Y-1434571D01*
X3415000Y-1463143D01*
X3400714Y-1477428D01*
X3372143Y-1491714D01*
X3343571Y-1491714D01*
X3315000Y-1477428D01*
X3300714Y-1463143D01*
X3286428Y-1434571D01*
X3272143Y-1377429D01*
X3272143Y-1306000D01*
X3286428Y-1248857D01*
X3300714Y-1220286D01*
X3315000Y-1206000D01*
X3343571Y-1191714D01*
X3557857Y-1220286D02*
X3572143Y-1206000D01*
X3600714Y-1191714D01*
X3672143Y-1191714D01*
X3700714Y-1206000D01*
X3715000Y-1220286D01*
X3729286Y-1248857D01*
X3729286Y-1277429D01*
X3715000Y-1320286D01*
X3543571Y-1491714D01*
X3729286Y-1491714D01*
X3915000Y-1191714D02*
X3943571Y-1191714D01*
X3972143Y-1206000D01*
X3986428Y-1220286D01*
X4000714Y-1248857D01*
X4015000Y-1306000D01*
X4015000Y-1377429D01*
X4000714Y-1434571D01*
X3986428Y-1463143D01*
X3972143Y-1477428D01*
X3943571Y-1491714D01*
X3915000Y-1491714D01*
X3886428Y-1477428D01*
X3872143Y-1463143D01*
X3857857Y-1434571D01*
X3843571Y-1377429D01*
X3843571Y-1306000D01*
X3857857Y-1248857D01*
X3872143Y-1220286D01*
X3886428Y-1206000D01*
X3915000Y-1191714D01*
X4129286Y-1191714D02*
X4129286Y-1248857D01*
X4243571Y-1191714D02*
X4243571Y-1248857D01*
X4686429Y-1606000D02*
X4672143Y-1591714D01*
X4643571Y-1548857D01*
X4629286Y-1520286D01*
X4615000Y-1477428D01*
X4600714Y-1406000D01*
X4600714Y-1348857D01*
X4615000Y-1277429D01*
X4629286Y-1234571D01*
X4643571Y-1206000D01*
X4672143Y-1163143D01*
X4686429Y-1148857D01*
X4772143Y-1191714D02*
X4957857Y-1191714D01*
X4857857Y-1306000D01*
X4900714Y-1306000D01*
X4929286Y-1320286D01*
X4943571Y-1334571D01*
X4957857Y-1363143D01*
X4957857Y-1434571D01*
X4943571Y-1463143D01*
X4929286Y-1477428D01*
X4900714Y-1491714D01*
X4815000Y-1491714D01*
X4786429Y-1477428D01*
X4772143Y-1463143D01*
X5072143Y-1220286D02*
X5086429Y-1206000D01*
X5115000Y-1191714D01*
X5186429Y-1191714D01*
X5215000Y-1206000D01*
X5229286Y-1220286D01*
X5243571Y-1248857D01*
X5243571Y-1277429D01*
X5229286Y-1320286D01*
X5057857Y-1491714D01*
X5243571Y-1491714D01*
X5600714Y-1491714D02*
X5600714Y-1191714D01*
X5729286Y-1491714D02*
X5729286Y-1334571D01*
X5715000Y-1306000D01*
X5686428Y-1291714D01*
X5643571Y-1291714D01*
X5615000Y-1306000D01*
X5600714Y-1320286D01*
X5915000Y-1491714D02*
X5886428Y-1477428D01*
X5872143Y-1463143D01*
X5857857Y-1434571D01*
X5857857Y-1348857D01*
X5872143Y-1320286D01*
X5886428Y-1306000D01*
X5915000Y-1291714D01*
X5957857Y-1291714D01*
X5986428Y-1306000D01*
X6000714Y-1320286D01*
X6015000Y-1348857D01*
X6015000Y-1434571D01*
X6000714Y-1463143D01*
X5986428Y-1477428D01*
X5957857Y-1491714D01*
X5915000Y-1491714D01*
X6186428Y-1491714D02*
X6157857Y-1477428D01*
X6143571Y-1448857D01*
X6143571Y-1191714D01*
X6415000Y-1477428D02*
X6386428Y-1491714D01*
X6329286Y-1491714D01*
X6300714Y-1477428D01*
X6286428Y-1448857D01*
X6286428Y-1334571D01*
X6300714Y-1306000D01*
X6329286Y-1291714D01*
X6386428Y-1291714D01*
X6415000Y-1306000D01*
X6429286Y-1334571D01*
X6429286Y-1363143D01*
X6286428Y-1391714D01*
X6543571Y-1477428D02*
X6572143Y-1491714D01*
X6629286Y-1491714D01*
X6657857Y-1477428D01*
X6672143Y-1448857D01*
X6672143Y-1434571D01*
X6657857Y-1406000D01*
X6629286Y-1391714D01*
X6586428Y-1391714D01*
X6557857Y-1377429D01*
X6543571Y-1348857D01*
X6543571Y-1334571D01*
X6557857Y-1306000D01*
X6586428Y-1291714D01*
X6629286Y-1291714D01*
X6657857Y-1306000D01*
X6772143Y-1606000D02*
X6786428Y-1591714D01*
X6815000Y-1548857D01*
X6829286Y-1520286D01*
X6843571Y-1477428D01*
X6857857Y-1406000D01*
X6857857Y-1348857D01*
X6843571Y-1277429D01*
X6829286Y-1234571D01*
X6815000Y-1206000D01*
X6786428Y-1163143D01*
X6772143Y-1148857D01*
X-35500Y-1716500D02*
X-35500Y-1787500D01*
X-71000Y-1752000D02*
X0Y-1752000D01*
X343571Y-1587714D02*
X372143Y-1587714D01*
X400714Y-1602000D01*
X415000Y-1616286D01*
X429286Y-1644857D01*
X443571Y-1702000D01*
X443571Y-1773428D01*
X429286Y-1830571D01*
X415000Y-1859143D01*
X400714Y-1873428D01*
X372143Y-1887714D01*
X343571Y-1887714D01*
X315000Y-1873428D01*
X300714Y-1859143D01*
X286429Y-1830571D01*
X272143Y-1773428D01*
X272143Y-1702000D01*
X286429Y-1644857D01*
X300714Y-1616286D01*
X315000Y-1602000D01*
X343571Y-1587714D01*
X572143Y-1859143D02*
X586429Y-1873428D01*
X572143Y-1887714D01*
X557857Y-1873428D01*
X572143Y-1859143D01*
X572143Y-1887714D01*
X686429Y-1587714D02*
X886428Y-1587714D01*
X757857Y-1887714D01*
X1157857Y-1887714D02*
X986428Y-1887714D01*
X1072143Y-1887714D02*
X1072143Y-1587714D01*
X1043571Y-1630571D01*
X1015000Y-1659143D01*
X986428Y-1673428D01*
X1286429Y-1887714D02*
X1286429Y-1687714D01*
X1286429Y-1716286D02*
X1300714Y-1702000D01*
X1329286Y-1687714D01*
X1372143Y-1687714D01*
X1400714Y-1702000D01*
X1415000Y-1730571D01*
X1415000Y-1887714D01*
X1415000Y-1730571D02*
X1429286Y-1702000D01*
X1457857Y-1687714D01*
X1500714Y-1687714D01*
X1529286Y-1702000D01*
X1543571Y-1730571D01*
X1543571Y-1887714D01*
X1686428Y-1887714D02*
X1686428Y-1687714D01*
X1686428Y-1716286D02*
X1700714Y-1702000D01*
X1729286Y-1687714D01*
X1772143Y-1687714D01*
X1800714Y-1702000D01*
X1815000Y-1730571D01*
X1815000Y-1887714D01*
X1815000Y-1730571D02*
X1829286Y-1702000D01*
X1857857Y-1687714D01*
X1900714Y-1687714D01*
X1929286Y-1702000D01*
X1943571Y-1730571D01*
X1943571Y-1887714D01*
X2529286Y-1573428D02*
X2272143Y-1959143D01*
X2915000Y-1587714D02*
X2943571Y-1587714D01*
X2972143Y-1602000D01*
X2986428Y-1616286D01*
X3000714Y-1644857D01*
X3015000Y-1702000D01*
X3015000Y-1773428D01*
X3000714Y-1830571D01*
X2986428Y-1859143D01*
X2972143Y-1873428D01*
X2943571Y-1887714D01*
X2915000Y-1887714D01*
X2886428Y-1873428D01*
X2872143Y-1859143D01*
X2857857Y-1830571D01*
X2843571Y-1773428D01*
X2843571Y-1702000D01*
X2857857Y-1644857D01*
X2872143Y-1616286D01*
X2886428Y-1602000D01*
X2915000Y-1587714D01*
X3143571Y-1859143D02*
X3157857Y-1873428D01*
X3143571Y-1887714D01*
X3129286Y-1873428D01*
X3143571Y-1859143D01*
X3143571Y-1887714D01*
X3343571Y-1587714D02*
X3372143Y-1587714D01*
X3400714Y-1602000D01*
X3415000Y-1616286D01*
X3429286Y-1644857D01*
X3443571Y-1702000D01*
X3443571Y-1773428D01*
X3429286Y-1830571D01*
X3415000Y-1859143D01*
X3400714Y-1873428D01*
X3372143Y-1887714D01*
X3343571Y-1887714D01*
X3315000Y-1873428D01*
X3300714Y-1859143D01*
X3286428Y-1830571D01*
X3272143Y-1773428D01*
X3272143Y-1702000D01*
X3286428Y-1644857D01*
X3300714Y-1616286D01*
X3315000Y-1602000D01*
X3343571Y-1587714D01*
X3557857Y-1616286D02*
X3572143Y-1602000D01*
X3600714Y-1587714D01*
X3672143Y-1587714D01*
X3700714Y-1602000D01*
X3715000Y-1616286D01*
X3729286Y-1644857D01*
X3729286Y-1673428D01*
X3715000Y-1716286D01*
X3543571Y-1887714D01*
X3729286Y-1887714D01*
X3900714Y-1716286D02*
X3872143Y-1702000D01*
X3857857Y-1687714D01*
X3843571Y-1659143D01*
X3843571Y-1644857D01*
X3857857Y-1616286D01*
X3872143Y-1602000D01*
X3900714Y-1587714D01*
X3957857Y-1587714D01*
X3986428Y-1602000D01*
X4000714Y-1616286D01*
X4015000Y-1644857D01*
X4015000Y-1659143D01*
X4000714Y-1687714D01*
X3986428Y-1702000D01*
X3957857Y-1716286D01*
X3900714Y-1716286D01*
X3872143Y-1730571D01*
X3857857Y-1744857D01*
X3843571Y-1773428D01*
X3843571Y-1830571D01*
X3857857Y-1859143D01*
X3872143Y-1873428D01*
X3900714Y-1887714D01*
X3957857Y-1887714D01*
X3986428Y-1873428D01*
X4000714Y-1859143D01*
X4015000Y-1830571D01*
X4015000Y-1773428D01*
X4000714Y-1744857D01*
X3986428Y-1730571D01*
X3957857Y-1716286D01*
X4129286Y-1587714D02*
X4129286Y-1644857D01*
X4243571Y-1587714D02*
X4243571Y-1644857D01*
X4686429Y-2002000D02*
X4672143Y-1987714D01*
X4643571Y-1944857D01*
X4629286Y-1916286D01*
X4615000Y-1873428D01*
X4600714Y-1802000D01*
X4600714Y-1744857D01*
X4615000Y-1673428D01*
X4629286Y-1630571D01*
X4643571Y-1602000D01*
X4672143Y-1559143D01*
X4686429Y-1544857D01*
X4957857Y-1887714D02*
X4786429Y-1887714D01*
X4872143Y-1887714D02*
X4872143Y-1587714D01*
X4843571Y-1630571D01*
X4815000Y-1659143D01*
X4786429Y-1673428D01*
X5072143Y-1616286D02*
X5086429Y-1602000D01*
X5115000Y-1587714D01*
X5186429Y-1587714D01*
X5215000Y-1602000D01*
X5229286Y-1616286D01*
X5243571Y-1644857D01*
X5243571Y-1673428D01*
X5229286Y-1716286D01*
X5057857Y-1887714D01*
X5243571Y-1887714D01*
X5600714Y-1887714D02*
X5600714Y-1587714D01*
X5729286Y-1887714D02*
X5729286Y-1730571D01*
X5715000Y-1702000D01*
X5686428Y-1687714D01*
X5643571Y-1687714D01*
X5615000Y-1702000D01*
X5600714Y-1716286D01*
X5915000Y-1887714D02*
X5886428Y-1873428D01*
X5872143Y-1859143D01*
X5857857Y-1830571D01*
X5857857Y-1744857D01*
X5872143Y-1716286D01*
X5886428Y-1702000D01*
X5915000Y-1687714D01*
X5957857Y-1687714D01*
X5986428Y-1702000D01*
X6000714Y-1716286D01*
X6015000Y-1744857D01*
X6015000Y-1830571D01*
X6000714Y-1859143D01*
X5986428Y-1873428D01*
X5957857Y-1887714D01*
X5915000Y-1887714D01*
X6186428Y-1887714D02*
X6157857Y-1873428D01*
X6143571Y-1844857D01*
X6143571Y-1587714D01*
X6415000Y-1873428D02*
X6386428Y-1887714D01*
X6329286Y-1887714D01*
X6300714Y-1873428D01*
X6286428Y-1844857D01*
X6286428Y-1730571D01*
X6300714Y-1702000D01*
X6329286Y-1687714D01*
X6386428Y-1687714D01*
X6415000Y-1702000D01*
X6429286Y-1730571D01*
X6429286Y-1759143D01*
X6286428Y-1787714D01*
X6543571Y-1873428D02*
X6572143Y-1887714D01*
X6629286Y-1887714D01*
X6657857Y-1873428D01*
X6672143Y-1844857D01*
X6672143Y-1830571D01*
X6657857Y-1802000D01*
X6629286Y-1787714D01*
X6586428Y-1787714D01*
X6557857Y-1773428D01*
X6543571Y-1744857D01*
X6543571Y-1730571D01*
X6557857Y-1702000D01*
X6586428Y-1687714D01*
X6629286Y-1687714D01*
X6657857Y-1702000D01*
X6772143Y-2002000D02*
X6786428Y-1987714D01*
X6815000Y-1944857D01*
X6829286Y-1916286D01*
X6843571Y-1873428D01*
X6857857Y-1802000D01*
X6857857Y-1744857D01*
X6843571Y-1673428D01*
X6829286Y-1630571D01*
X6815000Y-1602000D01*
X6786428Y-1559143D01*
X6772143Y-1544857D01*
X-11159Y-2174941D02*
X-11159Y-2121059D01*
X-65041Y-2121059D01*
X-65041Y-2174941D01*
X-11159Y-2174941D01*
X343571Y-1983714D02*
X372143Y-1983714D01*
X400714Y-1998000D01*
X415000Y-2012286D01*
X429286Y-2040857D01*
X443571Y-2098000D01*
X443571Y-2169429D01*
X429286Y-2226571D01*
X415000Y-2255143D01*
X400714Y-2269429D01*
X372143Y-2283714D01*
X343571Y-2283714D01*
X315000Y-2269429D01*
X300714Y-2255143D01*
X286429Y-2226571D01*
X272143Y-2169429D01*
X272143Y-2098000D01*
X286429Y-2040857D01*
X300714Y-2012286D01*
X315000Y-1998000D01*
X343571Y-1983714D01*
X572143Y-2255143D02*
X586429Y-2269429D01*
X572143Y-2283714D01*
X557857Y-2269429D01*
X572143Y-2255143D01*
X572143Y-2283714D01*
X686429Y-1983714D02*
X886428Y-1983714D01*
X757857Y-2283714D01*
X1129286Y-1983714D02*
X1072143Y-1983714D01*
X1043571Y-1998000D01*
X1029286Y-2012286D01*
X1000714Y-2055143D01*
X986428Y-2112286D01*
X986428Y-2226571D01*
X1000714Y-2255143D01*
X1015000Y-2269429D01*
X1043571Y-2283714D01*
X1100714Y-2283714D01*
X1129286Y-2269429D01*
X1143571Y-2255143D01*
X1157857Y-2226571D01*
X1157857Y-2155143D01*
X1143571Y-2126571D01*
X1129286Y-2112286D01*
X1100714Y-2098000D01*
X1043571Y-2098000D01*
X1015000Y-2112286D01*
X1000714Y-2126571D01*
X986428Y-2155143D01*
X1286429Y-2283714D02*
X1286429Y-2083714D01*
X1286429Y-2112286D02*
X1300714Y-2098000D01*
X1329286Y-2083714D01*
X1372143Y-2083714D01*
X1400714Y-2098000D01*
X1415000Y-2126571D01*
X1415000Y-2283714D01*
X1415000Y-2126571D02*
X1429286Y-2098000D01*
X1457857Y-2083714D01*
X1500714Y-2083714D01*
X1529286Y-2098000D01*
X1543571Y-2126571D01*
X1543571Y-2283714D01*
X1686428Y-2283714D02*
X1686428Y-2083714D01*
X1686428Y-2112286D02*
X1700714Y-2098000D01*
X1729286Y-2083714D01*
X1772143Y-2083714D01*
X1800714Y-2098000D01*
X1815000Y-2126571D01*
X1815000Y-2283714D01*
X1815000Y-2126571D02*
X1829286Y-2098000D01*
X1857857Y-2083714D01*
X1900714Y-2083714D01*
X1929286Y-2098000D01*
X1943571Y-2126571D01*
X1943571Y-2283714D01*
X2529286Y-1969428D02*
X2272143Y-2355143D01*
X2915000Y-1983714D02*
X2943571Y-1983714D01*
X2972143Y-1998000D01*
X2986428Y-2012286D01*
X3000714Y-2040857D01*
X3015000Y-2098000D01*
X3015000Y-2169429D01*
X3000714Y-2226571D01*
X2986428Y-2255143D01*
X2972143Y-2269429D01*
X2943571Y-2283714D01*
X2915000Y-2283714D01*
X2886428Y-2269429D01*
X2872143Y-2255143D01*
X2857857Y-2226571D01*
X2843571Y-2169429D01*
X2843571Y-2098000D01*
X2857857Y-2040857D01*
X2872143Y-2012286D01*
X2886428Y-1998000D01*
X2915000Y-1983714D01*
X3143571Y-2255143D02*
X3157857Y-2269429D01*
X3143571Y-2283714D01*
X3129286Y-2269429D01*
X3143571Y-2255143D01*
X3143571Y-2283714D01*
X3343571Y-1983714D02*
X3372143Y-1983714D01*
X3400714Y-1998000D01*
X3415000Y-2012286D01*
X3429286Y-2040857D01*
X3443571Y-2098000D01*
X3443571Y-2169429D01*
X3429286Y-2226571D01*
X3415000Y-2255143D01*
X3400714Y-2269429D01*
X3372143Y-2283714D01*
X3343571Y-2283714D01*
X3315000Y-2269429D01*
X3300714Y-2255143D01*
X3286428Y-2226571D01*
X3272143Y-2169429D01*
X3272143Y-2098000D01*
X3286428Y-2040857D01*
X3300714Y-2012286D01*
X3315000Y-1998000D01*
X3343571Y-1983714D01*
X3543571Y-1983714D02*
X3729286Y-1983714D01*
X3629286Y-2098000D01*
X3672143Y-2098000D01*
X3700714Y-2112286D01*
X3715000Y-2126571D01*
X3729286Y-2155143D01*
X3729286Y-2226571D01*
X3715000Y-2255143D01*
X3700714Y-2269429D01*
X3672143Y-2283714D01*
X3586428Y-2283714D01*
X3557857Y-2269429D01*
X3543571Y-2255143D01*
X3915000Y-1983714D02*
X3943571Y-1983714D01*
X3972143Y-1998000D01*
X3986428Y-2012286D01*
X4000714Y-2040857D01*
X4015000Y-2098000D01*
X4015000Y-2169429D01*
X4000714Y-2226571D01*
X3986428Y-2255143D01*
X3972143Y-2269429D01*
X3943571Y-2283714D01*
X3915000Y-2283714D01*
X3886428Y-2269429D01*
X3872143Y-2255143D01*
X3857857Y-2226571D01*
X3843571Y-2169429D01*
X3843571Y-2098000D01*
X3857857Y-2040857D01*
X3872143Y-2012286D01*
X3886428Y-1998000D01*
X3915000Y-1983714D01*
X4129286Y-1983714D02*
X4129286Y-2040857D01*
X4243571Y-1983714D02*
X4243571Y-2040857D01*
X4686429Y-2398000D02*
X4672143Y-2383714D01*
X4643571Y-2340857D01*
X4629286Y-2312286D01*
X4615000Y-2269429D01*
X4600714Y-2198000D01*
X4600714Y-2140857D01*
X4615000Y-2069428D01*
X4629286Y-2026571D01*
X4643571Y-1998000D01*
X4672143Y-1955143D01*
X4686429Y-1940857D01*
X4957857Y-2283714D02*
X4786429Y-2283714D01*
X4872143Y-2283714D02*
X4872143Y-1983714D01*
X4843571Y-2026571D01*
X4815000Y-2055143D01*
X4786429Y-2069428D01*
X5072143Y-2012286D02*
X5086429Y-1998000D01*
X5115000Y-1983714D01*
X5186429Y-1983714D01*
X5215000Y-1998000D01*
X5229286Y-2012286D01*
X5243571Y-2040857D01*
X5243571Y-2069428D01*
X5229286Y-2112286D01*
X5057857Y-2283714D01*
X5243571Y-2283714D01*
X5600714Y-2283714D02*
X5600714Y-1983714D01*
X5729286Y-2283714D02*
X5729286Y-2126571D01*
X5715000Y-2098000D01*
X5686428Y-2083714D01*
X5643571Y-2083714D01*
X5615000Y-2098000D01*
X5600714Y-2112286D01*
X5915000Y-2283714D02*
X5886428Y-2269429D01*
X5872143Y-2255143D01*
X5857857Y-2226571D01*
X5857857Y-2140857D01*
X5872143Y-2112286D01*
X5886428Y-2098000D01*
X5915000Y-2083714D01*
X5957857Y-2083714D01*
X5986428Y-2098000D01*
X6000714Y-2112286D01*
X6015000Y-2140857D01*
X6015000Y-2226571D01*
X6000714Y-2255143D01*
X5986428Y-2269429D01*
X5957857Y-2283714D01*
X5915000Y-2283714D01*
X6186428Y-2283714D02*
X6157857Y-2269429D01*
X6143571Y-2240857D01*
X6143571Y-1983714D01*
X6415000Y-2269429D02*
X6386428Y-2283714D01*
X6329286Y-2283714D01*
X6300714Y-2269429D01*
X6286428Y-2240857D01*
X6286428Y-2126571D01*
X6300714Y-2098000D01*
X6329286Y-2083714D01*
X6386428Y-2083714D01*
X6415000Y-2098000D01*
X6429286Y-2126571D01*
X6429286Y-2155143D01*
X6286428Y-2183714D01*
X6543571Y-2269429D02*
X6572143Y-2283714D01*
X6629286Y-2283714D01*
X6657857Y-2269429D01*
X6672143Y-2240857D01*
X6672143Y-2226571D01*
X6657857Y-2198000D01*
X6629286Y-2183714D01*
X6586428Y-2183714D01*
X6557857Y-2169429D01*
X6543571Y-2140857D01*
X6543571Y-2126571D01*
X6557857Y-2098000D01*
X6586428Y-2083714D01*
X6629286Y-2083714D01*
X6657857Y-2098000D01*
X6772143Y-2398000D02*
X6786428Y-2383714D01*
X6815000Y-2340857D01*
X6829286Y-2312286D01*
X6843571Y-2269429D01*
X6857857Y-2198000D01*
X6857857Y-2140857D01*
X6843571Y-2069428D01*
X6829286Y-2026571D01*
X6815000Y-1998000D01*
X6786428Y-1955143D01*
X6772143Y-1940857D01*
X-40000Y-2584000D02*
X0Y-2544000D01*
X-40000Y-2504000D01*
X-80000Y-2544000D01*
X-40000Y-2584000D01*
X343571Y-2379714D02*
X372143Y-2379714D01*
X400714Y-2394000D01*
X415000Y-2408286D01*
X429286Y-2436857D01*
X443571Y-2494000D01*
X443571Y-2565429D01*
X429286Y-2622571D01*
X415000Y-2651143D01*
X400714Y-2665429D01*
X372143Y-2679714D01*
X343571Y-2679714D01*
X315000Y-2665429D01*
X300714Y-2651143D01*
X286429Y-2622571D01*
X272143Y-2565429D01*
X272143Y-2494000D01*
X286429Y-2436857D01*
X300714Y-2408286D01*
X315000Y-2394000D01*
X343571Y-2379714D01*
X572143Y-2651143D02*
X586429Y-2665429D01*
X572143Y-2679714D01*
X557857Y-2665429D01*
X572143Y-2651143D01*
X572143Y-2679714D01*
X757857Y-2508286D02*
X729286Y-2494000D01*
X715000Y-2479714D01*
X700714Y-2451143D01*
X700714Y-2436857D01*
X715000Y-2408286D01*
X729286Y-2394000D01*
X757857Y-2379714D01*
X815000Y-2379714D01*
X843571Y-2394000D01*
X857857Y-2408286D01*
X872143Y-2436857D01*
X872143Y-2451143D01*
X857857Y-2479714D01*
X843571Y-2494000D01*
X815000Y-2508286D01*
X757857Y-2508286D01*
X729286Y-2522571D01*
X715000Y-2536857D01*
X700714Y-2565429D01*
X700714Y-2622571D01*
X715000Y-2651143D01*
X729286Y-2665429D01*
X757857Y-2679714D01*
X815000Y-2679714D01*
X843571Y-2665429D01*
X857857Y-2651143D01*
X872143Y-2622571D01*
X872143Y-2565429D01*
X857857Y-2536857D01*
X843571Y-2522571D01*
X815000Y-2508286D01*
X1057857Y-2379714D02*
X1086429Y-2379714D01*
X1115000Y-2394000D01*
X1129286Y-2408286D01*
X1143571Y-2436857D01*
X1157857Y-2494000D01*
X1157857Y-2565429D01*
X1143571Y-2622571D01*
X1129286Y-2651143D01*
X1115000Y-2665429D01*
X1086429Y-2679714D01*
X1057857Y-2679714D01*
X1029286Y-2665429D01*
X1015000Y-2651143D01*
X1000714Y-2622571D01*
X986428Y-2565429D01*
X986428Y-2494000D01*
X1000714Y-2436857D01*
X1015000Y-2408286D01*
X1029286Y-2394000D01*
X1057857Y-2379714D01*
X1286429Y-2679714D02*
X1286429Y-2479714D01*
X1286429Y-2508286D02*
X1300714Y-2494000D01*
X1329286Y-2479714D01*
X1372143Y-2479714D01*
X1400714Y-2494000D01*
X1415000Y-2522571D01*
X1415000Y-2679714D01*
X1415000Y-2522571D02*
X1429286Y-2494000D01*
X1457857Y-2479714D01*
X1500714Y-2479714D01*
X1529286Y-2494000D01*
X1543571Y-2522571D01*
X1543571Y-2679714D01*
X1686428Y-2679714D02*
X1686428Y-2479714D01*
X1686428Y-2508286D02*
X1700714Y-2494000D01*
X1729286Y-2479714D01*
X1772143Y-2479714D01*
X1800714Y-2494000D01*
X1815000Y-2522571D01*
X1815000Y-2679714D01*
X1815000Y-2522571D02*
X1829286Y-2494000D01*
X1857857Y-2479714D01*
X1900714Y-2479714D01*
X1929286Y-2494000D01*
X1943571Y-2522571D01*
X1943571Y-2679714D01*
X2529286Y-2365429D02*
X2272143Y-2751143D01*
X2915000Y-2379714D02*
X2943571Y-2379714D01*
X2972143Y-2394000D01*
X2986428Y-2408286D01*
X3000714Y-2436857D01*
X3015000Y-2494000D01*
X3015000Y-2565429D01*
X3000714Y-2622571D01*
X2986428Y-2651143D01*
X2972143Y-2665429D01*
X2943571Y-2679714D01*
X2915000Y-2679714D01*
X2886428Y-2665429D01*
X2872143Y-2651143D01*
X2857857Y-2622571D01*
X2843571Y-2565429D01*
X2843571Y-2494000D01*
X2857857Y-2436857D01*
X2872143Y-2408286D01*
X2886428Y-2394000D01*
X2915000Y-2379714D01*
X3143571Y-2651143D02*
X3157857Y-2665429D01*
X3143571Y-2679714D01*
X3129286Y-2665429D01*
X3143571Y-2651143D01*
X3143571Y-2679714D01*
X3343571Y-2379714D02*
X3372143Y-2379714D01*
X3400714Y-2394000D01*
X3415000Y-2408286D01*
X3429286Y-2436857D01*
X3443571Y-2494000D01*
X3443571Y-2565429D01*
X3429286Y-2622571D01*
X3415000Y-2651143D01*
X3400714Y-2665429D01*
X3372143Y-2679714D01*
X3343571Y-2679714D01*
X3315000Y-2665429D01*
X3300714Y-2651143D01*
X3286428Y-2622571D01*
X3272143Y-2565429D01*
X3272143Y-2494000D01*
X3286428Y-2436857D01*
X3300714Y-2408286D01*
X3315000Y-2394000D01*
X3343571Y-2379714D01*
X3543571Y-2379714D02*
X3729286Y-2379714D01*
X3629286Y-2494000D01*
X3672143Y-2494000D01*
X3700714Y-2508286D01*
X3715000Y-2522571D01*
X3729286Y-2551143D01*
X3729286Y-2622571D01*
X3715000Y-2651143D01*
X3700714Y-2665429D01*
X3672143Y-2679714D01*
X3586428Y-2679714D01*
X3557857Y-2665429D01*
X3543571Y-2651143D01*
X4015000Y-2679714D02*
X3843571Y-2679714D01*
X3929286Y-2679714D02*
X3929286Y-2379714D01*
X3900714Y-2422571D01*
X3872143Y-2451143D01*
X3843571Y-2465429D01*
X4129286Y-2379714D02*
X4129286Y-2436857D01*
X4243571Y-2379714D02*
X4243571Y-2436857D01*
X4686429Y-2794000D02*
X4672143Y-2779714D01*
X4643571Y-2736857D01*
X4629286Y-2708286D01*
X4615000Y-2665429D01*
X4600714Y-2594000D01*
X4600714Y-2536857D01*
X4615000Y-2465429D01*
X4629286Y-2422571D01*
X4643571Y-2394000D01*
X4672143Y-2351143D01*
X4686429Y-2336857D01*
X4957857Y-2679714D02*
X4786429Y-2679714D01*
X4872143Y-2679714D02*
X4872143Y-2379714D01*
X4843571Y-2422571D01*
X4815000Y-2451143D01*
X4786429Y-2465429D01*
X5100714Y-2679714D02*
X5157857Y-2679714D01*
X5186429Y-2665429D01*
X5200714Y-2651143D01*
X5229286Y-2608286D01*
X5243571Y-2551143D01*
X5243571Y-2436857D01*
X5229286Y-2408286D01*
X5215000Y-2394000D01*
X5186429Y-2379714D01*
X5129286Y-2379714D01*
X5100714Y-2394000D01*
X5086429Y-2408286D01*
X5072143Y-2436857D01*
X5072143Y-2508286D01*
X5086429Y-2536857D01*
X5100714Y-2551143D01*
X5129286Y-2565429D01*
X5186429Y-2565429D01*
X5215000Y-2551143D01*
X5229286Y-2536857D01*
X5243571Y-2508286D01*
X5600714Y-2679714D02*
X5600714Y-2379714D01*
X5729286Y-2679714D02*
X5729286Y-2522571D01*
X5715000Y-2494000D01*
X5686428Y-2479714D01*
X5643571Y-2479714D01*
X5615000Y-2494000D01*
X5600714Y-2508286D01*
X5915000Y-2679714D02*
X5886428Y-2665429D01*
X5872143Y-2651143D01*
X5857857Y-2622571D01*
X5857857Y-2536857D01*
X5872143Y-2508286D01*
X5886428Y-2494000D01*
X5915000Y-2479714D01*
X5957857Y-2479714D01*
X5986428Y-2494000D01*
X6000714Y-2508286D01*
X6015000Y-2536857D01*
X6015000Y-2622571D01*
X6000714Y-2651143D01*
X5986428Y-2665429D01*
X5957857Y-2679714D01*
X5915000Y-2679714D01*
X6186428Y-2679714D02*
X6157857Y-2665429D01*
X6143571Y-2636857D01*
X6143571Y-2379714D01*
X6415000Y-2665429D02*
X6386428Y-2679714D01*
X6329286Y-2679714D01*
X6300714Y-2665429D01*
X6286428Y-2636857D01*
X6286428Y-2522571D01*
X6300714Y-2494000D01*
X6329286Y-2479714D01*
X6386428Y-2479714D01*
X6415000Y-2494000D01*
X6429286Y-2522571D01*
X6429286Y-2551143D01*
X6286428Y-2579714D01*
X6543571Y-2665429D02*
X6572143Y-2679714D01*
X6629286Y-2679714D01*
X6657857Y-2665429D01*
X6672143Y-2636857D01*
X6672143Y-2622571D01*
X6657857Y-2594000D01*
X6629286Y-2579714D01*
X6586428Y-2579714D01*
X6557857Y-2565429D01*
X6543571Y-2536857D01*
X6543571Y-2522571D01*
X6557857Y-2494000D01*
X6586428Y-2479714D01*
X6629286Y-2479714D01*
X6657857Y-2494000D01*
X6772143Y-2794000D02*
X6786428Y-2779714D01*
X6815000Y-2736857D01*
X6829286Y-2708286D01*
X6843571Y-2665429D01*
X6857857Y-2594000D01*
X6857857Y-2536857D01*
X6843571Y-2465429D01*
X6829286Y-2422571D01*
X6815000Y-2394000D01*
X6786428Y-2351143D01*
X6772143Y-2336857D01*
X-100000Y-2890000D02*
X0Y-2990000D01*
X0Y-2890000D02*
X-100000Y-2990000D01*
X0Y-2940000D02*
G75*
G03*
X0Y-2940000I-50000J0D01*
G01*
X443571Y-3075714D02*
X272143Y-3075714D01*
X357857Y-3075714D02*
X357857Y-2775714D01*
X329286Y-2818571D01*
X300714Y-2847143D01*
X272143Y-2861428D01*
X572143Y-3047143D02*
X586429Y-3061428D01*
X572143Y-3075714D01*
X557857Y-3061428D01*
X572143Y-3047143D01*
X572143Y-3075714D01*
X772143Y-2775714D02*
X800714Y-2775714D01*
X829286Y-2790000D01*
X843571Y-2804286D01*
X857857Y-2832857D01*
X872143Y-2890000D01*
X872143Y-2961428D01*
X857857Y-3018571D01*
X843571Y-3047143D01*
X829286Y-3061428D01*
X800714Y-3075714D01*
X772143Y-3075714D01*
X743571Y-3061428D01*
X729286Y-3047143D01*
X715000Y-3018571D01*
X700714Y-2961428D01*
X700714Y-2890000D01*
X715000Y-2832857D01*
X729286Y-2804286D01*
X743571Y-2790000D01*
X772143Y-2775714D01*
X1057857Y-2775714D02*
X1086429Y-2775714D01*
X1115000Y-2790000D01*
X1129286Y-2804286D01*
X1143571Y-2832857D01*
X1157857Y-2890000D01*
X1157857Y-2961428D01*
X1143571Y-3018571D01*
X1129286Y-3047143D01*
X1115000Y-3061428D01*
X1086429Y-3075714D01*
X1057857Y-3075714D01*
X1029286Y-3061428D01*
X1015000Y-3047143D01*
X1000714Y-3018571D01*
X986428Y-2961428D01*
X986428Y-2890000D01*
X1000714Y-2832857D01*
X1015000Y-2804286D01*
X1029286Y-2790000D01*
X1057857Y-2775714D01*
X1286429Y-3075714D02*
X1286429Y-2875714D01*
X1286429Y-2904286D02*
X1300714Y-2890000D01*
X1329286Y-2875714D01*
X1372143Y-2875714D01*
X1400714Y-2890000D01*
X1415000Y-2918571D01*
X1415000Y-3075714D01*
X1415000Y-2918571D02*
X1429286Y-2890000D01*
X1457857Y-2875714D01*
X1500714Y-2875714D01*
X1529286Y-2890000D01*
X1543571Y-2918571D01*
X1543571Y-3075714D01*
X1686428Y-3075714D02*
X1686428Y-2875714D01*
X1686428Y-2904286D02*
X1700714Y-2890000D01*
X1729286Y-2875714D01*
X1772143Y-2875714D01*
X1800714Y-2890000D01*
X1815000Y-2918571D01*
X1815000Y-3075714D01*
X1815000Y-2918571D02*
X1829286Y-2890000D01*
X1857857Y-2875714D01*
X1900714Y-2875714D01*
X1929286Y-2890000D01*
X1943571Y-2918571D01*
X1943571Y-3075714D01*
X2529286Y-2761429D02*
X2272143Y-3147143D01*
X2915000Y-2775714D02*
X2943571Y-2775714D01*
X2972143Y-2790000D01*
X2986428Y-2804286D01*
X3000714Y-2832857D01*
X3015000Y-2890000D01*
X3015000Y-2961428D01*
X3000714Y-3018571D01*
X2986428Y-3047143D01*
X2972143Y-3061428D01*
X2943571Y-3075714D01*
X2915000Y-3075714D01*
X2886428Y-3061428D01*
X2872143Y-3047143D01*
X2857857Y-3018571D01*
X2843571Y-2961428D01*
X2843571Y-2890000D01*
X2857857Y-2832857D01*
X2872143Y-2804286D01*
X2886428Y-2790000D01*
X2915000Y-2775714D01*
X3143571Y-3047143D02*
X3157857Y-3061428D01*
X3143571Y-3075714D01*
X3129286Y-3061428D01*
X3143571Y-3047143D01*
X3143571Y-3075714D01*
X3343571Y-2775714D02*
X3372143Y-2775714D01*
X3400714Y-2790000D01*
X3415000Y-2804286D01*
X3429286Y-2832857D01*
X3443571Y-2890000D01*
X3443571Y-2961428D01*
X3429286Y-3018571D01*
X3415000Y-3047143D01*
X3400714Y-3061428D01*
X3372143Y-3075714D01*
X3343571Y-3075714D01*
X3315000Y-3061428D01*
X3300714Y-3047143D01*
X3286428Y-3018571D01*
X3272143Y-2961428D01*
X3272143Y-2890000D01*
X3286428Y-2832857D01*
X3300714Y-2804286D01*
X3315000Y-2790000D01*
X3343571Y-2775714D01*
X3543571Y-2775714D02*
X3729286Y-2775714D01*
X3629286Y-2890000D01*
X3672143Y-2890000D01*
X3700714Y-2904286D01*
X3715000Y-2918571D01*
X3729286Y-2947143D01*
X3729286Y-3018571D01*
X3715000Y-3047143D01*
X3700714Y-3061428D01*
X3672143Y-3075714D01*
X3586428Y-3075714D01*
X3557857Y-3061428D01*
X3543571Y-3047143D01*
X3872143Y-3075714D02*
X3929286Y-3075714D01*
X3957857Y-3061428D01*
X3972143Y-3047143D01*
X4000714Y-3004286D01*
X4015000Y-2947143D01*
X4015000Y-2832857D01*
X4000714Y-2804286D01*
X3986428Y-2790000D01*
X3957857Y-2775714D01*
X3900714Y-2775714D01*
X3872143Y-2790000D01*
X3857857Y-2804286D01*
X3843571Y-2832857D01*
X3843571Y-2904286D01*
X3857857Y-2932857D01*
X3872143Y-2947143D01*
X3900714Y-2961428D01*
X3957857Y-2961428D01*
X3986428Y-2947143D01*
X4000714Y-2932857D01*
X4015000Y-2904286D01*
X4129286Y-2775714D02*
X4129286Y-2832857D01*
X4243571Y-2775714D02*
X4243571Y-2832857D01*
X4686429Y-3190000D02*
X4672143Y-3175714D01*
X4643571Y-3132857D01*
X4629286Y-3104286D01*
X4615000Y-3061428D01*
X4600714Y-2990000D01*
X4600714Y-2932857D01*
X4615000Y-2861428D01*
X4629286Y-2818571D01*
X4643571Y-2790000D01*
X4672143Y-2747143D01*
X4686429Y-2732857D01*
X4772143Y-2775714D02*
X4957857Y-2775714D01*
X4857857Y-2890000D01*
X4900714Y-2890000D01*
X4929286Y-2904286D01*
X4943571Y-2918571D01*
X4957857Y-2947143D01*
X4957857Y-3018571D01*
X4943571Y-3047143D01*
X4929286Y-3061428D01*
X4900714Y-3075714D01*
X4815000Y-3075714D01*
X4786429Y-3061428D01*
X4772143Y-3047143D01*
X5143571Y-2775714D02*
X5172143Y-2775714D01*
X5200714Y-2790000D01*
X5215000Y-2804286D01*
X5229286Y-2832857D01*
X5243571Y-2890000D01*
X5243571Y-2961428D01*
X5229286Y-3018571D01*
X5215000Y-3047143D01*
X5200714Y-3061428D01*
X5172143Y-3075714D01*
X5143571Y-3075714D01*
X5115000Y-3061428D01*
X5100714Y-3047143D01*
X5086429Y-3018571D01*
X5072143Y-2961428D01*
X5072143Y-2890000D01*
X5086429Y-2832857D01*
X5100714Y-2804286D01*
X5115000Y-2790000D01*
X5143571Y-2775714D01*
X5600714Y-3075714D02*
X5600714Y-2775714D01*
X5729286Y-3075714D02*
X5729286Y-2918571D01*
X5715000Y-2890000D01*
X5686428Y-2875714D01*
X5643571Y-2875714D01*
X5615000Y-2890000D01*
X5600714Y-2904286D01*
X5915000Y-3075714D02*
X5886428Y-3061428D01*
X5872143Y-3047143D01*
X5857857Y-3018571D01*
X5857857Y-2932857D01*
X5872143Y-2904286D01*
X5886428Y-2890000D01*
X5915000Y-2875714D01*
X5957857Y-2875714D01*
X5986428Y-2890000D01*
X6000714Y-2904286D01*
X6015000Y-2932857D01*
X6015000Y-3018571D01*
X6000714Y-3047143D01*
X5986428Y-3061428D01*
X5957857Y-3075714D01*
X5915000Y-3075714D01*
X6186428Y-3075714D02*
X6157857Y-3061428D01*
X6143571Y-3032857D01*
X6143571Y-2775714D01*
X6415000Y-3061428D02*
X6386428Y-3075714D01*
X6329286Y-3075714D01*
X6300714Y-3061428D01*
X6286428Y-3032857D01*
X6286428Y-2918571D01*
X6300714Y-2890000D01*
X6329286Y-2875714D01*
X6386428Y-2875714D01*
X6415000Y-2890000D01*
X6429286Y-2918571D01*
X6429286Y-2947143D01*
X6286428Y-2975714D01*
X6543571Y-3061428D02*
X6572143Y-3075714D01*
X6629286Y-3075714D01*
X6657857Y-3061428D01*
X6672143Y-3032857D01*
X6672143Y-3018571D01*
X6657857Y-2990000D01*
X6629286Y-2975714D01*
X6586428Y-2975714D01*
X6557857Y-2961428D01*
X6543571Y-2932857D01*
X6543571Y-2918571D01*
X6557857Y-2890000D01*
X6586428Y-2875714D01*
X6629286Y-2875714D01*
X6657857Y-2890000D01*
X6772143Y-3190000D02*
X6786428Y-3175714D01*
X6815000Y-3132857D01*
X6829286Y-3104286D01*
X6843571Y-3061428D01*
X6857857Y-2990000D01*
X6857857Y-2932857D01*
X6843571Y-2861428D01*
X6829286Y-2818571D01*
X6815000Y-2790000D01*
X6786428Y-2747143D01*
X6772143Y-2732857D01*
X-110000Y-3281000D02*
X0Y-3391000D01*
X0Y-3281000D02*
X-110000Y-3391000D01*
X-55000Y-3281000D02*
X-55000Y-3391000D01*
X-110000Y-3336000D02*
X0Y-3336000D01*
X443571Y-3471714D02*
X272143Y-3471714D01*
X357857Y-3471714D02*
X357857Y-3171714D01*
X329286Y-3214571D01*
X300714Y-3243143D01*
X272143Y-3257428D01*
X572143Y-3443143D02*
X586429Y-3457428D01*
X572143Y-3471714D01*
X557857Y-3457428D01*
X572143Y-3443143D01*
X572143Y-3471714D01*
X872143Y-3471714D02*
X700714Y-3471714D01*
X786428Y-3471714D02*
X786428Y-3171714D01*
X757857Y-3214571D01*
X729286Y-3243143D01*
X700714Y-3257428D01*
X1057857Y-3171714D02*
X1086429Y-3171714D01*
X1115000Y-3186000D01*
X1129286Y-3200286D01*
X1143571Y-3228857D01*
X1157857Y-3286000D01*
X1157857Y-3357428D01*
X1143571Y-3414571D01*
X1129286Y-3443143D01*
X1115000Y-3457428D01*
X1086429Y-3471714D01*
X1057857Y-3471714D01*
X1029286Y-3457428D01*
X1015000Y-3443143D01*
X1000714Y-3414571D01*
X986428Y-3357428D01*
X986428Y-3286000D01*
X1000714Y-3228857D01*
X1015000Y-3200286D01*
X1029286Y-3186000D01*
X1057857Y-3171714D01*
X1286429Y-3471714D02*
X1286429Y-3271714D01*
X1286429Y-3300286D02*
X1300714Y-3286000D01*
X1329286Y-3271714D01*
X1372143Y-3271714D01*
X1400714Y-3286000D01*
X1415000Y-3314571D01*
X1415000Y-3471714D01*
X1415000Y-3314571D02*
X1429286Y-3286000D01*
X1457857Y-3271714D01*
X1500714Y-3271714D01*
X1529286Y-3286000D01*
X1543571Y-3314571D01*
X1543571Y-3471714D01*
X1686428Y-3471714D02*
X1686428Y-3271714D01*
X1686428Y-3300286D02*
X1700714Y-3286000D01*
X1729286Y-3271714D01*
X1772143Y-3271714D01*
X1800714Y-3286000D01*
X1815000Y-3314571D01*
X1815000Y-3471714D01*
X1815000Y-3314571D02*
X1829286Y-3286000D01*
X1857857Y-3271714D01*
X1900714Y-3271714D01*
X1929286Y-3286000D01*
X1943571Y-3314571D01*
X1943571Y-3471714D01*
X2529286Y-3157428D02*
X2272143Y-3543143D01*
X2915000Y-3171714D02*
X2943571Y-3171714D01*
X2972143Y-3186000D01*
X2986428Y-3200286D01*
X3000714Y-3228857D01*
X3015000Y-3286000D01*
X3015000Y-3357428D01*
X3000714Y-3414571D01*
X2986428Y-3443143D01*
X2972143Y-3457428D01*
X2943571Y-3471714D01*
X2915000Y-3471714D01*
X2886428Y-3457428D01*
X2872143Y-3443143D01*
X2857857Y-3414571D01*
X2843571Y-3357428D01*
X2843571Y-3286000D01*
X2857857Y-3228857D01*
X2872143Y-3200286D01*
X2886428Y-3186000D01*
X2915000Y-3171714D01*
X3143571Y-3443143D02*
X3157857Y-3457428D01*
X3143571Y-3471714D01*
X3129286Y-3457428D01*
X3143571Y-3443143D01*
X3143571Y-3471714D01*
X3343571Y-3171714D02*
X3372143Y-3171714D01*
X3400714Y-3186000D01*
X3415000Y-3200286D01*
X3429286Y-3228857D01*
X3443571Y-3286000D01*
X3443571Y-3357428D01*
X3429286Y-3414571D01*
X3415000Y-3443143D01*
X3400714Y-3457428D01*
X3372143Y-3471714D01*
X3343571Y-3471714D01*
X3315000Y-3457428D01*
X3300714Y-3443143D01*
X3286428Y-3414571D01*
X3272143Y-3357428D01*
X3272143Y-3286000D01*
X3286428Y-3228857D01*
X3300714Y-3200286D01*
X3315000Y-3186000D01*
X3343571Y-3171714D01*
X3700714Y-3271714D02*
X3700714Y-3471714D01*
X3629286Y-3157428D02*
X3557857Y-3371714D01*
X3743571Y-3371714D01*
X3829286Y-3171714D02*
X4015000Y-3171714D01*
X3915000Y-3286000D01*
X3957857Y-3286000D01*
X3986428Y-3300286D01*
X4000714Y-3314571D01*
X4015000Y-3343143D01*
X4015000Y-3414571D01*
X4000714Y-3443143D01*
X3986428Y-3457428D01*
X3957857Y-3471714D01*
X3872143Y-3471714D01*
X3843571Y-3457428D01*
X3829286Y-3443143D01*
X4129286Y-3171714D02*
X4129286Y-3228857D01*
X4243571Y-3171714D02*
X4243571Y-3228857D01*
X4686429Y-3586000D02*
X4672143Y-3571714D01*
X4643571Y-3528857D01*
X4629286Y-3500286D01*
X4615000Y-3457428D01*
X4600714Y-3386000D01*
X4600714Y-3328857D01*
X4615000Y-3257428D01*
X4629286Y-3214571D01*
X4643571Y-3186000D01*
X4672143Y-3143143D01*
X4686429Y-3128857D01*
X4957857Y-3471714D02*
X4786429Y-3471714D01*
X4872143Y-3471714D02*
X4872143Y-3171714D01*
X4843571Y-3214571D01*
X4815000Y-3243143D01*
X4786429Y-3257428D01*
X5072143Y-3200286D02*
X5086429Y-3186000D01*
X5115000Y-3171714D01*
X5186429Y-3171714D01*
X5215000Y-3186000D01*
X5229286Y-3200286D01*
X5243571Y-3228857D01*
X5243571Y-3257428D01*
X5229286Y-3300286D01*
X5057857Y-3471714D01*
X5243571Y-3471714D01*
X5600714Y-3471714D02*
X5600714Y-3171714D01*
X5729286Y-3471714D02*
X5729286Y-3314571D01*
X5715000Y-3286000D01*
X5686428Y-3271714D01*
X5643571Y-3271714D01*
X5615000Y-3286000D01*
X5600714Y-3300286D01*
X5915000Y-3471714D02*
X5886428Y-3457428D01*
X5872143Y-3443143D01*
X5857857Y-3414571D01*
X5857857Y-3328857D01*
X5872143Y-3300286D01*
X5886428Y-3286000D01*
X5915000Y-3271714D01*
X5957857Y-3271714D01*
X5986428Y-3286000D01*
X6000714Y-3300286D01*
X6015000Y-3328857D01*
X6015000Y-3414571D01*
X6000714Y-3443143D01*
X5986428Y-3457428D01*
X5957857Y-3471714D01*
X5915000Y-3471714D01*
X6186428Y-3471714D02*
X6157857Y-3457428D01*
X6143571Y-3428857D01*
X6143571Y-3171714D01*
X6415000Y-3457428D02*
X6386428Y-3471714D01*
X6329286Y-3471714D01*
X6300714Y-3457428D01*
X6286428Y-3428857D01*
X6286428Y-3314571D01*
X6300714Y-3286000D01*
X6329286Y-3271714D01*
X6386428Y-3271714D01*
X6415000Y-3286000D01*
X6429286Y-3314571D01*
X6429286Y-3343143D01*
X6286428Y-3371714D01*
X6543571Y-3457428D02*
X6572143Y-3471714D01*
X6629286Y-3471714D01*
X6657857Y-3457428D01*
X6672143Y-3428857D01*
X6672143Y-3414571D01*
X6657857Y-3386000D01*
X6629286Y-3371714D01*
X6586428Y-3371714D01*
X6557857Y-3357428D01*
X6543571Y-3328857D01*
X6543571Y-3314571D01*
X6557857Y-3286000D01*
X6586428Y-3271714D01*
X6629286Y-3271714D01*
X6657857Y-3286000D01*
X6772143Y-3586000D02*
X6786428Y-3571714D01*
X6815000Y-3528857D01*
X6829286Y-3500286D01*
X6843571Y-3457428D01*
X6857857Y-3386000D01*
X6857857Y-3328857D01*
X6843571Y-3257428D01*
X6829286Y-3214571D01*
X6815000Y-3186000D01*
X6786428Y-3143143D01*
X6772143Y-3128857D01*
X-130000Y-3667000D02*
X0Y-3797000D01*
X0Y-3667000D02*
X-130000Y-3797000D01*
X-19038Y-3777962D02*
X-19038Y-3686038D01*
X-110962Y-3686038D01*
X-110962Y-3777962D01*
X-19038Y-3777962D01*
X443571Y-3867714D02*
X272143Y-3867714D01*
X357857Y-3867714D02*
X357857Y-3567714D01*
X329286Y-3610571D01*
X300714Y-3639143D01*
X272143Y-3653428D01*
X572143Y-3839143D02*
X586429Y-3853428D01*
X572143Y-3867714D01*
X557857Y-3853428D01*
X572143Y-3839143D01*
X572143Y-3867714D01*
X686429Y-3567714D02*
X872143Y-3567714D01*
X772143Y-3682000D01*
X815000Y-3682000D01*
X843571Y-3696286D01*
X857857Y-3710571D01*
X872143Y-3739143D01*
X872143Y-3810571D01*
X857857Y-3839143D01*
X843571Y-3853428D01*
X815000Y-3867714D01*
X729286Y-3867714D01*
X700714Y-3853428D01*
X686429Y-3839143D01*
X1057857Y-3567714D02*
X1086429Y-3567714D01*
X1115000Y-3582000D01*
X1129286Y-3596286D01*
X1143571Y-3624857D01*
X1157857Y-3682000D01*
X1157857Y-3753428D01*
X1143571Y-3810571D01*
X1129286Y-3839143D01*
X1115000Y-3853428D01*
X1086429Y-3867714D01*
X1057857Y-3867714D01*
X1029286Y-3853428D01*
X1015000Y-3839143D01*
X1000714Y-3810571D01*
X986428Y-3753428D01*
X986428Y-3682000D01*
X1000714Y-3624857D01*
X1015000Y-3596286D01*
X1029286Y-3582000D01*
X1057857Y-3567714D01*
X1286429Y-3867714D02*
X1286429Y-3667714D01*
X1286429Y-3696286D02*
X1300714Y-3682000D01*
X1329286Y-3667714D01*
X1372143Y-3667714D01*
X1400714Y-3682000D01*
X1415000Y-3710571D01*
X1415000Y-3867714D01*
X1415000Y-3710571D02*
X1429286Y-3682000D01*
X1457857Y-3667714D01*
X1500714Y-3667714D01*
X1529286Y-3682000D01*
X1543571Y-3710571D01*
X1543571Y-3867714D01*
X1686428Y-3867714D02*
X1686428Y-3667714D01*
X1686428Y-3696286D02*
X1700714Y-3682000D01*
X1729286Y-3667714D01*
X1772143Y-3667714D01*
X1800714Y-3682000D01*
X1815000Y-3710571D01*
X1815000Y-3867714D01*
X1815000Y-3710571D02*
X1829286Y-3682000D01*
X1857857Y-3667714D01*
X1900714Y-3667714D01*
X1929286Y-3682000D01*
X1943571Y-3710571D01*
X1943571Y-3867714D01*
X2529286Y-3553428D02*
X2272143Y-3939143D01*
X2915000Y-3567714D02*
X2943571Y-3567714D01*
X2972143Y-3582000D01*
X2986428Y-3596286D01*
X3000714Y-3624857D01*
X3015000Y-3682000D01*
X3015000Y-3753428D01*
X3000714Y-3810571D01*
X2986428Y-3839143D01*
X2972143Y-3853428D01*
X2943571Y-3867714D01*
X2915000Y-3867714D01*
X2886428Y-3853428D01*
X2872143Y-3839143D01*
X2857857Y-3810571D01*
X2843571Y-3753428D01*
X2843571Y-3682000D01*
X2857857Y-3624857D01*
X2872143Y-3596286D01*
X2886428Y-3582000D01*
X2915000Y-3567714D01*
X3143571Y-3839143D02*
X3157857Y-3853428D01*
X3143571Y-3867714D01*
X3129286Y-3853428D01*
X3143571Y-3839143D01*
X3143571Y-3867714D01*
X3343571Y-3567714D02*
X3372143Y-3567714D01*
X3400714Y-3582000D01*
X3415000Y-3596286D01*
X3429286Y-3624857D01*
X3443571Y-3682000D01*
X3443571Y-3753428D01*
X3429286Y-3810571D01*
X3415000Y-3839143D01*
X3400714Y-3853428D01*
X3372143Y-3867714D01*
X3343571Y-3867714D01*
X3315000Y-3853428D01*
X3300714Y-3839143D01*
X3286428Y-3810571D01*
X3272143Y-3753428D01*
X3272143Y-3682000D01*
X3286428Y-3624857D01*
X3300714Y-3596286D01*
X3315000Y-3582000D01*
X3343571Y-3567714D01*
X3715000Y-3567714D02*
X3572143Y-3567714D01*
X3557857Y-3710571D01*
X3572143Y-3696286D01*
X3600714Y-3682000D01*
X3672143Y-3682000D01*
X3700714Y-3696286D01*
X3715000Y-3710571D01*
X3729286Y-3739143D01*
X3729286Y-3810571D01*
X3715000Y-3839143D01*
X3700714Y-3853428D01*
X3672143Y-3867714D01*
X3600714Y-3867714D01*
X3572143Y-3853428D01*
X3557857Y-3839143D01*
X4015000Y-3867714D02*
X3843571Y-3867714D01*
X3929286Y-3867714D02*
X3929286Y-3567714D01*
X3900714Y-3610571D01*
X3872143Y-3639143D01*
X3843571Y-3653428D01*
X4129286Y-3567714D02*
X4129286Y-3624857D01*
X4243571Y-3567714D02*
X4243571Y-3624857D01*
X4686429Y-3982000D02*
X4672143Y-3967714D01*
X4643571Y-3924857D01*
X4629286Y-3896286D01*
X4615000Y-3853428D01*
X4600714Y-3782000D01*
X4600714Y-3724857D01*
X4615000Y-3653428D01*
X4629286Y-3610571D01*
X4643571Y-3582000D01*
X4672143Y-3539143D01*
X4686429Y-3524857D01*
X4929286Y-3667714D02*
X4929286Y-3867714D01*
X4857857Y-3553428D02*
X4786429Y-3767714D01*
X4972143Y-3767714D01*
X5315000Y-3867714D02*
X5315000Y-3567714D01*
X5443571Y-3867714D02*
X5443571Y-3710571D01*
X5429286Y-3682000D01*
X5400714Y-3667714D01*
X5357857Y-3667714D01*
X5329286Y-3682000D01*
X5315000Y-3696286D01*
X5629286Y-3867714D02*
X5600714Y-3853428D01*
X5586429Y-3839143D01*
X5572143Y-3810571D01*
X5572143Y-3724857D01*
X5586429Y-3696286D01*
X5600714Y-3682000D01*
X5629286Y-3667714D01*
X5672143Y-3667714D01*
X5700714Y-3682000D01*
X5715000Y-3696286D01*
X5729286Y-3724857D01*
X5729286Y-3810571D01*
X5715000Y-3839143D01*
X5700714Y-3853428D01*
X5672143Y-3867714D01*
X5629286Y-3867714D01*
X5900714Y-3867714D02*
X5872143Y-3853428D01*
X5857857Y-3824857D01*
X5857857Y-3567714D01*
X6129286Y-3853428D02*
X6100714Y-3867714D01*
X6043571Y-3867714D01*
X6015000Y-3853428D01*
X6000714Y-3824857D01*
X6000714Y-3710571D01*
X6015000Y-3682000D01*
X6043571Y-3667714D01*
X6100714Y-3667714D01*
X6129286Y-3682000D01*
X6143571Y-3710571D01*
X6143571Y-3739143D01*
X6000714Y-3767714D01*
X6257857Y-3853428D02*
X6286428Y-3867714D01*
X6343571Y-3867714D01*
X6372143Y-3853428D01*
X6386428Y-3824857D01*
X6386428Y-3810571D01*
X6372143Y-3782000D01*
X6343571Y-3767714D01*
X6300714Y-3767714D01*
X6272143Y-3753428D01*
X6257857Y-3724857D01*
X6257857Y-3710571D01*
X6272143Y-3682000D01*
X6300714Y-3667714D01*
X6343571Y-3667714D01*
X6372143Y-3682000D01*
X6486428Y-3982000D02*
X6500714Y-3967714D01*
X6529286Y-3924857D01*
X6543571Y-3896286D01*
X6557857Y-3853428D01*
X6572143Y-3782000D01*
X6572143Y-3724857D01*
X6557857Y-3653428D01*
X6543571Y-3610571D01*
X6529286Y-3582000D01*
X6500714Y-3539143D01*
X6486428Y-3524857D01*
X-320000Y-3968000D02*
X0Y-4288000D01*
X0Y-3968000D02*
X-320000Y-4288000D01*
X-160000Y-4288000D02*
X0Y-4128000D01*
X-160000Y-3968000D01*
X-320000Y-4128000D01*
X-160000Y-4288000D01*
X257857Y-3963714D02*
X443571Y-3963714D01*
X343571Y-4078000D01*
X386428Y-4078000D01*
X415000Y-4092286D01*
X429286Y-4106571D01*
X443571Y-4135143D01*
X443571Y-4206571D01*
X429286Y-4235143D01*
X415000Y-4249429D01*
X386428Y-4263714D01*
X300714Y-4263714D01*
X272143Y-4249429D01*
X257857Y-4235143D01*
X572143Y-4235143D02*
X586429Y-4249429D01*
X572143Y-4263714D01*
X557857Y-4249429D01*
X572143Y-4235143D01*
X572143Y-4263714D01*
X700714Y-3992286D02*
X715000Y-3978000D01*
X743571Y-3963714D01*
X815000Y-3963714D01*
X843571Y-3978000D01*
X857857Y-3992286D01*
X872143Y-4020857D01*
X872143Y-4049428D01*
X857857Y-4092286D01*
X686429Y-4263714D01*
X872143Y-4263714D01*
X1057857Y-3963714D02*
X1086429Y-3963714D01*
X1115000Y-3978000D01*
X1129286Y-3992286D01*
X1143571Y-4020857D01*
X1157857Y-4078000D01*
X1157857Y-4149428D01*
X1143571Y-4206571D01*
X1129286Y-4235143D01*
X1115000Y-4249429D01*
X1086429Y-4263714D01*
X1057857Y-4263714D01*
X1029286Y-4249429D01*
X1015000Y-4235143D01*
X1000714Y-4206571D01*
X986428Y-4149428D01*
X986428Y-4078000D01*
X1000714Y-4020857D01*
X1015000Y-3992286D01*
X1029286Y-3978000D01*
X1057857Y-3963714D01*
X1286429Y-4263714D02*
X1286429Y-4063714D01*
X1286429Y-4092286D02*
X1300714Y-4078000D01*
X1329286Y-4063714D01*
X1372143Y-4063714D01*
X1400714Y-4078000D01*
X1415000Y-4106571D01*
X1415000Y-4263714D01*
X1415000Y-4106571D02*
X1429286Y-4078000D01*
X1457857Y-4063714D01*
X1500714Y-4063714D01*
X1529286Y-4078000D01*
X1543571Y-4106571D01*
X1543571Y-4263714D01*
X1686428Y-4263714D02*
X1686428Y-4063714D01*
X1686428Y-4092286D02*
X1700714Y-4078000D01*
X1729286Y-4063714D01*
X1772143Y-4063714D01*
X1800714Y-4078000D01*
X1815000Y-4106571D01*
X1815000Y-4263714D01*
X1815000Y-4106571D02*
X1829286Y-4078000D01*
X1857857Y-4063714D01*
X1900714Y-4063714D01*
X1929286Y-4078000D01*
X1943571Y-4106571D01*
X1943571Y-4263714D01*
X2529286Y-3949428D02*
X2272143Y-4335143D01*
X2915000Y-3963714D02*
X2943571Y-3963714D01*
X2972143Y-3978000D01*
X2986428Y-3992286D01*
X3000714Y-4020857D01*
X3015000Y-4078000D01*
X3015000Y-4149428D01*
X3000714Y-4206571D01*
X2986428Y-4235143D01*
X2972143Y-4249429D01*
X2943571Y-4263714D01*
X2915000Y-4263714D01*
X2886428Y-4249429D01*
X2872143Y-4235143D01*
X2857857Y-4206571D01*
X2843571Y-4149428D01*
X2843571Y-4078000D01*
X2857857Y-4020857D01*
X2872143Y-3992286D01*
X2886428Y-3978000D01*
X2915000Y-3963714D01*
X3143571Y-4235143D02*
X3157857Y-4249429D01*
X3143571Y-4263714D01*
X3129286Y-4249429D01*
X3143571Y-4235143D01*
X3143571Y-4263714D01*
X3443571Y-4263714D02*
X3272143Y-4263714D01*
X3357857Y-4263714D02*
X3357857Y-3963714D01*
X3329286Y-4006571D01*
X3300714Y-4035143D01*
X3272143Y-4049428D01*
X3557857Y-3992286D02*
X3572143Y-3978000D01*
X3600714Y-3963714D01*
X3672143Y-3963714D01*
X3700714Y-3978000D01*
X3715000Y-3992286D01*
X3729286Y-4020857D01*
X3729286Y-4049428D01*
X3715000Y-4092286D01*
X3543571Y-4263714D01*
X3729286Y-4263714D01*
X3986428Y-3963714D02*
X3929286Y-3963714D01*
X3900714Y-3978000D01*
X3886428Y-3992286D01*
X3857857Y-4035143D01*
X3843571Y-4092286D01*
X3843571Y-4206571D01*
X3857857Y-4235143D01*
X3872143Y-4249429D01*
X3900714Y-4263714D01*
X3957857Y-4263714D01*
X3986428Y-4249429D01*
X4000714Y-4235143D01*
X4015000Y-4206571D01*
X4015000Y-4135143D01*
X4000714Y-4106571D01*
X3986428Y-4092286D01*
X3957857Y-4078000D01*
X3900714Y-4078000D01*
X3872143Y-4092286D01*
X3857857Y-4106571D01*
X3843571Y-4135143D01*
X4129286Y-3963714D02*
X4129286Y-4020857D01*
X4243571Y-3963714D02*
X4243571Y-4020857D01*
X4686429Y-4378000D02*
X4672143Y-4363714D01*
X4643571Y-4320857D01*
X4629286Y-4292286D01*
X4615000Y-4249429D01*
X4600714Y-4178000D01*
X4600714Y-4120857D01*
X4615000Y-4049428D01*
X4629286Y-4006571D01*
X4643571Y-3978000D01*
X4672143Y-3935143D01*
X4686429Y-3920857D01*
X4929286Y-4063714D02*
X4929286Y-4263714D01*
X4857857Y-3949428D02*
X4786429Y-4163714D01*
X4972143Y-4163714D01*
X5315000Y-4263714D02*
X5315000Y-3963714D01*
X5443571Y-4263714D02*
X5443571Y-4106571D01*
X5429286Y-4078000D01*
X5400714Y-4063714D01*
X5357857Y-4063714D01*
X5329286Y-4078000D01*
X5315000Y-4092286D01*
X5629286Y-4263714D02*
X5600714Y-4249429D01*
X5586429Y-4235143D01*
X5572143Y-4206571D01*
X5572143Y-4120857D01*
X5586429Y-4092286D01*
X5600714Y-4078000D01*
X5629286Y-4063714D01*
X5672143Y-4063714D01*
X5700714Y-4078000D01*
X5715000Y-4092286D01*
X5729286Y-4120857D01*
X5729286Y-4206571D01*
X5715000Y-4235143D01*
X5700714Y-4249429D01*
X5672143Y-4263714D01*
X5629286Y-4263714D01*
X5900714Y-4263714D02*
X5872143Y-4249429D01*
X5857857Y-4220857D01*
X5857857Y-3963714D01*
X6129286Y-4249429D02*
X6100714Y-4263714D01*
X6043571Y-4263714D01*
X6015000Y-4249429D01*
X6000714Y-4220857D01*
X6000714Y-4106571D01*
X6015000Y-4078000D01*
X6043571Y-4063714D01*
X6100714Y-4063714D01*
X6129286Y-4078000D01*
X6143571Y-4106571D01*
X6143571Y-4135143D01*
X6000714Y-4163714D01*
X6257857Y-4249429D02*
X6286428Y-4263714D01*
X6343571Y-4263714D01*
X6372143Y-4249429D01*
X6386428Y-4220857D01*
X6386428Y-4206571D01*
X6372143Y-4178000D01*
X6343571Y-4163714D01*
X6300714Y-4163714D01*
X6272143Y-4149428D01*
X6257857Y-4120857D01*
X6257857Y-4106571D01*
X6272143Y-4078000D01*
X6300714Y-4063714D01*
X6343571Y-4063714D01*
X6372143Y-4078000D01*
X6486428Y-4378000D02*
X6500714Y-4363714D01*
X6529286Y-4320857D01*
X6543571Y-4292286D01*
X6557857Y-4249429D01*
X6572143Y-4178000D01*
X6572143Y-4120857D01*
X6557857Y-4049428D01*
X6543571Y-4006571D01*
X6529286Y-3978000D01*
X6500714Y-3935143D01*
X6486428Y-3920857D01*
M02*
