%TF.GenerationSoftware,KiCad,Pcbnew,(5.1.8)-1*%
%TF.CreationDate,2022-03-01T18:10:38+01:00*%
%TF.ProjectId,controleur_radiateur,636f6e74-726f-46c6-9575-725f72616469,v1.1*%
%TF.SameCoordinates,Original*%
%TF.FileFunction,Legend,Top*%
%TF.FilePolarity,Positive*%
%FSLAX46Y46*%
G04 Gerber Fmt 4.6, Leading zero omitted, Abs format (unit mm)*
G04 Created by KiCad (PCBNEW (5.1.8)-1) date 2022-03-01 18:10:38*
%MOMM*%
%LPD*%
G01*
G04 APERTURE LIST*
%ADD10C,0.120000*%
%ADD11C,0.150000*%
%ADD12C,0.127000*%
%ADD13C,0.200000*%
G04 APERTURE END LIST*
D10*
X150016981Y-103169720D02*
G75*
G03*
X150016981Y-103169720I-283981J0D01*
G01*
X150092210Y-103169720D02*
G75*
G03*
X150092210Y-103169720I-359210J0D01*
G01*
X150190905Y-103169720D02*
G75*
G03*
X150190905Y-103169720I-457905J0D01*
G01*
X150300961Y-103169720D02*
G75*
G03*
X150300961Y-103169720I-567961J0D01*
G01*
X149912605Y-103169720D02*
G75*
G03*
X149912605Y-103169720I-179605J0D01*
G01*
X149783032Y-103164640D02*
G75*
G03*
X149783032Y-103164640I-50032J0D01*
G01*
X149819360Y-103164640D02*
G75*
G03*
X149819360Y-103164640I-86360J0D01*
G01*
X149656032Y-92323920D02*
G75*
G03*
X149656032Y-92323920I-50032J0D01*
G01*
X149692360Y-92323920D02*
G75*
G03*
X149692360Y-92323920I-86360J0D01*
G01*
X149785605Y-92329000D02*
G75*
G03*
X149785605Y-92329000I-179605J0D01*
G01*
X149889981Y-92329000D02*
G75*
G03*
X149889981Y-92329000I-283981J0D01*
G01*
X149965210Y-92329000D02*
G75*
G03*
X149965210Y-92329000I-359210J0D01*
G01*
X150063905Y-92329000D02*
G75*
G03*
X150063905Y-92329000I-457905J0D01*
G01*
X150173961Y-92329000D02*
G75*
G03*
X150173961Y-92329000I-567961J0D01*
G01*
X181864000Y-135382000D02*
X183134000Y-135382000D01*
X194564000Y-135382000D02*
X195834000Y-135382000D01*
X176784000Y-135382000D02*
X178054000Y-135382000D01*
X189484000Y-135382000D02*
X190754000Y-135382000D01*
X179324000Y-135382000D02*
X180594000Y-135382000D01*
X184404000Y-135382000D02*
X185674000Y-135382000D01*
X186944000Y-135382000D02*
X188214000Y-135382000D01*
X192024000Y-135382000D02*
X193294000Y-135382000D01*
X174244000Y-135382000D02*
X175514000Y-135382000D01*
X153416000Y-133858000D02*
X153416000Y-135128000D01*
X153416000Y-131318000D02*
X153416000Y-132588000D01*
X153416000Y-131318000D02*
X153416000Y-132588000D01*
X153416000Y-116078000D02*
X153416000Y-117348000D01*
X153416000Y-126238000D02*
X153416000Y-127508000D01*
X153416000Y-131318000D02*
X153416000Y-132588000D01*
X153416000Y-128778000D02*
X153416000Y-130048000D01*
X153416000Y-128778000D02*
X153416000Y-130048000D01*
X153416000Y-121158000D02*
X153416000Y-122428000D01*
X153416000Y-118618000D02*
X153416000Y-119888000D01*
X153416000Y-123698000D02*
X153416000Y-124968000D01*
X153416000Y-113538000D02*
X153416000Y-114808000D01*
X153924000Y-135382000D02*
X155194000Y-135382000D01*
D11*
X147074714Y-63460142D02*
X147074714Y-60460142D01*
X147789000Y-60460142D01*
X148217571Y-60603000D01*
X148503285Y-60888714D01*
X148646142Y-61174428D01*
X148789000Y-61745857D01*
X148789000Y-62174428D01*
X148646142Y-62745857D01*
X148503285Y-63031571D01*
X148217571Y-63317285D01*
X147789000Y-63460142D01*
X147074714Y-63460142D01*
X151789000Y-63174428D02*
X151646142Y-63317285D01*
X151217571Y-63460142D01*
X150931857Y-63460142D01*
X150503285Y-63317285D01*
X150217571Y-63031571D01*
X150074714Y-62745857D01*
X149931857Y-62174428D01*
X149931857Y-61745857D01*
X150074714Y-61174428D01*
X150217571Y-60888714D01*
X150503285Y-60603000D01*
X150931857Y-60460142D01*
X151217571Y-60460142D01*
X151646142Y-60603000D01*
X151789000Y-60745857D01*
X155217571Y-62603000D02*
X156646142Y-62603000D01*
X154931857Y-63460142D02*
X155931857Y-60460142D01*
X156931857Y-63460142D01*
X159646142Y-63174428D02*
X159503285Y-63317285D01*
X159074714Y-63460142D01*
X158789000Y-63460142D01*
X158360428Y-63317285D01*
X158074714Y-63031571D01*
X157931857Y-62745857D01*
X157789000Y-62174428D01*
X157789000Y-61745857D01*
X157931857Y-61174428D01*
X158074714Y-60888714D01*
X158360428Y-60603000D01*
X158789000Y-60460142D01*
X159074714Y-60460142D01*
X159503285Y-60603000D01*
X159646142Y-60745857D01*
D10*
X153416000Y-62738000D02*
X153416000Y-64008000D01*
X153416000Y-60198000D02*
X153416000Y-61468000D01*
X153416000Y-103378000D02*
X153416000Y-104648000D01*
X153416000Y-100838000D02*
X153416000Y-102108000D01*
X153416000Y-109093000D02*
X153416000Y-110363000D01*
X153416000Y-106553000D02*
X153416000Y-107823000D01*
X153416000Y-98298000D02*
X153416000Y-99568000D01*
X153416000Y-95758000D02*
X153416000Y-97028000D01*
X153416000Y-93218000D02*
X153416000Y-94488000D01*
X153416000Y-90678000D02*
X153416000Y-91948000D01*
X153416000Y-88138000D02*
X153416000Y-89408000D01*
X153416000Y-85598000D02*
X153416000Y-86868000D01*
X153416000Y-83058000D02*
X153416000Y-84328000D01*
X153416000Y-80518000D02*
X153416000Y-81788000D01*
X153416000Y-80518000D02*
X153416000Y-81788000D01*
X153416000Y-77978000D02*
X153416000Y-79248000D01*
X153416000Y-75438000D02*
X153416000Y-76708000D01*
X153416000Y-72898000D02*
X153416000Y-74168000D01*
X153416000Y-70358000D02*
X153416000Y-71628000D01*
X153416000Y-67818000D02*
X153416000Y-69088000D01*
X174244000Y-135382000D02*
X175514000Y-135382000D01*
X171704000Y-135382000D02*
X172974000Y-135382000D01*
X169164000Y-135382000D02*
X170434000Y-135382000D01*
X166624000Y-135382000D02*
X167894000Y-135382000D01*
X164084000Y-135382000D02*
X165354000Y-135382000D01*
X161544000Y-135382000D02*
X162814000Y-135382000D01*
X159004000Y-135382000D02*
X160274000Y-135382000D01*
X156464000Y-135382000D02*
X157734000Y-135382000D01*
X153416000Y-113538000D02*
X153416000Y-114808000D01*
X153416000Y-110998000D02*
X153416000Y-112268000D01*
X153416000Y-65278000D02*
X153416000Y-66548000D01*
X153416000Y-62738000D02*
X153416000Y-64008000D01*
X116840000Y-69215000D02*
X116840000Y-67310000D01*
X120015000Y-69215000D02*
X116840000Y-69215000D01*
X120015000Y-67310000D02*
X120015000Y-69215000D01*
X116840000Y-67310000D02*
X120015000Y-67310000D01*
D11*
X161115952Y-76922380D02*
X161115952Y-77636666D01*
X161068333Y-77779523D01*
X160973095Y-77874761D01*
X160830238Y-77922380D01*
X160735000Y-77922380D01*
X162068333Y-77922380D02*
X161592142Y-77922380D01*
X161592142Y-76922380D01*
X162973095Y-77827142D02*
X162925476Y-77874761D01*
X162782619Y-77922380D01*
X162687380Y-77922380D01*
X162544523Y-77874761D01*
X162449285Y-77779523D01*
X162401666Y-77684285D01*
X162354047Y-77493809D01*
X162354047Y-77350952D01*
X162401666Y-77160476D01*
X162449285Y-77065238D01*
X162544523Y-76970000D01*
X162687380Y-76922380D01*
X162782619Y-76922380D01*
X162925476Y-76970000D01*
X162973095Y-77017619D01*
X163687380Y-76922380D02*
X163687380Y-77636666D01*
X163639761Y-77779523D01*
X163544523Y-77874761D01*
X163401666Y-77922380D01*
X163306428Y-77922380D01*
X164639761Y-77922380D02*
X164163571Y-77922380D01*
X164163571Y-76922380D01*
X165544523Y-77827142D02*
X165496904Y-77874761D01*
X165354047Y-77922380D01*
X165258809Y-77922380D01*
X165115952Y-77874761D01*
X165020714Y-77779523D01*
X164973095Y-77684285D01*
X164925476Y-77493809D01*
X164925476Y-77350952D01*
X164973095Y-77160476D01*
X165020714Y-77065238D01*
X165115952Y-76970000D01*
X165258809Y-76922380D01*
X165354047Y-76922380D01*
X165496904Y-76970000D01*
X165544523Y-77017619D01*
X166258809Y-76922380D02*
X166258809Y-77636666D01*
X166211190Y-77779523D01*
X166115952Y-77874761D01*
X165973095Y-77922380D01*
X165877857Y-77922380D01*
X167211190Y-77922380D02*
X166735000Y-77922380D01*
X166735000Y-76922380D01*
X168115952Y-77827142D02*
X168068333Y-77874761D01*
X167925476Y-77922380D01*
X167830238Y-77922380D01*
X167687380Y-77874761D01*
X167592142Y-77779523D01*
X167544523Y-77684285D01*
X167496904Y-77493809D01*
X167496904Y-77350952D01*
X167544523Y-77160476D01*
X167592142Y-77065238D01*
X167687380Y-76970000D01*
X167830238Y-76922380D01*
X167925476Y-76922380D01*
X168068333Y-76970000D01*
X168115952Y-77017619D01*
X168830238Y-76922380D02*
X168830238Y-77636666D01*
X168782619Y-77779523D01*
X168687380Y-77874761D01*
X168544523Y-77922380D01*
X168449285Y-77922380D01*
X169782619Y-77922380D02*
X169306428Y-77922380D01*
X169306428Y-76922380D01*
X170687380Y-77827142D02*
X170639761Y-77874761D01*
X170496904Y-77922380D01*
X170401666Y-77922380D01*
X170258809Y-77874761D01*
X170163571Y-77779523D01*
X170115952Y-77684285D01*
X170068333Y-77493809D01*
X170068333Y-77350952D01*
X170115952Y-77160476D01*
X170163571Y-77065238D01*
X170258809Y-76970000D01*
X170401666Y-76922380D01*
X170496904Y-76922380D01*
X170639761Y-76970000D01*
X170687380Y-77017619D01*
X141536857Y-141140571D02*
X141536857Y-139640571D01*
X142036857Y-140712000D01*
X142536857Y-139640571D01*
X142536857Y-141140571D01*
X143893999Y-141140571D02*
X143893999Y-140354857D01*
X143822571Y-140212000D01*
X143679714Y-140140571D01*
X143393999Y-140140571D01*
X143251142Y-140212000D01*
X143893999Y-141069142D02*
X143751142Y-141140571D01*
X143393999Y-141140571D01*
X143251142Y-141069142D01*
X143179714Y-140926285D01*
X143179714Y-140783428D01*
X143251142Y-140640571D01*
X143393999Y-140569142D01*
X143751142Y-140569142D01*
X143893999Y-140497714D01*
X144393999Y-140140571D02*
X144965428Y-140140571D01*
X144608285Y-139640571D02*
X144608285Y-140926285D01*
X144679714Y-141069142D01*
X144822571Y-141140571D01*
X144965428Y-141140571D01*
X145465428Y-141140571D02*
X145465428Y-139640571D01*
X146108285Y-141140571D02*
X146108285Y-140354857D01*
X146036857Y-140212000D01*
X145893999Y-140140571D01*
X145679714Y-140140571D01*
X145536857Y-140212000D01*
X145465428Y-140283428D01*
X146822571Y-141140571D02*
X146822571Y-140140571D01*
X146822571Y-139640571D02*
X146751142Y-139712000D01*
X146822571Y-139783428D01*
X146893999Y-139712000D01*
X146822571Y-139640571D01*
X146822571Y-139783428D01*
X148108285Y-141069142D02*
X147965428Y-141140571D01*
X147679714Y-141140571D01*
X147536857Y-141069142D01*
X147465428Y-140926285D01*
X147465428Y-140354857D01*
X147536857Y-140212000D01*
X147679714Y-140140571D01*
X147965428Y-140140571D01*
X148108285Y-140212000D01*
X148179714Y-140354857D01*
X148179714Y-140497714D01*
X147465428Y-140640571D01*
X149465428Y-140140571D02*
X149465428Y-141140571D01*
X148822571Y-140140571D02*
X148822571Y-140926285D01*
X148893999Y-141069142D01*
X149036857Y-141140571D01*
X149251142Y-141140571D01*
X149393999Y-141069142D01*
X149465428Y-140997714D01*
X151822571Y-140354857D02*
X152036857Y-140426285D01*
X152108285Y-140497714D01*
X152179714Y-140640571D01*
X152179714Y-140854857D01*
X152108285Y-140997714D01*
X152036857Y-141069142D01*
X151893999Y-141140571D01*
X151322571Y-141140571D01*
X151322571Y-139640571D01*
X151822571Y-139640571D01*
X151965428Y-139712000D01*
X152036857Y-139783428D01*
X152108285Y-139926285D01*
X152108285Y-140069142D01*
X152036857Y-140212000D01*
X151965428Y-140283428D01*
X151822571Y-140354857D01*
X151322571Y-140354857D01*
X152751142Y-140712000D02*
X153465428Y-140712000D01*
X152608285Y-141140571D02*
X153108285Y-139640571D01*
X153608285Y-141140571D01*
X154108285Y-141140571D02*
X154108285Y-139640571D01*
X154108285Y-140354857D02*
X154965428Y-140354857D01*
X154965428Y-141140571D02*
X154965428Y-139640571D01*
X155679714Y-141140571D02*
X155679714Y-139640571D01*
X156393999Y-141140571D02*
X156393999Y-139640571D01*
X157251142Y-141140571D01*
X157251142Y-139640571D01*
X159108285Y-140997714D02*
X159179714Y-141069142D01*
X159108285Y-141140571D01*
X159036857Y-141069142D01*
X159108285Y-140997714D01*
X159108285Y-141140571D01*
X159108285Y-140212000D02*
X159179714Y-140283428D01*
X159108285Y-140354857D01*
X159036857Y-140283428D01*
X159108285Y-140212000D01*
X159108285Y-140354857D01*
X161822571Y-140997714D02*
X161751142Y-141069142D01*
X161536857Y-141140571D01*
X161393999Y-141140571D01*
X161179714Y-141069142D01*
X161036857Y-140926285D01*
X160965428Y-140783428D01*
X160893999Y-140497714D01*
X160893999Y-140283428D01*
X160965428Y-139997714D01*
X161036857Y-139854857D01*
X161179714Y-139712000D01*
X161393999Y-139640571D01*
X161536857Y-139640571D01*
X161751142Y-139712000D01*
X161822571Y-139783428D01*
X162679714Y-141140571D02*
X162536857Y-141069142D01*
X162465428Y-140997714D01*
X162393999Y-140854857D01*
X162393999Y-140426285D01*
X162465428Y-140283428D01*
X162536857Y-140212000D01*
X162679714Y-140140571D01*
X162893999Y-140140571D01*
X163036857Y-140212000D01*
X163108285Y-140283428D01*
X163179714Y-140426285D01*
X163179714Y-140854857D01*
X163108285Y-140997714D01*
X163036857Y-141069142D01*
X162893999Y-141140571D01*
X162679714Y-141140571D01*
X163822571Y-140140571D02*
X163822571Y-141140571D01*
X163822571Y-140283428D02*
X163893999Y-140212000D01*
X164036857Y-140140571D01*
X164251142Y-140140571D01*
X164393999Y-140212000D01*
X164465428Y-140354857D01*
X164465428Y-141140571D01*
X164965428Y-140140571D02*
X165536857Y-140140571D01*
X165179714Y-139640571D02*
X165179714Y-140926285D01*
X165251142Y-141069142D01*
X165393999Y-141140571D01*
X165536857Y-141140571D01*
X166036857Y-141140571D02*
X166036857Y-140140571D01*
X166036857Y-140426285D02*
X166108285Y-140283428D01*
X166179714Y-140212000D01*
X166322571Y-140140571D01*
X166465428Y-140140571D01*
X167179714Y-141140571D02*
X167036857Y-141069142D01*
X166965428Y-140997714D01*
X166893999Y-140854857D01*
X166893999Y-140426285D01*
X166965428Y-140283428D01*
X167036857Y-140212000D01*
X167179714Y-140140571D01*
X167393999Y-140140571D01*
X167536857Y-140212000D01*
X167608285Y-140283428D01*
X167679714Y-140426285D01*
X167679714Y-140854857D01*
X167608285Y-140997714D01*
X167536857Y-141069142D01*
X167393999Y-141140571D01*
X167179714Y-141140571D01*
X167036857Y-139783428D02*
X167322571Y-139569142D01*
X167608285Y-139783428D01*
X168536857Y-141140571D02*
X168393999Y-141069142D01*
X168322571Y-140926285D01*
X168322571Y-139640571D01*
X169679714Y-141069142D02*
X169536857Y-141140571D01*
X169251142Y-141140571D01*
X169108285Y-141069142D01*
X169036857Y-140926285D01*
X169036857Y-140354857D01*
X169108285Y-140212000D01*
X169251142Y-140140571D01*
X169536857Y-140140571D01*
X169679714Y-140212000D01*
X169751142Y-140354857D01*
X169751142Y-140497714D01*
X169036857Y-140640571D01*
X171036857Y-140140571D02*
X171036857Y-141140571D01*
X170394000Y-140140571D02*
X170394000Y-140926285D01*
X170465428Y-141069142D01*
X170608285Y-141140571D01*
X170822571Y-141140571D01*
X170965428Y-141069142D01*
X171036857Y-140997714D01*
X171751142Y-141140571D02*
X171751142Y-140140571D01*
X171751142Y-140426285D02*
X171822571Y-140283428D01*
X171894000Y-140212000D01*
X172036857Y-140140571D01*
X172179714Y-140140571D01*
X173822571Y-141140571D02*
X173822571Y-140140571D01*
X173822571Y-140426285D02*
X173894000Y-140283428D01*
X173965428Y-140212000D01*
X174108285Y-140140571D01*
X174251142Y-140140571D01*
X175394000Y-141140571D02*
X175394000Y-140354857D01*
X175322571Y-140212000D01*
X175179714Y-140140571D01*
X174894000Y-140140571D01*
X174751142Y-140212000D01*
X175394000Y-141069142D02*
X175251142Y-141140571D01*
X174894000Y-141140571D01*
X174751142Y-141069142D01*
X174679714Y-140926285D01*
X174679714Y-140783428D01*
X174751142Y-140640571D01*
X174894000Y-140569142D01*
X175251142Y-140569142D01*
X175394000Y-140497714D01*
X176751142Y-141140571D02*
X176751142Y-139640571D01*
X176751142Y-141069142D02*
X176608285Y-141140571D01*
X176322571Y-141140571D01*
X176179714Y-141069142D01*
X176108285Y-140997714D01*
X176036857Y-140854857D01*
X176036857Y-140426285D01*
X176108285Y-140283428D01*
X176179714Y-140212000D01*
X176322571Y-140140571D01*
X176608285Y-140140571D01*
X176751142Y-140212000D01*
X177465428Y-141140571D02*
X177465428Y-140140571D01*
X177465428Y-139640571D02*
X177394000Y-139712000D01*
X177465428Y-139783428D01*
X177536857Y-139712000D01*
X177465428Y-139640571D01*
X177465428Y-139783428D01*
X178822571Y-141140571D02*
X178822571Y-140354857D01*
X178751142Y-140212000D01*
X178608285Y-140140571D01*
X178322571Y-140140571D01*
X178179714Y-140212000D01*
X178822571Y-141069142D02*
X178679714Y-141140571D01*
X178322571Y-141140571D01*
X178179714Y-141069142D01*
X178108285Y-140926285D01*
X178108285Y-140783428D01*
X178179714Y-140640571D01*
X178322571Y-140569142D01*
X178679714Y-140569142D01*
X178822571Y-140497714D01*
X179322571Y-140140571D02*
X179894000Y-140140571D01*
X179536857Y-139640571D02*
X179536857Y-140926285D01*
X179608285Y-141069142D01*
X179751142Y-141140571D01*
X179894000Y-141140571D01*
X180965428Y-141069142D02*
X180822571Y-141140571D01*
X180536857Y-141140571D01*
X180394000Y-141069142D01*
X180322571Y-140926285D01*
X180322571Y-140354857D01*
X180394000Y-140212000D01*
X180536857Y-140140571D01*
X180822571Y-140140571D01*
X180965428Y-140212000D01*
X181036857Y-140354857D01*
X181036857Y-140497714D01*
X180322571Y-140640571D01*
X182322571Y-140140571D02*
X182322571Y-141140571D01*
X181679714Y-140140571D02*
X181679714Y-140926285D01*
X181751142Y-141069142D01*
X181894000Y-141140571D01*
X182108285Y-141140571D01*
X182251142Y-141069142D01*
X182322571Y-140997714D01*
X183036857Y-141140571D02*
X183036857Y-140140571D01*
X183036857Y-140426285D02*
X183108285Y-140283428D01*
X183179714Y-140212000D01*
X183322571Y-140140571D01*
X183465428Y-140140571D01*
X184894000Y-140140571D02*
X185465428Y-140140571D01*
X185108285Y-141140571D02*
X185108285Y-139854857D01*
X185179714Y-139712000D01*
X185322571Y-139640571D01*
X185465428Y-139640571D01*
X185965428Y-141140571D02*
X185965428Y-140140571D01*
X185965428Y-139640571D02*
X185894000Y-139712000D01*
X185965428Y-139783428D01*
X186036857Y-139712000D01*
X185965428Y-139640571D01*
X185965428Y-139783428D01*
X186894000Y-141140571D02*
X186751142Y-141069142D01*
X186679714Y-140926285D01*
X186679714Y-139640571D01*
X188608285Y-140140571D02*
X188608285Y-141640571D01*
X188608285Y-140212000D02*
X188751142Y-140140571D01*
X189036857Y-140140571D01*
X189179714Y-140212000D01*
X189251142Y-140283428D01*
X189322571Y-140426285D01*
X189322571Y-140854857D01*
X189251142Y-140997714D01*
X189179714Y-141069142D01*
X189036857Y-141140571D01*
X188751142Y-141140571D01*
X188608285Y-141069142D01*
X189965428Y-141140571D02*
X189965428Y-140140571D01*
X189965428Y-139640571D02*
X189894000Y-139712000D01*
X189965428Y-139783428D01*
X190036857Y-139712000D01*
X189965428Y-139640571D01*
X189965428Y-139783428D01*
X190894000Y-141140571D02*
X190751142Y-141069142D01*
X190679714Y-140926285D01*
X190679714Y-139640571D01*
X191679714Y-141140571D02*
X191536857Y-141069142D01*
X191465428Y-140997714D01*
X191394000Y-140854857D01*
X191394000Y-140426285D01*
X191465428Y-140283428D01*
X191536857Y-140212000D01*
X191679714Y-140140571D01*
X191894000Y-140140571D01*
X192036857Y-140212000D01*
X192108285Y-140283428D01*
X192179714Y-140426285D01*
X192179714Y-140854857D01*
X192108285Y-140997714D01*
X192036857Y-141069142D01*
X191894000Y-141140571D01*
X191679714Y-141140571D01*
X192608285Y-140140571D02*
X193179714Y-140140571D01*
X192822571Y-139640571D02*
X192822571Y-140926285D01*
X192894000Y-141069142D01*
X193036857Y-141140571D01*
X193179714Y-141140571D01*
X194251142Y-141069142D02*
X194108285Y-141140571D01*
X193822571Y-141140571D01*
X193679714Y-141069142D01*
X193608285Y-140926285D01*
X193608285Y-140354857D01*
X193679714Y-140212000D01*
X193822571Y-140140571D01*
X194108285Y-140140571D01*
X194251142Y-140212000D01*
X194322571Y-140354857D01*
X194322571Y-140497714D01*
X193608285Y-140640571D01*
D10*
X176784000Y-117348000D02*
X177800000Y-117348000D01*
X176784000Y-123444000D02*
X177800000Y-123444000D01*
X176784000Y-130302000D02*
X177800000Y-130302000D01*
X176784000Y-122174000D02*
X176784000Y-132842000D01*
D11*
X179943809Y-124955952D02*
X179943809Y-122455952D01*
X181372380Y-124955952D01*
X181372380Y-122455952D01*
X183515238Y-124836904D02*
X183277142Y-124955952D01*
X182800952Y-124955952D01*
X182562857Y-124836904D01*
X182443809Y-124598809D01*
X182443809Y-123646428D01*
X182562857Y-123408333D01*
X182800952Y-123289285D01*
X183277142Y-123289285D01*
X183515238Y-123408333D01*
X183634285Y-123646428D01*
X183634285Y-123884523D01*
X182443809Y-124122619D01*
X185777142Y-123289285D02*
X185777142Y-124955952D01*
X184705714Y-123289285D02*
X184705714Y-124598809D01*
X184824761Y-124836904D01*
X185062857Y-124955952D01*
X185420000Y-124955952D01*
X185658095Y-124836904D01*
X185777142Y-124717857D01*
X186610476Y-123289285D02*
X187562857Y-123289285D01*
X186967619Y-122455952D02*
X186967619Y-124598809D01*
X187086666Y-124836904D01*
X187324761Y-124955952D01*
X187562857Y-124955952D01*
X188396190Y-124955952D02*
X188396190Y-123289285D01*
X188396190Y-123765476D02*
X188515238Y-123527380D01*
X188634285Y-123408333D01*
X188872380Y-123289285D01*
X189110476Y-123289285D01*
X190896190Y-124836904D02*
X190658095Y-124955952D01*
X190181904Y-124955952D01*
X189943809Y-124836904D01*
X189824761Y-124598809D01*
X189824761Y-123646428D01*
X189943809Y-123408333D01*
X190181904Y-123289285D01*
X190658095Y-123289285D01*
X190896190Y-123408333D01*
X191015238Y-123646428D01*
X191015238Y-123884523D01*
X189824761Y-124122619D01*
X179912000Y-118859952D02*
X179912000Y-116359952D01*
X180864380Y-116359952D01*
X181102476Y-116479000D01*
X181221523Y-116598047D01*
X181340571Y-116836142D01*
X181340571Y-117193285D01*
X181221523Y-117431380D01*
X181102476Y-117550428D01*
X180864380Y-117669476D01*
X179912000Y-117669476D01*
X182412000Y-118859952D02*
X182412000Y-116359952D01*
X183483428Y-118859952D02*
X183483428Y-117550428D01*
X183364380Y-117312333D01*
X183126285Y-117193285D01*
X182769142Y-117193285D01*
X182531047Y-117312333D01*
X182412000Y-117431380D01*
X185745333Y-118859952D02*
X185745333Y-117550428D01*
X185626285Y-117312333D01*
X185388190Y-117193285D01*
X184912000Y-117193285D01*
X184673904Y-117312333D01*
X185745333Y-118740904D02*
X185507238Y-118859952D01*
X184912000Y-118859952D01*
X184673904Y-118740904D01*
X184554857Y-118502809D01*
X184554857Y-118264714D01*
X184673904Y-118026619D01*
X184912000Y-117907571D01*
X185507238Y-117907571D01*
X185745333Y-117788523D01*
X186816761Y-118740904D02*
X187054857Y-118859952D01*
X187531047Y-118859952D01*
X187769142Y-118740904D01*
X187888190Y-118502809D01*
X187888190Y-118383761D01*
X187769142Y-118145666D01*
X187531047Y-118026619D01*
X187173904Y-118026619D01*
X186935809Y-117907571D01*
X186816761Y-117669476D01*
X186816761Y-117550428D01*
X186935809Y-117312333D01*
X187173904Y-117193285D01*
X187531047Y-117193285D01*
X187769142Y-117312333D01*
X189912000Y-118740904D02*
X189673904Y-118859952D01*
X189197714Y-118859952D01*
X188959619Y-118740904D01*
X188840571Y-118502809D01*
X188840571Y-117550428D01*
X188959619Y-117312333D01*
X189197714Y-117193285D01*
X189673904Y-117193285D01*
X189912000Y-117312333D01*
X190031047Y-117550428D01*
X190031047Y-117788523D01*
X188840571Y-118026619D01*
X180090571Y-131559952D02*
X180090571Y-129059952D01*
X181042952Y-129059952D01*
X181281047Y-129179000D01*
X181400095Y-129298047D01*
X181519142Y-129536142D01*
X181519142Y-129893285D01*
X181400095Y-130131380D01*
X181281047Y-130250428D01*
X181042952Y-130369476D01*
X180090571Y-130369476D01*
X182590571Y-131559952D02*
X182590571Y-129893285D01*
X182590571Y-129059952D02*
X182471523Y-129179000D01*
X182590571Y-129298047D01*
X182709619Y-129179000D01*
X182590571Y-129059952D01*
X182590571Y-129298047D01*
X184138190Y-131559952D02*
X183900095Y-131440904D01*
X183781047Y-131202809D01*
X183781047Y-129059952D01*
X185447714Y-131559952D02*
X185209619Y-131440904D01*
X185090571Y-131321857D01*
X184971523Y-131083761D01*
X184971523Y-130369476D01*
X185090571Y-130131380D01*
X185209619Y-130012333D01*
X185447714Y-129893285D01*
X185804857Y-129893285D01*
X186042952Y-130012333D01*
X186162000Y-130131380D01*
X186281047Y-130369476D01*
X186281047Y-131083761D01*
X186162000Y-131321857D01*
X186042952Y-131440904D01*
X185804857Y-131559952D01*
X185447714Y-131559952D01*
X186995333Y-129893285D02*
X187947714Y-129893285D01*
X187352476Y-129059952D02*
X187352476Y-131202809D01*
X187471523Y-131440904D01*
X187709619Y-131559952D01*
X187947714Y-131559952D01*
X189733428Y-131440904D02*
X189495333Y-131559952D01*
X189019142Y-131559952D01*
X188781047Y-131440904D01*
X188662000Y-131202809D01*
X188662000Y-130250428D01*
X188781047Y-130012333D01*
X189019142Y-129893285D01*
X189495333Y-129893285D01*
X189733428Y-130012333D01*
X189852476Y-130250428D01*
X189852476Y-130488523D01*
X188662000Y-130726619D01*
D10*
X176784000Y-121666000D02*
X176784000Y-122174000D01*
X176784000Y-119126000D02*
X176784000Y-121666000D01*
X176784000Y-108204000D02*
X176784000Y-119126000D01*
%TO.C,R3*%
X113311000Y-92678000D02*
X116051000Y-92678000D01*
X116051000Y-92678000D02*
X116051000Y-86138000D01*
X116051000Y-86138000D02*
X113311000Y-86138000D01*
X113311000Y-86138000D02*
X113311000Y-92678000D01*
X114681000Y-93448000D02*
X114681000Y-92678000D01*
X114681000Y-85368000D02*
X114681000Y-86138000D01*
%TO.C,A1*%
X123825000Y-104775000D02*
X123825000Y-107315000D01*
X123825000Y-107315000D02*
X126495000Y-107315000D01*
X126495000Y-104775000D02*
X126495000Y-66545000D01*
X126495000Y-109985000D02*
X126495000Y-107315000D01*
X111125000Y-107315000D02*
X108455000Y-107315000D01*
X111125000Y-107315000D02*
X111125000Y-69215000D01*
X111125000Y-69215000D02*
X108455000Y-69215000D01*
X123825000Y-104775000D02*
X126495000Y-104775000D01*
X123825000Y-104775000D02*
X123825000Y-69215000D01*
X123825000Y-69215000D02*
X126495000Y-69215000D01*
X126495000Y-66545000D02*
X108455000Y-66545000D01*
X108455000Y-66545000D02*
X108455000Y-109985000D01*
X108455000Y-109985000D02*
X126495000Y-109985000D01*
%TO.C,R4*%
X116110000Y-127662000D02*
X116110000Y-130402000D01*
X116110000Y-130402000D02*
X122650000Y-130402000D01*
X122650000Y-130402000D02*
X122650000Y-127662000D01*
X122650000Y-127662000D02*
X116110000Y-127662000D01*
X115340000Y-129032000D02*
X116110000Y-129032000D01*
X123420000Y-129032000D02*
X122650000Y-129032000D01*
%TO.C,R1*%
X116110000Y-134012000D02*
X116110000Y-136752000D01*
X116110000Y-136752000D02*
X122650000Y-136752000D01*
X122650000Y-136752000D02*
X122650000Y-134012000D01*
X122650000Y-134012000D02*
X116110000Y-134012000D01*
X115340000Y-135382000D02*
X116110000Y-135382000D01*
X123420000Y-135382000D02*
X122650000Y-135382000D01*
D12*
%TO.C,U5*%
X187188000Y-64770000D02*
X187188000Y-90170000D01*
X187188000Y-90170000D02*
X141488000Y-90170000D01*
X141488000Y-90170000D02*
X141488000Y-64770000D01*
X141488000Y-64770000D02*
X187188000Y-64770000D01*
D13*
%TO.C,U3*%
X151337000Y-101981000D02*
X159002000Y-101981000D01*
X152402000Y-110871000D02*
X159002000Y-110871000D01*
%TO.C,U2*%
X151337000Y-91567000D02*
X159002000Y-91567000D01*
X152402000Y-100457000D02*
X159002000Y-100457000D01*
D10*
%TO.C,U1*%
X128905000Y-119380000D02*
X108585000Y-119380000D01*
X128905000Y-147320000D02*
X128905000Y-119380000D01*
X108585000Y-147320000D02*
X128905000Y-147320000D01*
X108585000Y-119380000D02*
X108585000Y-147320000D01*
%TO.C,J1*%
X179959000Y-98044000D02*
X179959000Y-96774000D01*
X179959000Y-96774000D02*
X190119000Y-96774000D01*
X190119000Y-96774000D02*
X190119000Y-112014000D01*
X190119000Y-112014000D02*
X179959000Y-112014000D01*
X179959000Y-112014000D02*
X179959000Y-98044000D01*
X179959000Y-98044000D02*
X179959000Y-101854000D01*
X179959000Y-101854000D02*
X190119000Y-101854000D01*
X190119000Y-101854000D02*
X190119000Y-106934000D01*
X190119000Y-106934000D02*
X179959000Y-106934000D01*
%TO.C,D1*%
X130610000Y-102270000D02*
X133550000Y-102270000D01*
X130610000Y-102030000D02*
X133550000Y-102030000D01*
X130610000Y-102150000D02*
X133550000Y-102150000D01*
X132080000Y-96590000D02*
X132080000Y-97610000D01*
X132080000Y-104070000D02*
X132080000Y-103050000D01*
X130610000Y-97610000D02*
X130610000Y-103050000D01*
X133550000Y-97610000D02*
X130610000Y-97610000D01*
X133550000Y-103050000D02*
X133550000Y-97610000D01*
X130610000Y-103050000D02*
X133550000Y-103050000D01*
%TO.C,U4*%
X137646000Y-148281000D02*
X141246000Y-148281000D01*
X141770184Y-147553795D02*
G75*
G02*
X141246000Y-148281000I-2324184J1122795D01*
G01*
X141802400Y-145332193D02*
G75*
G03*
X139446000Y-143831000I-2356400J-1098807D01*
G01*
X137089600Y-145332193D02*
G75*
G02*
X139446000Y-143831000I2356400J-1098807D01*
G01*
X137121816Y-147553795D02*
G75*
G03*
X137646000Y-148281000I2324184J1122795D01*
G01*
%TO.C,R9*%
X140689000Y-129191000D02*
X137949000Y-129191000D01*
X137949000Y-129191000D02*
X137949000Y-135731000D01*
X137949000Y-135731000D02*
X140689000Y-135731000D01*
X140689000Y-135731000D02*
X140689000Y-129191000D01*
X139319000Y-128421000D02*
X139319000Y-129191000D01*
X139319000Y-136501000D02*
X139319000Y-135731000D01*
%TO.C,R8*%
X146526000Y-107796000D02*
X146526000Y-105056000D01*
X146526000Y-105056000D02*
X139986000Y-105056000D01*
X139986000Y-105056000D02*
X139986000Y-107796000D01*
X139986000Y-107796000D02*
X146526000Y-107796000D01*
X147296000Y-106426000D02*
X146526000Y-106426000D01*
X139216000Y-106426000D02*
X139986000Y-106426000D01*
%TO.C,R7*%
X146018000Y-97382000D02*
X146018000Y-94642000D01*
X146018000Y-94642000D02*
X139478000Y-94642000D01*
X139478000Y-94642000D02*
X139478000Y-97382000D01*
X139478000Y-97382000D02*
X146018000Y-97382000D01*
X146788000Y-96012000D02*
X146018000Y-96012000D01*
X138708000Y-96012000D02*
X139478000Y-96012000D01*
%TO.C,R2*%
X113311000Y-78835000D02*
X116051000Y-78835000D01*
X116051000Y-78835000D02*
X116051000Y-72295000D01*
X116051000Y-72295000D02*
X113311000Y-72295000D01*
X113311000Y-72295000D02*
X113311000Y-78835000D01*
X114681000Y-79605000D02*
X114681000Y-78835000D01*
X114681000Y-71525000D02*
X114681000Y-72295000D01*
%TO.C,D7*%
X171122000Y-110436000D02*
X171122000Y-107496000D01*
X171122000Y-107496000D02*
X165682000Y-107496000D01*
X165682000Y-107496000D02*
X165682000Y-110436000D01*
X165682000Y-110436000D02*
X171122000Y-110436000D01*
X172142000Y-108966000D02*
X171122000Y-108966000D01*
X164662000Y-108966000D02*
X165682000Y-108966000D01*
X170222000Y-110436000D02*
X170222000Y-107496000D01*
X170102000Y-110436000D02*
X170102000Y-107496000D01*
X170342000Y-110436000D02*
X170342000Y-107496000D01*
%TO.C,D6*%
X165809000Y-97082000D02*
X165809000Y-100022000D01*
X165809000Y-100022000D02*
X171249000Y-100022000D01*
X171249000Y-100022000D02*
X171249000Y-97082000D01*
X171249000Y-97082000D02*
X165809000Y-97082000D01*
X164789000Y-98552000D02*
X165809000Y-98552000D01*
X172269000Y-98552000D02*
X171249000Y-98552000D01*
X166709000Y-97082000D02*
X166709000Y-100022000D01*
X166829000Y-97082000D02*
X166829000Y-100022000D01*
X166589000Y-97082000D02*
X166589000Y-100022000D01*
%TO.C,C1*%
X123250000Y-115570000D02*
G75*
G03*
X123250000Y-115570000I-2620000J0D01*
G01*
X120630000Y-112990000D02*
X120630000Y-118150000D01*
X120670000Y-112990000D02*
X120670000Y-118150000D01*
X120710000Y-112991000D02*
X120710000Y-118149000D01*
X120750000Y-112992000D02*
X120750000Y-118148000D01*
X120790000Y-112994000D02*
X120790000Y-118146000D01*
X120830000Y-112997000D02*
X120830000Y-118143000D01*
X120870000Y-113001000D02*
X120870000Y-114530000D01*
X120870000Y-116610000D02*
X120870000Y-118139000D01*
X120910000Y-113005000D02*
X120910000Y-114530000D01*
X120910000Y-116610000D02*
X120910000Y-118135000D01*
X120950000Y-113009000D02*
X120950000Y-114530000D01*
X120950000Y-116610000D02*
X120950000Y-118131000D01*
X120990000Y-113014000D02*
X120990000Y-114530000D01*
X120990000Y-116610000D02*
X120990000Y-118126000D01*
X121030000Y-113020000D02*
X121030000Y-114530000D01*
X121030000Y-116610000D02*
X121030000Y-118120000D01*
X121070000Y-113027000D02*
X121070000Y-114530000D01*
X121070000Y-116610000D02*
X121070000Y-118113000D01*
X121110000Y-113034000D02*
X121110000Y-114530000D01*
X121110000Y-116610000D02*
X121110000Y-118106000D01*
X121150000Y-113042000D02*
X121150000Y-114530000D01*
X121150000Y-116610000D02*
X121150000Y-118098000D01*
X121190000Y-113050000D02*
X121190000Y-114530000D01*
X121190000Y-116610000D02*
X121190000Y-118090000D01*
X121230000Y-113059000D02*
X121230000Y-114530000D01*
X121230000Y-116610000D02*
X121230000Y-118081000D01*
X121270000Y-113069000D02*
X121270000Y-114530000D01*
X121270000Y-116610000D02*
X121270000Y-118071000D01*
X121310000Y-113079000D02*
X121310000Y-114530000D01*
X121310000Y-116610000D02*
X121310000Y-118061000D01*
X121351000Y-113090000D02*
X121351000Y-114530000D01*
X121351000Y-116610000D02*
X121351000Y-118050000D01*
X121391000Y-113102000D02*
X121391000Y-114530000D01*
X121391000Y-116610000D02*
X121391000Y-118038000D01*
X121431000Y-113115000D02*
X121431000Y-114530000D01*
X121431000Y-116610000D02*
X121431000Y-118025000D01*
X121471000Y-113128000D02*
X121471000Y-114530000D01*
X121471000Y-116610000D02*
X121471000Y-118012000D01*
X121511000Y-113142000D02*
X121511000Y-114530000D01*
X121511000Y-116610000D02*
X121511000Y-117998000D01*
X121551000Y-113156000D02*
X121551000Y-114530000D01*
X121551000Y-116610000D02*
X121551000Y-117984000D01*
X121591000Y-113172000D02*
X121591000Y-114530000D01*
X121591000Y-116610000D02*
X121591000Y-117968000D01*
X121631000Y-113188000D02*
X121631000Y-114530000D01*
X121631000Y-116610000D02*
X121631000Y-117952000D01*
X121671000Y-113205000D02*
X121671000Y-114530000D01*
X121671000Y-116610000D02*
X121671000Y-117935000D01*
X121711000Y-113222000D02*
X121711000Y-114530000D01*
X121711000Y-116610000D02*
X121711000Y-117918000D01*
X121751000Y-113241000D02*
X121751000Y-114530000D01*
X121751000Y-116610000D02*
X121751000Y-117899000D01*
X121791000Y-113260000D02*
X121791000Y-114530000D01*
X121791000Y-116610000D02*
X121791000Y-117880000D01*
X121831000Y-113280000D02*
X121831000Y-114530000D01*
X121831000Y-116610000D02*
X121831000Y-117860000D01*
X121871000Y-113302000D02*
X121871000Y-114530000D01*
X121871000Y-116610000D02*
X121871000Y-117838000D01*
X121911000Y-113323000D02*
X121911000Y-114530000D01*
X121911000Y-116610000D02*
X121911000Y-117817000D01*
X121951000Y-113346000D02*
X121951000Y-114530000D01*
X121951000Y-116610000D02*
X121951000Y-117794000D01*
X121991000Y-113370000D02*
X121991000Y-114530000D01*
X121991000Y-116610000D02*
X121991000Y-117770000D01*
X122031000Y-113395000D02*
X122031000Y-114530000D01*
X122031000Y-116610000D02*
X122031000Y-117745000D01*
X122071000Y-113421000D02*
X122071000Y-114530000D01*
X122071000Y-116610000D02*
X122071000Y-117719000D01*
X122111000Y-113448000D02*
X122111000Y-114530000D01*
X122111000Y-116610000D02*
X122111000Y-117692000D01*
X122151000Y-113475000D02*
X122151000Y-114530000D01*
X122151000Y-116610000D02*
X122151000Y-117665000D01*
X122191000Y-113505000D02*
X122191000Y-114530000D01*
X122191000Y-116610000D02*
X122191000Y-117635000D01*
X122231000Y-113535000D02*
X122231000Y-114530000D01*
X122231000Y-116610000D02*
X122231000Y-117605000D01*
X122271000Y-113566000D02*
X122271000Y-114530000D01*
X122271000Y-116610000D02*
X122271000Y-117574000D01*
X122311000Y-113599000D02*
X122311000Y-114530000D01*
X122311000Y-116610000D02*
X122311000Y-117541000D01*
X122351000Y-113633000D02*
X122351000Y-114530000D01*
X122351000Y-116610000D02*
X122351000Y-117507000D01*
X122391000Y-113669000D02*
X122391000Y-114530000D01*
X122391000Y-116610000D02*
X122391000Y-117471000D01*
X122431000Y-113706000D02*
X122431000Y-114530000D01*
X122431000Y-116610000D02*
X122431000Y-117434000D01*
X122471000Y-113744000D02*
X122471000Y-114530000D01*
X122471000Y-116610000D02*
X122471000Y-117396000D01*
X122511000Y-113785000D02*
X122511000Y-114530000D01*
X122511000Y-116610000D02*
X122511000Y-117355000D01*
X122551000Y-113827000D02*
X122551000Y-114530000D01*
X122551000Y-116610000D02*
X122551000Y-117313000D01*
X122591000Y-113871000D02*
X122591000Y-114530000D01*
X122591000Y-116610000D02*
X122591000Y-117269000D01*
X122631000Y-113917000D02*
X122631000Y-114530000D01*
X122631000Y-116610000D02*
X122631000Y-117223000D01*
X122671000Y-113965000D02*
X122671000Y-114530000D01*
X122671000Y-116610000D02*
X122671000Y-117175000D01*
X122711000Y-114016000D02*
X122711000Y-114530000D01*
X122711000Y-116610000D02*
X122711000Y-117124000D01*
X122751000Y-114070000D02*
X122751000Y-114530000D01*
X122751000Y-116610000D02*
X122751000Y-117070000D01*
X122791000Y-114127000D02*
X122791000Y-114530000D01*
X122791000Y-116610000D02*
X122791000Y-117013000D01*
X122831000Y-114187000D02*
X122831000Y-114530000D01*
X122831000Y-116610000D02*
X122831000Y-116953000D01*
X122871000Y-114251000D02*
X122871000Y-114530000D01*
X122871000Y-116610000D02*
X122871000Y-116889000D01*
X122911000Y-114319000D02*
X122911000Y-114530000D01*
X122911000Y-116610000D02*
X122911000Y-116821000D01*
X122951000Y-114392000D02*
X122951000Y-116748000D01*
X122991000Y-114472000D02*
X122991000Y-116668000D01*
X123031000Y-114559000D02*
X123031000Y-116581000D01*
X123071000Y-114655000D02*
X123071000Y-116485000D01*
X123111000Y-114765000D02*
X123111000Y-116375000D01*
X123151000Y-114893000D02*
X123151000Y-116247000D01*
X123191000Y-115052000D02*
X123191000Y-116088000D01*
X123231000Y-115286000D02*
X123231000Y-115854000D01*
X117825225Y-114095000D02*
X118325225Y-114095000D01*
X118075225Y-113845000D02*
X118075225Y-114345000D01*
%TO.C,R3*%
D11*
X112763380Y-89574666D02*
X112287190Y-89908000D01*
X112763380Y-90146095D02*
X111763380Y-90146095D01*
X111763380Y-89765142D01*
X111811000Y-89669904D01*
X111858619Y-89622285D01*
X111953857Y-89574666D01*
X112096714Y-89574666D01*
X112191952Y-89622285D01*
X112239571Y-89669904D01*
X112287190Y-89765142D01*
X112287190Y-90146095D01*
X111763380Y-89241333D02*
X111763380Y-88622285D01*
X112144333Y-88955619D01*
X112144333Y-88812761D01*
X112191952Y-88717523D01*
X112239571Y-88669904D01*
X112334809Y-88622285D01*
X112572904Y-88622285D01*
X112668142Y-88669904D01*
X112715761Y-88717523D01*
X112763380Y-88812761D01*
X112763380Y-89098476D01*
X112715761Y-89193714D01*
X112668142Y-89241333D01*
%TO.C,A1*%
X116760714Y-111291666D02*
X117236904Y-111291666D01*
X116665476Y-111577380D02*
X116998809Y-110577380D01*
X117332142Y-111577380D01*
X118189285Y-111577380D02*
X117617857Y-111577380D01*
X117903571Y-111577380D02*
X117903571Y-110577380D01*
X117808333Y-110720238D01*
X117713095Y-110815476D01*
X117617857Y-110863095D01*
%TO.C,R4*%
X119213333Y-127114380D02*
X118880000Y-126638190D01*
X118641904Y-127114380D02*
X118641904Y-126114380D01*
X119022857Y-126114380D01*
X119118095Y-126162000D01*
X119165714Y-126209619D01*
X119213333Y-126304857D01*
X119213333Y-126447714D01*
X119165714Y-126542952D01*
X119118095Y-126590571D01*
X119022857Y-126638190D01*
X118641904Y-126638190D01*
X120070476Y-126447714D02*
X120070476Y-127114380D01*
X119832380Y-126066761D02*
X119594285Y-126781047D01*
X120213333Y-126781047D01*
%TO.C,R1*%
X119213333Y-133464380D02*
X118880000Y-132988190D01*
X118641904Y-133464380D02*
X118641904Y-132464380D01*
X119022857Y-132464380D01*
X119118095Y-132512000D01*
X119165714Y-132559619D01*
X119213333Y-132654857D01*
X119213333Y-132797714D01*
X119165714Y-132892952D01*
X119118095Y-132940571D01*
X119022857Y-132988190D01*
X118641904Y-132988190D01*
X120165714Y-133464380D02*
X119594285Y-133464380D01*
X119880000Y-133464380D02*
X119880000Y-132464380D01*
X119784761Y-132607238D01*
X119689523Y-132702476D01*
X119594285Y-132750095D01*
%TO.C,U5*%
X180854885Y-90865545D02*
X180854885Y-92000841D01*
X180921667Y-92134406D01*
X180988450Y-92201188D01*
X181122014Y-92267970D01*
X181389142Y-92267970D01*
X181522707Y-92201188D01*
X181589489Y-92134406D01*
X181656271Y-92000841D01*
X181656271Y-90865545D01*
X182991914Y-90865545D02*
X182324092Y-90865545D01*
X182257310Y-91533366D01*
X182324092Y-91466584D01*
X182457657Y-91399802D01*
X182791567Y-91399802D01*
X182925132Y-91466584D01*
X182991914Y-91533366D01*
X183058696Y-91666931D01*
X183058696Y-92000841D01*
X182991914Y-92134406D01*
X182925132Y-92201188D01*
X182791567Y-92267970D01*
X182457657Y-92267970D01*
X182324092Y-92201188D01*
X182257310Y-92134406D01*
%TO.C,U3*%
X149225095Y-111593380D02*
X149225095Y-112402904D01*
X149272714Y-112498142D01*
X149320333Y-112545761D01*
X149415571Y-112593380D01*
X149606047Y-112593380D01*
X149701285Y-112545761D01*
X149748904Y-112498142D01*
X149796523Y-112402904D01*
X149796523Y-111593380D01*
X150177476Y-111593380D02*
X150796523Y-111593380D01*
X150463190Y-111974333D01*
X150606047Y-111974333D01*
X150701285Y-112021952D01*
X150748904Y-112069571D01*
X150796523Y-112164809D01*
X150796523Y-112402904D01*
X150748904Y-112498142D01*
X150701285Y-112545761D01*
X150606047Y-112593380D01*
X150320333Y-112593380D01*
X150225095Y-112545761D01*
X150177476Y-112498142D01*
%TO.C,U2*%
X149225095Y-99655380D02*
X149225095Y-100464904D01*
X149272714Y-100560142D01*
X149320333Y-100607761D01*
X149415571Y-100655380D01*
X149606047Y-100655380D01*
X149701285Y-100607761D01*
X149748904Y-100560142D01*
X149796523Y-100464904D01*
X149796523Y-99655380D01*
X150225095Y-99750619D02*
X150272714Y-99703000D01*
X150367952Y-99655380D01*
X150606047Y-99655380D01*
X150701285Y-99703000D01*
X150748904Y-99750619D01*
X150796523Y-99845857D01*
X150796523Y-99941095D01*
X150748904Y-100083952D01*
X150177476Y-100655380D01*
X150796523Y-100655380D01*
%TO.C,U1*%
X109601095Y-117562380D02*
X109601095Y-118371904D01*
X109648714Y-118467142D01*
X109696333Y-118514761D01*
X109791571Y-118562380D01*
X109982047Y-118562380D01*
X110077285Y-118514761D01*
X110124904Y-118467142D01*
X110172523Y-118371904D01*
X110172523Y-117562380D01*
X111172523Y-118562380D02*
X110601095Y-118562380D01*
X110886809Y-118562380D02*
X110886809Y-117562380D01*
X110791571Y-117705238D01*
X110696333Y-117800476D01*
X110601095Y-117848095D01*
X111482142Y-143810476D02*
X111529761Y-143858095D01*
X111577380Y-144000952D01*
X111577380Y-144096190D01*
X111529761Y-144239047D01*
X111434523Y-144334285D01*
X111339285Y-144381904D01*
X111148809Y-144429523D01*
X111005952Y-144429523D01*
X110815476Y-144381904D01*
X110720238Y-144334285D01*
X110625000Y-144239047D01*
X110577380Y-144096190D01*
X110577380Y-144000952D01*
X110625000Y-143858095D01*
X110672619Y-143810476D01*
X111577380Y-142953333D02*
X111053571Y-142953333D01*
X110958333Y-143000952D01*
X110910714Y-143096190D01*
X110910714Y-143286666D01*
X110958333Y-143381904D01*
X111529761Y-142953333D02*
X111577380Y-143048571D01*
X111577380Y-143286666D01*
X111529761Y-143381904D01*
X111434523Y-143429523D01*
X111339285Y-143429523D01*
X111244047Y-143381904D01*
X111196428Y-143286666D01*
X111196428Y-143048571D01*
X111148809Y-142953333D01*
X111577380Y-142477142D02*
X110910714Y-142477142D01*
X111101190Y-142477142D02*
X111005952Y-142429523D01*
X110958333Y-142381904D01*
X110910714Y-142286666D01*
X110910714Y-142191428D01*
X110910714Y-142000952D02*
X110910714Y-141620000D01*
X110577380Y-141858095D02*
X111434523Y-141858095D01*
X111529761Y-141810476D01*
X111577380Y-141715238D01*
X111577380Y-141620000D01*
X111529761Y-140905714D02*
X111577380Y-141000952D01*
X111577380Y-141191428D01*
X111529761Y-141286666D01*
X111434523Y-141334285D01*
X111053571Y-141334285D01*
X110958333Y-141286666D01*
X110910714Y-141191428D01*
X110910714Y-141000952D01*
X110958333Y-140905714D01*
X111053571Y-140858095D01*
X111148809Y-140858095D01*
X111244047Y-141334285D01*
X111529761Y-139715238D02*
X111577380Y-139572380D01*
X111577380Y-139334285D01*
X111529761Y-139239047D01*
X111482142Y-139191428D01*
X111386904Y-139143809D01*
X111291666Y-139143809D01*
X111196428Y-139191428D01*
X111148809Y-139239047D01*
X111101190Y-139334285D01*
X111053571Y-139524761D01*
X111005952Y-139620000D01*
X110958333Y-139667619D01*
X110863095Y-139715238D01*
X110767857Y-139715238D01*
X110672619Y-139667619D01*
X110625000Y-139620000D01*
X110577380Y-139524761D01*
X110577380Y-139286666D01*
X110625000Y-139143809D01*
X111577380Y-138715238D02*
X110910714Y-138715238D01*
X110577380Y-138715238D02*
X110625000Y-138762857D01*
X110672619Y-138715238D01*
X110625000Y-138667619D01*
X110577380Y-138715238D01*
X110672619Y-138715238D01*
X111577380Y-138239047D02*
X110910714Y-138239047D01*
X111005952Y-138239047D02*
X110958333Y-138191428D01*
X110910714Y-138096190D01*
X110910714Y-137953333D01*
X110958333Y-137858095D01*
X111053571Y-137810476D01*
X111577380Y-137810476D01*
X111053571Y-137810476D02*
X110958333Y-137762857D01*
X110910714Y-137667619D01*
X110910714Y-137524761D01*
X110958333Y-137429523D01*
X111053571Y-137381904D01*
X111577380Y-137381904D01*
X110910714Y-136286666D02*
X110910714Y-135905714D01*
X111577380Y-136143809D02*
X110720238Y-136143809D01*
X110625000Y-136096190D01*
X110577380Y-136000952D01*
X110577380Y-135905714D01*
X111577380Y-135143809D02*
X111053571Y-135143809D01*
X110958333Y-135191428D01*
X110910714Y-135286666D01*
X110910714Y-135477142D01*
X110958333Y-135572380D01*
X111529761Y-135143809D02*
X111577380Y-135239047D01*
X111577380Y-135477142D01*
X111529761Y-135572380D01*
X111434523Y-135620000D01*
X111339285Y-135620000D01*
X111244047Y-135572380D01*
X111196428Y-135477142D01*
X111196428Y-135239047D01*
X111148809Y-135143809D01*
X111529761Y-134239047D02*
X111577380Y-134334285D01*
X111577380Y-134524761D01*
X111529761Y-134620000D01*
X111482142Y-134667619D01*
X111386904Y-134715238D01*
X111101190Y-134715238D01*
X111005952Y-134667619D01*
X110958333Y-134620000D01*
X110910714Y-134524761D01*
X110910714Y-134334285D01*
X110958333Y-134239047D01*
X111529761Y-133429523D02*
X111577380Y-133524761D01*
X111577380Y-133715238D01*
X111529761Y-133810476D01*
X111434523Y-133858095D01*
X111053571Y-133858095D01*
X110958333Y-133810476D01*
X110910714Y-133715238D01*
X110910714Y-133524761D01*
X110958333Y-133429523D01*
X111053571Y-133381904D01*
X111148809Y-133381904D01*
X111244047Y-133858095D01*
X111529761Y-132239047D02*
X111577380Y-132143809D01*
X111577380Y-131953333D01*
X111529761Y-131858095D01*
X111434523Y-131810476D01*
X111386904Y-131810476D01*
X111291666Y-131858095D01*
X111244047Y-131953333D01*
X111244047Y-132096190D01*
X111196428Y-132191428D01*
X111101190Y-132239047D01*
X111053571Y-132239047D01*
X110958333Y-132191428D01*
X110910714Y-132096190D01*
X110910714Y-131953333D01*
X110958333Y-131858095D01*
X110910714Y-130953333D02*
X111577380Y-130953333D01*
X110910714Y-131381904D02*
X111434523Y-131381904D01*
X111529761Y-131334285D01*
X111577380Y-131239047D01*
X111577380Y-131096190D01*
X111529761Y-131000952D01*
X111482142Y-130953333D01*
X110910714Y-130477142D02*
X111910714Y-130477142D01*
X110958333Y-130477142D02*
X110910714Y-130381904D01*
X110910714Y-130191428D01*
X110958333Y-130096190D01*
X111005952Y-130048571D01*
X111101190Y-130000952D01*
X111386904Y-130000952D01*
X111482142Y-130048571D01*
X111529761Y-130096190D01*
X111577380Y-130191428D01*
X111577380Y-130381904D01*
X111529761Y-130477142D01*
X111529761Y-129191428D02*
X111577380Y-129286666D01*
X111577380Y-129477142D01*
X111529761Y-129572380D01*
X111434523Y-129620000D01*
X111053571Y-129620000D01*
X110958333Y-129572380D01*
X110910714Y-129477142D01*
X110910714Y-129286666D01*
X110958333Y-129191428D01*
X111053571Y-129143809D01*
X111148809Y-129143809D01*
X111244047Y-129620000D01*
X110529761Y-129286666D02*
X110672619Y-129429523D01*
X111577380Y-128715238D02*
X110910714Y-128715238D01*
X111101190Y-128715238D02*
X111005952Y-128667619D01*
X110958333Y-128620000D01*
X110910714Y-128524761D01*
X110910714Y-128429523D01*
X111577380Y-128096190D02*
X110910714Y-128096190D01*
X110577380Y-128096190D02*
X110625000Y-128143809D01*
X110672619Y-128096190D01*
X110625000Y-128048571D01*
X110577380Y-128096190D01*
X110672619Y-128096190D01*
X111529761Y-127239047D02*
X111577380Y-127334285D01*
X111577380Y-127524761D01*
X111529761Y-127620000D01*
X111434523Y-127667619D01*
X111053571Y-127667619D01*
X110958333Y-127620000D01*
X110910714Y-127524761D01*
X110910714Y-127334285D01*
X110958333Y-127239047D01*
X111053571Y-127191428D01*
X111148809Y-127191428D01*
X111244047Y-127667619D01*
X110910714Y-126334285D02*
X111577380Y-126334285D01*
X110910714Y-126762857D02*
X111434523Y-126762857D01*
X111529761Y-126715238D01*
X111577380Y-126620000D01*
X111577380Y-126477142D01*
X111529761Y-126381904D01*
X111482142Y-126334285D01*
X111577380Y-125858095D02*
X110910714Y-125858095D01*
X111101190Y-125858095D02*
X111005952Y-125810476D01*
X110958333Y-125762857D01*
X110910714Y-125667619D01*
X110910714Y-125572380D01*
X111529761Y-124858095D02*
X111577380Y-124953333D01*
X111577380Y-125143809D01*
X111529761Y-125239047D01*
X111434523Y-125286666D01*
X111053571Y-125286666D01*
X110958333Y-125239047D01*
X110910714Y-125143809D01*
X110910714Y-124953333D01*
X110958333Y-124858095D01*
X111053571Y-124810476D01*
X111148809Y-124810476D01*
X111244047Y-125286666D01*
%TO.C,J1*%
X184324666Y-94575380D02*
X184324666Y-95289666D01*
X184277047Y-95432523D01*
X184181809Y-95527761D01*
X184038952Y-95575380D01*
X183943714Y-95575380D01*
X185324666Y-95575380D02*
X184753238Y-95575380D01*
X185038952Y-95575380D02*
X185038952Y-94575380D01*
X184943714Y-94718238D01*
X184848476Y-94813476D01*
X184753238Y-94861095D01*
%TO.C,D1*%
X134262904Y-101036380D02*
X134262904Y-100036380D01*
X134501000Y-100036380D01*
X134643857Y-100084000D01*
X134739095Y-100179238D01*
X134786714Y-100274476D01*
X134834333Y-100464952D01*
X134834333Y-100607809D01*
X134786714Y-100798285D01*
X134739095Y-100893523D01*
X134643857Y-100988761D01*
X134501000Y-101036380D01*
X134262904Y-101036380D01*
X135786714Y-101036380D02*
X135215285Y-101036380D01*
X135501000Y-101036380D02*
X135501000Y-100036380D01*
X135405761Y-100179238D01*
X135310523Y-100274476D01*
X135215285Y-100322095D01*
%TO.C,U4*%
X138684095Y-142323380D02*
X138684095Y-143132904D01*
X138731714Y-143228142D01*
X138779333Y-143275761D01*
X138874571Y-143323380D01*
X139065047Y-143323380D01*
X139160285Y-143275761D01*
X139207904Y-143228142D01*
X139255523Y-143132904D01*
X139255523Y-142323380D01*
X140160285Y-142656714D02*
X140160285Y-143323380D01*
X139922190Y-142275761D02*
X139684095Y-142990047D01*
X140303142Y-142990047D01*
%TO.C,R9*%
X142141380Y-132627666D02*
X141665190Y-132961000D01*
X142141380Y-133199095D02*
X141141380Y-133199095D01*
X141141380Y-132818142D01*
X141189000Y-132722904D01*
X141236619Y-132675285D01*
X141331857Y-132627666D01*
X141474714Y-132627666D01*
X141569952Y-132675285D01*
X141617571Y-132722904D01*
X141665190Y-132818142D01*
X141665190Y-133199095D01*
X142141380Y-132151476D02*
X142141380Y-131961000D01*
X142093761Y-131865761D01*
X142046142Y-131818142D01*
X141903285Y-131722904D01*
X141712809Y-131675285D01*
X141331857Y-131675285D01*
X141236619Y-131722904D01*
X141189000Y-131770523D01*
X141141380Y-131865761D01*
X141141380Y-132056238D01*
X141189000Y-132151476D01*
X141236619Y-132199095D01*
X141331857Y-132246714D01*
X141569952Y-132246714D01*
X141665190Y-132199095D01*
X141712809Y-132151476D01*
X141760428Y-132056238D01*
X141760428Y-131865761D01*
X141712809Y-131770523D01*
X141665190Y-131722904D01*
X141569952Y-131675285D01*
%TO.C,R8*%
X143089333Y-109248380D02*
X142756000Y-108772190D01*
X142517904Y-109248380D02*
X142517904Y-108248380D01*
X142898857Y-108248380D01*
X142994095Y-108296000D01*
X143041714Y-108343619D01*
X143089333Y-108438857D01*
X143089333Y-108581714D01*
X143041714Y-108676952D01*
X142994095Y-108724571D01*
X142898857Y-108772190D01*
X142517904Y-108772190D01*
X143660761Y-108676952D02*
X143565523Y-108629333D01*
X143517904Y-108581714D01*
X143470285Y-108486476D01*
X143470285Y-108438857D01*
X143517904Y-108343619D01*
X143565523Y-108296000D01*
X143660761Y-108248380D01*
X143851238Y-108248380D01*
X143946476Y-108296000D01*
X143994095Y-108343619D01*
X144041714Y-108438857D01*
X144041714Y-108486476D01*
X143994095Y-108581714D01*
X143946476Y-108629333D01*
X143851238Y-108676952D01*
X143660761Y-108676952D01*
X143565523Y-108724571D01*
X143517904Y-108772190D01*
X143470285Y-108867428D01*
X143470285Y-109057904D01*
X143517904Y-109153142D01*
X143565523Y-109200761D01*
X143660761Y-109248380D01*
X143851238Y-109248380D01*
X143946476Y-109200761D01*
X143994095Y-109153142D01*
X144041714Y-109057904D01*
X144041714Y-108867428D01*
X143994095Y-108772190D01*
X143946476Y-108724571D01*
X143851238Y-108676952D01*
%TO.C,R7*%
X142581333Y-98834380D02*
X142248000Y-98358190D01*
X142009904Y-98834380D02*
X142009904Y-97834380D01*
X142390857Y-97834380D01*
X142486095Y-97882000D01*
X142533714Y-97929619D01*
X142581333Y-98024857D01*
X142581333Y-98167714D01*
X142533714Y-98262952D01*
X142486095Y-98310571D01*
X142390857Y-98358190D01*
X142009904Y-98358190D01*
X142914666Y-97834380D02*
X143581333Y-97834380D01*
X143152761Y-98834380D01*
%TO.C,R2*%
X112763380Y-75731666D02*
X112287190Y-76065000D01*
X112763380Y-76303095D02*
X111763380Y-76303095D01*
X111763380Y-75922142D01*
X111811000Y-75826904D01*
X111858619Y-75779285D01*
X111953857Y-75731666D01*
X112096714Y-75731666D01*
X112191952Y-75779285D01*
X112239571Y-75826904D01*
X112287190Y-75922142D01*
X112287190Y-76303095D01*
X111858619Y-75350714D02*
X111811000Y-75303095D01*
X111763380Y-75207857D01*
X111763380Y-74969761D01*
X111811000Y-74874523D01*
X111858619Y-74826904D01*
X111953857Y-74779285D01*
X112049095Y-74779285D01*
X112191952Y-74826904D01*
X112763380Y-75398333D01*
X112763380Y-74779285D01*
%TO.C,D7*%
X167536904Y-106878380D02*
X167536904Y-105878380D01*
X167775000Y-105878380D01*
X167917857Y-105926000D01*
X168013095Y-106021238D01*
X168060714Y-106116476D01*
X168108333Y-106306952D01*
X168108333Y-106449809D01*
X168060714Y-106640285D01*
X168013095Y-106735523D01*
X167917857Y-106830761D01*
X167775000Y-106878380D01*
X167536904Y-106878380D01*
X168441666Y-105878380D02*
X169108333Y-105878380D01*
X168679761Y-106878380D01*
%TO.C,D6*%
X167790904Y-96534380D02*
X167790904Y-95534380D01*
X168029000Y-95534380D01*
X168171857Y-95582000D01*
X168267095Y-95677238D01*
X168314714Y-95772476D01*
X168362333Y-95962952D01*
X168362333Y-96105809D01*
X168314714Y-96296285D01*
X168267095Y-96391523D01*
X168171857Y-96486761D01*
X168029000Y-96534380D01*
X167790904Y-96534380D01*
X169219476Y-95534380D02*
X169029000Y-95534380D01*
X168933761Y-95582000D01*
X168886142Y-95629619D01*
X168790904Y-95772476D01*
X168743285Y-95962952D01*
X168743285Y-96343904D01*
X168790904Y-96439142D01*
X168838523Y-96486761D01*
X168933761Y-96534380D01*
X169124238Y-96534380D01*
X169219476Y-96486761D01*
X169267095Y-96439142D01*
X169314714Y-96343904D01*
X169314714Y-96105809D01*
X169267095Y-96010571D01*
X169219476Y-95962952D01*
X169124238Y-95915333D01*
X168933761Y-95915333D01*
X168838523Y-95962952D01*
X168790904Y-96010571D01*
X168743285Y-96105809D01*
%TO.C,C1*%
X124420333Y-116054142D02*
X124372714Y-116101761D01*
X124229857Y-116149380D01*
X124134619Y-116149380D01*
X123991761Y-116101761D01*
X123896523Y-116006523D01*
X123848904Y-115911285D01*
X123801285Y-115720809D01*
X123801285Y-115577952D01*
X123848904Y-115387476D01*
X123896523Y-115292238D01*
X123991761Y-115197000D01*
X124134619Y-115149380D01*
X124229857Y-115149380D01*
X124372714Y-115197000D01*
X124420333Y-115244619D01*
X125372714Y-116149380D02*
X124801285Y-116149380D01*
X125087000Y-116149380D02*
X125087000Y-115149380D01*
X124991761Y-115292238D01*
X124896523Y-115387476D01*
X124801285Y-115435095D01*
%TD*%
M02*
