%TF.GenerationSoftware,KiCad,Pcbnew,(5.1.8)-1*%
%TF.CreationDate,2021-06-27T10:57:54+02:00*%
%TF.ProjectId,controleur_radiateur,636f6e74-726f-46c6-9575-725f72616469,rev?*%
%TF.SameCoordinates,Original*%
%TF.FileFunction,Copper,L2,Bot*%
%TF.FilePolarity,Positive*%
%FSLAX46Y46*%
G04 Gerber Fmt 4.6, Leading zero omitted, Abs format (unit mm)*
G04 Created by KiCad (PCBNEW (5.1.8)-1) date 2021-06-27 10:57:54*
%MOMM*%
%LPD*%
G01*
G04 APERTURE LIST*
%TA.AperFunction,ComponentPad*%
%ADD10O,2.200000X2.200000*%
%TD*%
%TA.AperFunction,ComponentPad*%
%ADD11R,2.200000X2.200000*%
%TD*%
%TA.AperFunction,ComponentPad*%
%ADD12R,1.500000X1.500000*%
%TD*%
%TA.AperFunction,ComponentPad*%
%ADD13C,1.500000*%
%TD*%
%TA.AperFunction,ComponentPad*%
%ADD14O,1.400000X1.400000*%
%TD*%
%TA.AperFunction,ComponentPad*%
%ADD15C,1.400000*%
%TD*%
%TA.AperFunction,ComponentPad*%
%ADD16C,6.400000*%
%TD*%
%TA.AperFunction,ComponentPad*%
%ADD17C,0.800000*%
%TD*%
%TA.AperFunction,ComponentPad*%
%ADD18C,1.950000*%
%TD*%
%TA.AperFunction,ComponentPad*%
%ADD19C,1.110000*%
%TD*%
%TA.AperFunction,ComponentPad*%
%ADD20R,1.110000X1.110000*%
%TD*%
%TA.AperFunction,ComponentPad*%
%ADD21C,1.524000*%
%TD*%
%TA.AperFunction,ComponentPad*%
%ADD22O,1.600000X1.600000*%
%TD*%
%TA.AperFunction,ComponentPad*%
%ADD23C,1.600000*%
%TD*%
%TA.AperFunction,ComponentPad*%
%ADD24C,1.800000*%
%TD*%
%TA.AperFunction,ComponentPad*%
%ADD25R,1.800000X1.800000*%
%TD*%
%TA.AperFunction,ComponentPad*%
%ADD26R,1.600000X1.600000*%
%TD*%
%TA.AperFunction,ViaPad*%
%ADD27C,0.800000*%
%TD*%
%TA.AperFunction,Conductor*%
%ADD28C,0.250000*%
%TD*%
%TA.AperFunction,Conductor*%
%ADD29C,1.500000*%
%TD*%
%TA.AperFunction,Conductor*%
%ADD30C,0.254000*%
%TD*%
%TA.AperFunction,Conductor*%
%ADD31C,0.100000*%
%TD*%
G04 APERTURE END LIST*
D10*
%TO.P,D1,2*%
%TO.N,Net-(A1-Pad30)*%
X132080000Y-95250000D03*
D11*
%TO.P,D1,1*%
%TO.N,Net-(C1-Pad1)*%
X132080000Y-105410000D03*
%TD*%
D12*
%TO.P,U4,1*%
%TO.N,GND*%
X135890000Y-132715000D03*
D13*
%TO.P,U4,3*%
%TO.N,Net-(A1-Pad27)*%
X140970000Y-132715000D03*
%TO.P,U4,2*%
%TO.N,Net-(A1-Pad7)*%
X138430000Y-132715000D03*
%TD*%
D14*
%TO.P,R6,2*%
%TO.N,Net-(D5-Pad2)*%
X158115000Y-118999000D03*
D15*
%TO.P,R6,1*%
%TO.N,Net-(A1-Pad16)*%
X150495000Y-118999000D03*
%TD*%
D14*
%TO.P,R5,2*%
%TO.N,Net-(D4-Pad2)*%
X158115000Y-128778000D03*
D15*
%TO.P,R5,1*%
%TO.N,Net-(A1-Pad15)*%
X150495000Y-128778000D03*
%TD*%
D14*
%TO.P,R4,2*%
%TO.N,Net-(A1-Pad30)*%
X133350000Y-80010000D03*
D15*
%TO.P,R4,1*%
%TO.N,Net-(D2-Pad2)*%
X133350000Y-72390000D03*
%TD*%
D16*
%TO.P,REF\u002A\u002A,1*%
%TO.N,GND*%
X104140000Y-147604000D03*
D17*
X106540000Y-147604000D03*
X105837056Y-149301056D03*
X104140000Y-150004000D03*
X102442944Y-149301056D03*
X101740000Y-147604000D03*
X102442944Y-145906944D03*
X104140000Y-145204000D03*
X105837056Y-145906944D03*
%TD*%
%TO.P,REF\u002A\u002A,1*%
%TO.N,N/C*%
X192705056Y-62818944D03*
X191008000Y-62116000D03*
%TO.N,GND*%
X189310944Y-62818944D03*
%TO.N,N/C*%
X188608000Y-64516000D03*
X189310944Y-66213056D03*
X191008000Y-66916000D03*
X192705056Y-66213056D03*
X193408000Y-64516000D03*
D16*
%TO.N,GND*%
X191008000Y-64516000D03*
%TD*%
%TO.P,REF\u002A\u002A,1*%
%TO.N,GND*%
X104140000Y-64008000D03*
D17*
X106540000Y-64008000D03*
X105837056Y-65705056D03*
X104140000Y-66408000D03*
X102442944Y-65705056D03*
X101740000Y-64008000D03*
X102442944Y-62310944D03*
X104140000Y-61608000D03*
X105837056Y-62310944D03*
%TD*%
D16*
%TO.P,REF\u002A\u002A,1*%
%TO.N,GND*%
X191135000Y-147604000D03*
D17*
%TO.N,N/C*%
X193535000Y-147604000D03*
X192832056Y-149301056D03*
X191135000Y-150004000D03*
X189437944Y-149301056D03*
X188735000Y-147604000D03*
%TO.N,GND*%
X189437944Y-145906944D03*
%TO.N,N/C*%
X191135000Y-145204000D03*
X192832056Y-145906944D03*
%TD*%
D18*
%TO.P,U5,4*%
%TO.N,Net-(A1-Pad30)*%
X145088000Y-76220000D03*
%TO.P,U5,1*%
%TO.N,Net-(J1-Pad3)*%
X183588000Y-78970000D03*
%TO.P,U5,3*%
%TO.N,GND*%
X145088000Y-68220000D03*
%TO.P,U5,2*%
%TO.N,Net-(J1-Pad1)*%
X183588000Y-68220000D03*
%TD*%
D19*
%TO.P,U3,6*%
%TO.N,Net-(J1-Pad1)*%
X159512000Y-103886000D03*
%TO.P,U3,5*%
%TO.N,Net-(U3-Pad5)*%
X159512000Y-106426000D03*
%TO.P,U3,4*%
%TO.N,Net-(D7-Pad2)*%
X159512000Y-108966000D03*
%TO.P,U3,3*%
%TO.N,Net-(U3-Pad3)*%
X151892000Y-108966000D03*
%TO.P,U3,2*%
%TO.N,GND*%
X151892000Y-106426000D03*
D20*
%TO.P,U3,1*%
%TO.N,Net-(R8-Pad1)*%
X151892000Y-103886000D03*
%TD*%
D19*
%TO.P,U2,6*%
%TO.N,Net-(J1-Pad1)*%
X159512000Y-93472000D03*
%TO.P,U2,5*%
%TO.N,Net-(U2-Pad5)*%
X159512000Y-96012000D03*
%TO.P,U2,4*%
%TO.N,Net-(D6-Pad1)*%
X159512000Y-98552000D03*
%TO.P,U2,3*%
%TO.N,Net-(U2-Pad3)*%
X151892000Y-98552000D03*
%TO.P,U2,2*%
%TO.N,GND*%
X151892000Y-96012000D03*
D20*
%TO.P,U2,1*%
%TO.N,Net-(R7-Pad1)*%
X151892000Y-93472000D03*
%TD*%
D21*
%TO.P,U1,12*%
%TO.N,Net-(U1-Pad12)*%
X126365000Y-144780000D03*
%TO.P,U1,11*%
%TO.N,Net-(U1-Pad11)*%
X123825000Y-144780000D03*
%TO.P,U1,10*%
%TO.N,Net-(U1-Pad10)*%
X121285000Y-144780000D03*
%TO.P,U1,9*%
%TO.N,Net-(U1-Pad9)*%
X118745000Y-144780000D03*
%TO.P,U1,8*%
%TO.N,Net-(U1-Pad8)*%
X116205000Y-144780000D03*
%TO.P,U1,7*%
%TO.N,Net-(U1-Pad7)*%
X113665000Y-144780000D03*
%TO.P,U1,6*%
%TO.N,GND*%
X123825000Y-121920000D03*
%TO.P,U1,5*%
%TO.N,Net-(A1-Pad9)*%
X121285000Y-121920000D03*
%TO.P,U1,4*%
%TO.N,Net-(R2-Pad1)*%
X118745000Y-121920000D03*
%TO.P,U1,3*%
%TO.N,Net-(A1-Pad5)*%
X116205000Y-121920000D03*
%TO.P,U1,2*%
%TO.N,Net-(C1-Pad1)*%
X113665000Y-121920000D03*
%TO.P,U1,1*%
%TO.N,Net-(U1-Pad1)*%
X111125000Y-121920000D03*
%TD*%
D22*
%TO.P,R9,2*%
%TO.N,Net-(A1-Pad27)*%
X138430000Y-115570000D03*
D23*
%TO.P,R9,1*%
%TO.N,Net-(A1-Pad7)*%
X138430000Y-125730000D03*
%TD*%
D22*
%TO.P,R8,2*%
%TO.N,Net-(A1-Pad15)*%
X138176000Y-106426000D03*
D23*
%TO.P,R8,1*%
%TO.N,Net-(R8-Pad1)*%
X148336000Y-106426000D03*
%TD*%
D22*
%TO.P,R7,2*%
%TO.N,Net-(A1-Pad16)*%
X137668000Y-96012000D03*
D23*
%TO.P,R7,1*%
%TO.N,Net-(R7-Pad1)*%
X147828000Y-96012000D03*
%TD*%
D22*
%TO.P,R3,2*%
%TO.N,Net-(R2-Pad1)*%
X104140000Y-83566000D03*
D23*
%TO.P,R3,1*%
%TO.N,GND*%
X104140000Y-93726000D03*
%TD*%
D22*
%TO.P,R2,2*%
%TO.N,Net-(A1-Pad8)*%
X104140000Y-70358000D03*
D23*
%TO.P,R2,1*%
%TO.N,Net-(R2-Pad1)*%
X104140000Y-80518000D03*
%TD*%
D13*
%TO.P,J1,6*%
%TO.N,Net-(D6-Pad2)*%
X184404000Y-96426000D03*
%TO.P,J1,5*%
X179324000Y-96426000D03*
%TO.P,J1,2*%
%TO.N,Net-(J1-Pad1)*%
X184404000Y-106426000D03*
%TO.P,J1,3*%
%TO.N,Net-(J1-Pad3)*%
X179324000Y-101426000D03*
%TO.P,J1,1*%
%TO.N,Net-(J1-Pad1)*%
X179324000Y-106426000D03*
%TO.P,J1,4*%
%TO.N,Net-(J1-Pad3)*%
X184404000Y-101426000D03*
%TD*%
D10*
%TO.P,D7,2*%
%TO.N,Net-(D7-Pad2)*%
X162306000Y-106172000D03*
D11*
%TO.P,D7,1*%
%TO.N,Net-(D6-Pad2)*%
X172466000Y-106172000D03*
%TD*%
D10*
%TO.P,D6,2*%
%TO.N,Net-(D6-Pad2)*%
X172466000Y-96012000D03*
D11*
%TO.P,D6,1*%
%TO.N,Net-(D6-Pad1)*%
X162306000Y-96012000D03*
%TD*%
D24*
%TO.P,D5,2*%
%TO.N,Net-(D5-Pad2)*%
X163830000Y-118745000D03*
D25*
%TO.P,D5,1*%
%TO.N,GND*%
X166370000Y-118745000D03*
%TD*%
D24*
%TO.P,D4,2*%
%TO.N,Net-(D4-Pad2)*%
X163830000Y-128270000D03*
D25*
%TO.P,D4,1*%
%TO.N,GND*%
X166370000Y-128270000D03*
%TD*%
D24*
%TO.P,D2,2*%
%TO.N,Net-(D2-Pad2)*%
X134620000Y-68072000D03*
D25*
%TO.P,D2,1*%
%TO.N,GND*%
X132080000Y-68072000D03*
%TD*%
D23*
%TO.P,C1,2*%
%TO.N,GND*%
X121880000Y-115570000D03*
D26*
%TO.P,C1,1*%
%TO.N,Net-(C1-Pad1)*%
X119380000Y-115570000D03*
%TD*%
%TO.P,A1,1*%
%TO.N,Net-(A1-Pad1)*%
X125095000Y-106045000D03*
D22*
%TO.P,A1,17*%
%TO.N,Net-(A1-Pad17)*%
X109855000Y-73025000D03*
%TO.P,A1,2*%
%TO.N,Net-(A1-Pad2)*%
X125095000Y-103505000D03*
%TO.P,A1,18*%
%TO.N,Net-(A1-Pad18)*%
X109855000Y-75565000D03*
%TO.P,A1,3*%
%TO.N,Net-(A1-Pad3)*%
X125095000Y-100965000D03*
%TO.P,A1,19*%
%TO.N,Net-(A1-Pad19)*%
X109855000Y-78105000D03*
%TO.P,A1,4*%
%TO.N,GND*%
X125095000Y-98425000D03*
%TO.P,A1,20*%
%TO.N,Net-(A1-Pad20)*%
X109855000Y-80645000D03*
%TO.P,A1,5*%
%TO.N,Net-(A1-Pad5)*%
X125095000Y-95885000D03*
%TO.P,A1,21*%
%TO.N,Net-(A1-Pad21)*%
X109855000Y-83185000D03*
%TO.P,A1,6*%
%TO.N,Net-(A1-Pad6)*%
X125095000Y-93345000D03*
%TO.P,A1,22*%
%TO.N,Net-(A1-Pad22)*%
X109855000Y-85725000D03*
%TO.P,A1,7*%
%TO.N,Net-(A1-Pad7)*%
X125095000Y-90805000D03*
%TO.P,A1,23*%
%TO.N,Net-(A1-Pad23)*%
X109855000Y-88265000D03*
%TO.P,A1,8*%
%TO.N,Net-(A1-Pad8)*%
X125095000Y-88265000D03*
%TO.P,A1,24*%
%TO.N,Net-(A1-Pad24)*%
X109855000Y-90805000D03*
%TO.P,A1,9*%
%TO.N,Net-(A1-Pad9)*%
X125095000Y-85725000D03*
%TO.P,A1,25*%
%TO.N,Net-(A1-Pad25)*%
X109855000Y-93345000D03*
%TO.P,A1,10*%
%TO.N,Net-(A1-Pad10)*%
X125095000Y-83185000D03*
%TO.P,A1,26*%
%TO.N,Net-(A1-Pad26)*%
X109855000Y-95885000D03*
%TO.P,A1,11*%
%TO.N,Net-(A1-Pad11)*%
X125095000Y-80645000D03*
%TO.P,A1,27*%
%TO.N,Net-(A1-Pad27)*%
X109855000Y-98425000D03*
%TO.P,A1,12*%
%TO.N,Net-(A1-Pad12)*%
X125095000Y-78105000D03*
%TO.P,A1,28*%
%TO.N,Net-(A1-Pad28)*%
X109855000Y-100965000D03*
%TO.P,A1,13*%
%TO.N,Net-(A1-Pad13)*%
X125095000Y-75565000D03*
%TO.P,A1,29*%
%TO.N,GND*%
X109855000Y-103505000D03*
%TO.P,A1,14*%
%TO.N,Net-(A1-Pad14)*%
X125095000Y-73025000D03*
%TO.P,A1,30*%
%TO.N,Net-(A1-Pad30)*%
X109855000Y-106045000D03*
%TO.P,A1,15*%
%TO.N,Net-(A1-Pad15)*%
X125095000Y-70485000D03*
%TO.P,A1,16*%
%TO.N,Net-(A1-Pad16)*%
X109855000Y-70485000D03*
%TD*%
D27*
%TO.N,GND*%
X113665000Y-93345000D03*
X117475000Y-120015000D03*
X120650000Y-99695000D03*
X132080000Y-114300000D03*
X123190000Y-89535000D03*
%TO.N,Net-(A1-Pad5)*%
X116205000Y-105410000D03*
%TO.N,Net-(A1-Pad7)*%
X135890000Y-114300000D03*
%TO.N,Net-(A1-Pad9)*%
X117475000Y-105410000D03*
X121920000Y-97155000D03*
%TD*%
D28*
%TO.N,Net-(A1-Pad5)*%
X116205000Y-121920000D02*
X116205000Y-105410000D01*
%TO.N,Net-(A1-Pad7)*%
X138430000Y-125730000D02*
X138430000Y-132715000D01*
X125095000Y-90805000D02*
X123190000Y-92710000D01*
X123190000Y-92710000D02*
X123190000Y-107950000D01*
X123190000Y-107950000D02*
X128270000Y-113030000D01*
X134620000Y-113030000D02*
X135890000Y-114300000D01*
X128270000Y-113030000D02*
X134620000Y-113030000D01*
%TO.N,Net-(A1-Pad9)*%
X121285000Y-121920000D02*
X116840000Y-117475000D01*
X116840000Y-106045000D02*
X117475000Y-105410000D01*
X116840000Y-117475000D02*
X116840000Y-106045000D01*
X121920000Y-88900000D02*
X125095000Y-85725000D01*
X121920000Y-97155000D02*
X121920000Y-88900000D01*
%TO.N,Net-(A1-Pad15)*%
X138176000Y-106426000D02*
X136906000Y-106426000D01*
X136906000Y-106426000D02*
X127635000Y-97155000D01*
X127635000Y-73025000D02*
X125095000Y-70485000D01*
X127635000Y-97155000D02*
X127635000Y-73025000D01*
X138176000Y-106426000D02*
X138176000Y-109601000D01*
X138176000Y-109601000D02*
X142875000Y-114300000D01*
X142875000Y-114300000D02*
X142875000Y-124460000D01*
X147193000Y-128778000D02*
X150495000Y-128778000D01*
X142875000Y-124460000D02*
X147193000Y-128778000D01*
%TO.N,Net-(A1-Pad16)*%
X137668000Y-96012000D02*
X137668000Y-87503000D01*
X137668000Y-87503000D02*
X128270000Y-78105000D01*
X128270000Y-78105000D02*
X128270000Y-69850000D01*
X128270000Y-69850000D02*
X126365000Y-67945000D01*
X112395000Y-67945000D02*
X109855000Y-70485000D01*
X126365000Y-67945000D02*
X112395000Y-67945000D01*
X137668000Y-100838000D02*
X137668000Y-96012000D01*
X143325010Y-106495010D02*
X137668000Y-100838000D01*
X143325010Y-111829010D02*
X143325010Y-106495010D01*
X150495000Y-118999000D02*
X143325010Y-111829010D01*
%TO.N,Net-(D4-Pad2)*%
X163322000Y-128778000D02*
X163830000Y-128270000D01*
X158115000Y-128778000D02*
X163322000Y-128778000D01*
%TO.N,Net-(D5-Pad2)*%
X163576000Y-118999000D02*
X163830000Y-118745000D01*
X158115000Y-118999000D02*
X163576000Y-118999000D01*
%TO.N,Net-(D6-Pad2)*%
X178910000Y-96012000D02*
X179324000Y-96426000D01*
X184404000Y-96426000D02*
X179324000Y-96426000D01*
X172466000Y-106172000D02*
X172466000Y-96012000D01*
%TO.N,Net-(D6-Pad1)*%
X162052000Y-96012000D02*
X162306000Y-96012000D01*
X159512000Y-98552000D02*
X162052000Y-96012000D01*
%TO.N,Net-(D7-Pad2)*%
X159512000Y-108966000D02*
X162306000Y-106172000D01*
%TO.N,Net-(R7-Pad1)*%
X150368000Y-93472000D02*
X147828000Y-96012000D01*
X151892000Y-93472000D02*
X150368000Y-93472000D01*
%TO.N,Net-(R8-Pad1)*%
X150876000Y-103886000D02*
X151892000Y-103886000D01*
X148336000Y-106426000D02*
X150876000Y-103886000D01*
%TO.N,Net-(A1-Pad27)*%
X140970000Y-118110000D02*
X138430000Y-115570000D01*
X140970000Y-132715000D02*
X140970000Y-118110000D01*
X138430000Y-115570000D02*
X128905000Y-115570000D01*
X111760000Y-98425000D02*
X109855000Y-98425000D01*
X128905000Y-115570000D02*
X111760000Y-98425000D01*
%TO.N,Net-(J1-Pad1)*%
X179324000Y-106426000D02*
X178054000Y-106426000D01*
X178054000Y-106426000D02*
X174625000Y-109855000D01*
X174625000Y-109855000D02*
X170180000Y-109855000D01*
X164211000Y-103886000D02*
X159512000Y-103886000D01*
X170180000Y-109855000D02*
X164211000Y-103886000D01*
X159512000Y-93472000D02*
X157480000Y-95504000D01*
X157480000Y-101854000D02*
X159512000Y-103886000D01*
X157480000Y-95504000D02*
X157480000Y-101854000D01*
D29*
X179324000Y-106426000D02*
X184404000Y-106426000D01*
X184404000Y-106426000D02*
X186944000Y-103886000D01*
X186944000Y-71576000D02*
X183588000Y-68220000D01*
X186944000Y-103886000D02*
X186944000Y-71576000D01*
%TO.N,Net-(J1-Pad3)*%
X179324000Y-101426000D02*
X184404000Y-101426000D01*
X179324000Y-101426000D02*
X176022000Y-98124000D01*
X176022000Y-86536000D02*
X183588000Y-78970000D01*
X176022000Y-98124000D02*
X176022000Y-86536000D01*
%TD*%
D30*
%TO.N,GND*%
X196088000Y-152273000D02*
X99187000Y-152273000D01*
X99187000Y-150304881D01*
X101618724Y-150304881D01*
X101978912Y-150794548D01*
X102642882Y-151154849D01*
X103364385Y-151378694D01*
X104115695Y-151457480D01*
X104867938Y-151388178D01*
X105592208Y-151173452D01*
X106260670Y-150821555D01*
X106301088Y-150794548D01*
X106661276Y-150304881D01*
X104140000Y-147783605D01*
X101618724Y-150304881D01*
X99187000Y-150304881D01*
X99187000Y-147579695D01*
X100286520Y-147579695D01*
X100355822Y-148331938D01*
X100570548Y-149056208D01*
X100922445Y-149724670D01*
X100949452Y-149765088D01*
X101439119Y-150125276D01*
X103960395Y-147604000D01*
X104319605Y-147604000D01*
X106840881Y-150125276D01*
X107330548Y-149765088D01*
X107690849Y-149101118D01*
X107914694Y-148379615D01*
X107993480Y-147628305D01*
X107989002Y-147579695D01*
X187281520Y-147579695D01*
X187350822Y-148331938D01*
X187565548Y-149056208D01*
X187917445Y-149724670D01*
X187944452Y-149765088D01*
X188434119Y-150125276D01*
X188619811Y-149939584D01*
X188634007Y-149960830D01*
X188778170Y-150104993D01*
X188799416Y-150119189D01*
X188613724Y-150304881D01*
X188973912Y-150794548D01*
X189637882Y-151154849D01*
X190359385Y-151378694D01*
X191110695Y-151457480D01*
X191862938Y-151388178D01*
X192587208Y-151173452D01*
X193255670Y-150821555D01*
X193296088Y-150794548D01*
X193656276Y-150304881D01*
X193470584Y-150119189D01*
X193491830Y-150104993D01*
X193635993Y-149960830D01*
X193650189Y-149939584D01*
X193835881Y-150125276D01*
X194325548Y-149765088D01*
X194685849Y-149101118D01*
X194909694Y-148379615D01*
X194988480Y-147628305D01*
X194919178Y-146876062D01*
X194704452Y-146151792D01*
X194352555Y-145483330D01*
X194325548Y-145442912D01*
X193835881Y-145082724D01*
X193650189Y-145268416D01*
X193635993Y-145247170D01*
X193491830Y-145103007D01*
X193470584Y-145088811D01*
X193656276Y-144903119D01*
X193296088Y-144413452D01*
X192632118Y-144053151D01*
X191910615Y-143829306D01*
X191159305Y-143750520D01*
X190407062Y-143819822D01*
X189682792Y-144034548D01*
X189014330Y-144386445D01*
X188973912Y-144413452D01*
X188613724Y-144903119D01*
X191135000Y-147424395D01*
X192013923Y-146545472D01*
X192028119Y-146566718D01*
X192172282Y-146710881D01*
X192193528Y-146725077D01*
X191314605Y-147604000D01*
X192193528Y-148482923D01*
X192172282Y-148497119D01*
X192028119Y-148641282D01*
X192013923Y-148662528D01*
X191135000Y-147783605D01*
X190256077Y-148662528D01*
X190241881Y-148641282D01*
X190097718Y-148497119D01*
X190076472Y-148482923D01*
X190955395Y-147604000D01*
X188434119Y-145082724D01*
X187944452Y-145442912D01*
X187584151Y-146106882D01*
X187360306Y-146828385D01*
X187281520Y-147579695D01*
X107989002Y-147579695D01*
X107924178Y-146876062D01*
X107709452Y-146151792D01*
X107357555Y-145483330D01*
X107330548Y-145442912D01*
X106840881Y-145082724D01*
X104319605Y-147604000D01*
X103960395Y-147604000D01*
X101439119Y-145082724D01*
X100949452Y-145442912D01*
X100589151Y-146106882D01*
X100365306Y-146828385D01*
X100286520Y-147579695D01*
X99187000Y-147579695D01*
X99187000Y-144903119D01*
X101618724Y-144903119D01*
X104140000Y-147424395D01*
X106661276Y-144903119D01*
X106469503Y-144642408D01*
X112268000Y-144642408D01*
X112268000Y-144917592D01*
X112321686Y-145187490D01*
X112426995Y-145441727D01*
X112579880Y-145670535D01*
X112774465Y-145865120D01*
X113003273Y-146018005D01*
X113257510Y-146123314D01*
X113527408Y-146177000D01*
X113802592Y-146177000D01*
X114072490Y-146123314D01*
X114326727Y-146018005D01*
X114555535Y-145865120D01*
X114750120Y-145670535D01*
X114903005Y-145441727D01*
X114935000Y-145364485D01*
X114966995Y-145441727D01*
X115119880Y-145670535D01*
X115314465Y-145865120D01*
X115543273Y-146018005D01*
X115797510Y-146123314D01*
X116067408Y-146177000D01*
X116342592Y-146177000D01*
X116612490Y-146123314D01*
X116866727Y-146018005D01*
X117095535Y-145865120D01*
X117290120Y-145670535D01*
X117443005Y-145441727D01*
X117475000Y-145364485D01*
X117506995Y-145441727D01*
X117659880Y-145670535D01*
X117854465Y-145865120D01*
X118083273Y-146018005D01*
X118337510Y-146123314D01*
X118607408Y-146177000D01*
X118882592Y-146177000D01*
X119152490Y-146123314D01*
X119406727Y-146018005D01*
X119635535Y-145865120D01*
X119830120Y-145670535D01*
X119983005Y-145441727D01*
X120015000Y-145364485D01*
X120046995Y-145441727D01*
X120199880Y-145670535D01*
X120394465Y-145865120D01*
X120623273Y-146018005D01*
X120877510Y-146123314D01*
X121147408Y-146177000D01*
X121422592Y-146177000D01*
X121692490Y-146123314D01*
X121946727Y-146018005D01*
X122175535Y-145865120D01*
X122370120Y-145670535D01*
X122523005Y-145441727D01*
X122555000Y-145364485D01*
X122586995Y-145441727D01*
X122739880Y-145670535D01*
X122934465Y-145865120D01*
X123163273Y-146018005D01*
X123417510Y-146123314D01*
X123687408Y-146177000D01*
X123962592Y-146177000D01*
X124232490Y-146123314D01*
X124486727Y-146018005D01*
X124715535Y-145865120D01*
X124910120Y-145670535D01*
X125063005Y-145441727D01*
X125095000Y-145364485D01*
X125126995Y-145441727D01*
X125279880Y-145670535D01*
X125474465Y-145865120D01*
X125703273Y-146018005D01*
X125957510Y-146123314D01*
X126227408Y-146177000D01*
X126502592Y-146177000D01*
X126772490Y-146123314D01*
X127026727Y-146018005D01*
X127255535Y-145865120D01*
X127450120Y-145670535D01*
X127603005Y-145441727D01*
X127708314Y-145187490D01*
X127762000Y-144917592D01*
X127762000Y-144642408D01*
X127708314Y-144372510D01*
X127603005Y-144118273D01*
X127450120Y-143889465D01*
X127255535Y-143694880D01*
X127026727Y-143541995D01*
X126772490Y-143436686D01*
X126502592Y-143383000D01*
X126227408Y-143383000D01*
X125957510Y-143436686D01*
X125703273Y-143541995D01*
X125474465Y-143694880D01*
X125279880Y-143889465D01*
X125126995Y-144118273D01*
X125095000Y-144195515D01*
X125063005Y-144118273D01*
X124910120Y-143889465D01*
X124715535Y-143694880D01*
X124486727Y-143541995D01*
X124232490Y-143436686D01*
X123962592Y-143383000D01*
X123687408Y-143383000D01*
X123417510Y-143436686D01*
X123163273Y-143541995D01*
X122934465Y-143694880D01*
X122739880Y-143889465D01*
X122586995Y-144118273D01*
X122555000Y-144195515D01*
X122523005Y-144118273D01*
X122370120Y-143889465D01*
X122175535Y-143694880D01*
X121946727Y-143541995D01*
X121692490Y-143436686D01*
X121422592Y-143383000D01*
X121147408Y-143383000D01*
X120877510Y-143436686D01*
X120623273Y-143541995D01*
X120394465Y-143694880D01*
X120199880Y-143889465D01*
X120046995Y-144118273D01*
X120015000Y-144195515D01*
X119983005Y-144118273D01*
X119830120Y-143889465D01*
X119635535Y-143694880D01*
X119406727Y-143541995D01*
X119152490Y-143436686D01*
X118882592Y-143383000D01*
X118607408Y-143383000D01*
X118337510Y-143436686D01*
X118083273Y-143541995D01*
X117854465Y-143694880D01*
X117659880Y-143889465D01*
X117506995Y-144118273D01*
X117475000Y-144195515D01*
X117443005Y-144118273D01*
X117290120Y-143889465D01*
X117095535Y-143694880D01*
X116866727Y-143541995D01*
X116612490Y-143436686D01*
X116342592Y-143383000D01*
X116067408Y-143383000D01*
X115797510Y-143436686D01*
X115543273Y-143541995D01*
X115314465Y-143694880D01*
X115119880Y-143889465D01*
X114966995Y-144118273D01*
X114935000Y-144195515D01*
X114903005Y-144118273D01*
X114750120Y-143889465D01*
X114555535Y-143694880D01*
X114326727Y-143541995D01*
X114072490Y-143436686D01*
X113802592Y-143383000D01*
X113527408Y-143383000D01*
X113257510Y-143436686D01*
X113003273Y-143541995D01*
X112774465Y-143694880D01*
X112579880Y-143889465D01*
X112426995Y-144118273D01*
X112321686Y-144372510D01*
X112268000Y-144642408D01*
X106469503Y-144642408D01*
X106301088Y-144413452D01*
X105637118Y-144053151D01*
X104915615Y-143829306D01*
X104164305Y-143750520D01*
X103412062Y-143819822D01*
X102687792Y-144034548D01*
X102019330Y-144386445D01*
X101978912Y-144413452D01*
X101618724Y-144903119D01*
X99187000Y-144903119D01*
X99187000Y-133465000D01*
X134501928Y-133465000D01*
X134514188Y-133589482D01*
X134550498Y-133709180D01*
X134609463Y-133819494D01*
X134688815Y-133916185D01*
X134785506Y-133995537D01*
X134895820Y-134054502D01*
X135015518Y-134090812D01*
X135140000Y-134103072D01*
X135604250Y-134100000D01*
X135763000Y-133941250D01*
X135763000Y-132842000D01*
X134663750Y-132842000D01*
X134505000Y-133000750D01*
X134501928Y-133465000D01*
X99187000Y-133465000D01*
X99187000Y-131965000D01*
X134501928Y-131965000D01*
X134505000Y-132429250D01*
X134663750Y-132588000D01*
X135763000Y-132588000D01*
X135763000Y-131488750D01*
X135604250Y-131330000D01*
X135140000Y-131326928D01*
X135015518Y-131339188D01*
X134895820Y-131375498D01*
X134785506Y-131434463D01*
X134688815Y-131513815D01*
X134609463Y-131610506D01*
X134550498Y-131720820D01*
X134514188Y-131840518D01*
X134501928Y-131965000D01*
X99187000Y-131965000D01*
X99187000Y-105903665D01*
X108420000Y-105903665D01*
X108420000Y-106186335D01*
X108475147Y-106463574D01*
X108583320Y-106724727D01*
X108740363Y-106959759D01*
X108940241Y-107159637D01*
X109175273Y-107316680D01*
X109436426Y-107424853D01*
X109713665Y-107480000D01*
X109996335Y-107480000D01*
X110273574Y-107424853D01*
X110534727Y-107316680D01*
X110769759Y-107159637D01*
X110969637Y-106959759D01*
X111126680Y-106724727D01*
X111234853Y-106463574D01*
X111290000Y-106186335D01*
X111290000Y-105903665D01*
X111234853Y-105626426D01*
X111126680Y-105365273D01*
X110969637Y-105130241D01*
X110769759Y-104930363D01*
X110534727Y-104773320D01*
X110524135Y-104768933D01*
X110710131Y-104657385D01*
X110918519Y-104468414D01*
X111086037Y-104242420D01*
X111206246Y-103988087D01*
X111246904Y-103854039D01*
X111124915Y-103632000D01*
X109982000Y-103632000D01*
X109982000Y-103652000D01*
X109728000Y-103652000D01*
X109728000Y-103632000D01*
X108585085Y-103632000D01*
X108463096Y-103854039D01*
X108503754Y-103988087D01*
X108623963Y-104242420D01*
X108791481Y-104468414D01*
X108999869Y-104657385D01*
X109185865Y-104768933D01*
X109175273Y-104773320D01*
X108940241Y-104930363D01*
X108740363Y-105130241D01*
X108583320Y-105365273D01*
X108475147Y-105626426D01*
X108420000Y-105903665D01*
X99187000Y-105903665D01*
X99187000Y-94718702D01*
X103326903Y-94718702D01*
X103398486Y-94962671D01*
X103653996Y-95083571D01*
X103928184Y-95152300D01*
X104210512Y-95166217D01*
X104490130Y-95124787D01*
X104756292Y-95029603D01*
X104881514Y-94962671D01*
X104953097Y-94718702D01*
X104140000Y-93905605D01*
X103326903Y-94718702D01*
X99187000Y-94718702D01*
X99187000Y-93796512D01*
X102699783Y-93796512D01*
X102741213Y-94076130D01*
X102836397Y-94342292D01*
X102903329Y-94467514D01*
X103147298Y-94539097D01*
X103960395Y-93726000D01*
X104319605Y-93726000D01*
X105132702Y-94539097D01*
X105376671Y-94467514D01*
X105497571Y-94212004D01*
X105566300Y-93937816D01*
X105580217Y-93655488D01*
X105538787Y-93375870D01*
X105443603Y-93109708D01*
X105376671Y-92984486D01*
X105132702Y-92912903D01*
X104319605Y-93726000D01*
X103960395Y-93726000D01*
X103147298Y-92912903D01*
X102903329Y-92984486D01*
X102782429Y-93239996D01*
X102713700Y-93514184D01*
X102699783Y-93796512D01*
X99187000Y-93796512D01*
X99187000Y-92733298D01*
X103326903Y-92733298D01*
X104140000Y-93546395D01*
X104953097Y-92733298D01*
X104881514Y-92489329D01*
X104626004Y-92368429D01*
X104351816Y-92299700D01*
X104069488Y-92285783D01*
X103789870Y-92327213D01*
X103523708Y-92422397D01*
X103398486Y-92489329D01*
X103326903Y-92733298D01*
X99187000Y-92733298D01*
X99187000Y-83424665D01*
X102705000Y-83424665D01*
X102705000Y-83707335D01*
X102760147Y-83984574D01*
X102868320Y-84245727D01*
X103025363Y-84480759D01*
X103225241Y-84680637D01*
X103460273Y-84837680D01*
X103721426Y-84945853D01*
X103998665Y-85001000D01*
X104281335Y-85001000D01*
X104558574Y-84945853D01*
X104819727Y-84837680D01*
X105054759Y-84680637D01*
X105254637Y-84480759D01*
X105411680Y-84245727D01*
X105519853Y-83984574D01*
X105575000Y-83707335D01*
X105575000Y-83424665D01*
X105519853Y-83147426D01*
X105411680Y-82886273D01*
X105254637Y-82651241D01*
X105054759Y-82451363D01*
X104819727Y-82294320D01*
X104558574Y-82186147D01*
X104281335Y-82131000D01*
X103998665Y-82131000D01*
X103721426Y-82186147D01*
X103460273Y-82294320D01*
X103225241Y-82451363D01*
X103025363Y-82651241D01*
X102868320Y-82886273D01*
X102760147Y-83147426D01*
X102705000Y-83424665D01*
X99187000Y-83424665D01*
X99187000Y-80376665D01*
X102705000Y-80376665D01*
X102705000Y-80659335D01*
X102760147Y-80936574D01*
X102868320Y-81197727D01*
X103025363Y-81432759D01*
X103225241Y-81632637D01*
X103460273Y-81789680D01*
X103721426Y-81897853D01*
X103998665Y-81953000D01*
X104281335Y-81953000D01*
X104558574Y-81897853D01*
X104819727Y-81789680D01*
X105054759Y-81632637D01*
X105254637Y-81432759D01*
X105411680Y-81197727D01*
X105519853Y-80936574D01*
X105575000Y-80659335D01*
X105575000Y-80376665D01*
X105519853Y-80099426D01*
X105411680Y-79838273D01*
X105254637Y-79603241D01*
X105054759Y-79403363D01*
X104819727Y-79246320D01*
X104558574Y-79138147D01*
X104281335Y-79083000D01*
X103998665Y-79083000D01*
X103721426Y-79138147D01*
X103460273Y-79246320D01*
X103225241Y-79403363D01*
X103025363Y-79603241D01*
X102868320Y-79838273D01*
X102760147Y-80099426D01*
X102705000Y-80376665D01*
X99187000Y-80376665D01*
X99187000Y-70216665D01*
X102705000Y-70216665D01*
X102705000Y-70499335D01*
X102760147Y-70776574D01*
X102868320Y-71037727D01*
X103025363Y-71272759D01*
X103225241Y-71472637D01*
X103460273Y-71629680D01*
X103721426Y-71737853D01*
X103998665Y-71793000D01*
X104281335Y-71793000D01*
X104558574Y-71737853D01*
X104819727Y-71629680D01*
X105054759Y-71472637D01*
X105254637Y-71272759D01*
X105411680Y-71037727D01*
X105519853Y-70776574D01*
X105575000Y-70499335D01*
X105575000Y-70343665D01*
X108420000Y-70343665D01*
X108420000Y-70626335D01*
X108475147Y-70903574D01*
X108583320Y-71164727D01*
X108740363Y-71399759D01*
X108940241Y-71599637D01*
X109172759Y-71755000D01*
X108940241Y-71910363D01*
X108740363Y-72110241D01*
X108583320Y-72345273D01*
X108475147Y-72606426D01*
X108420000Y-72883665D01*
X108420000Y-73166335D01*
X108475147Y-73443574D01*
X108583320Y-73704727D01*
X108740363Y-73939759D01*
X108940241Y-74139637D01*
X109172759Y-74295000D01*
X108940241Y-74450363D01*
X108740363Y-74650241D01*
X108583320Y-74885273D01*
X108475147Y-75146426D01*
X108420000Y-75423665D01*
X108420000Y-75706335D01*
X108475147Y-75983574D01*
X108583320Y-76244727D01*
X108740363Y-76479759D01*
X108940241Y-76679637D01*
X109172759Y-76835000D01*
X108940241Y-76990363D01*
X108740363Y-77190241D01*
X108583320Y-77425273D01*
X108475147Y-77686426D01*
X108420000Y-77963665D01*
X108420000Y-78246335D01*
X108475147Y-78523574D01*
X108583320Y-78784727D01*
X108740363Y-79019759D01*
X108940241Y-79219637D01*
X109172759Y-79375000D01*
X108940241Y-79530363D01*
X108740363Y-79730241D01*
X108583320Y-79965273D01*
X108475147Y-80226426D01*
X108420000Y-80503665D01*
X108420000Y-80786335D01*
X108475147Y-81063574D01*
X108583320Y-81324727D01*
X108740363Y-81559759D01*
X108940241Y-81759637D01*
X109172759Y-81915000D01*
X108940241Y-82070363D01*
X108740363Y-82270241D01*
X108583320Y-82505273D01*
X108475147Y-82766426D01*
X108420000Y-83043665D01*
X108420000Y-83326335D01*
X108475147Y-83603574D01*
X108583320Y-83864727D01*
X108740363Y-84099759D01*
X108940241Y-84299637D01*
X109172759Y-84455000D01*
X108940241Y-84610363D01*
X108740363Y-84810241D01*
X108583320Y-85045273D01*
X108475147Y-85306426D01*
X108420000Y-85583665D01*
X108420000Y-85866335D01*
X108475147Y-86143574D01*
X108583320Y-86404727D01*
X108740363Y-86639759D01*
X108940241Y-86839637D01*
X109172759Y-86995000D01*
X108940241Y-87150363D01*
X108740363Y-87350241D01*
X108583320Y-87585273D01*
X108475147Y-87846426D01*
X108420000Y-88123665D01*
X108420000Y-88406335D01*
X108475147Y-88683574D01*
X108583320Y-88944727D01*
X108740363Y-89179759D01*
X108940241Y-89379637D01*
X109172759Y-89535000D01*
X108940241Y-89690363D01*
X108740363Y-89890241D01*
X108583320Y-90125273D01*
X108475147Y-90386426D01*
X108420000Y-90663665D01*
X108420000Y-90946335D01*
X108475147Y-91223574D01*
X108583320Y-91484727D01*
X108740363Y-91719759D01*
X108940241Y-91919637D01*
X109172759Y-92075000D01*
X108940241Y-92230363D01*
X108740363Y-92430241D01*
X108583320Y-92665273D01*
X108475147Y-92926426D01*
X108420000Y-93203665D01*
X108420000Y-93486335D01*
X108475147Y-93763574D01*
X108583320Y-94024727D01*
X108740363Y-94259759D01*
X108940241Y-94459637D01*
X109172759Y-94615000D01*
X108940241Y-94770363D01*
X108740363Y-94970241D01*
X108583320Y-95205273D01*
X108475147Y-95466426D01*
X108420000Y-95743665D01*
X108420000Y-96026335D01*
X108475147Y-96303574D01*
X108583320Y-96564727D01*
X108740363Y-96799759D01*
X108940241Y-96999637D01*
X109172759Y-97155000D01*
X108940241Y-97310363D01*
X108740363Y-97510241D01*
X108583320Y-97745273D01*
X108475147Y-98006426D01*
X108420000Y-98283665D01*
X108420000Y-98566335D01*
X108475147Y-98843574D01*
X108583320Y-99104727D01*
X108740363Y-99339759D01*
X108940241Y-99539637D01*
X109172759Y-99695000D01*
X108940241Y-99850363D01*
X108740363Y-100050241D01*
X108583320Y-100285273D01*
X108475147Y-100546426D01*
X108420000Y-100823665D01*
X108420000Y-101106335D01*
X108475147Y-101383574D01*
X108583320Y-101644727D01*
X108740363Y-101879759D01*
X108940241Y-102079637D01*
X109175273Y-102236680D01*
X109185865Y-102241067D01*
X108999869Y-102352615D01*
X108791481Y-102541586D01*
X108623963Y-102767580D01*
X108503754Y-103021913D01*
X108463096Y-103155961D01*
X108585085Y-103378000D01*
X109728000Y-103378000D01*
X109728000Y-103358000D01*
X109982000Y-103358000D01*
X109982000Y-103378000D01*
X111124915Y-103378000D01*
X111246904Y-103155961D01*
X111206246Y-103021913D01*
X111086037Y-102767580D01*
X110918519Y-102541586D01*
X110710131Y-102352615D01*
X110524135Y-102241067D01*
X110534727Y-102236680D01*
X110769759Y-102079637D01*
X110969637Y-101879759D01*
X111126680Y-101644727D01*
X111234853Y-101383574D01*
X111290000Y-101106335D01*
X111290000Y-100823665D01*
X111234853Y-100546426D01*
X111126680Y-100285273D01*
X110969637Y-100050241D01*
X110769759Y-99850363D01*
X110537241Y-99695000D01*
X110769759Y-99539637D01*
X110969637Y-99339759D01*
X111073043Y-99185000D01*
X111445199Y-99185000D01*
X116845820Y-104585621D01*
X116840000Y-104589510D01*
X116695256Y-104492795D01*
X116506898Y-104414774D01*
X116306939Y-104375000D01*
X116103061Y-104375000D01*
X115903102Y-104414774D01*
X115714744Y-104492795D01*
X115545226Y-104606063D01*
X115401063Y-104750226D01*
X115287795Y-104919744D01*
X115209774Y-105108102D01*
X115170000Y-105308061D01*
X115170000Y-105511939D01*
X115209774Y-105711898D01*
X115287795Y-105900256D01*
X115401063Y-106069774D01*
X115445001Y-106113712D01*
X115445000Y-120747659D01*
X115314465Y-120834880D01*
X115119880Y-121029465D01*
X114966995Y-121258273D01*
X114935000Y-121335515D01*
X114903005Y-121258273D01*
X114750120Y-121029465D01*
X114555535Y-120834880D01*
X114326727Y-120681995D01*
X114072490Y-120576686D01*
X113802592Y-120523000D01*
X113527408Y-120523000D01*
X113257510Y-120576686D01*
X113003273Y-120681995D01*
X112774465Y-120834880D01*
X112579880Y-121029465D01*
X112426995Y-121258273D01*
X112395000Y-121335515D01*
X112363005Y-121258273D01*
X112210120Y-121029465D01*
X112015535Y-120834880D01*
X111786727Y-120681995D01*
X111532490Y-120576686D01*
X111262592Y-120523000D01*
X110987408Y-120523000D01*
X110717510Y-120576686D01*
X110463273Y-120681995D01*
X110234465Y-120834880D01*
X110039880Y-121029465D01*
X109886995Y-121258273D01*
X109781686Y-121512510D01*
X109728000Y-121782408D01*
X109728000Y-122057592D01*
X109781686Y-122327490D01*
X109886995Y-122581727D01*
X110039880Y-122810535D01*
X110234465Y-123005120D01*
X110463273Y-123158005D01*
X110717510Y-123263314D01*
X110987408Y-123317000D01*
X111262592Y-123317000D01*
X111532490Y-123263314D01*
X111786727Y-123158005D01*
X112015535Y-123005120D01*
X112210120Y-122810535D01*
X112363005Y-122581727D01*
X112395000Y-122504485D01*
X112426995Y-122581727D01*
X112579880Y-122810535D01*
X112774465Y-123005120D01*
X113003273Y-123158005D01*
X113257510Y-123263314D01*
X113527408Y-123317000D01*
X113802592Y-123317000D01*
X114072490Y-123263314D01*
X114326727Y-123158005D01*
X114555535Y-123005120D01*
X114750120Y-122810535D01*
X114903005Y-122581727D01*
X114935000Y-122504485D01*
X114966995Y-122581727D01*
X115119880Y-122810535D01*
X115314465Y-123005120D01*
X115543273Y-123158005D01*
X115797510Y-123263314D01*
X116067408Y-123317000D01*
X116342592Y-123317000D01*
X116612490Y-123263314D01*
X116866727Y-123158005D01*
X117095535Y-123005120D01*
X117290120Y-122810535D01*
X117443005Y-122581727D01*
X117475000Y-122504485D01*
X117506995Y-122581727D01*
X117659880Y-122810535D01*
X117854465Y-123005120D01*
X118083273Y-123158005D01*
X118337510Y-123263314D01*
X118607408Y-123317000D01*
X118882592Y-123317000D01*
X119152490Y-123263314D01*
X119406727Y-123158005D01*
X119635535Y-123005120D01*
X119830120Y-122810535D01*
X119983005Y-122581727D01*
X120015000Y-122504485D01*
X120046995Y-122581727D01*
X120199880Y-122810535D01*
X120394465Y-123005120D01*
X120623273Y-123158005D01*
X120877510Y-123263314D01*
X121147408Y-123317000D01*
X121422592Y-123317000D01*
X121692490Y-123263314D01*
X121946727Y-123158005D01*
X122175535Y-123005120D01*
X122295090Y-122885565D01*
X123039040Y-122885565D01*
X123106020Y-123125656D01*
X123355048Y-123242756D01*
X123622135Y-123309023D01*
X123897017Y-123321910D01*
X124169133Y-123280922D01*
X124428023Y-123187636D01*
X124543980Y-123125656D01*
X124610960Y-122885565D01*
X123825000Y-122099605D01*
X123039040Y-122885565D01*
X122295090Y-122885565D01*
X122370120Y-122810535D01*
X122523005Y-122581727D01*
X122552692Y-122510057D01*
X122557364Y-122523023D01*
X122619344Y-122638980D01*
X122859435Y-122705960D01*
X123645395Y-121920000D01*
X124004605Y-121920000D01*
X124790565Y-122705960D01*
X125030656Y-122638980D01*
X125147756Y-122389952D01*
X125214023Y-122122865D01*
X125226910Y-121847983D01*
X125185922Y-121575867D01*
X125092636Y-121316977D01*
X125030656Y-121201020D01*
X124790565Y-121134040D01*
X124004605Y-121920000D01*
X123645395Y-121920000D01*
X122859435Y-121134040D01*
X122619344Y-121201020D01*
X122555515Y-121336760D01*
X122523005Y-121258273D01*
X122370120Y-121029465D01*
X122295090Y-120954435D01*
X123039040Y-120954435D01*
X123825000Y-121740395D01*
X124610960Y-120954435D01*
X124543980Y-120714344D01*
X124294952Y-120597244D01*
X124027865Y-120530977D01*
X123752983Y-120518090D01*
X123480867Y-120559078D01*
X123221977Y-120652364D01*
X123106020Y-120714344D01*
X123039040Y-120954435D01*
X122295090Y-120954435D01*
X122175535Y-120834880D01*
X121946727Y-120681995D01*
X121692490Y-120576686D01*
X121422592Y-120523000D01*
X121147408Y-120523000D01*
X120993430Y-120553628D01*
X117600000Y-117160199D01*
X117600000Y-114770000D01*
X117941928Y-114770000D01*
X117941928Y-116370000D01*
X117954188Y-116494482D01*
X117990498Y-116614180D01*
X118049463Y-116724494D01*
X118128815Y-116821185D01*
X118225506Y-116900537D01*
X118335820Y-116959502D01*
X118455518Y-116995812D01*
X118580000Y-117008072D01*
X120180000Y-117008072D01*
X120304482Y-116995812D01*
X120424180Y-116959502D01*
X120534494Y-116900537D01*
X120631185Y-116821185D01*
X120710537Y-116724494D01*
X120769502Y-116614180D01*
X120785117Y-116562702D01*
X121066903Y-116562702D01*
X121138486Y-116806671D01*
X121393996Y-116927571D01*
X121668184Y-116996300D01*
X121950512Y-117010217D01*
X122230130Y-116968787D01*
X122496292Y-116873603D01*
X122621514Y-116806671D01*
X122693097Y-116562702D01*
X121880000Y-115749605D01*
X121066903Y-116562702D01*
X120785117Y-116562702D01*
X120805812Y-116494482D01*
X120818072Y-116370000D01*
X120818072Y-116362785D01*
X120887298Y-116383097D01*
X121700395Y-115570000D01*
X122059605Y-115570000D01*
X122872702Y-116383097D01*
X123116671Y-116311514D01*
X123237571Y-116056004D01*
X123306300Y-115781816D01*
X123320217Y-115499488D01*
X123278787Y-115219870D01*
X123183603Y-114953708D01*
X123116671Y-114828486D01*
X122872702Y-114756903D01*
X122059605Y-115570000D01*
X121700395Y-115570000D01*
X120887298Y-114756903D01*
X120818072Y-114777215D01*
X120818072Y-114770000D01*
X120805812Y-114645518D01*
X120785118Y-114577298D01*
X121066903Y-114577298D01*
X121880000Y-115390395D01*
X122693097Y-114577298D01*
X122621514Y-114333329D01*
X122366004Y-114212429D01*
X122091816Y-114143700D01*
X121809488Y-114129783D01*
X121529870Y-114171213D01*
X121263708Y-114266397D01*
X121138486Y-114333329D01*
X121066903Y-114577298D01*
X120785118Y-114577298D01*
X120769502Y-114525820D01*
X120710537Y-114415506D01*
X120631185Y-114318815D01*
X120534494Y-114239463D01*
X120424180Y-114180498D01*
X120304482Y-114144188D01*
X120180000Y-114131928D01*
X118580000Y-114131928D01*
X118455518Y-114144188D01*
X118335820Y-114180498D01*
X118225506Y-114239463D01*
X118128815Y-114318815D01*
X118049463Y-114415506D01*
X117990498Y-114525820D01*
X117954188Y-114645518D01*
X117941928Y-114770000D01*
X117600000Y-114770000D01*
X117600000Y-106440413D01*
X117776898Y-106405226D01*
X117965256Y-106327205D01*
X118134774Y-106213937D01*
X118278937Y-106069774D01*
X118299379Y-106039180D01*
X128341200Y-116081002D01*
X128364999Y-116110001D01*
X128393997Y-116133799D01*
X128480724Y-116204974D01*
X128612753Y-116275546D01*
X128756014Y-116319003D01*
X128905000Y-116333677D01*
X128942333Y-116330000D01*
X137211957Y-116330000D01*
X137315363Y-116484759D01*
X137515241Y-116684637D01*
X137750273Y-116841680D01*
X138011426Y-116949853D01*
X138288665Y-117005000D01*
X138571335Y-117005000D01*
X138753886Y-116968688D01*
X140210001Y-118424804D01*
X140210000Y-131557091D01*
X140087114Y-131639201D01*
X139894201Y-131832114D01*
X139742629Y-132058957D01*
X139700000Y-132161873D01*
X139657371Y-132058957D01*
X139505799Y-131832114D01*
X139312886Y-131639201D01*
X139190000Y-131557091D01*
X139190000Y-126948043D01*
X139344759Y-126844637D01*
X139544637Y-126644759D01*
X139701680Y-126409727D01*
X139809853Y-126148574D01*
X139865000Y-125871335D01*
X139865000Y-125588665D01*
X139809853Y-125311426D01*
X139701680Y-125050273D01*
X139544637Y-124815241D01*
X139344759Y-124615363D01*
X139109727Y-124458320D01*
X138848574Y-124350147D01*
X138571335Y-124295000D01*
X138288665Y-124295000D01*
X138011426Y-124350147D01*
X137750273Y-124458320D01*
X137515241Y-124615363D01*
X137315363Y-124815241D01*
X137158320Y-125050273D01*
X137050147Y-125311426D01*
X136995000Y-125588665D01*
X136995000Y-125871335D01*
X137050147Y-126148574D01*
X137158320Y-126409727D01*
X137315363Y-126644759D01*
X137515241Y-126844637D01*
X137670000Y-126948044D01*
X137670001Y-131557090D01*
X137547114Y-131639201D01*
X137354201Y-131832114D01*
X137276445Y-131948483D01*
X137265812Y-131840518D01*
X137229502Y-131720820D01*
X137170537Y-131610506D01*
X137091185Y-131513815D01*
X136994494Y-131434463D01*
X136884180Y-131375498D01*
X136764482Y-131339188D01*
X136640000Y-131326928D01*
X136175750Y-131330000D01*
X136017000Y-131488750D01*
X136017000Y-132588000D01*
X136037000Y-132588000D01*
X136037000Y-132842000D01*
X136017000Y-132842000D01*
X136017000Y-133941250D01*
X136175750Y-134100000D01*
X136640000Y-134103072D01*
X136764482Y-134090812D01*
X136884180Y-134054502D01*
X136994494Y-133995537D01*
X137091185Y-133916185D01*
X137170537Y-133819494D01*
X137229502Y-133709180D01*
X137265812Y-133589482D01*
X137276445Y-133481517D01*
X137354201Y-133597886D01*
X137547114Y-133790799D01*
X137773957Y-133942371D01*
X138026011Y-134046775D01*
X138293589Y-134100000D01*
X138566411Y-134100000D01*
X138833989Y-134046775D01*
X139086043Y-133942371D01*
X139312886Y-133790799D01*
X139505799Y-133597886D01*
X139657371Y-133371043D01*
X139700000Y-133268127D01*
X139742629Y-133371043D01*
X139894201Y-133597886D01*
X140087114Y-133790799D01*
X140313957Y-133942371D01*
X140566011Y-134046775D01*
X140833589Y-134100000D01*
X141106411Y-134100000D01*
X141373989Y-134046775D01*
X141626043Y-133942371D01*
X141852886Y-133790799D01*
X142045799Y-133597886D01*
X142197371Y-133371043D01*
X142301775Y-133118989D01*
X142355000Y-132851411D01*
X142355000Y-132578589D01*
X142301775Y-132311011D01*
X142197371Y-132058957D01*
X142045799Y-131832114D01*
X141852886Y-131639201D01*
X141730000Y-131557091D01*
X141730000Y-118147322D01*
X141733676Y-118109999D01*
X141730000Y-118072676D01*
X141730000Y-118072667D01*
X141719003Y-117961014D01*
X141675546Y-117817753D01*
X141604974Y-117685724D01*
X141554307Y-117623986D01*
X141533799Y-117598996D01*
X141533795Y-117598992D01*
X141510001Y-117569999D01*
X141481008Y-117546205D01*
X139828688Y-115893886D01*
X139865000Y-115711335D01*
X139865000Y-115428665D01*
X139809853Y-115151426D01*
X139701680Y-114890273D01*
X139544637Y-114655241D01*
X139344759Y-114455363D01*
X139109727Y-114298320D01*
X138848574Y-114190147D01*
X138571335Y-114135000D01*
X138288665Y-114135000D01*
X138011426Y-114190147D01*
X137750273Y-114298320D01*
X137515241Y-114455363D01*
X137315363Y-114655241D01*
X137211957Y-114810000D01*
X136794013Y-114810000D01*
X136807205Y-114790256D01*
X136885226Y-114601898D01*
X136925000Y-114401939D01*
X136925000Y-114198061D01*
X136885226Y-113998102D01*
X136807205Y-113809744D01*
X136693937Y-113640226D01*
X136549774Y-113496063D01*
X136380256Y-113382795D01*
X136191898Y-113304774D01*
X135991939Y-113265000D01*
X135929802Y-113265000D01*
X135183804Y-112519003D01*
X135160001Y-112489999D01*
X135044276Y-112395026D01*
X134912247Y-112324454D01*
X134768986Y-112280997D01*
X134657333Y-112270000D01*
X134657322Y-112270000D01*
X134620000Y-112266324D01*
X134582678Y-112270000D01*
X128584802Y-112270000D01*
X123950000Y-107635199D01*
X123950000Y-107380612D01*
X124050820Y-107434502D01*
X124170518Y-107470812D01*
X124295000Y-107483072D01*
X125895000Y-107483072D01*
X126019482Y-107470812D01*
X126139180Y-107434502D01*
X126249494Y-107375537D01*
X126346185Y-107296185D01*
X126425537Y-107199494D01*
X126484502Y-107089180D01*
X126520812Y-106969482D01*
X126533072Y-106845000D01*
X126533072Y-105245000D01*
X126520812Y-105120518D01*
X126484502Y-105000820D01*
X126425537Y-104890506D01*
X126346185Y-104793815D01*
X126249494Y-104714463D01*
X126139180Y-104655498D01*
X126019482Y-104619188D01*
X126011039Y-104618357D01*
X126209637Y-104419759D01*
X126366680Y-104184727D01*
X126474853Y-103923574D01*
X126530000Y-103646335D01*
X126530000Y-103363665D01*
X126474853Y-103086426D01*
X126366680Y-102825273D01*
X126209637Y-102590241D01*
X126009759Y-102390363D01*
X125777241Y-102235000D01*
X126009759Y-102079637D01*
X126209637Y-101879759D01*
X126366680Y-101644727D01*
X126474853Y-101383574D01*
X126530000Y-101106335D01*
X126530000Y-100823665D01*
X126474853Y-100546426D01*
X126366680Y-100285273D01*
X126209637Y-100050241D01*
X126009759Y-99850363D01*
X125774727Y-99693320D01*
X125764135Y-99688933D01*
X125950131Y-99577385D01*
X126158519Y-99388414D01*
X126326037Y-99162420D01*
X126446246Y-98908087D01*
X126486904Y-98774039D01*
X126364915Y-98552000D01*
X125222000Y-98552000D01*
X125222000Y-98572000D01*
X124968000Y-98572000D01*
X124968000Y-98552000D01*
X124948000Y-98552000D01*
X124948000Y-98298000D01*
X124968000Y-98298000D01*
X124968000Y-98278000D01*
X125222000Y-98278000D01*
X125222000Y-98298000D01*
X126364915Y-98298000D01*
X126486904Y-98075961D01*
X126446246Y-97941913D01*
X126326037Y-97687580D01*
X126158519Y-97461586D01*
X125950131Y-97272615D01*
X125764135Y-97161067D01*
X125774727Y-97156680D01*
X126009759Y-96999637D01*
X126209637Y-96799759D01*
X126366680Y-96564727D01*
X126474853Y-96303574D01*
X126530000Y-96026335D01*
X126530000Y-95743665D01*
X126474853Y-95466426D01*
X126366680Y-95205273D01*
X126209637Y-94970241D01*
X126009759Y-94770363D01*
X125777241Y-94615000D01*
X126009759Y-94459637D01*
X126209637Y-94259759D01*
X126366680Y-94024727D01*
X126474853Y-93763574D01*
X126530000Y-93486335D01*
X126530000Y-93203665D01*
X126474853Y-92926426D01*
X126366680Y-92665273D01*
X126209637Y-92430241D01*
X126009759Y-92230363D01*
X125777241Y-92075000D01*
X126009759Y-91919637D01*
X126209637Y-91719759D01*
X126366680Y-91484727D01*
X126474853Y-91223574D01*
X126530000Y-90946335D01*
X126530000Y-90663665D01*
X126474853Y-90386426D01*
X126366680Y-90125273D01*
X126209637Y-89890241D01*
X126009759Y-89690363D01*
X125777241Y-89535000D01*
X126009759Y-89379637D01*
X126209637Y-89179759D01*
X126366680Y-88944727D01*
X126474853Y-88683574D01*
X126530000Y-88406335D01*
X126530000Y-88123665D01*
X126474853Y-87846426D01*
X126366680Y-87585273D01*
X126209637Y-87350241D01*
X126009759Y-87150363D01*
X125777241Y-86995000D01*
X126009759Y-86839637D01*
X126209637Y-86639759D01*
X126366680Y-86404727D01*
X126474853Y-86143574D01*
X126530000Y-85866335D01*
X126530000Y-85583665D01*
X126474853Y-85306426D01*
X126366680Y-85045273D01*
X126209637Y-84810241D01*
X126009759Y-84610363D01*
X125777241Y-84455000D01*
X126009759Y-84299637D01*
X126209637Y-84099759D01*
X126366680Y-83864727D01*
X126474853Y-83603574D01*
X126530000Y-83326335D01*
X126530000Y-83043665D01*
X126474853Y-82766426D01*
X126366680Y-82505273D01*
X126209637Y-82270241D01*
X126009759Y-82070363D01*
X125777241Y-81915000D01*
X126009759Y-81759637D01*
X126209637Y-81559759D01*
X126366680Y-81324727D01*
X126474853Y-81063574D01*
X126530000Y-80786335D01*
X126530000Y-80503665D01*
X126474853Y-80226426D01*
X126366680Y-79965273D01*
X126209637Y-79730241D01*
X126009759Y-79530363D01*
X125777241Y-79375000D01*
X126009759Y-79219637D01*
X126209637Y-79019759D01*
X126366680Y-78784727D01*
X126474853Y-78523574D01*
X126530000Y-78246335D01*
X126530000Y-77963665D01*
X126474853Y-77686426D01*
X126366680Y-77425273D01*
X126209637Y-77190241D01*
X126009759Y-76990363D01*
X125777241Y-76835000D01*
X126009759Y-76679637D01*
X126209637Y-76479759D01*
X126366680Y-76244727D01*
X126474853Y-75983574D01*
X126530000Y-75706335D01*
X126530000Y-75423665D01*
X126474853Y-75146426D01*
X126366680Y-74885273D01*
X126209637Y-74650241D01*
X126009759Y-74450363D01*
X125777241Y-74295000D01*
X126009759Y-74139637D01*
X126209637Y-73939759D01*
X126366680Y-73704727D01*
X126474853Y-73443574D01*
X126530000Y-73166335D01*
X126530000Y-72994803D01*
X126875001Y-73339804D01*
X126875000Y-97117678D01*
X126871324Y-97155000D01*
X126875000Y-97192322D01*
X126875000Y-97192332D01*
X126885997Y-97303985D01*
X126929379Y-97447000D01*
X126929454Y-97447246D01*
X127000026Y-97579276D01*
X127039740Y-97627667D01*
X127094999Y-97695001D01*
X127124003Y-97718804D01*
X133077126Y-103671928D01*
X130980000Y-103671928D01*
X130855518Y-103684188D01*
X130735820Y-103720498D01*
X130625506Y-103779463D01*
X130528815Y-103858815D01*
X130449463Y-103955506D01*
X130390498Y-104065820D01*
X130354188Y-104185518D01*
X130341928Y-104310000D01*
X130341928Y-106510000D01*
X130354188Y-106634482D01*
X130390498Y-106754180D01*
X130449463Y-106864494D01*
X130528815Y-106961185D01*
X130625506Y-107040537D01*
X130735820Y-107099502D01*
X130855518Y-107135812D01*
X130980000Y-107148072D01*
X133180000Y-107148072D01*
X133304482Y-107135812D01*
X133424180Y-107099502D01*
X133534494Y-107040537D01*
X133631185Y-106961185D01*
X133710537Y-106864494D01*
X133769502Y-106754180D01*
X133805812Y-106634482D01*
X133818072Y-106510000D01*
X133818072Y-104412874D01*
X136342201Y-106937003D01*
X136365999Y-106966001D01*
X136394997Y-106989799D01*
X136481723Y-107060974D01*
X136610829Y-107129983D01*
X136613753Y-107131546D01*
X136757014Y-107175003D01*
X136868667Y-107186000D01*
X136868677Y-107186000D01*
X136906000Y-107189676D01*
X136943323Y-107186000D01*
X136957957Y-107186000D01*
X137061363Y-107340759D01*
X137261241Y-107540637D01*
X137416000Y-107644044D01*
X137416001Y-109563668D01*
X137412324Y-109601000D01*
X137426998Y-109749985D01*
X137470454Y-109893246D01*
X137541026Y-110025276D01*
X137610779Y-110110269D01*
X137636000Y-110141001D01*
X137664998Y-110164799D01*
X142115000Y-114614802D01*
X142115001Y-124422668D01*
X142111324Y-124460000D01*
X142115001Y-124497333D01*
X142125998Y-124608986D01*
X142139180Y-124652442D01*
X142169454Y-124752246D01*
X142240026Y-124884276D01*
X142307361Y-124966323D01*
X142335000Y-125000001D01*
X142363998Y-125023799D01*
X146629201Y-129289003D01*
X146652999Y-129318001D01*
X146768724Y-129412974D01*
X146900753Y-129483546D01*
X147044014Y-129527003D01*
X147155667Y-129538000D01*
X147155676Y-129538000D01*
X147192999Y-129541676D01*
X147230322Y-129538000D01*
X149397225Y-129538000D01*
X149458038Y-129629013D01*
X149643987Y-129814962D01*
X149862641Y-129961061D01*
X150105595Y-130061696D01*
X150363514Y-130113000D01*
X150626486Y-130113000D01*
X150884405Y-130061696D01*
X151127359Y-129961061D01*
X151346013Y-129814962D01*
X151531962Y-129629013D01*
X151678061Y-129410359D01*
X151778696Y-129167405D01*
X151830000Y-128909486D01*
X151830000Y-128646514D01*
X156780000Y-128646514D01*
X156780000Y-128909486D01*
X156831304Y-129167405D01*
X156931939Y-129410359D01*
X157078038Y-129629013D01*
X157263987Y-129814962D01*
X157482641Y-129961061D01*
X157725595Y-130061696D01*
X157983514Y-130113000D01*
X158246486Y-130113000D01*
X158504405Y-130061696D01*
X158747359Y-129961061D01*
X158966013Y-129814962D01*
X159151962Y-129629013D01*
X159212775Y-129538000D01*
X162964770Y-129538000D01*
X163102905Y-129630299D01*
X163382257Y-129746011D01*
X163678816Y-129805000D01*
X163981184Y-129805000D01*
X164277743Y-129746011D01*
X164557095Y-129630299D01*
X164808505Y-129462312D01*
X164874944Y-129395873D01*
X164880498Y-129414180D01*
X164939463Y-129524494D01*
X165018815Y-129621185D01*
X165115506Y-129700537D01*
X165225820Y-129759502D01*
X165345518Y-129795812D01*
X165470000Y-129808072D01*
X166084250Y-129805000D01*
X166243000Y-129646250D01*
X166243000Y-128397000D01*
X166497000Y-128397000D01*
X166497000Y-129646250D01*
X166655750Y-129805000D01*
X167270000Y-129808072D01*
X167394482Y-129795812D01*
X167514180Y-129759502D01*
X167624494Y-129700537D01*
X167721185Y-129621185D01*
X167800537Y-129524494D01*
X167859502Y-129414180D01*
X167895812Y-129294482D01*
X167908072Y-129170000D01*
X167905000Y-128555750D01*
X167746250Y-128397000D01*
X166497000Y-128397000D01*
X166243000Y-128397000D01*
X166223000Y-128397000D01*
X166223000Y-128143000D01*
X166243000Y-128143000D01*
X166243000Y-126893750D01*
X166497000Y-126893750D01*
X166497000Y-128143000D01*
X167746250Y-128143000D01*
X167905000Y-127984250D01*
X167908072Y-127370000D01*
X167895812Y-127245518D01*
X167859502Y-127125820D01*
X167800537Y-127015506D01*
X167721185Y-126918815D01*
X167624494Y-126839463D01*
X167514180Y-126780498D01*
X167394482Y-126744188D01*
X167270000Y-126731928D01*
X166655750Y-126735000D01*
X166497000Y-126893750D01*
X166243000Y-126893750D01*
X166084250Y-126735000D01*
X165470000Y-126731928D01*
X165345518Y-126744188D01*
X165225820Y-126780498D01*
X165115506Y-126839463D01*
X165018815Y-126918815D01*
X164939463Y-127015506D01*
X164880498Y-127125820D01*
X164874944Y-127144127D01*
X164808505Y-127077688D01*
X164557095Y-126909701D01*
X164277743Y-126793989D01*
X163981184Y-126735000D01*
X163678816Y-126735000D01*
X163382257Y-126793989D01*
X163102905Y-126909701D01*
X162851495Y-127077688D01*
X162637688Y-127291495D01*
X162469701Y-127542905D01*
X162353989Y-127822257D01*
X162315053Y-128018000D01*
X159212775Y-128018000D01*
X159151962Y-127926987D01*
X158966013Y-127741038D01*
X158747359Y-127594939D01*
X158504405Y-127494304D01*
X158246486Y-127443000D01*
X157983514Y-127443000D01*
X157725595Y-127494304D01*
X157482641Y-127594939D01*
X157263987Y-127741038D01*
X157078038Y-127926987D01*
X156931939Y-128145641D01*
X156831304Y-128388595D01*
X156780000Y-128646514D01*
X151830000Y-128646514D01*
X151778696Y-128388595D01*
X151678061Y-128145641D01*
X151531962Y-127926987D01*
X151346013Y-127741038D01*
X151127359Y-127594939D01*
X150884405Y-127494304D01*
X150626486Y-127443000D01*
X150363514Y-127443000D01*
X150105595Y-127494304D01*
X149862641Y-127594939D01*
X149643987Y-127741038D01*
X149458038Y-127926987D01*
X149397225Y-128018000D01*
X147507802Y-128018000D01*
X143635000Y-124145199D01*
X143635000Y-114337333D01*
X143638677Y-114300000D01*
X143624003Y-114151014D01*
X143580546Y-114007753D01*
X143509974Y-113875724D01*
X143438799Y-113788997D01*
X143415001Y-113759999D01*
X143386004Y-113736202D01*
X138936000Y-109286199D01*
X138936000Y-107644043D01*
X139090759Y-107540637D01*
X139290637Y-107340759D01*
X139447680Y-107105727D01*
X139555853Y-106844574D01*
X139611000Y-106567335D01*
X139611000Y-106284665D01*
X139555853Y-106007426D01*
X139447680Y-105746273D01*
X139290637Y-105511241D01*
X139090759Y-105311363D01*
X138855727Y-105154320D01*
X138594574Y-105046147D01*
X138317335Y-104991000D01*
X138034665Y-104991000D01*
X137757426Y-105046147D01*
X137496273Y-105154320D01*
X137261241Y-105311363D01*
X137063703Y-105508901D01*
X128395000Y-96840199D01*
X128395000Y-95079117D01*
X130345000Y-95079117D01*
X130345000Y-95420883D01*
X130411675Y-95756081D01*
X130542463Y-96071831D01*
X130732337Y-96355998D01*
X130974002Y-96597663D01*
X131258169Y-96787537D01*
X131573919Y-96918325D01*
X131909117Y-96985000D01*
X132250883Y-96985000D01*
X132586081Y-96918325D01*
X132901831Y-96787537D01*
X133185998Y-96597663D01*
X133427663Y-96355998D01*
X133617537Y-96071831D01*
X133748325Y-95756081D01*
X133815000Y-95420883D01*
X133815000Y-95079117D01*
X133748325Y-94743919D01*
X133617537Y-94428169D01*
X133427663Y-94144002D01*
X133185998Y-93902337D01*
X132901831Y-93712463D01*
X132586081Y-93581675D01*
X132250883Y-93515000D01*
X131909117Y-93515000D01*
X131573919Y-93581675D01*
X131258169Y-93712463D01*
X130974002Y-93902337D01*
X130732337Y-94144002D01*
X130542463Y-94428169D01*
X130411675Y-94743919D01*
X130345000Y-95079117D01*
X128395000Y-95079117D01*
X128395000Y-79304801D01*
X136908001Y-87817803D01*
X136908000Y-94793956D01*
X136753241Y-94897363D01*
X136553363Y-95097241D01*
X136396320Y-95332273D01*
X136288147Y-95593426D01*
X136233000Y-95870665D01*
X136233000Y-96153335D01*
X136288147Y-96430574D01*
X136396320Y-96691727D01*
X136553363Y-96926759D01*
X136753241Y-97126637D01*
X136908001Y-97230044D01*
X136908000Y-100800677D01*
X136904324Y-100838000D01*
X136908000Y-100875322D01*
X136908000Y-100875332D01*
X136918997Y-100986985D01*
X136950344Y-101090324D01*
X136962454Y-101130246D01*
X137033026Y-101262276D01*
X137055944Y-101290201D01*
X137127999Y-101378001D01*
X137157003Y-101401804D01*
X142565011Y-106809813D01*
X142565010Y-111791687D01*
X142561334Y-111829010D01*
X142565010Y-111866332D01*
X142565010Y-111866342D01*
X142576007Y-111977995D01*
X142619464Y-112121256D01*
X142690036Y-112253286D01*
X142712778Y-112280997D01*
X142785009Y-112369011D01*
X142814013Y-112392814D01*
X149181355Y-118760157D01*
X149160000Y-118867514D01*
X149160000Y-119130486D01*
X149211304Y-119388405D01*
X149311939Y-119631359D01*
X149458038Y-119850013D01*
X149643987Y-120035962D01*
X149862641Y-120182061D01*
X150105595Y-120282696D01*
X150363514Y-120334000D01*
X150626486Y-120334000D01*
X150884405Y-120282696D01*
X151127359Y-120182061D01*
X151346013Y-120035962D01*
X151531962Y-119850013D01*
X151678061Y-119631359D01*
X151778696Y-119388405D01*
X151830000Y-119130486D01*
X151830000Y-118867514D01*
X156780000Y-118867514D01*
X156780000Y-119130486D01*
X156831304Y-119388405D01*
X156931939Y-119631359D01*
X157078038Y-119850013D01*
X157263987Y-120035962D01*
X157482641Y-120182061D01*
X157725595Y-120282696D01*
X157983514Y-120334000D01*
X158246486Y-120334000D01*
X158504405Y-120282696D01*
X158747359Y-120182061D01*
X158966013Y-120035962D01*
X159151962Y-119850013D01*
X159212775Y-119759000D01*
X162673183Y-119759000D01*
X162851495Y-119937312D01*
X163102905Y-120105299D01*
X163382257Y-120221011D01*
X163678816Y-120280000D01*
X163981184Y-120280000D01*
X164277743Y-120221011D01*
X164557095Y-120105299D01*
X164808505Y-119937312D01*
X164874944Y-119870873D01*
X164880498Y-119889180D01*
X164939463Y-119999494D01*
X165018815Y-120096185D01*
X165115506Y-120175537D01*
X165225820Y-120234502D01*
X165345518Y-120270812D01*
X165470000Y-120283072D01*
X166084250Y-120280000D01*
X166243000Y-120121250D01*
X166243000Y-118872000D01*
X166497000Y-118872000D01*
X166497000Y-120121250D01*
X166655750Y-120280000D01*
X167270000Y-120283072D01*
X167394482Y-120270812D01*
X167514180Y-120234502D01*
X167624494Y-120175537D01*
X167721185Y-120096185D01*
X167800537Y-119999494D01*
X167859502Y-119889180D01*
X167895812Y-119769482D01*
X167908072Y-119645000D01*
X167905000Y-119030750D01*
X167746250Y-118872000D01*
X166497000Y-118872000D01*
X166243000Y-118872000D01*
X166223000Y-118872000D01*
X166223000Y-118618000D01*
X166243000Y-118618000D01*
X166243000Y-117368750D01*
X166497000Y-117368750D01*
X166497000Y-118618000D01*
X167746250Y-118618000D01*
X167905000Y-118459250D01*
X167908072Y-117845000D01*
X167895812Y-117720518D01*
X167859502Y-117600820D01*
X167800537Y-117490506D01*
X167721185Y-117393815D01*
X167624494Y-117314463D01*
X167514180Y-117255498D01*
X167394482Y-117219188D01*
X167270000Y-117206928D01*
X166655750Y-117210000D01*
X166497000Y-117368750D01*
X166243000Y-117368750D01*
X166084250Y-117210000D01*
X165470000Y-117206928D01*
X165345518Y-117219188D01*
X165225820Y-117255498D01*
X165115506Y-117314463D01*
X165018815Y-117393815D01*
X164939463Y-117490506D01*
X164880498Y-117600820D01*
X164874944Y-117619127D01*
X164808505Y-117552688D01*
X164557095Y-117384701D01*
X164277743Y-117268989D01*
X163981184Y-117210000D01*
X163678816Y-117210000D01*
X163382257Y-117268989D01*
X163102905Y-117384701D01*
X162851495Y-117552688D01*
X162637688Y-117766495D01*
X162469701Y-118017905D01*
X162378120Y-118239000D01*
X159212775Y-118239000D01*
X159151962Y-118147987D01*
X158966013Y-117962038D01*
X158747359Y-117815939D01*
X158504405Y-117715304D01*
X158246486Y-117664000D01*
X157983514Y-117664000D01*
X157725595Y-117715304D01*
X157482641Y-117815939D01*
X157263987Y-117962038D01*
X157078038Y-118147987D01*
X156931939Y-118366641D01*
X156831304Y-118609595D01*
X156780000Y-118867514D01*
X151830000Y-118867514D01*
X151778696Y-118609595D01*
X151678061Y-118366641D01*
X151531962Y-118147987D01*
X151346013Y-117962038D01*
X151127359Y-117815939D01*
X150884405Y-117715304D01*
X150626486Y-117664000D01*
X150363514Y-117664000D01*
X150256157Y-117685355D01*
X144085010Y-111514209D01*
X144085010Y-108848795D01*
X150702000Y-108848795D01*
X150702000Y-109083205D01*
X150747731Y-109313110D01*
X150837436Y-109529676D01*
X150967667Y-109724581D01*
X151133419Y-109890333D01*
X151328324Y-110020564D01*
X151544890Y-110110269D01*
X151774795Y-110156000D01*
X152009205Y-110156000D01*
X152239110Y-110110269D01*
X152455676Y-110020564D01*
X152650581Y-109890333D01*
X152816333Y-109724581D01*
X152946564Y-109529676D01*
X153036269Y-109313110D01*
X153082000Y-109083205D01*
X153082000Y-108848795D01*
X153036269Y-108618890D01*
X152946564Y-108402324D01*
X152816333Y-108207419D01*
X152650581Y-108041667D01*
X152455676Y-107911436D01*
X152239110Y-107821731D01*
X152009205Y-107776000D01*
X151774795Y-107776000D01*
X151544890Y-107821731D01*
X151328324Y-107911436D01*
X151133419Y-108041667D01*
X150967667Y-108207419D01*
X150837436Y-108402324D01*
X150747731Y-108618890D01*
X150702000Y-108848795D01*
X144085010Y-108848795D01*
X144085010Y-106532332D01*
X144088686Y-106495009D01*
X144085010Y-106457686D01*
X144085010Y-106457677D01*
X144074013Y-106346024D01*
X144055401Y-106284665D01*
X146901000Y-106284665D01*
X146901000Y-106567335D01*
X146956147Y-106844574D01*
X147064320Y-107105727D01*
X147221363Y-107340759D01*
X147421241Y-107540637D01*
X147656273Y-107697680D01*
X147917426Y-107805853D01*
X148194665Y-107861000D01*
X148477335Y-107861000D01*
X148754574Y-107805853D01*
X149015727Y-107697680D01*
X149250759Y-107540637D01*
X149450637Y-107340759D01*
X149515584Y-107243558D01*
X151254047Y-107243558D01*
X151295872Y-107462566D01*
X151509549Y-107558947D01*
X151737925Y-107611790D01*
X151972221Y-107619065D01*
X152203435Y-107580490D01*
X152422680Y-107497549D01*
X152488128Y-107462566D01*
X152529953Y-107243558D01*
X151892000Y-106605605D01*
X151254047Y-107243558D01*
X149515584Y-107243558D01*
X149607680Y-107105727D01*
X149715853Y-106844574D01*
X149771000Y-106567335D01*
X149771000Y-106506221D01*
X150698935Y-106506221D01*
X150737510Y-106737435D01*
X150820451Y-106956680D01*
X150855434Y-107022128D01*
X151074442Y-107063953D01*
X151712395Y-106426000D01*
X152071605Y-106426000D01*
X152709558Y-107063953D01*
X152928566Y-107022128D01*
X153024947Y-106808451D01*
X153077790Y-106580075D01*
X153085065Y-106345779D01*
X153046490Y-106114565D01*
X152963549Y-105895320D01*
X152928566Y-105829872D01*
X152709558Y-105788047D01*
X152071605Y-106426000D01*
X151712395Y-106426000D01*
X151074442Y-105788047D01*
X150855434Y-105829872D01*
X150759053Y-106043549D01*
X150706210Y-106271925D01*
X150698935Y-106506221D01*
X149771000Y-106506221D01*
X149771000Y-106284665D01*
X149734688Y-106102114D01*
X150228360Y-105608442D01*
X151254047Y-105608442D01*
X151892000Y-106246395D01*
X152529953Y-105608442D01*
X152488128Y-105389434D01*
X152274451Y-105293053D01*
X152046075Y-105240210D01*
X151811779Y-105232935D01*
X151580565Y-105271510D01*
X151361320Y-105354451D01*
X151295872Y-105389434D01*
X151254047Y-105608442D01*
X150228360Y-105608442D01*
X150918112Y-104918690D01*
X150982506Y-104971537D01*
X151092820Y-105030502D01*
X151212518Y-105066812D01*
X151337000Y-105079072D01*
X152447000Y-105079072D01*
X152571482Y-105066812D01*
X152691180Y-105030502D01*
X152801494Y-104971537D01*
X152898185Y-104892185D01*
X152977537Y-104795494D01*
X153036502Y-104685180D01*
X153072812Y-104565482D01*
X153085072Y-104441000D01*
X153085072Y-103331000D01*
X153072812Y-103206518D01*
X153036502Y-103086820D01*
X152977537Y-102976506D01*
X152898185Y-102879815D01*
X152801494Y-102800463D01*
X152691180Y-102741498D01*
X152571482Y-102705188D01*
X152447000Y-102692928D01*
X151337000Y-102692928D01*
X151212518Y-102705188D01*
X151092820Y-102741498D01*
X150982506Y-102800463D01*
X150885815Y-102879815D01*
X150806463Y-102976506D01*
X150747498Y-103086820D01*
X150732439Y-103136463D01*
X150727014Y-103136997D01*
X150583753Y-103180454D01*
X150451724Y-103251026D01*
X150451722Y-103251027D01*
X150451723Y-103251027D01*
X150364996Y-103322201D01*
X150364992Y-103322205D01*
X150335999Y-103345999D01*
X150312205Y-103374992D01*
X148659886Y-105027312D01*
X148477335Y-104991000D01*
X148194665Y-104991000D01*
X147917426Y-105046147D01*
X147656273Y-105154320D01*
X147421241Y-105311363D01*
X147221363Y-105511241D01*
X147064320Y-105746273D01*
X146956147Y-106007426D01*
X146901000Y-106284665D01*
X144055401Y-106284665D01*
X144030556Y-106202763D01*
X143959984Y-106070734D01*
X143865011Y-105955009D01*
X143836013Y-105931211D01*
X138428000Y-100523199D01*
X138428000Y-98434795D01*
X150702000Y-98434795D01*
X150702000Y-98669205D01*
X150747731Y-98899110D01*
X150837436Y-99115676D01*
X150967667Y-99310581D01*
X151133419Y-99476333D01*
X151328324Y-99606564D01*
X151544890Y-99696269D01*
X151774795Y-99742000D01*
X152009205Y-99742000D01*
X152239110Y-99696269D01*
X152455676Y-99606564D01*
X152650581Y-99476333D01*
X152816333Y-99310581D01*
X152946564Y-99115676D01*
X153036269Y-98899110D01*
X153082000Y-98669205D01*
X153082000Y-98434795D01*
X153036269Y-98204890D01*
X152946564Y-97988324D01*
X152816333Y-97793419D01*
X152650581Y-97627667D01*
X152455676Y-97497436D01*
X152239110Y-97407731D01*
X152009205Y-97362000D01*
X151774795Y-97362000D01*
X151544890Y-97407731D01*
X151328324Y-97497436D01*
X151133419Y-97627667D01*
X150967667Y-97793419D01*
X150837436Y-97988324D01*
X150747731Y-98204890D01*
X150702000Y-98434795D01*
X138428000Y-98434795D01*
X138428000Y-97230043D01*
X138582759Y-97126637D01*
X138782637Y-96926759D01*
X138939680Y-96691727D01*
X139047853Y-96430574D01*
X139103000Y-96153335D01*
X139103000Y-95870665D01*
X146393000Y-95870665D01*
X146393000Y-96153335D01*
X146448147Y-96430574D01*
X146556320Y-96691727D01*
X146713363Y-96926759D01*
X146913241Y-97126637D01*
X147148273Y-97283680D01*
X147409426Y-97391853D01*
X147686665Y-97447000D01*
X147969335Y-97447000D01*
X148246574Y-97391853D01*
X148507727Y-97283680D01*
X148742759Y-97126637D01*
X148942637Y-96926759D01*
X149007584Y-96829558D01*
X151254047Y-96829558D01*
X151295872Y-97048566D01*
X151509549Y-97144947D01*
X151737925Y-97197790D01*
X151972221Y-97205065D01*
X152203435Y-97166490D01*
X152422680Y-97083549D01*
X152488128Y-97048566D01*
X152529953Y-96829558D01*
X151892000Y-96191605D01*
X151254047Y-96829558D01*
X149007584Y-96829558D01*
X149099680Y-96691727D01*
X149207853Y-96430574D01*
X149263000Y-96153335D01*
X149263000Y-96092221D01*
X150698935Y-96092221D01*
X150737510Y-96323435D01*
X150820451Y-96542680D01*
X150855434Y-96608128D01*
X151074442Y-96649953D01*
X151712395Y-96012000D01*
X152071605Y-96012000D01*
X152709558Y-96649953D01*
X152928566Y-96608128D01*
X153024947Y-96394451D01*
X153077790Y-96166075D01*
X153085065Y-95931779D01*
X153046490Y-95700565D01*
X152972129Y-95504000D01*
X156716324Y-95504000D01*
X156720000Y-95541323D01*
X156720001Y-101816668D01*
X156716324Y-101854000D01*
X156720001Y-101891333D01*
X156726625Y-101958581D01*
X156730998Y-102002985D01*
X156774454Y-102146246D01*
X156845026Y-102278276D01*
X156899665Y-102344853D01*
X156940000Y-102394001D01*
X156968998Y-102417799D01*
X158322000Y-103770802D01*
X158322000Y-104003205D01*
X158367731Y-104233110D01*
X158457436Y-104449676D01*
X158587667Y-104644581D01*
X158753419Y-104810333D01*
X158948324Y-104940564D01*
X159164890Y-105030269D01*
X159394795Y-105076000D01*
X159629205Y-105076000D01*
X159859110Y-105030269D01*
X160075676Y-104940564D01*
X160270581Y-104810333D01*
X160434914Y-104646000D01*
X161466903Y-104646000D01*
X161200002Y-104824337D01*
X160958337Y-105066002D01*
X160768463Y-105350169D01*
X160637675Y-105665919D01*
X160588212Y-105914587D01*
X160566564Y-105862324D01*
X160436333Y-105667419D01*
X160270581Y-105501667D01*
X160075676Y-105371436D01*
X159859110Y-105281731D01*
X159629205Y-105236000D01*
X159394795Y-105236000D01*
X159164890Y-105281731D01*
X158948324Y-105371436D01*
X158753419Y-105501667D01*
X158587667Y-105667419D01*
X158457436Y-105862324D01*
X158367731Y-106078890D01*
X158322000Y-106308795D01*
X158322000Y-106543205D01*
X158367731Y-106773110D01*
X158457436Y-106989676D01*
X158587667Y-107184581D01*
X158753419Y-107350333D01*
X158948324Y-107480564D01*
X159164890Y-107570269D01*
X159394795Y-107616000D01*
X159629205Y-107616000D01*
X159826429Y-107576770D01*
X159627199Y-107776000D01*
X159394795Y-107776000D01*
X159164890Y-107821731D01*
X158948324Y-107911436D01*
X158753419Y-108041667D01*
X158587667Y-108207419D01*
X158457436Y-108402324D01*
X158367731Y-108618890D01*
X158322000Y-108848795D01*
X158322000Y-109083205D01*
X158367731Y-109313110D01*
X158457436Y-109529676D01*
X158587667Y-109724581D01*
X158753419Y-109890333D01*
X158948324Y-110020564D01*
X159164890Y-110110269D01*
X159394795Y-110156000D01*
X159629205Y-110156000D01*
X159859110Y-110110269D01*
X160075676Y-110020564D01*
X160270581Y-109890333D01*
X160436333Y-109724581D01*
X160566564Y-109529676D01*
X160656269Y-109313110D01*
X160702000Y-109083205D01*
X160702000Y-108850801D01*
X161738088Y-107814714D01*
X161799919Y-107840325D01*
X162135117Y-107907000D01*
X162476883Y-107907000D01*
X162812081Y-107840325D01*
X163127831Y-107709537D01*
X163411998Y-107519663D01*
X163653663Y-107277998D01*
X163843537Y-106993831D01*
X163974325Y-106678081D01*
X164041000Y-106342883D01*
X164041000Y-106001117D01*
X163974325Y-105665919D01*
X163843537Y-105350169D01*
X163653663Y-105066002D01*
X163411998Y-104824337D01*
X163145097Y-104646000D01*
X163896199Y-104646000D01*
X169616201Y-110366003D01*
X169639999Y-110395001D01*
X169755724Y-110489974D01*
X169887753Y-110560546D01*
X170031014Y-110604003D01*
X170142667Y-110615000D01*
X170142675Y-110615000D01*
X170180000Y-110618676D01*
X170217325Y-110615000D01*
X174587678Y-110615000D01*
X174625000Y-110618676D01*
X174662322Y-110615000D01*
X174662333Y-110615000D01*
X174773986Y-110604003D01*
X174917247Y-110560546D01*
X175049276Y-110489974D01*
X175165001Y-110395001D01*
X175188804Y-110365997D01*
X178247286Y-107307516D01*
X178248201Y-107308886D01*
X178296546Y-107357231D01*
X178339919Y-107410081D01*
X178392767Y-107453452D01*
X178441114Y-107501799D01*
X178497960Y-107539783D01*
X178550812Y-107583157D01*
X178611110Y-107615387D01*
X178667957Y-107653371D01*
X178731123Y-107679535D01*
X178791419Y-107711764D01*
X178856845Y-107731611D01*
X178920011Y-107757775D01*
X178987068Y-107771114D01*
X179052493Y-107790960D01*
X179120530Y-107797661D01*
X179187589Y-107811000D01*
X184335971Y-107811000D01*
X184404000Y-107817700D01*
X184472029Y-107811000D01*
X184540411Y-107811000D01*
X184607470Y-107797661D01*
X184675507Y-107790960D01*
X184740932Y-107771114D01*
X184807989Y-107757775D01*
X184871155Y-107731611D01*
X184936581Y-107711764D01*
X184996877Y-107679535D01*
X185060043Y-107653371D01*
X185116890Y-107615387D01*
X185177188Y-107583157D01*
X185230040Y-107539783D01*
X185286886Y-107501799D01*
X185335233Y-107453452D01*
X185388081Y-107410081D01*
X185431454Y-107357231D01*
X187875235Y-104913450D01*
X187928080Y-104870081D01*
X187977115Y-104810333D01*
X188079826Y-104685180D01*
X188101157Y-104659188D01*
X188229764Y-104418581D01*
X188308960Y-104157507D01*
X188329000Y-103954037D01*
X188329000Y-103954028D01*
X188335700Y-103886001D01*
X188329000Y-103817974D01*
X188329000Y-71644029D01*
X188335700Y-71576000D01*
X188329000Y-71507971D01*
X188329000Y-71507963D01*
X188308960Y-71304493D01*
X188229764Y-71043419D01*
X188101157Y-70802812D01*
X187971452Y-70644766D01*
X187971450Y-70644764D01*
X187928081Y-70591919D01*
X187875236Y-70548550D01*
X185150795Y-67824109D01*
X185136129Y-67750380D01*
X185014763Y-67457379D01*
X184838569Y-67193685D01*
X184614315Y-66969431D01*
X184350621Y-66793237D01*
X184057620Y-66671871D01*
X183746571Y-66610000D01*
X183429429Y-66610000D01*
X183118380Y-66671871D01*
X182825379Y-66793237D01*
X182561685Y-66969431D01*
X182337431Y-67193685D01*
X182161237Y-67457379D01*
X182039871Y-67750380D01*
X181978000Y-68061429D01*
X181978000Y-68378571D01*
X182039871Y-68689620D01*
X182161237Y-68982621D01*
X182337431Y-69246315D01*
X182561685Y-69470569D01*
X182825379Y-69646763D01*
X183118380Y-69768129D01*
X183192109Y-69782795D01*
X185559001Y-72149687D01*
X185559000Y-95661647D01*
X185479799Y-95543114D01*
X185286886Y-95350201D01*
X185060043Y-95198629D01*
X184807989Y-95094225D01*
X184540411Y-95041000D01*
X184267589Y-95041000D01*
X184000011Y-95094225D01*
X183747957Y-95198629D01*
X183521114Y-95350201D01*
X183328201Y-95543114D01*
X183246091Y-95666000D01*
X180481909Y-95666000D01*
X180399799Y-95543114D01*
X180206886Y-95350201D01*
X179980043Y-95198629D01*
X179727989Y-95094225D01*
X179460411Y-95041000D01*
X179187589Y-95041000D01*
X178920011Y-95094225D01*
X178667957Y-95198629D01*
X178441114Y-95350201D01*
X178248201Y-95543114D01*
X178096629Y-95769957D01*
X177992225Y-96022011D01*
X177939000Y-96289589D01*
X177939000Y-96562411D01*
X177992225Y-96829989D01*
X178096629Y-97082043D01*
X178248201Y-97308886D01*
X178441114Y-97501799D01*
X178667957Y-97653371D01*
X178920011Y-97757775D01*
X179187589Y-97811000D01*
X179460411Y-97811000D01*
X179727989Y-97757775D01*
X179980043Y-97653371D01*
X180206886Y-97501799D01*
X180399799Y-97308886D01*
X180481909Y-97186000D01*
X183246091Y-97186000D01*
X183328201Y-97308886D01*
X183521114Y-97501799D01*
X183747957Y-97653371D01*
X184000011Y-97757775D01*
X184267589Y-97811000D01*
X184540411Y-97811000D01*
X184807989Y-97757775D01*
X185060043Y-97653371D01*
X185286886Y-97501799D01*
X185479799Y-97308886D01*
X185559000Y-97190353D01*
X185559000Y-100650184D01*
X185517783Y-100599960D01*
X185479799Y-100543114D01*
X185431454Y-100494769D01*
X185388081Y-100441919D01*
X185335231Y-100398546D01*
X185286886Y-100350201D01*
X185230040Y-100312217D01*
X185177188Y-100268843D01*
X185116890Y-100236613D01*
X185060043Y-100198629D01*
X184996877Y-100172465D01*
X184936581Y-100140236D01*
X184871155Y-100120389D01*
X184807989Y-100094225D01*
X184740932Y-100080886D01*
X184675507Y-100061040D01*
X184607470Y-100054339D01*
X184540411Y-100041000D01*
X179897686Y-100041000D01*
X177407000Y-97550315D01*
X177407000Y-87109685D01*
X183983892Y-80532794D01*
X184057620Y-80518129D01*
X184350621Y-80396763D01*
X184614315Y-80220569D01*
X184838569Y-79996315D01*
X185014763Y-79732621D01*
X185136129Y-79439620D01*
X185198000Y-79128571D01*
X185198000Y-78811429D01*
X185136129Y-78500380D01*
X185014763Y-78207379D01*
X184838569Y-77943685D01*
X184614315Y-77719431D01*
X184350621Y-77543237D01*
X184057620Y-77421871D01*
X183746571Y-77360000D01*
X183429429Y-77360000D01*
X183118380Y-77421871D01*
X182825379Y-77543237D01*
X182561685Y-77719431D01*
X182337431Y-77943685D01*
X182161237Y-78207379D01*
X182039871Y-78500380D01*
X182025206Y-78574108D01*
X175090764Y-85508551D01*
X175037920Y-85551919D01*
X174994551Y-85604764D01*
X174994548Y-85604767D01*
X174864844Y-85762812D01*
X174736236Y-86003420D01*
X174657040Y-86264493D01*
X174630300Y-86536000D01*
X174637001Y-86604039D01*
X174637000Y-98055971D01*
X174630300Y-98124000D01*
X174637000Y-98192029D01*
X174637000Y-98192036D01*
X174657040Y-98395506D01*
X174736236Y-98656580D01*
X174864843Y-98897187D01*
X175037919Y-99108080D01*
X175090765Y-99151450D01*
X178296550Y-102357236D01*
X178339919Y-102410081D01*
X178392764Y-102453450D01*
X178392766Y-102453452D01*
X178392772Y-102453457D01*
X178441114Y-102501799D01*
X178497960Y-102539783D01*
X178550812Y-102583157D01*
X178611110Y-102615387D01*
X178667957Y-102653371D01*
X178731123Y-102679535D01*
X178791419Y-102711764D01*
X178856845Y-102731611D01*
X178920011Y-102757775D01*
X178987068Y-102771114D01*
X179052493Y-102790960D01*
X179120530Y-102797661D01*
X179187589Y-102811000D01*
X179255972Y-102811000D01*
X179323999Y-102817700D01*
X179392026Y-102811000D01*
X184540411Y-102811000D01*
X184607470Y-102797661D01*
X184675507Y-102790960D01*
X184740932Y-102771114D01*
X184807989Y-102757775D01*
X184871155Y-102731611D01*
X184936581Y-102711764D01*
X184996877Y-102679535D01*
X185060043Y-102653371D01*
X185116890Y-102615387D01*
X185177188Y-102583157D01*
X185230040Y-102539783D01*
X185286886Y-102501799D01*
X185335233Y-102453452D01*
X185388081Y-102410081D01*
X185431454Y-102357231D01*
X185479799Y-102308886D01*
X185517783Y-102252040D01*
X185559000Y-102201816D01*
X185559000Y-103312315D01*
X183830315Y-105041000D01*
X179187589Y-105041000D01*
X179120530Y-105054339D01*
X179052493Y-105061040D01*
X178987068Y-105080886D01*
X178920011Y-105094225D01*
X178856845Y-105120389D01*
X178791419Y-105140236D01*
X178731123Y-105172465D01*
X178667957Y-105198629D01*
X178611110Y-105236613D01*
X178550812Y-105268843D01*
X178497960Y-105312217D01*
X178441114Y-105350201D01*
X178392769Y-105398546D01*
X178339919Y-105441919D01*
X178296548Y-105494767D01*
X178248201Y-105543114D01*
X178210217Y-105599960D01*
X178166843Y-105652812D01*
X178159794Y-105666000D01*
X178091322Y-105666000D01*
X178053999Y-105662324D01*
X178016676Y-105666000D01*
X178016667Y-105666000D01*
X177905014Y-105676997D01*
X177761753Y-105720454D01*
X177629724Y-105791026D01*
X177513999Y-105885999D01*
X177490201Y-105914997D01*
X174310199Y-109095000D01*
X170494802Y-109095000D01*
X166471802Y-105072000D01*
X170727928Y-105072000D01*
X170727928Y-107272000D01*
X170740188Y-107396482D01*
X170776498Y-107516180D01*
X170835463Y-107626494D01*
X170914815Y-107723185D01*
X171011506Y-107802537D01*
X171121820Y-107861502D01*
X171241518Y-107897812D01*
X171366000Y-107910072D01*
X173566000Y-107910072D01*
X173690482Y-107897812D01*
X173810180Y-107861502D01*
X173920494Y-107802537D01*
X174017185Y-107723185D01*
X174096537Y-107626494D01*
X174155502Y-107516180D01*
X174191812Y-107396482D01*
X174204072Y-107272000D01*
X174204072Y-105072000D01*
X174191812Y-104947518D01*
X174155502Y-104827820D01*
X174096537Y-104717506D01*
X174017185Y-104620815D01*
X173920494Y-104541463D01*
X173810180Y-104482498D01*
X173690482Y-104446188D01*
X173566000Y-104433928D01*
X173226000Y-104433928D01*
X173226000Y-97575148D01*
X173287831Y-97549537D01*
X173571998Y-97359663D01*
X173813663Y-97117998D01*
X174003537Y-96833831D01*
X174134325Y-96518081D01*
X174201000Y-96182883D01*
X174201000Y-95841117D01*
X174134325Y-95505919D01*
X174003537Y-95190169D01*
X173813663Y-94906002D01*
X173571998Y-94664337D01*
X173287831Y-94474463D01*
X172972081Y-94343675D01*
X172636883Y-94277000D01*
X172295117Y-94277000D01*
X171959919Y-94343675D01*
X171644169Y-94474463D01*
X171360002Y-94664337D01*
X171118337Y-94906002D01*
X170928463Y-95190169D01*
X170797675Y-95505919D01*
X170731000Y-95841117D01*
X170731000Y-96182883D01*
X170797675Y-96518081D01*
X170928463Y-96833831D01*
X171118337Y-97117998D01*
X171360002Y-97359663D01*
X171644169Y-97549537D01*
X171706001Y-97575149D01*
X171706000Y-104433928D01*
X171366000Y-104433928D01*
X171241518Y-104446188D01*
X171121820Y-104482498D01*
X171011506Y-104541463D01*
X170914815Y-104620815D01*
X170835463Y-104717506D01*
X170776498Y-104827820D01*
X170740188Y-104947518D01*
X170727928Y-105072000D01*
X166471802Y-105072000D01*
X164774804Y-103375003D01*
X164751001Y-103345999D01*
X164635276Y-103251026D01*
X164503247Y-103180454D01*
X164359986Y-103136997D01*
X164248333Y-103126000D01*
X164248322Y-103126000D01*
X164211000Y-103122324D01*
X164173678Y-103126000D01*
X160434914Y-103126000D01*
X160270581Y-102961667D01*
X160075676Y-102831436D01*
X159859110Y-102741731D01*
X159629205Y-102696000D01*
X159396802Y-102696000D01*
X158240000Y-101539199D01*
X158240000Y-95818801D01*
X158361230Y-95697571D01*
X158322000Y-95894795D01*
X158322000Y-96129205D01*
X158367731Y-96359110D01*
X158457436Y-96575676D01*
X158587667Y-96770581D01*
X158753419Y-96936333D01*
X158948324Y-97066564D01*
X159164890Y-97156269D01*
X159394795Y-97202000D01*
X159629205Y-97202000D01*
X159826429Y-97162770D01*
X159627198Y-97362000D01*
X159394795Y-97362000D01*
X159164890Y-97407731D01*
X158948324Y-97497436D01*
X158753419Y-97627667D01*
X158587667Y-97793419D01*
X158457436Y-97988324D01*
X158367731Y-98204890D01*
X158322000Y-98434795D01*
X158322000Y-98669205D01*
X158367731Y-98899110D01*
X158457436Y-99115676D01*
X158587667Y-99310581D01*
X158753419Y-99476333D01*
X158948324Y-99606564D01*
X159164890Y-99696269D01*
X159394795Y-99742000D01*
X159629205Y-99742000D01*
X159859110Y-99696269D01*
X160075676Y-99606564D01*
X160270581Y-99476333D01*
X160436333Y-99310581D01*
X160566564Y-99115676D01*
X160656269Y-98899110D01*
X160702000Y-98669205D01*
X160702000Y-98436802D01*
X161388730Y-97750072D01*
X163406000Y-97750072D01*
X163530482Y-97737812D01*
X163650180Y-97701502D01*
X163760494Y-97642537D01*
X163857185Y-97563185D01*
X163936537Y-97466494D01*
X163995502Y-97356180D01*
X164031812Y-97236482D01*
X164044072Y-97112000D01*
X164044072Y-94912000D01*
X164031812Y-94787518D01*
X163995502Y-94667820D01*
X163936537Y-94557506D01*
X163857185Y-94460815D01*
X163760494Y-94381463D01*
X163650180Y-94322498D01*
X163530482Y-94286188D01*
X163406000Y-94273928D01*
X161206000Y-94273928D01*
X161081518Y-94286188D01*
X160961820Y-94322498D01*
X160851506Y-94381463D01*
X160754815Y-94460815D01*
X160675463Y-94557506D01*
X160616498Y-94667820D01*
X160580188Y-94787518D01*
X160567928Y-94912000D01*
X160567928Y-95451617D01*
X160566564Y-95448324D01*
X160436333Y-95253419D01*
X160270581Y-95087667D01*
X160075676Y-94957436D01*
X159859110Y-94867731D01*
X159629205Y-94822000D01*
X159394795Y-94822000D01*
X159197571Y-94861230D01*
X159396802Y-94662000D01*
X159629205Y-94662000D01*
X159859110Y-94616269D01*
X160075676Y-94526564D01*
X160270581Y-94396333D01*
X160436333Y-94230581D01*
X160566564Y-94035676D01*
X160656269Y-93819110D01*
X160702000Y-93589205D01*
X160702000Y-93354795D01*
X160656269Y-93124890D01*
X160566564Y-92908324D01*
X160436333Y-92713419D01*
X160270581Y-92547667D01*
X160075676Y-92417436D01*
X159859110Y-92327731D01*
X159629205Y-92282000D01*
X159394795Y-92282000D01*
X159164890Y-92327731D01*
X158948324Y-92417436D01*
X158753419Y-92547667D01*
X158587667Y-92713419D01*
X158457436Y-92908324D01*
X158367731Y-93124890D01*
X158322000Y-93354795D01*
X158322000Y-93587198D01*
X156969003Y-94940196D01*
X156939999Y-94963999D01*
X156886160Y-95029603D01*
X156845026Y-95079724D01*
X156806233Y-95152300D01*
X156774454Y-95211754D01*
X156730997Y-95355015D01*
X156720000Y-95466668D01*
X156720000Y-95466678D01*
X156716324Y-95504000D01*
X152972129Y-95504000D01*
X152963549Y-95481320D01*
X152928566Y-95415872D01*
X152709558Y-95374047D01*
X152071605Y-96012000D01*
X151712395Y-96012000D01*
X151074442Y-95374047D01*
X150855434Y-95415872D01*
X150759053Y-95629549D01*
X150706210Y-95857925D01*
X150698935Y-96092221D01*
X149263000Y-96092221D01*
X149263000Y-95870665D01*
X149226688Y-95688114D01*
X149720360Y-95194442D01*
X151254047Y-95194442D01*
X151892000Y-95832395D01*
X152529953Y-95194442D01*
X152488128Y-94975434D01*
X152274451Y-94879053D01*
X152046075Y-94826210D01*
X151811779Y-94818935D01*
X151580565Y-94857510D01*
X151361320Y-94940451D01*
X151295872Y-94975434D01*
X151254047Y-95194442D01*
X149720360Y-95194442D01*
X150682803Y-94232000D01*
X150735613Y-94232000D01*
X150747498Y-94271180D01*
X150806463Y-94381494D01*
X150885815Y-94478185D01*
X150982506Y-94557537D01*
X151092820Y-94616502D01*
X151212518Y-94652812D01*
X151337000Y-94665072D01*
X152447000Y-94665072D01*
X152571482Y-94652812D01*
X152691180Y-94616502D01*
X152801494Y-94557537D01*
X152898185Y-94478185D01*
X152977537Y-94381494D01*
X153036502Y-94271180D01*
X153072812Y-94151482D01*
X153085072Y-94027000D01*
X153085072Y-92917000D01*
X153072812Y-92792518D01*
X153036502Y-92672820D01*
X152977537Y-92562506D01*
X152898185Y-92465815D01*
X152801494Y-92386463D01*
X152691180Y-92327498D01*
X152571482Y-92291188D01*
X152447000Y-92278928D01*
X151337000Y-92278928D01*
X151212518Y-92291188D01*
X151092820Y-92327498D01*
X150982506Y-92386463D01*
X150885815Y-92465815D01*
X150806463Y-92562506D01*
X150747498Y-92672820D01*
X150735613Y-92712000D01*
X150405322Y-92712000D01*
X150367999Y-92708324D01*
X150330676Y-92712000D01*
X150330667Y-92712000D01*
X150219014Y-92722997D01*
X150075753Y-92766454D01*
X149943724Y-92837026D01*
X149943722Y-92837027D01*
X149943723Y-92837027D01*
X149856996Y-92908201D01*
X149856992Y-92908205D01*
X149827999Y-92931999D01*
X149804205Y-92960992D01*
X148151886Y-94613312D01*
X147969335Y-94577000D01*
X147686665Y-94577000D01*
X147409426Y-94632147D01*
X147148273Y-94740320D01*
X146913241Y-94897363D01*
X146713363Y-95097241D01*
X146556320Y-95332273D01*
X146448147Y-95593426D01*
X146393000Y-95870665D01*
X139103000Y-95870665D01*
X139047853Y-95593426D01*
X138939680Y-95332273D01*
X138782637Y-95097241D01*
X138582759Y-94897363D01*
X138428000Y-94793957D01*
X138428000Y-87540322D01*
X138431676Y-87502999D01*
X138428000Y-87465676D01*
X138428000Y-87465667D01*
X138417003Y-87354014D01*
X138373546Y-87210753D01*
X138346418Y-87160000D01*
X138302974Y-87078723D01*
X138231799Y-86991997D01*
X138208001Y-86962999D01*
X138179003Y-86939201D01*
X131118316Y-79878514D01*
X132015000Y-79878514D01*
X132015000Y-80141486D01*
X132066304Y-80399405D01*
X132166939Y-80642359D01*
X132313038Y-80861013D01*
X132498987Y-81046962D01*
X132717641Y-81193061D01*
X132960595Y-81293696D01*
X133218514Y-81345000D01*
X133481486Y-81345000D01*
X133739405Y-81293696D01*
X133982359Y-81193061D01*
X134201013Y-81046962D01*
X134386962Y-80861013D01*
X134533061Y-80642359D01*
X134633696Y-80399405D01*
X134685000Y-80141486D01*
X134685000Y-79878514D01*
X134633696Y-79620595D01*
X134533061Y-79377641D01*
X134386962Y-79158987D01*
X134201013Y-78973038D01*
X133982359Y-78826939D01*
X133739405Y-78726304D01*
X133481486Y-78675000D01*
X133218514Y-78675000D01*
X132960595Y-78726304D01*
X132717641Y-78826939D01*
X132498987Y-78973038D01*
X132313038Y-79158987D01*
X132166939Y-79377641D01*
X132066304Y-79620595D01*
X132015000Y-79878514D01*
X131118316Y-79878514D01*
X129030000Y-77790199D01*
X129030000Y-76061429D01*
X143478000Y-76061429D01*
X143478000Y-76378571D01*
X143539871Y-76689620D01*
X143661237Y-76982621D01*
X143837431Y-77246315D01*
X144061685Y-77470569D01*
X144325379Y-77646763D01*
X144618380Y-77768129D01*
X144929429Y-77830000D01*
X145246571Y-77830000D01*
X145557620Y-77768129D01*
X145850621Y-77646763D01*
X146114315Y-77470569D01*
X146338569Y-77246315D01*
X146514763Y-76982621D01*
X146636129Y-76689620D01*
X146698000Y-76378571D01*
X146698000Y-76061429D01*
X146636129Y-75750380D01*
X146514763Y-75457379D01*
X146338569Y-75193685D01*
X146114315Y-74969431D01*
X145850621Y-74793237D01*
X145557620Y-74671871D01*
X145246571Y-74610000D01*
X144929429Y-74610000D01*
X144618380Y-74671871D01*
X144325379Y-74793237D01*
X144061685Y-74969431D01*
X143837431Y-75193685D01*
X143661237Y-75457379D01*
X143539871Y-75750380D01*
X143478000Y-76061429D01*
X129030000Y-76061429D01*
X129030000Y-72258514D01*
X132015000Y-72258514D01*
X132015000Y-72521486D01*
X132066304Y-72779405D01*
X132166939Y-73022359D01*
X132313038Y-73241013D01*
X132498987Y-73426962D01*
X132717641Y-73573061D01*
X132960595Y-73673696D01*
X133218514Y-73725000D01*
X133481486Y-73725000D01*
X133739405Y-73673696D01*
X133982359Y-73573061D01*
X134201013Y-73426962D01*
X134386962Y-73241013D01*
X134533061Y-73022359D01*
X134633696Y-72779405D01*
X134685000Y-72521486D01*
X134685000Y-72258514D01*
X134633696Y-72000595D01*
X134533061Y-71757641D01*
X134386962Y-71538987D01*
X134201013Y-71353038D01*
X133982359Y-71206939D01*
X133739405Y-71106304D01*
X133481486Y-71055000D01*
X133218514Y-71055000D01*
X132960595Y-71106304D01*
X132717641Y-71206939D01*
X132498987Y-71353038D01*
X132313038Y-71538987D01*
X132166939Y-71757641D01*
X132066304Y-72000595D01*
X132015000Y-72258514D01*
X129030000Y-72258514D01*
X129030000Y-69887323D01*
X129033676Y-69850000D01*
X129030000Y-69812677D01*
X129030000Y-69812667D01*
X129019003Y-69701014D01*
X128975546Y-69557753D01*
X128904974Y-69425724D01*
X128810001Y-69309999D01*
X128781003Y-69286201D01*
X128466802Y-68972000D01*
X130541928Y-68972000D01*
X130554188Y-69096482D01*
X130590498Y-69216180D01*
X130649463Y-69326494D01*
X130728815Y-69423185D01*
X130825506Y-69502537D01*
X130935820Y-69561502D01*
X131055518Y-69597812D01*
X131180000Y-69610072D01*
X131794250Y-69607000D01*
X131953000Y-69448250D01*
X131953000Y-68199000D01*
X130703750Y-68199000D01*
X130545000Y-68357750D01*
X130541928Y-68972000D01*
X128466802Y-68972000D01*
X126928804Y-67434003D01*
X126905001Y-67404999D01*
X126789276Y-67310026D01*
X126657247Y-67239454D01*
X126513986Y-67195997D01*
X126402333Y-67185000D01*
X126402322Y-67185000D01*
X126365000Y-67181324D01*
X126327678Y-67185000D01*
X112432322Y-67185000D01*
X112394999Y-67181324D01*
X112357676Y-67185000D01*
X112357667Y-67185000D01*
X112246014Y-67195997D01*
X112102753Y-67239454D01*
X111970724Y-67310026D01*
X111970722Y-67310027D01*
X111970723Y-67310027D01*
X111883996Y-67381201D01*
X111883992Y-67381205D01*
X111854999Y-67404999D01*
X111831205Y-67433992D01*
X110178886Y-69086312D01*
X109996335Y-69050000D01*
X109713665Y-69050000D01*
X109436426Y-69105147D01*
X109175273Y-69213320D01*
X108940241Y-69370363D01*
X108740363Y-69570241D01*
X108583320Y-69805273D01*
X108475147Y-70066426D01*
X108420000Y-70343665D01*
X105575000Y-70343665D01*
X105575000Y-70216665D01*
X105519853Y-69939426D01*
X105411680Y-69678273D01*
X105254637Y-69443241D01*
X105054759Y-69243363D01*
X104819727Y-69086320D01*
X104558574Y-68978147D01*
X104281335Y-68923000D01*
X103998665Y-68923000D01*
X103721426Y-68978147D01*
X103460273Y-69086320D01*
X103225241Y-69243363D01*
X103025363Y-69443241D01*
X102868320Y-69678273D01*
X102760147Y-69939426D01*
X102705000Y-70216665D01*
X99187000Y-70216665D01*
X99187000Y-66708881D01*
X101618724Y-66708881D01*
X101978912Y-67198548D01*
X102642882Y-67558849D01*
X103364385Y-67782694D01*
X104115695Y-67861480D01*
X104867938Y-67792178D01*
X105592208Y-67577452D01*
X106260670Y-67225555D01*
X106301088Y-67198548D01*
X106320616Y-67172000D01*
X130541928Y-67172000D01*
X130545000Y-67786250D01*
X130703750Y-67945000D01*
X131953000Y-67945000D01*
X131953000Y-66695750D01*
X132207000Y-66695750D01*
X132207000Y-67945000D01*
X132227000Y-67945000D01*
X132227000Y-68199000D01*
X132207000Y-68199000D01*
X132207000Y-69448250D01*
X132365750Y-69607000D01*
X132980000Y-69610072D01*
X133104482Y-69597812D01*
X133224180Y-69561502D01*
X133334494Y-69502537D01*
X133431185Y-69423185D01*
X133510537Y-69326494D01*
X133569502Y-69216180D01*
X133575056Y-69197873D01*
X133641495Y-69264312D01*
X133892905Y-69432299D01*
X134172257Y-69548011D01*
X134468816Y-69607000D01*
X134771184Y-69607000D01*
X135067743Y-69548011D01*
X135347095Y-69432299D01*
X135488845Y-69337584D01*
X144150021Y-69337584D01*
X144242766Y-69599429D01*
X144528120Y-69737820D01*
X144834990Y-69817883D01*
X145151584Y-69836540D01*
X145465733Y-69793074D01*
X145765367Y-69689156D01*
X145933234Y-69599429D01*
X146025979Y-69337584D01*
X145088000Y-68399605D01*
X144150021Y-69337584D01*
X135488845Y-69337584D01*
X135598505Y-69264312D01*
X135812312Y-69050505D01*
X135980299Y-68799095D01*
X136096011Y-68519743D01*
X136142985Y-68283584D01*
X143471460Y-68283584D01*
X143514926Y-68597733D01*
X143618844Y-68897367D01*
X143708571Y-69065234D01*
X143970416Y-69157979D01*
X144908395Y-68220000D01*
X145267605Y-68220000D01*
X146205584Y-69157979D01*
X146467429Y-69065234D01*
X146605820Y-68779880D01*
X146685883Y-68473010D01*
X146704540Y-68156416D01*
X146661074Y-67842267D01*
X146557156Y-67542633D01*
X146467429Y-67374766D01*
X146205584Y-67282021D01*
X145267605Y-68220000D01*
X144908395Y-68220000D01*
X143970416Y-67282021D01*
X143708571Y-67374766D01*
X143570180Y-67660120D01*
X143490117Y-67966990D01*
X143471460Y-68283584D01*
X136142985Y-68283584D01*
X136155000Y-68223184D01*
X136155000Y-67920816D01*
X136096011Y-67624257D01*
X135980299Y-67344905D01*
X135818273Y-67102416D01*
X144150021Y-67102416D01*
X145088000Y-68040395D01*
X146025979Y-67102416D01*
X145933234Y-66840571D01*
X145647880Y-66702180D01*
X145341010Y-66622117D01*
X145024416Y-66603460D01*
X144710267Y-66646926D01*
X144410633Y-66750844D01*
X144242766Y-66840571D01*
X144150021Y-67102416D01*
X135818273Y-67102416D01*
X135812312Y-67093495D01*
X135598505Y-66879688D01*
X135347095Y-66711701D01*
X135067743Y-66595989D01*
X134771184Y-66537000D01*
X134468816Y-66537000D01*
X134172257Y-66595989D01*
X133892905Y-66711701D01*
X133641495Y-66879688D01*
X133575056Y-66946127D01*
X133569502Y-66927820D01*
X133510537Y-66817506D01*
X133431185Y-66720815D01*
X133334494Y-66641463D01*
X133224180Y-66582498D01*
X133104482Y-66546188D01*
X132980000Y-66533928D01*
X132365750Y-66537000D01*
X132207000Y-66695750D01*
X131953000Y-66695750D01*
X131794250Y-66537000D01*
X131180000Y-66533928D01*
X131055518Y-66546188D01*
X130935820Y-66582498D01*
X130825506Y-66641463D01*
X130728815Y-66720815D01*
X130649463Y-66817506D01*
X130590498Y-66927820D01*
X130554188Y-67047518D01*
X130541928Y-67172000D01*
X106320616Y-67172000D01*
X106661276Y-66708881D01*
X104140000Y-64187605D01*
X101618724Y-66708881D01*
X99187000Y-66708881D01*
X99187000Y-63983695D01*
X100286520Y-63983695D01*
X100355822Y-64735938D01*
X100570548Y-65460208D01*
X100922445Y-66128670D01*
X100949452Y-66169088D01*
X101439119Y-66529276D01*
X103960395Y-64008000D01*
X104319605Y-64008000D01*
X106840881Y-66529276D01*
X107330548Y-66169088D01*
X107690849Y-65505118D01*
X107914694Y-64783615D01*
X107945306Y-64491695D01*
X187154520Y-64491695D01*
X187223822Y-65243938D01*
X187438548Y-65968208D01*
X187790445Y-66636670D01*
X187817452Y-66677088D01*
X188307119Y-67037276D01*
X188492811Y-66851584D01*
X188507007Y-66872830D01*
X188651170Y-67016993D01*
X188672416Y-67031189D01*
X188486724Y-67216881D01*
X188846912Y-67706548D01*
X189510882Y-68066849D01*
X190232385Y-68290694D01*
X190983695Y-68369480D01*
X191735938Y-68300178D01*
X192460208Y-68085452D01*
X193128670Y-67733555D01*
X193169088Y-67706548D01*
X193529276Y-67216881D01*
X193343584Y-67031189D01*
X193364830Y-67016993D01*
X193508993Y-66872830D01*
X193523189Y-66851584D01*
X193708881Y-67037276D01*
X194198548Y-66677088D01*
X194558849Y-66013118D01*
X194782694Y-65291615D01*
X194861480Y-64540305D01*
X194792178Y-63788062D01*
X194577452Y-63063792D01*
X194225555Y-62395330D01*
X194198548Y-62354912D01*
X193708881Y-61994724D01*
X193523189Y-62180416D01*
X193508993Y-62159170D01*
X193364830Y-62015007D01*
X193343584Y-62000811D01*
X193529276Y-61815119D01*
X193169088Y-61325452D01*
X192505118Y-60965151D01*
X191783615Y-60741306D01*
X191032305Y-60662520D01*
X190280062Y-60731822D01*
X189555792Y-60946548D01*
X188887330Y-61298445D01*
X188846912Y-61325452D01*
X188486724Y-61815119D01*
X191008000Y-64336395D01*
X191886923Y-63457472D01*
X191901119Y-63478718D01*
X192045282Y-63622881D01*
X192066528Y-63637077D01*
X191187605Y-64516000D01*
X192066528Y-65394923D01*
X192045282Y-65409119D01*
X191901119Y-65553282D01*
X191886923Y-65574528D01*
X191008000Y-64695605D01*
X190129077Y-65574528D01*
X190114881Y-65553282D01*
X189970718Y-65409119D01*
X189949472Y-65394923D01*
X190828395Y-64516000D01*
X188307119Y-61994724D01*
X187817452Y-62354912D01*
X187457151Y-63018882D01*
X187233306Y-63740385D01*
X187154520Y-64491695D01*
X107945306Y-64491695D01*
X107993480Y-64032305D01*
X107924178Y-63280062D01*
X107709452Y-62555792D01*
X107357555Y-61887330D01*
X107330548Y-61846912D01*
X106840881Y-61486724D01*
X104319605Y-64008000D01*
X103960395Y-64008000D01*
X101439119Y-61486724D01*
X100949452Y-61846912D01*
X100589151Y-62510882D01*
X100365306Y-63232385D01*
X100286520Y-63983695D01*
X99187000Y-63983695D01*
X99187000Y-61307119D01*
X101618724Y-61307119D01*
X104140000Y-63828395D01*
X106661276Y-61307119D01*
X106301088Y-60817452D01*
X105637118Y-60457151D01*
X104915615Y-60233306D01*
X104164305Y-60154520D01*
X103412062Y-60223822D01*
X102687792Y-60438548D01*
X102019330Y-60790445D01*
X101978912Y-60817452D01*
X101618724Y-61307119D01*
X99187000Y-61307119D01*
X99187000Y-59182000D01*
X196088000Y-59182000D01*
X196088000Y-152273000D01*
%TA.AperFunction,Conductor*%
D31*
G36*
X196088000Y-152273000D02*
G01*
X99187000Y-152273000D01*
X99187000Y-150304881D01*
X101618724Y-150304881D01*
X101978912Y-150794548D01*
X102642882Y-151154849D01*
X103364385Y-151378694D01*
X104115695Y-151457480D01*
X104867938Y-151388178D01*
X105592208Y-151173452D01*
X106260670Y-150821555D01*
X106301088Y-150794548D01*
X106661276Y-150304881D01*
X104140000Y-147783605D01*
X101618724Y-150304881D01*
X99187000Y-150304881D01*
X99187000Y-147579695D01*
X100286520Y-147579695D01*
X100355822Y-148331938D01*
X100570548Y-149056208D01*
X100922445Y-149724670D01*
X100949452Y-149765088D01*
X101439119Y-150125276D01*
X103960395Y-147604000D01*
X104319605Y-147604000D01*
X106840881Y-150125276D01*
X107330548Y-149765088D01*
X107690849Y-149101118D01*
X107914694Y-148379615D01*
X107993480Y-147628305D01*
X107989002Y-147579695D01*
X187281520Y-147579695D01*
X187350822Y-148331938D01*
X187565548Y-149056208D01*
X187917445Y-149724670D01*
X187944452Y-149765088D01*
X188434119Y-150125276D01*
X188619811Y-149939584D01*
X188634007Y-149960830D01*
X188778170Y-150104993D01*
X188799416Y-150119189D01*
X188613724Y-150304881D01*
X188973912Y-150794548D01*
X189637882Y-151154849D01*
X190359385Y-151378694D01*
X191110695Y-151457480D01*
X191862938Y-151388178D01*
X192587208Y-151173452D01*
X193255670Y-150821555D01*
X193296088Y-150794548D01*
X193656276Y-150304881D01*
X193470584Y-150119189D01*
X193491830Y-150104993D01*
X193635993Y-149960830D01*
X193650189Y-149939584D01*
X193835881Y-150125276D01*
X194325548Y-149765088D01*
X194685849Y-149101118D01*
X194909694Y-148379615D01*
X194988480Y-147628305D01*
X194919178Y-146876062D01*
X194704452Y-146151792D01*
X194352555Y-145483330D01*
X194325548Y-145442912D01*
X193835881Y-145082724D01*
X193650189Y-145268416D01*
X193635993Y-145247170D01*
X193491830Y-145103007D01*
X193470584Y-145088811D01*
X193656276Y-144903119D01*
X193296088Y-144413452D01*
X192632118Y-144053151D01*
X191910615Y-143829306D01*
X191159305Y-143750520D01*
X190407062Y-143819822D01*
X189682792Y-144034548D01*
X189014330Y-144386445D01*
X188973912Y-144413452D01*
X188613724Y-144903119D01*
X191135000Y-147424395D01*
X192013923Y-146545472D01*
X192028119Y-146566718D01*
X192172282Y-146710881D01*
X192193528Y-146725077D01*
X191314605Y-147604000D01*
X192193528Y-148482923D01*
X192172282Y-148497119D01*
X192028119Y-148641282D01*
X192013923Y-148662528D01*
X191135000Y-147783605D01*
X190256077Y-148662528D01*
X190241881Y-148641282D01*
X190097718Y-148497119D01*
X190076472Y-148482923D01*
X190955395Y-147604000D01*
X188434119Y-145082724D01*
X187944452Y-145442912D01*
X187584151Y-146106882D01*
X187360306Y-146828385D01*
X187281520Y-147579695D01*
X107989002Y-147579695D01*
X107924178Y-146876062D01*
X107709452Y-146151792D01*
X107357555Y-145483330D01*
X107330548Y-145442912D01*
X106840881Y-145082724D01*
X104319605Y-147604000D01*
X103960395Y-147604000D01*
X101439119Y-145082724D01*
X100949452Y-145442912D01*
X100589151Y-146106882D01*
X100365306Y-146828385D01*
X100286520Y-147579695D01*
X99187000Y-147579695D01*
X99187000Y-144903119D01*
X101618724Y-144903119D01*
X104140000Y-147424395D01*
X106661276Y-144903119D01*
X106469503Y-144642408D01*
X112268000Y-144642408D01*
X112268000Y-144917592D01*
X112321686Y-145187490D01*
X112426995Y-145441727D01*
X112579880Y-145670535D01*
X112774465Y-145865120D01*
X113003273Y-146018005D01*
X113257510Y-146123314D01*
X113527408Y-146177000D01*
X113802592Y-146177000D01*
X114072490Y-146123314D01*
X114326727Y-146018005D01*
X114555535Y-145865120D01*
X114750120Y-145670535D01*
X114903005Y-145441727D01*
X114935000Y-145364485D01*
X114966995Y-145441727D01*
X115119880Y-145670535D01*
X115314465Y-145865120D01*
X115543273Y-146018005D01*
X115797510Y-146123314D01*
X116067408Y-146177000D01*
X116342592Y-146177000D01*
X116612490Y-146123314D01*
X116866727Y-146018005D01*
X117095535Y-145865120D01*
X117290120Y-145670535D01*
X117443005Y-145441727D01*
X117475000Y-145364485D01*
X117506995Y-145441727D01*
X117659880Y-145670535D01*
X117854465Y-145865120D01*
X118083273Y-146018005D01*
X118337510Y-146123314D01*
X118607408Y-146177000D01*
X118882592Y-146177000D01*
X119152490Y-146123314D01*
X119406727Y-146018005D01*
X119635535Y-145865120D01*
X119830120Y-145670535D01*
X119983005Y-145441727D01*
X120015000Y-145364485D01*
X120046995Y-145441727D01*
X120199880Y-145670535D01*
X120394465Y-145865120D01*
X120623273Y-146018005D01*
X120877510Y-146123314D01*
X121147408Y-146177000D01*
X121422592Y-146177000D01*
X121692490Y-146123314D01*
X121946727Y-146018005D01*
X122175535Y-145865120D01*
X122370120Y-145670535D01*
X122523005Y-145441727D01*
X122555000Y-145364485D01*
X122586995Y-145441727D01*
X122739880Y-145670535D01*
X122934465Y-145865120D01*
X123163273Y-146018005D01*
X123417510Y-146123314D01*
X123687408Y-146177000D01*
X123962592Y-146177000D01*
X124232490Y-146123314D01*
X124486727Y-146018005D01*
X124715535Y-145865120D01*
X124910120Y-145670535D01*
X125063005Y-145441727D01*
X125095000Y-145364485D01*
X125126995Y-145441727D01*
X125279880Y-145670535D01*
X125474465Y-145865120D01*
X125703273Y-146018005D01*
X125957510Y-146123314D01*
X126227408Y-146177000D01*
X126502592Y-146177000D01*
X126772490Y-146123314D01*
X127026727Y-146018005D01*
X127255535Y-145865120D01*
X127450120Y-145670535D01*
X127603005Y-145441727D01*
X127708314Y-145187490D01*
X127762000Y-144917592D01*
X127762000Y-144642408D01*
X127708314Y-144372510D01*
X127603005Y-144118273D01*
X127450120Y-143889465D01*
X127255535Y-143694880D01*
X127026727Y-143541995D01*
X126772490Y-143436686D01*
X126502592Y-143383000D01*
X126227408Y-143383000D01*
X125957510Y-143436686D01*
X125703273Y-143541995D01*
X125474465Y-143694880D01*
X125279880Y-143889465D01*
X125126995Y-144118273D01*
X125095000Y-144195515D01*
X125063005Y-144118273D01*
X124910120Y-143889465D01*
X124715535Y-143694880D01*
X124486727Y-143541995D01*
X124232490Y-143436686D01*
X123962592Y-143383000D01*
X123687408Y-143383000D01*
X123417510Y-143436686D01*
X123163273Y-143541995D01*
X122934465Y-143694880D01*
X122739880Y-143889465D01*
X122586995Y-144118273D01*
X122555000Y-144195515D01*
X122523005Y-144118273D01*
X122370120Y-143889465D01*
X122175535Y-143694880D01*
X121946727Y-143541995D01*
X121692490Y-143436686D01*
X121422592Y-143383000D01*
X121147408Y-143383000D01*
X120877510Y-143436686D01*
X120623273Y-143541995D01*
X120394465Y-143694880D01*
X120199880Y-143889465D01*
X120046995Y-144118273D01*
X120015000Y-144195515D01*
X119983005Y-144118273D01*
X119830120Y-143889465D01*
X119635535Y-143694880D01*
X119406727Y-143541995D01*
X119152490Y-143436686D01*
X118882592Y-143383000D01*
X118607408Y-143383000D01*
X118337510Y-143436686D01*
X118083273Y-143541995D01*
X117854465Y-143694880D01*
X117659880Y-143889465D01*
X117506995Y-144118273D01*
X117475000Y-144195515D01*
X117443005Y-144118273D01*
X117290120Y-143889465D01*
X117095535Y-143694880D01*
X116866727Y-143541995D01*
X116612490Y-143436686D01*
X116342592Y-143383000D01*
X116067408Y-143383000D01*
X115797510Y-143436686D01*
X115543273Y-143541995D01*
X115314465Y-143694880D01*
X115119880Y-143889465D01*
X114966995Y-144118273D01*
X114935000Y-144195515D01*
X114903005Y-144118273D01*
X114750120Y-143889465D01*
X114555535Y-143694880D01*
X114326727Y-143541995D01*
X114072490Y-143436686D01*
X113802592Y-143383000D01*
X113527408Y-143383000D01*
X113257510Y-143436686D01*
X113003273Y-143541995D01*
X112774465Y-143694880D01*
X112579880Y-143889465D01*
X112426995Y-144118273D01*
X112321686Y-144372510D01*
X112268000Y-144642408D01*
X106469503Y-144642408D01*
X106301088Y-144413452D01*
X105637118Y-144053151D01*
X104915615Y-143829306D01*
X104164305Y-143750520D01*
X103412062Y-143819822D01*
X102687792Y-144034548D01*
X102019330Y-144386445D01*
X101978912Y-144413452D01*
X101618724Y-144903119D01*
X99187000Y-144903119D01*
X99187000Y-133465000D01*
X134501928Y-133465000D01*
X134514188Y-133589482D01*
X134550498Y-133709180D01*
X134609463Y-133819494D01*
X134688815Y-133916185D01*
X134785506Y-133995537D01*
X134895820Y-134054502D01*
X135015518Y-134090812D01*
X135140000Y-134103072D01*
X135604250Y-134100000D01*
X135763000Y-133941250D01*
X135763000Y-132842000D01*
X134663750Y-132842000D01*
X134505000Y-133000750D01*
X134501928Y-133465000D01*
X99187000Y-133465000D01*
X99187000Y-131965000D01*
X134501928Y-131965000D01*
X134505000Y-132429250D01*
X134663750Y-132588000D01*
X135763000Y-132588000D01*
X135763000Y-131488750D01*
X135604250Y-131330000D01*
X135140000Y-131326928D01*
X135015518Y-131339188D01*
X134895820Y-131375498D01*
X134785506Y-131434463D01*
X134688815Y-131513815D01*
X134609463Y-131610506D01*
X134550498Y-131720820D01*
X134514188Y-131840518D01*
X134501928Y-131965000D01*
X99187000Y-131965000D01*
X99187000Y-105903665D01*
X108420000Y-105903665D01*
X108420000Y-106186335D01*
X108475147Y-106463574D01*
X108583320Y-106724727D01*
X108740363Y-106959759D01*
X108940241Y-107159637D01*
X109175273Y-107316680D01*
X109436426Y-107424853D01*
X109713665Y-107480000D01*
X109996335Y-107480000D01*
X110273574Y-107424853D01*
X110534727Y-107316680D01*
X110769759Y-107159637D01*
X110969637Y-106959759D01*
X111126680Y-106724727D01*
X111234853Y-106463574D01*
X111290000Y-106186335D01*
X111290000Y-105903665D01*
X111234853Y-105626426D01*
X111126680Y-105365273D01*
X110969637Y-105130241D01*
X110769759Y-104930363D01*
X110534727Y-104773320D01*
X110524135Y-104768933D01*
X110710131Y-104657385D01*
X110918519Y-104468414D01*
X111086037Y-104242420D01*
X111206246Y-103988087D01*
X111246904Y-103854039D01*
X111124915Y-103632000D01*
X109982000Y-103632000D01*
X109982000Y-103652000D01*
X109728000Y-103652000D01*
X109728000Y-103632000D01*
X108585085Y-103632000D01*
X108463096Y-103854039D01*
X108503754Y-103988087D01*
X108623963Y-104242420D01*
X108791481Y-104468414D01*
X108999869Y-104657385D01*
X109185865Y-104768933D01*
X109175273Y-104773320D01*
X108940241Y-104930363D01*
X108740363Y-105130241D01*
X108583320Y-105365273D01*
X108475147Y-105626426D01*
X108420000Y-105903665D01*
X99187000Y-105903665D01*
X99187000Y-94718702D01*
X103326903Y-94718702D01*
X103398486Y-94962671D01*
X103653996Y-95083571D01*
X103928184Y-95152300D01*
X104210512Y-95166217D01*
X104490130Y-95124787D01*
X104756292Y-95029603D01*
X104881514Y-94962671D01*
X104953097Y-94718702D01*
X104140000Y-93905605D01*
X103326903Y-94718702D01*
X99187000Y-94718702D01*
X99187000Y-93796512D01*
X102699783Y-93796512D01*
X102741213Y-94076130D01*
X102836397Y-94342292D01*
X102903329Y-94467514D01*
X103147298Y-94539097D01*
X103960395Y-93726000D01*
X104319605Y-93726000D01*
X105132702Y-94539097D01*
X105376671Y-94467514D01*
X105497571Y-94212004D01*
X105566300Y-93937816D01*
X105580217Y-93655488D01*
X105538787Y-93375870D01*
X105443603Y-93109708D01*
X105376671Y-92984486D01*
X105132702Y-92912903D01*
X104319605Y-93726000D01*
X103960395Y-93726000D01*
X103147298Y-92912903D01*
X102903329Y-92984486D01*
X102782429Y-93239996D01*
X102713700Y-93514184D01*
X102699783Y-93796512D01*
X99187000Y-93796512D01*
X99187000Y-92733298D01*
X103326903Y-92733298D01*
X104140000Y-93546395D01*
X104953097Y-92733298D01*
X104881514Y-92489329D01*
X104626004Y-92368429D01*
X104351816Y-92299700D01*
X104069488Y-92285783D01*
X103789870Y-92327213D01*
X103523708Y-92422397D01*
X103398486Y-92489329D01*
X103326903Y-92733298D01*
X99187000Y-92733298D01*
X99187000Y-83424665D01*
X102705000Y-83424665D01*
X102705000Y-83707335D01*
X102760147Y-83984574D01*
X102868320Y-84245727D01*
X103025363Y-84480759D01*
X103225241Y-84680637D01*
X103460273Y-84837680D01*
X103721426Y-84945853D01*
X103998665Y-85001000D01*
X104281335Y-85001000D01*
X104558574Y-84945853D01*
X104819727Y-84837680D01*
X105054759Y-84680637D01*
X105254637Y-84480759D01*
X105411680Y-84245727D01*
X105519853Y-83984574D01*
X105575000Y-83707335D01*
X105575000Y-83424665D01*
X105519853Y-83147426D01*
X105411680Y-82886273D01*
X105254637Y-82651241D01*
X105054759Y-82451363D01*
X104819727Y-82294320D01*
X104558574Y-82186147D01*
X104281335Y-82131000D01*
X103998665Y-82131000D01*
X103721426Y-82186147D01*
X103460273Y-82294320D01*
X103225241Y-82451363D01*
X103025363Y-82651241D01*
X102868320Y-82886273D01*
X102760147Y-83147426D01*
X102705000Y-83424665D01*
X99187000Y-83424665D01*
X99187000Y-80376665D01*
X102705000Y-80376665D01*
X102705000Y-80659335D01*
X102760147Y-80936574D01*
X102868320Y-81197727D01*
X103025363Y-81432759D01*
X103225241Y-81632637D01*
X103460273Y-81789680D01*
X103721426Y-81897853D01*
X103998665Y-81953000D01*
X104281335Y-81953000D01*
X104558574Y-81897853D01*
X104819727Y-81789680D01*
X105054759Y-81632637D01*
X105254637Y-81432759D01*
X105411680Y-81197727D01*
X105519853Y-80936574D01*
X105575000Y-80659335D01*
X105575000Y-80376665D01*
X105519853Y-80099426D01*
X105411680Y-79838273D01*
X105254637Y-79603241D01*
X105054759Y-79403363D01*
X104819727Y-79246320D01*
X104558574Y-79138147D01*
X104281335Y-79083000D01*
X103998665Y-79083000D01*
X103721426Y-79138147D01*
X103460273Y-79246320D01*
X103225241Y-79403363D01*
X103025363Y-79603241D01*
X102868320Y-79838273D01*
X102760147Y-80099426D01*
X102705000Y-80376665D01*
X99187000Y-80376665D01*
X99187000Y-70216665D01*
X102705000Y-70216665D01*
X102705000Y-70499335D01*
X102760147Y-70776574D01*
X102868320Y-71037727D01*
X103025363Y-71272759D01*
X103225241Y-71472637D01*
X103460273Y-71629680D01*
X103721426Y-71737853D01*
X103998665Y-71793000D01*
X104281335Y-71793000D01*
X104558574Y-71737853D01*
X104819727Y-71629680D01*
X105054759Y-71472637D01*
X105254637Y-71272759D01*
X105411680Y-71037727D01*
X105519853Y-70776574D01*
X105575000Y-70499335D01*
X105575000Y-70343665D01*
X108420000Y-70343665D01*
X108420000Y-70626335D01*
X108475147Y-70903574D01*
X108583320Y-71164727D01*
X108740363Y-71399759D01*
X108940241Y-71599637D01*
X109172759Y-71755000D01*
X108940241Y-71910363D01*
X108740363Y-72110241D01*
X108583320Y-72345273D01*
X108475147Y-72606426D01*
X108420000Y-72883665D01*
X108420000Y-73166335D01*
X108475147Y-73443574D01*
X108583320Y-73704727D01*
X108740363Y-73939759D01*
X108940241Y-74139637D01*
X109172759Y-74295000D01*
X108940241Y-74450363D01*
X108740363Y-74650241D01*
X108583320Y-74885273D01*
X108475147Y-75146426D01*
X108420000Y-75423665D01*
X108420000Y-75706335D01*
X108475147Y-75983574D01*
X108583320Y-76244727D01*
X108740363Y-76479759D01*
X108940241Y-76679637D01*
X109172759Y-76835000D01*
X108940241Y-76990363D01*
X108740363Y-77190241D01*
X108583320Y-77425273D01*
X108475147Y-77686426D01*
X108420000Y-77963665D01*
X108420000Y-78246335D01*
X108475147Y-78523574D01*
X108583320Y-78784727D01*
X108740363Y-79019759D01*
X108940241Y-79219637D01*
X109172759Y-79375000D01*
X108940241Y-79530363D01*
X108740363Y-79730241D01*
X108583320Y-79965273D01*
X108475147Y-80226426D01*
X108420000Y-80503665D01*
X108420000Y-80786335D01*
X108475147Y-81063574D01*
X108583320Y-81324727D01*
X108740363Y-81559759D01*
X108940241Y-81759637D01*
X109172759Y-81915000D01*
X108940241Y-82070363D01*
X108740363Y-82270241D01*
X108583320Y-82505273D01*
X108475147Y-82766426D01*
X108420000Y-83043665D01*
X108420000Y-83326335D01*
X108475147Y-83603574D01*
X108583320Y-83864727D01*
X108740363Y-84099759D01*
X108940241Y-84299637D01*
X109172759Y-84455000D01*
X108940241Y-84610363D01*
X108740363Y-84810241D01*
X108583320Y-85045273D01*
X108475147Y-85306426D01*
X108420000Y-85583665D01*
X108420000Y-85866335D01*
X108475147Y-86143574D01*
X108583320Y-86404727D01*
X108740363Y-86639759D01*
X108940241Y-86839637D01*
X109172759Y-86995000D01*
X108940241Y-87150363D01*
X108740363Y-87350241D01*
X108583320Y-87585273D01*
X108475147Y-87846426D01*
X108420000Y-88123665D01*
X108420000Y-88406335D01*
X108475147Y-88683574D01*
X108583320Y-88944727D01*
X108740363Y-89179759D01*
X108940241Y-89379637D01*
X109172759Y-89535000D01*
X108940241Y-89690363D01*
X108740363Y-89890241D01*
X108583320Y-90125273D01*
X108475147Y-90386426D01*
X108420000Y-90663665D01*
X108420000Y-90946335D01*
X108475147Y-91223574D01*
X108583320Y-91484727D01*
X108740363Y-91719759D01*
X108940241Y-91919637D01*
X109172759Y-92075000D01*
X108940241Y-92230363D01*
X108740363Y-92430241D01*
X108583320Y-92665273D01*
X108475147Y-92926426D01*
X108420000Y-93203665D01*
X108420000Y-93486335D01*
X108475147Y-93763574D01*
X108583320Y-94024727D01*
X108740363Y-94259759D01*
X108940241Y-94459637D01*
X109172759Y-94615000D01*
X108940241Y-94770363D01*
X108740363Y-94970241D01*
X108583320Y-95205273D01*
X108475147Y-95466426D01*
X108420000Y-95743665D01*
X108420000Y-96026335D01*
X108475147Y-96303574D01*
X108583320Y-96564727D01*
X108740363Y-96799759D01*
X108940241Y-96999637D01*
X109172759Y-97155000D01*
X108940241Y-97310363D01*
X108740363Y-97510241D01*
X108583320Y-97745273D01*
X108475147Y-98006426D01*
X108420000Y-98283665D01*
X108420000Y-98566335D01*
X108475147Y-98843574D01*
X108583320Y-99104727D01*
X108740363Y-99339759D01*
X108940241Y-99539637D01*
X109172759Y-99695000D01*
X108940241Y-99850363D01*
X108740363Y-100050241D01*
X108583320Y-100285273D01*
X108475147Y-100546426D01*
X108420000Y-100823665D01*
X108420000Y-101106335D01*
X108475147Y-101383574D01*
X108583320Y-101644727D01*
X108740363Y-101879759D01*
X108940241Y-102079637D01*
X109175273Y-102236680D01*
X109185865Y-102241067D01*
X108999869Y-102352615D01*
X108791481Y-102541586D01*
X108623963Y-102767580D01*
X108503754Y-103021913D01*
X108463096Y-103155961D01*
X108585085Y-103378000D01*
X109728000Y-103378000D01*
X109728000Y-103358000D01*
X109982000Y-103358000D01*
X109982000Y-103378000D01*
X111124915Y-103378000D01*
X111246904Y-103155961D01*
X111206246Y-103021913D01*
X111086037Y-102767580D01*
X110918519Y-102541586D01*
X110710131Y-102352615D01*
X110524135Y-102241067D01*
X110534727Y-102236680D01*
X110769759Y-102079637D01*
X110969637Y-101879759D01*
X111126680Y-101644727D01*
X111234853Y-101383574D01*
X111290000Y-101106335D01*
X111290000Y-100823665D01*
X111234853Y-100546426D01*
X111126680Y-100285273D01*
X110969637Y-100050241D01*
X110769759Y-99850363D01*
X110537241Y-99695000D01*
X110769759Y-99539637D01*
X110969637Y-99339759D01*
X111073043Y-99185000D01*
X111445199Y-99185000D01*
X116845820Y-104585621D01*
X116840000Y-104589510D01*
X116695256Y-104492795D01*
X116506898Y-104414774D01*
X116306939Y-104375000D01*
X116103061Y-104375000D01*
X115903102Y-104414774D01*
X115714744Y-104492795D01*
X115545226Y-104606063D01*
X115401063Y-104750226D01*
X115287795Y-104919744D01*
X115209774Y-105108102D01*
X115170000Y-105308061D01*
X115170000Y-105511939D01*
X115209774Y-105711898D01*
X115287795Y-105900256D01*
X115401063Y-106069774D01*
X115445001Y-106113712D01*
X115445000Y-120747659D01*
X115314465Y-120834880D01*
X115119880Y-121029465D01*
X114966995Y-121258273D01*
X114935000Y-121335515D01*
X114903005Y-121258273D01*
X114750120Y-121029465D01*
X114555535Y-120834880D01*
X114326727Y-120681995D01*
X114072490Y-120576686D01*
X113802592Y-120523000D01*
X113527408Y-120523000D01*
X113257510Y-120576686D01*
X113003273Y-120681995D01*
X112774465Y-120834880D01*
X112579880Y-121029465D01*
X112426995Y-121258273D01*
X112395000Y-121335515D01*
X112363005Y-121258273D01*
X112210120Y-121029465D01*
X112015535Y-120834880D01*
X111786727Y-120681995D01*
X111532490Y-120576686D01*
X111262592Y-120523000D01*
X110987408Y-120523000D01*
X110717510Y-120576686D01*
X110463273Y-120681995D01*
X110234465Y-120834880D01*
X110039880Y-121029465D01*
X109886995Y-121258273D01*
X109781686Y-121512510D01*
X109728000Y-121782408D01*
X109728000Y-122057592D01*
X109781686Y-122327490D01*
X109886995Y-122581727D01*
X110039880Y-122810535D01*
X110234465Y-123005120D01*
X110463273Y-123158005D01*
X110717510Y-123263314D01*
X110987408Y-123317000D01*
X111262592Y-123317000D01*
X111532490Y-123263314D01*
X111786727Y-123158005D01*
X112015535Y-123005120D01*
X112210120Y-122810535D01*
X112363005Y-122581727D01*
X112395000Y-122504485D01*
X112426995Y-122581727D01*
X112579880Y-122810535D01*
X112774465Y-123005120D01*
X113003273Y-123158005D01*
X113257510Y-123263314D01*
X113527408Y-123317000D01*
X113802592Y-123317000D01*
X114072490Y-123263314D01*
X114326727Y-123158005D01*
X114555535Y-123005120D01*
X114750120Y-122810535D01*
X114903005Y-122581727D01*
X114935000Y-122504485D01*
X114966995Y-122581727D01*
X115119880Y-122810535D01*
X115314465Y-123005120D01*
X115543273Y-123158005D01*
X115797510Y-123263314D01*
X116067408Y-123317000D01*
X116342592Y-123317000D01*
X116612490Y-123263314D01*
X116866727Y-123158005D01*
X117095535Y-123005120D01*
X117290120Y-122810535D01*
X117443005Y-122581727D01*
X117475000Y-122504485D01*
X117506995Y-122581727D01*
X117659880Y-122810535D01*
X117854465Y-123005120D01*
X118083273Y-123158005D01*
X118337510Y-123263314D01*
X118607408Y-123317000D01*
X118882592Y-123317000D01*
X119152490Y-123263314D01*
X119406727Y-123158005D01*
X119635535Y-123005120D01*
X119830120Y-122810535D01*
X119983005Y-122581727D01*
X120015000Y-122504485D01*
X120046995Y-122581727D01*
X120199880Y-122810535D01*
X120394465Y-123005120D01*
X120623273Y-123158005D01*
X120877510Y-123263314D01*
X121147408Y-123317000D01*
X121422592Y-123317000D01*
X121692490Y-123263314D01*
X121946727Y-123158005D01*
X122175535Y-123005120D01*
X122295090Y-122885565D01*
X123039040Y-122885565D01*
X123106020Y-123125656D01*
X123355048Y-123242756D01*
X123622135Y-123309023D01*
X123897017Y-123321910D01*
X124169133Y-123280922D01*
X124428023Y-123187636D01*
X124543980Y-123125656D01*
X124610960Y-122885565D01*
X123825000Y-122099605D01*
X123039040Y-122885565D01*
X122295090Y-122885565D01*
X122370120Y-122810535D01*
X122523005Y-122581727D01*
X122552692Y-122510057D01*
X122557364Y-122523023D01*
X122619344Y-122638980D01*
X122859435Y-122705960D01*
X123645395Y-121920000D01*
X124004605Y-121920000D01*
X124790565Y-122705960D01*
X125030656Y-122638980D01*
X125147756Y-122389952D01*
X125214023Y-122122865D01*
X125226910Y-121847983D01*
X125185922Y-121575867D01*
X125092636Y-121316977D01*
X125030656Y-121201020D01*
X124790565Y-121134040D01*
X124004605Y-121920000D01*
X123645395Y-121920000D01*
X122859435Y-121134040D01*
X122619344Y-121201020D01*
X122555515Y-121336760D01*
X122523005Y-121258273D01*
X122370120Y-121029465D01*
X122295090Y-120954435D01*
X123039040Y-120954435D01*
X123825000Y-121740395D01*
X124610960Y-120954435D01*
X124543980Y-120714344D01*
X124294952Y-120597244D01*
X124027865Y-120530977D01*
X123752983Y-120518090D01*
X123480867Y-120559078D01*
X123221977Y-120652364D01*
X123106020Y-120714344D01*
X123039040Y-120954435D01*
X122295090Y-120954435D01*
X122175535Y-120834880D01*
X121946727Y-120681995D01*
X121692490Y-120576686D01*
X121422592Y-120523000D01*
X121147408Y-120523000D01*
X120993430Y-120553628D01*
X117600000Y-117160199D01*
X117600000Y-114770000D01*
X117941928Y-114770000D01*
X117941928Y-116370000D01*
X117954188Y-116494482D01*
X117990498Y-116614180D01*
X118049463Y-116724494D01*
X118128815Y-116821185D01*
X118225506Y-116900537D01*
X118335820Y-116959502D01*
X118455518Y-116995812D01*
X118580000Y-117008072D01*
X120180000Y-117008072D01*
X120304482Y-116995812D01*
X120424180Y-116959502D01*
X120534494Y-116900537D01*
X120631185Y-116821185D01*
X120710537Y-116724494D01*
X120769502Y-116614180D01*
X120785117Y-116562702D01*
X121066903Y-116562702D01*
X121138486Y-116806671D01*
X121393996Y-116927571D01*
X121668184Y-116996300D01*
X121950512Y-117010217D01*
X122230130Y-116968787D01*
X122496292Y-116873603D01*
X122621514Y-116806671D01*
X122693097Y-116562702D01*
X121880000Y-115749605D01*
X121066903Y-116562702D01*
X120785117Y-116562702D01*
X120805812Y-116494482D01*
X120818072Y-116370000D01*
X120818072Y-116362785D01*
X120887298Y-116383097D01*
X121700395Y-115570000D01*
X122059605Y-115570000D01*
X122872702Y-116383097D01*
X123116671Y-116311514D01*
X123237571Y-116056004D01*
X123306300Y-115781816D01*
X123320217Y-115499488D01*
X123278787Y-115219870D01*
X123183603Y-114953708D01*
X123116671Y-114828486D01*
X122872702Y-114756903D01*
X122059605Y-115570000D01*
X121700395Y-115570000D01*
X120887298Y-114756903D01*
X120818072Y-114777215D01*
X120818072Y-114770000D01*
X120805812Y-114645518D01*
X120785118Y-114577298D01*
X121066903Y-114577298D01*
X121880000Y-115390395D01*
X122693097Y-114577298D01*
X122621514Y-114333329D01*
X122366004Y-114212429D01*
X122091816Y-114143700D01*
X121809488Y-114129783D01*
X121529870Y-114171213D01*
X121263708Y-114266397D01*
X121138486Y-114333329D01*
X121066903Y-114577298D01*
X120785118Y-114577298D01*
X120769502Y-114525820D01*
X120710537Y-114415506D01*
X120631185Y-114318815D01*
X120534494Y-114239463D01*
X120424180Y-114180498D01*
X120304482Y-114144188D01*
X120180000Y-114131928D01*
X118580000Y-114131928D01*
X118455518Y-114144188D01*
X118335820Y-114180498D01*
X118225506Y-114239463D01*
X118128815Y-114318815D01*
X118049463Y-114415506D01*
X117990498Y-114525820D01*
X117954188Y-114645518D01*
X117941928Y-114770000D01*
X117600000Y-114770000D01*
X117600000Y-106440413D01*
X117776898Y-106405226D01*
X117965256Y-106327205D01*
X118134774Y-106213937D01*
X118278937Y-106069774D01*
X118299379Y-106039180D01*
X128341200Y-116081002D01*
X128364999Y-116110001D01*
X128393997Y-116133799D01*
X128480724Y-116204974D01*
X128612753Y-116275546D01*
X128756014Y-116319003D01*
X128905000Y-116333677D01*
X128942333Y-116330000D01*
X137211957Y-116330000D01*
X137315363Y-116484759D01*
X137515241Y-116684637D01*
X137750273Y-116841680D01*
X138011426Y-116949853D01*
X138288665Y-117005000D01*
X138571335Y-117005000D01*
X138753886Y-116968688D01*
X140210001Y-118424804D01*
X140210000Y-131557091D01*
X140087114Y-131639201D01*
X139894201Y-131832114D01*
X139742629Y-132058957D01*
X139700000Y-132161873D01*
X139657371Y-132058957D01*
X139505799Y-131832114D01*
X139312886Y-131639201D01*
X139190000Y-131557091D01*
X139190000Y-126948043D01*
X139344759Y-126844637D01*
X139544637Y-126644759D01*
X139701680Y-126409727D01*
X139809853Y-126148574D01*
X139865000Y-125871335D01*
X139865000Y-125588665D01*
X139809853Y-125311426D01*
X139701680Y-125050273D01*
X139544637Y-124815241D01*
X139344759Y-124615363D01*
X139109727Y-124458320D01*
X138848574Y-124350147D01*
X138571335Y-124295000D01*
X138288665Y-124295000D01*
X138011426Y-124350147D01*
X137750273Y-124458320D01*
X137515241Y-124615363D01*
X137315363Y-124815241D01*
X137158320Y-125050273D01*
X137050147Y-125311426D01*
X136995000Y-125588665D01*
X136995000Y-125871335D01*
X137050147Y-126148574D01*
X137158320Y-126409727D01*
X137315363Y-126644759D01*
X137515241Y-126844637D01*
X137670000Y-126948044D01*
X137670001Y-131557090D01*
X137547114Y-131639201D01*
X137354201Y-131832114D01*
X137276445Y-131948483D01*
X137265812Y-131840518D01*
X137229502Y-131720820D01*
X137170537Y-131610506D01*
X137091185Y-131513815D01*
X136994494Y-131434463D01*
X136884180Y-131375498D01*
X136764482Y-131339188D01*
X136640000Y-131326928D01*
X136175750Y-131330000D01*
X136017000Y-131488750D01*
X136017000Y-132588000D01*
X136037000Y-132588000D01*
X136037000Y-132842000D01*
X136017000Y-132842000D01*
X136017000Y-133941250D01*
X136175750Y-134100000D01*
X136640000Y-134103072D01*
X136764482Y-134090812D01*
X136884180Y-134054502D01*
X136994494Y-133995537D01*
X137091185Y-133916185D01*
X137170537Y-133819494D01*
X137229502Y-133709180D01*
X137265812Y-133589482D01*
X137276445Y-133481517D01*
X137354201Y-133597886D01*
X137547114Y-133790799D01*
X137773957Y-133942371D01*
X138026011Y-134046775D01*
X138293589Y-134100000D01*
X138566411Y-134100000D01*
X138833989Y-134046775D01*
X139086043Y-133942371D01*
X139312886Y-133790799D01*
X139505799Y-133597886D01*
X139657371Y-133371043D01*
X139700000Y-133268127D01*
X139742629Y-133371043D01*
X139894201Y-133597886D01*
X140087114Y-133790799D01*
X140313957Y-133942371D01*
X140566011Y-134046775D01*
X140833589Y-134100000D01*
X141106411Y-134100000D01*
X141373989Y-134046775D01*
X141626043Y-133942371D01*
X141852886Y-133790799D01*
X142045799Y-133597886D01*
X142197371Y-133371043D01*
X142301775Y-133118989D01*
X142355000Y-132851411D01*
X142355000Y-132578589D01*
X142301775Y-132311011D01*
X142197371Y-132058957D01*
X142045799Y-131832114D01*
X141852886Y-131639201D01*
X141730000Y-131557091D01*
X141730000Y-118147322D01*
X141733676Y-118109999D01*
X141730000Y-118072676D01*
X141730000Y-118072667D01*
X141719003Y-117961014D01*
X141675546Y-117817753D01*
X141604974Y-117685724D01*
X141554307Y-117623986D01*
X141533799Y-117598996D01*
X141533795Y-117598992D01*
X141510001Y-117569999D01*
X141481008Y-117546205D01*
X139828688Y-115893886D01*
X139865000Y-115711335D01*
X139865000Y-115428665D01*
X139809853Y-115151426D01*
X139701680Y-114890273D01*
X139544637Y-114655241D01*
X139344759Y-114455363D01*
X139109727Y-114298320D01*
X138848574Y-114190147D01*
X138571335Y-114135000D01*
X138288665Y-114135000D01*
X138011426Y-114190147D01*
X137750273Y-114298320D01*
X137515241Y-114455363D01*
X137315363Y-114655241D01*
X137211957Y-114810000D01*
X136794013Y-114810000D01*
X136807205Y-114790256D01*
X136885226Y-114601898D01*
X136925000Y-114401939D01*
X136925000Y-114198061D01*
X136885226Y-113998102D01*
X136807205Y-113809744D01*
X136693937Y-113640226D01*
X136549774Y-113496063D01*
X136380256Y-113382795D01*
X136191898Y-113304774D01*
X135991939Y-113265000D01*
X135929802Y-113265000D01*
X135183804Y-112519003D01*
X135160001Y-112489999D01*
X135044276Y-112395026D01*
X134912247Y-112324454D01*
X134768986Y-112280997D01*
X134657333Y-112270000D01*
X134657322Y-112270000D01*
X134620000Y-112266324D01*
X134582678Y-112270000D01*
X128584802Y-112270000D01*
X123950000Y-107635199D01*
X123950000Y-107380612D01*
X124050820Y-107434502D01*
X124170518Y-107470812D01*
X124295000Y-107483072D01*
X125895000Y-107483072D01*
X126019482Y-107470812D01*
X126139180Y-107434502D01*
X126249494Y-107375537D01*
X126346185Y-107296185D01*
X126425537Y-107199494D01*
X126484502Y-107089180D01*
X126520812Y-106969482D01*
X126533072Y-106845000D01*
X126533072Y-105245000D01*
X126520812Y-105120518D01*
X126484502Y-105000820D01*
X126425537Y-104890506D01*
X126346185Y-104793815D01*
X126249494Y-104714463D01*
X126139180Y-104655498D01*
X126019482Y-104619188D01*
X126011039Y-104618357D01*
X126209637Y-104419759D01*
X126366680Y-104184727D01*
X126474853Y-103923574D01*
X126530000Y-103646335D01*
X126530000Y-103363665D01*
X126474853Y-103086426D01*
X126366680Y-102825273D01*
X126209637Y-102590241D01*
X126009759Y-102390363D01*
X125777241Y-102235000D01*
X126009759Y-102079637D01*
X126209637Y-101879759D01*
X126366680Y-101644727D01*
X126474853Y-101383574D01*
X126530000Y-101106335D01*
X126530000Y-100823665D01*
X126474853Y-100546426D01*
X126366680Y-100285273D01*
X126209637Y-100050241D01*
X126009759Y-99850363D01*
X125774727Y-99693320D01*
X125764135Y-99688933D01*
X125950131Y-99577385D01*
X126158519Y-99388414D01*
X126326037Y-99162420D01*
X126446246Y-98908087D01*
X126486904Y-98774039D01*
X126364915Y-98552000D01*
X125222000Y-98552000D01*
X125222000Y-98572000D01*
X124968000Y-98572000D01*
X124968000Y-98552000D01*
X124948000Y-98552000D01*
X124948000Y-98298000D01*
X124968000Y-98298000D01*
X124968000Y-98278000D01*
X125222000Y-98278000D01*
X125222000Y-98298000D01*
X126364915Y-98298000D01*
X126486904Y-98075961D01*
X126446246Y-97941913D01*
X126326037Y-97687580D01*
X126158519Y-97461586D01*
X125950131Y-97272615D01*
X125764135Y-97161067D01*
X125774727Y-97156680D01*
X126009759Y-96999637D01*
X126209637Y-96799759D01*
X126366680Y-96564727D01*
X126474853Y-96303574D01*
X126530000Y-96026335D01*
X126530000Y-95743665D01*
X126474853Y-95466426D01*
X126366680Y-95205273D01*
X126209637Y-94970241D01*
X126009759Y-94770363D01*
X125777241Y-94615000D01*
X126009759Y-94459637D01*
X126209637Y-94259759D01*
X126366680Y-94024727D01*
X126474853Y-93763574D01*
X126530000Y-93486335D01*
X126530000Y-93203665D01*
X126474853Y-92926426D01*
X126366680Y-92665273D01*
X126209637Y-92430241D01*
X126009759Y-92230363D01*
X125777241Y-92075000D01*
X126009759Y-91919637D01*
X126209637Y-91719759D01*
X126366680Y-91484727D01*
X126474853Y-91223574D01*
X126530000Y-90946335D01*
X126530000Y-90663665D01*
X126474853Y-90386426D01*
X126366680Y-90125273D01*
X126209637Y-89890241D01*
X126009759Y-89690363D01*
X125777241Y-89535000D01*
X126009759Y-89379637D01*
X126209637Y-89179759D01*
X126366680Y-88944727D01*
X126474853Y-88683574D01*
X126530000Y-88406335D01*
X126530000Y-88123665D01*
X126474853Y-87846426D01*
X126366680Y-87585273D01*
X126209637Y-87350241D01*
X126009759Y-87150363D01*
X125777241Y-86995000D01*
X126009759Y-86839637D01*
X126209637Y-86639759D01*
X126366680Y-86404727D01*
X126474853Y-86143574D01*
X126530000Y-85866335D01*
X126530000Y-85583665D01*
X126474853Y-85306426D01*
X126366680Y-85045273D01*
X126209637Y-84810241D01*
X126009759Y-84610363D01*
X125777241Y-84455000D01*
X126009759Y-84299637D01*
X126209637Y-84099759D01*
X126366680Y-83864727D01*
X126474853Y-83603574D01*
X126530000Y-83326335D01*
X126530000Y-83043665D01*
X126474853Y-82766426D01*
X126366680Y-82505273D01*
X126209637Y-82270241D01*
X126009759Y-82070363D01*
X125777241Y-81915000D01*
X126009759Y-81759637D01*
X126209637Y-81559759D01*
X126366680Y-81324727D01*
X126474853Y-81063574D01*
X126530000Y-80786335D01*
X126530000Y-80503665D01*
X126474853Y-80226426D01*
X126366680Y-79965273D01*
X126209637Y-79730241D01*
X126009759Y-79530363D01*
X125777241Y-79375000D01*
X126009759Y-79219637D01*
X126209637Y-79019759D01*
X126366680Y-78784727D01*
X126474853Y-78523574D01*
X126530000Y-78246335D01*
X126530000Y-77963665D01*
X126474853Y-77686426D01*
X126366680Y-77425273D01*
X126209637Y-77190241D01*
X126009759Y-76990363D01*
X125777241Y-76835000D01*
X126009759Y-76679637D01*
X126209637Y-76479759D01*
X126366680Y-76244727D01*
X126474853Y-75983574D01*
X126530000Y-75706335D01*
X126530000Y-75423665D01*
X126474853Y-75146426D01*
X126366680Y-74885273D01*
X126209637Y-74650241D01*
X126009759Y-74450363D01*
X125777241Y-74295000D01*
X126009759Y-74139637D01*
X126209637Y-73939759D01*
X126366680Y-73704727D01*
X126474853Y-73443574D01*
X126530000Y-73166335D01*
X126530000Y-72994803D01*
X126875001Y-73339804D01*
X126875000Y-97117678D01*
X126871324Y-97155000D01*
X126875000Y-97192322D01*
X126875000Y-97192332D01*
X126885997Y-97303985D01*
X126929379Y-97447000D01*
X126929454Y-97447246D01*
X127000026Y-97579276D01*
X127039740Y-97627667D01*
X127094999Y-97695001D01*
X127124003Y-97718804D01*
X133077126Y-103671928D01*
X130980000Y-103671928D01*
X130855518Y-103684188D01*
X130735820Y-103720498D01*
X130625506Y-103779463D01*
X130528815Y-103858815D01*
X130449463Y-103955506D01*
X130390498Y-104065820D01*
X130354188Y-104185518D01*
X130341928Y-104310000D01*
X130341928Y-106510000D01*
X130354188Y-106634482D01*
X130390498Y-106754180D01*
X130449463Y-106864494D01*
X130528815Y-106961185D01*
X130625506Y-107040537D01*
X130735820Y-107099502D01*
X130855518Y-107135812D01*
X130980000Y-107148072D01*
X133180000Y-107148072D01*
X133304482Y-107135812D01*
X133424180Y-107099502D01*
X133534494Y-107040537D01*
X133631185Y-106961185D01*
X133710537Y-106864494D01*
X133769502Y-106754180D01*
X133805812Y-106634482D01*
X133818072Y-106510000D01*
X133818072Y-104412874D01*
X136342201Y-106937003D01*
X136365999Y-106966001D01*
X136394997Y-106989799D01*
X136481723Y-107060974D01*
X136610829Y-107129983D01*
X136613753Y-107131546D01*
X136757014Y-107175003D01*
X136868667Y-107186000D01*
X136868677Y-107186000D01*
X136906000Y-107189676D01*
X136943323Y-107186000D01*
X136957957Y-107186000D01*
X137061363Y-107340759D01*
X137261241Y-107540637D01*
X137416000Y-107644044D01*
X137416001Y-109563668D01*
X137412324Y-109601000D01*
X137426998Y-109749985D01*
X137470454Y-109893246D01*
X137541026Y-110025276D01*
X137610779Y-110110269D01*
X137636000Y-110141001D01*
X137664998Y-110164799D01*
X142115000Y-114614802D01*
X142115001Y-124422668D01*
X142111324Y-124460000D01*
X142115001Y-124497333D01*
X142125998Y-124608986D01*
X142139180Y-124652442D01*
X142169454Y-124752246D01*
X142240026Y-124884276D01*
X142307361Y-124966323D01*
X142335000Y-125000001D01*
X142363998Y-125023799D01*
X146629201Y-129289003D01*
X146652999Y-129318001D01*
X146768724Y-129412974D01*
X146900753Y-129483546D01*
X147044014Y-129527003D01*
X147155667Y-129538000D01*
X147155676Y-129538000D01*
X147192999Y-129541676D01*
X147230322Y-129538000D01*
X149397225Y-129538000D01*
X149458038Y-129629013D01*
X149643987Y-129814962D01*
X149862641Y-129961061D01*
X150105595Y-130061696D01*
X150363514Y-130113000D01*
X150626486Y-130113000D01*
X150884405Y-130061696D01*
X151127359Y-129961061D01*
X151346013Y-129814962D01*
X151531962Y-129629013D01*
X151678061Y-129410359D01*
X151778696Y-129167405D01*
X151830000Y-128909486D01*
X151830000Y-128646514D01*
X156780000Y-128646514D01*
X156780000Y-128909486D01*
X156831304Y-129167405D01*
X156931939Y-129410359D01*
X157078038Y-129629013D01*
X157263987Y-129814962D01*
X157482641Y-129961061D01*
X157725595Y-130061696D01*
X157983514Y-130113000D01*
X158246486Y-130113000D01*
X158504405Y-130061696D01*
X158747359Y-129961061D01*
X158966013Y-129814962D01*
X159151962Y-129629013D01*
X159212775Y-129538000D01*
X162964770Y-129538000D01*
X163102905Y-129630299D01*
X163382257Y-129746011D01*
X163678816Y-129805000D01*
X163981184Y-129805000D01*
X164277743Y-129746011D01*
X164557095Y-129630299D01*
X164808505Y-129462312D01*
X164874944Y-129395873D01*
X164880498Y-129414180D01*
X164939463Y-129524494D01*
X165018815Y-129621185D01*
X165115506Y-129700537D01*
X165225820Y-129759502D01*
X165345518Y-129795812D01*
X165470000Y-129808072D01*
X166084250Y-129805000D01*
X166243000Y-129646250D01*
X166243000Y-128397000D01*
X166497000Y-128397000D01*
X166497000Y-129646250D01*
X166655750Y-129805000D01*
X167270000Y-129808072D01*
X167394482Y-129795812D01*
X167514180Y-129759502D01*
X167624494Y-129700537D01*
X167721185Y-129621185D01*
X167800537Y-129524494D01*
X167859502Y-129414180D01*
X167895812Y-129294482D01*
X167908072Y-129170000D01*
X167905000Y-128555750D01*
X167746250Y-128397000D01*
X166497000Y-128397000D01*
X166243000Y-128397000D01*
X166223000Y-128397000D01*
X166223000Y-128143000D01*
X166243000Y-128143000D01*
X166243000Y-126893750D01*
X166497000Y-126893750D01*
X166497000Y-128143000D01*
X167746250Y-128143000D01*
X167905000Y-127984250D01*
X167908072Y-127370000D01*
X167895812Y-127245518D01*
X167859502Y-127125820D01*
X167800537Y-127015506D01*
X167721185Y-126918815D01*
X167624494Y-126839463D01*
X167514180Y-126780498D01*
X167394482Y-126744188D01*
X167270000Y-126731928D01*
X166655750Y-126735000D01*
X166497000Y-126893750D01*
X166243000Y-126893750D01*
X166084250Y-126735000D01*
X165470000Y-126731928D01*
X165345518Y-126744188D01*
X165225820Y-126780498D01*
X165115506Y-126839463D01*
X165018815Y-126918815D01*
X164939463Y-127015506D01*
X164880498Y-127125820D01*
X164874944Y-127144127D01*
X164808505Y-127077688D01*
X164557095Y-126909701D01*
X164277743Y-126793989D01*
X163981184Y-126735000D01*
X163678816Y-126735000D01*
X163382257Y-126793989D01*
X163102905Y-126909701D01*
X162851495Y-127077688D01*
X162637688Y-127291495D01*
X162469701Y-127542905D01*
X162353989Y-127822257D01*
X162315053Y-128018000D01*
X159212775Y-128018000D01*
X159151962Y-127926987D01*
X158966013Y-127741038D01*
X158747359Y-127594939D01*
X158504405Y-127494304D01*
X158246486Y-127443000D01*
X157983514Y-127443000D01*
X157725595Y-127494304D01*
X157482641Y-127594939D01*
X157263987Y-127741038D01*
X157078038Y-127926987D01*
X156931939Y-128145641D01*
X156831304Y-128388595D01*
X156780000Y-128646514D01*
X151830000Y-128646514D01*
X151778696Y-128388595D01*
X151678061Y-128145641D01*
X151531962Y-127926987D01*
X151346013Y-127741038D01*
X151127359Y-127594939D01*
X150884405Y-127494304D01*
X150626486Y-127443000D01*
X150363514Y-127443000D01*
X150105595Y-127494304D01*
X149862641Y-127594939D01*
X149643987Y-127741038D01*
X149458038Y-127926987D01*
X149397225Y-128018000D01*
X147507802Y-128018000D01*
X143635000Y-124145199D01*
X143635000Y-114337333D01*
X143638677Y-114300000D01*
X143624003Y-114151014D01*
X143580546Y-114007753D01*
X143509974Y-113875724D01*
X143438799Y-113788997D01*
X143415001Y-113759999D01*
X143386004Y-113736202D01*
X138936000Y-109286199D01*
X138936000Y-107644043D01*
X139090759Y-107540637D01*
X139290637Y-107340759D01*
X139447680Y-107105727D01*
X139555853Y-106844574D01*
X139611000Y-106567335D01*
X139611000Y-106284665D01*
X139555853Y-106007426D01*
X139447680Y-105746273D01*
X139290637Y-105511241D01*
X139090759Y-105311363D01*
X138855727Y-105154320D01*
X138594574Y-105046147D01*
X138317335Y-104991000D01*
X138034665Y-104991000D01*
X137757426Y-105046147D01*
X137496273Y-105154320D01*
X137261241Y-105311363D01*
X137063703Y-105508901D01*
X128395000Y-96840199D01*
X128395000Y-95079117D01*
X130345000Y-95079117D01*
X130345000Y-95420883D01*
X130411675Y-95756081D01*
X130542463Y-96071831D01*
X130732337Y-96355998D01*
X130974002Y-96597663D01*
X131258169Y-96787537D01*
X131573919Y-96918325D01*
X131909117Y-96985000D01*
X132250883Y-96985000D01*
X132586081Y-96918325D01*
X132901831Y-96787537D01*
X133185998Y-96597663D01*
X133427663Y-96355998D01*
X133617537Y-96071831D01*
X133748325Y-95756081D01*
X133815000Y-95420883D01*
X133815000Y-95079117D01*
X133748325Y-94743919D01*
X133617537Y-94428169D01*
X133427663Y-94144002D01*
X133185998Y-93902337D01*
X132901831Y-93712463D01*
X132586081Y-93581675D01*
X132250883Y-93515000D01*
X131909117Y-93515000D01*
X131573919Y-93581675D01*
X131258169Y-93712463D01*
X130974002Y-93902337D01*
X130732337Y-94144002D01*
X130542463Y-94428169D01*
X130411675Y-94743919D01*
X130345000Y-95079117D01*
X128395000Y-95079117D01*
X128395000Y-79304801D01*
X136908001Y-87817803D01*
X136908000Y-94793956D01*
X136753241Y-94897363D01*
X136553363Y-95097241D01*
X136396320Y-95332273D01*
X136288147Y-95593426D01*
X136233000Y-95870665D01*
X136233000Y-96153335D01*
X136288147Y-96430574D01*
X136396320Y-96691727D01*
X136553363Y-96926759D01*
X136753241Y-97126637D01*
X136908001Y-97230044D01*
X136908000Y-100800677D01*
X136904324Y-100838000D01*
X136908000Y-100875322D01*
X136908000Y-100875332D01*
X136918997Y-100986985D01*
X136950344Y-101090324D01*
X136962454Y-101130246D01*
X137033026Y-101262276D01*
X137055944Y-101290201D01*
X137127999Y-101378001D01*
X137157003Y-101401804D01*
X142565011Y-106809813D01*
X142565010Y-111791687D01*
X142561334Y-111829010D01*
X142565010Y-111866332D01*
X142565010Y-111866342D01*
X142576007Y-111977995D01*
X142619464Y-112121256D01*
X142690036Y-112253286D01*
X142712778Y-112280997D01*
X142785009Y-112369011D01*
X142814013Y-112392814D01*
X149181355Y-118760157D01*
X149160000Y-118867514D01*
X149160000Y-119130486D01*
X149211304Y-119388405D01*
X149311939Y-119631359D01*
X149458038Y-119850013D01*
X149643987Y-120035962D01*
X149862641Y-120182061D01*
X150105595Y-120282696D01*
X150363514Y-120334000D01*
X150626486Y-120334000D01*
X150884405Y-120282696D01*
X151127359Y-120182061D01*
X151346013Y-120035962D01*
X151531962Y-119850013D01*
X151678061Y-119631359D01*
X151778696Y-119388405D01*
X151830000Y-119130486D01*
X151830000Y-118867514D01*
X156780000Y-118867514D01*
X156780000Y-119130486D01*
X156831304Y-119388405D01*
X156931939Y-119631359D01*
X157078038Y-119850013D01*
X157263987Y-120035962D01*
X157482641Y-120182061D01*
X157725595Y-120282696D01*
X157983514Y-120334000D01*
X158246486Y-120334000D01*
X158504405Y-120282696D01*
X158747359Y-120182061D01*
X158966013Y-120035962D01*
X159151962Y-119850013D01*
X159212775Y-119759000D01*
X162673183Y-119759000D01*
X162851495Y-119937312D01*
X163102905Y-120105299D01*
X163382257Y-120221011D01*
X163678816Y-120280000D01*
X163981184Y-120280000D01*
X164277743Y-120221011D01*
X164557095Y-120105299D01*
X164808505Y-119937312D01*
X164874944Y-119870873D01*
X164880498Y-119889180D01*
X164939463Y-119999494D01*
X165018815Y-120096185D01*
X165115506Y-120175537D01*
X165225820Y-120234502D01*
X165345518Y-120270812D01*
X165470000Y-120283072D01*
X166084250Y-120280000D01*
X166243000Y-120121250D01*
X166243000Y-118872000D01*
X166497000Y-118872000D01*
X166497000Y-120121250D01*
X166655750Y-120280000D01*
X167270000Y-120283072D01*
X167394482Y-120270812D01*
X167514180Y-120234502D01*
X167624494Y-120175537D01*
X167721185Y-120096185D01*
X167800537Y-119999494D01*
X167859502Y-119889180D01*
X167895812Y-119769482D01*
X167908072Y-119645000D01*
X167905000Y-119030750D01*
X167746250Y-118872000D01*
X166497000Y-118872000D01*
X166243000Y-118872000D01*
X166223000Y-118872000D01*
X166223000Y-118618000D01*
X166243000Y-118618000D01*
X166243000Y-117368750D01*
X166497000Y-117368750D01*
X166497000Y-118618000D01*
X167746250Y-118618000D01*
X167905000Y-118459250D01*
X167908072Y-117845000D01*
X167895812Y-117720518D01*
X167859502Y-117600820D01*
X167800537Y-117490506D01*
X167721185Y-117393815D01*
X167624494Y-117314463D01*
X167514180Y-117255498D01*
X167394482Y-117219188D01*
X167270000Y-117206928D01*
X166655750Y-117210000D01*
X166497000Y-117368750D01*
X166243000Y-117368750D01*
X166084250Y-117210000D01*
X165470000Y-117206928D01*
X165345518Y-117219188D01*
X165225820Y-117255498D01*
X165115506Y-117314463D01*
X165018815Y-117393815D01*
X164939463Y-117490506D01*
X164880498Y-117600820D01*
X164874944Y-117619127D01*
X164808505Y-117552688D01*
X164557095Y-117384701D01*
X164277743Y-117268989D01*
X163981184Y-117210000D01*
X163678816Y-117210000D01*
X163382257Y-117268989D01*
X163102905Y-117384701D01*
X162851495Y-117552688D01*
X162637688Y-117766495D01*
X162469701Y-118017905D01*
X162378120Y-118239000D01*
X159212775Y-118239000D01*
X159151962Y-118147987D01*
X158966013Y-117962038D01*
X158747359Y-117815939D01*
X158504405Y-117715304D01*
X158246486Y-117664000D01*
X157983514Y-117664000D01*
X157725595Y-117715304D01*
X157482641Y-117815939D01*
X157263987Y-117962038D01*
X157078038Y-118147987D01*
X156931939Y-118366641D01*
X156831304Y-118609595D01*
X156780000Y-118867514D01*
X151830000Y-118867514D01*
X151778696Y-118609595D01*
X151678061Y-118366641D01*
X151531962Y-118147987D01*
X151346013Y-117962038D01*
X151127359Y-117815939D01*
X150884405Y-117715304D01*
X150626486Y-117664000D01*
X150363514Y-117664000D01*
X150256157Y-117685355D01*
X144085010Y-111514209D01*
X144085010Y-108848795D01*
X150702000Y-108848795D01*
X150702000Y-109083205D01*
X150747731Y-109313110D01*
X150837436Y-109529676D01*
X150967667Y-109724581D01*
X151133419Y-109890333D01*
X151328324Y-110020564D01*
X151544890Y-110110269D01*
X151774795Y-110156000D01*
X152009205Y-110156000D01*
X152239110Y-110110269D01*
X152455676Y-110020564D01*
X152650581Y-109890333D01*
X152816333Y-109724581D01*
X152946564Y-109529676D01*
X153036269Y-109313110D01*
X153082000Y-109083205D01*
X153082000Y-108848795D01*
X153036269Y-108618890D01*
X152946564Y-108402324D01*
X152816333Y-108207419D01*
X152650581Y-108041667D01*
X152455676Y-107911436D01*
X152239110Y-107821731D01*
X152009205Y-107776000D01*
X151774795Y-107776000D01*
X151544890Y-107821731D01*
X151328324Y-107911436D01*
X151133419Y-108041667D01*
X150967667Y-108207419D01*
X150837436Y-108402324D01*
X150747731Y-108618890D01*
X150702000Y-108848795D01*
X144085010Y-108848795D01*
X144085010Y-106532332D01*
X144088686Y-106495009D01*
X144085010Y-106457686D01*
X144085010Y-106457677D01*
X144074013Y-106346024D01*
X144055401Y-106284665D01*
X146901000Y-106284665D01*
X146901000Y-106567335D01*
X146956147Y-106844574D01*
X147064320Y-107105727D01*
X147221363Y-107340759D01*
X147421241Y-107540637D01*
X147656273Y-107697680D01*
X147917426Y-107805853D01*
X148194665Y-107861000D01*
X148477335Y-107861000D01*
X148754574Y-107805853D01*
X149015727Y-107697680D01*
X149250759Y-107540637D01*
X149450637Y-107340759D01*
X149515584Y-107243558D01*
X151254047Y-107243558D01*
X151295872Y-107462566D01*
X151509549Y-107558947D01*
X151737925Y-107611790D01*
X151972221Y-107619065D01*
X152203435Y-107580490D01*
X152422680Y-107497549D01*
X152488128Y-107462566D01*
X152529953Y-107243558D01*
X151892000Y-106605605D01*
X151254047Y-107243558D01*
X149515584Y-107243558D01*
X149607680Y-107105727D01*
X149715853Y-106844574D01*
X149771000Y-106567335D01*
X149771000Y-106506221D01*
X150698935Y-106506221D01*
X150737510Y-106737435D01*
X150820451Y-106956680D01*
X150855434Y-107022128D01*
X151074442Y-107063953D01*
X151712395Y-106426000D01*
X152071605Y-106426000D01*
X152709558Y-107063953D01*
X152928566Y-107022128D01*
X153024947Y-106808451D01*
X153077790Y-106580075D01*
X153085065Y-106345779D01*
X153046490Y-106114565D01*
X152963549Y-105895320D01*
X152928566Y-105829872D01*
X152709558Y-105788047D01*
X152071605Y-106426000D01*
X151712395Y-106426000D01*
X151074442Y-105788047D01*
X150855434Y-105829872D01*
X150759053Y-106043549D01*
X150706210Y-106271925D01*
X150698935Y-106506221D01*
X149771000Y-106506221D01*
X149771000Y-106284665D01*
X149734688Y-106102114D01*
X150228360Y-105608442D01*
X151254047Y-105608442D01*
X151892000Y-106246395D01*
X152529953Y-105608442D01*
X152488128Y-105389434D01*
X152274451Y-105293053D01*
X152046075Y-105240210D01*
X151811779Y-105232935D01*
X151580565Y-105271510D01*
X151361320Y-105354451D01*
X151295872Y-105389434D01*
X151254047Y-105608442D01*
X150228360Y-105608442D01*
X150918112Y-104918690D01*
X150982506Y-104971537D01*
X151092820Y-105030502D01*
X151212518Y-105066812D01*
X151337000Y-105079072D01*
X152447000Y-105079072D01*
X152571482Y-105066812D01*
X152691180Y-105030502D01*
X152801494Y-104971537D01*
X152898185Y-104892185D01*
X152977537Y-104795494D01*
X153036502Y-104685180D01*
X153072812Y-104565482D01*
X153085072Y-104441000D01*
X153085072Y-103331000D01*
X153072812Y-103206518D01*
X153036502Y-103086820D01*
X152977537Y-102976506D01*
X152898185Y-102879815D01*
X152801494Y-102800463D01*
X152691180Y-102741498D01*
X152571482Y-102705188D01*
X152447000Y-102692928D01*
X151337000Y-102692928D01*
X151212518Y-102705188D01*
X151092820Y-102741498D01*
X150982506Y-102800463D01*
X150885815Y-102879815D01*
X150806463Y-102976506D01*
X150747498Y-103086820D01*
X150732439Y-103136463D01*
X150727014Y-103136997D01*
X150583753Y-103180454D01*
X150451724Y-103251026D01*
X150451722Y-103251027D01*
X150451723Y-103251027D01*
X150364996Y-103322201D01*
X150364992Y-103322205D01*
X150335999Y-103345999D01*
X150312205Y-103374992D01*
X148659886Y-105027312D01*
X148477335Y-104991000D01*
X148194665Y-104991000D01*
X147917426Y-105046147D01*
X147656273Y-105154320D01*
X147421241Y-105311363D01*
X147221363Y-105511241D01*
X147064320Y-105746273D01*
X146956147Y-106007426D01*
X146901000Y-106284665D01*
X144055401Y-106284665D01*
X144030556Y-106202763D01*
X143959984Y-106070734D01*
X143865011Y-105955009D01*
X143836013Y-105931211D01*
X138428000Y-100523199D01*
X138428000Y-98434795D01*
X150702000Y-98434795D01*
X150702000Y-98669205D01*
X150747731Y-98899110D01*
X150837436Y-99115676D01*
X150967667Y-99310581D01*
X151133419Y-99476333D01*
X151328324Y-99606564D01*
X151544890Y-99696269D01*
X151774795Y-99742000D01*
X152009205Y-99742000D01*
X152239110Y-99696269D01*
X152455676Y-99606564D01*
X152650581Y-99476333D01*
X152816333Y-99310581D01*
X152946564Y-99115676D01*
X153036269Y-98899110D01*
X153082000Y-98669205D01*
X153082000Y-98434795D01*
X153036269Y-98204890D01*
X152946564Y-97988324D01*
X152816333Y-97793419D01*
X152650581Y-97627667D01*
X152455676Y-97497436D01*
X152239110Y-97407731D01*
X152009205Y-97362000D01*
X151774795Y-97362000D01*
X151544890Y-97407731D01*
X151328324Y-97497436D01*
X151133419Y-97627667D01*
X150967667Y-97793419D01*
X150837436Y-97988324D01*
X150747731Y-98204890D01*
X150702000Y-98434795D01*
X138428000Y-98434795D01*
X138428000Y-97230043D01*
X138582759Y-97126637D01*
X138782637Y-96926759D01*
X138939680Y-96691727D01*
X139047853Y-96430574D01*
X139103000Y-96153335D01*
X139103000Y-95870665D01*
X146393000Y-95870665D01*
X146393000Y-96153335D01*
X146448147Y-96430574D01*
X146556320Y-96691727D01*
X146713363Y-96926759D01*
X146913241Y-97126637D01*
X147148273Y-97283680D01*
X147409426Y-97391853D01*
X147686665Y-97447000D01*
X147969335Y-97447000D01*
X148246574Y-97391853D01*
X148507727Y-97283680D01*
X148742759Y-97126637D01*
X148942637Y-96926759D01*
X149007584Y-96829558D01*
X151254047Y-96829558D01*
X151295872Y-97048566D01*
X151509549Y-97144947D01*
X151737925Y-97197790D01*
X151972221Y-97205065D01*
X152203435Y-97166490D01*
X152422680Y-97083549D01*
X152488128Y-97048566D01*
X152529953Y-96829558D01*
X151892000Y-96191605D01*
X151254047Y-96829558D01*
X149007584Y-96829558D01*
X149099680Y-96691727D01*
X149207853Y-96430574D01*
X149263000Y-96153335D01*
X149263000Y-96092221D01*
X150698935Y-96092221D01*
X150737510Y-96323435D01*
X150820451Y-96542680D01*
X150855434Y-96608128D01*
X151074442Y-96649953D01*
X151712395Y-96012000D01*
X152071605Y-96012000D01*
X152709558Y-96649953D01*
X152928566Y-96608128D01*
X153024947Y-96394451D01*
X153077790Y-96166075D01*
X153085065Y-95931779D01*
X153046490Y-95700565D01*
X152972129Y-95504000D01*
X156716324Y-95504000D01*
X156720000Y-95541323D01*
X156720001Y-101816668D01*
X156716324Y-101854000D01*
X156720001Y-101891333D01*
X156726625Y-101958581D01*
X156730998Y-102002985D01*
X156774454Y-102146246D01*
X156845026Y-102278276D01*
X156899665Y-102344853D01*
X156940000Y-102394001D01*
X156968998Y-102417799D01*
X158322000Y-103770802D01*
X158322000Y-104003205D01*
X158367731Y-104233110D01*
X158457436Y-104449676D01*
X158587667Y-104644581D01*
X158753419Y-104810333D01*
X158948324Y-104940564D01*
X159164890Y-105030269D01*
X159394795Y-105076000D01*
X159629205Y-105076000D01*
X159859110Y-105030269D01*
X160075676Y-104940564D01*
X160270581Y-104810333D01*
X160434914Y-104646000D01*
X161466903Y-104646000D01*
X161200002Y-104824337D01*
X160958337Y-105066002D01*
X160768463Y-105350169D01*
X160637675Y-105665919D01*
X160588212Y-105914587D01*
X160566564Y-105862324D01*
X160436333Y-105667419D01*
X160270581Y-105501667D01*
X160075676Y-105371436D01*
X159859110Y-105281731D01*
X159629205Y-105236000D01*
X159394795Y-105236000D01*
X159164890Y-105281731D01*
X158948324Y-105371436D01*
X158753419Y-105501667D01*
X158587667Y-105667419D01*
X158457436Y-105862324D01*
X158367731Y-106078890D01*
X158322000Y-106308795D01*
X158322000Y-106543205D01*
X158367731Y-106773110D01*
X158457436Y-106989676D01*
X158587667Y-107184581D01*
X158753419Y-107350333D01*
X158948324Y-107480564D01*
X159164890Y-107570269D01*
X159394795Y-107616000D01*
X159629205Y-107616000D01*
X159826429Y-107576770D01*
X159627199Y-107776000D01*
X159394795Y-107776000D01*
X159164890Y-107821731D01*
X158948324Y-107911436D01*
X158753419Y-108041667D01*
X158587667Y-108207419D01*
X158457436Y-108402324D01*
X158367731Y-108618890D01*
X158322000Y-108848795D01*
X158322000Y-109083205D01*
X158367731Y-109313110D01*
X158457436Y-109529676D01*
X158587667Y-109724581D01*
X158753419Y-109890333D01*
X158948324Y-110020564D01*
X159164890Y-110110269D01*
X159394795Y-110156000D01*
X159629205Y-110156000D01*
X159859110Y-110110269D01*
X160075676Y-110020564D01*
X160270581Y-109890333D01*
X160436333Y-109724581D01*
X160566564Y-109529676D01*
X160656269Y-109313110D01*
X160702000Y-109083205D01*
X160702000Y-108850801D01*
X161738088Y-107814714D01*
X161799919Y-107840325D01*
X162135117Y-107907000D01*
X162476883Y-107907000D01*
X162812081Y-107840325D01*
X163127831Y-107709537D01*
X163411998Y-107519663D01*
X163653663Y-107277998D01*
X163843537Y-106993831D01*
X163974325Y-106678081D01*
X164041000Y-106342883D01*
X164041000Y-106001117D01*
X163974325Y-105665919D01*
X163843537Y-105350169D01*
X163653663Y-105066002D01*
X163411998Y-104824337D01*
X163145097Y-104646000D01*
X163896199Y-104646000D01*
X169616201Y-110366003D01*
X169639999Y-110395001D01*
X169755724Y-110489974D01*
X169887753Y-110560546D01*
X170031014Y-110604003D01*
X170142667Y-110615000D01*
X170142675Y-110615000D01*
X170180000Y-110618676D01*
X170217325Y-110615000D01*
X174587678Y-110615000D01*
X174625000Y-110618676D01*
X174662322Y-110615000D01*
X174662333Y-110615000D01*
X174773986Y-110604003D01*
X174917247Y-110560546D01*
X175049276Y-110489974D01*
X175165001Y-110395001D01*
X175188804Y-110365997D01*
X178247286Y-107307516D01*
X178248201Y-107308886D01*
X178296546Y-107357231D01*
X178339919Y-107410081D01*
X178392767Y-107453452D01*
X178441114Y-107501799D01*
X178497960Y-107539783D01*
X178550812Y-107583157D01*
X178611110Y-107615387D01*
X178667957Y-107653371D01*
X178731123Y-107679535D01*
X178791419Y-107711764D01*
X178856845Y-107731611D01*
X178920011Y-107757775D01*
X178987068Y-107771114D01*
X179052493Y-107790960D01*
X179120530Y-107797661D01*
X179187589Y-107811000D01*
X184335971Y-107811000D01*
X184404000Y-107817700D01*
X184472029Y-107811000D01*
X184540411Y-107811000D01*
X184607470Y-107797661D01*
X184675507Y-107790960D01*
X184740932Y-107771114D01*
X184807989Y-107757775D01*
X184871155Y-107731611D01*
X184936581Y-107711764D01*
X184996877Y-107679535D01*
X185060043Y-107653371D01*
X185116890Y-107615387D01*
X185177188Y-107583157D01*
X185230040Y-107539783D01*
X185286886Y-107501799D01*
X185335233Y-107453452D01*
X185388081Y-107410081D01*
X185431454Y-107357231D01*
X187875235Y-104913450D01*
X187928080Y-104870081D01*
X187977115Y-104810333D01*
X188079826Y-104685180D01*
X188101157Y-104659188D01*
X188229764Y-104418581D01*
X188308960Y-104157507D01*
X188329000Y-103954037D01*
X188329000Y-103954028D01*
X188335700Y-103886001D01*
X188329000Y-103817974D01*
X188329000Y-71644029D01*
X188335700Y-71576000D01*
X188329000Y-71507971D01*
X188329000Y-71507963D01*
X188308960Y-71304493D01*
X188229764Y-71043419D01*
X188101157Y-70802812D01*
X187971452Y-70644766D01*
X187971450Y-70644764D01*
X187928081Y-70591919D01*
X187875236Y-70548550D01*
X185150795Y-67824109D01*
X185136129Y-67750380D01*
X185014763Y-67457379D01*
X184838569Y-67193685D01*
X184614315Y-66969431D01*
X184350621Y-66793237D01*
X184057620Y-66671871D01*
X183746571Y-66610000D01*
X183429429Y-66610000D01*
X183118380Y-66671871D01*
X182825379Y-66793237D01*
X182561685Y-66969431D01*
X182337431Y-67193685D01*
X182161237Y-67457379D01*
X182039871Y-67750380D01*
X181978000Y-68061429D01*
X181978000Y-68378571D01*
X182039871Y-68689620D01*
X182161237Y-68982621D01*
X182337431Y-69246315D01*
X182561685Y-69470569D01*
X182825379Y-69646763D01*
X183118380Y-69768129D01*
X183192109Y-69782795D01*
X185559001Y-72149687D01*
X185559000Y-95661647D01*
X185479799Y-95543114D01*
X185286886Y-95350201D01*
X185060043Y-95198629D01*
X184807989Y-95094225D01*
X184540411Y-95041000D01*
X184267589Y-95041000D01*
X184000011Y-95094225D01*
X183747957Y-95198629D01*
X183521114Y-95350201D01*
X183328201Y-95543114D01*
X183246091Y-95666000D01*
X180481909Y-95666000D01*
X180399799Y-95543114D01*
X180206886Y-95350201D01*
X179980043Y-95198629D01*
X179727989Y-95094225D01*
X179460411Y-95041000D01*
X179187589Y-95041000D01*
X178920011Y-95094225D01*
X178667957Y-95198629D01*
X178441114Y-95350201D01*
X178248201Y-95543114D01*
X178096629Y-95769957D01*
X177992225Y-96022011D01*
X177939000Y-96289589D01*
X177939000Y-96562411D01*
X177992225Y-96829989D01*
X178096629Y-97082043D01*
X178248201Y-97308886D01*
X178441114Y-97501799D01*
X178667957Y-97653371D01*
X178920011Y-97757775D01*
X179187589Y-97811000D01*
X179460411Y-97811000D01*
X179727989Y-97757775D01*
X179980043Y-97653371D01*
X180206886Y-97501799D01*
X180399799Y-97308886D01*
X180481909Y-97186000D01*
X183246091Y-97186000D01*
X183328201Y-97308886D01*
X183521114Y-97501799D01*
X183747957Y-97653371D01*
X184000011Y-97757775D01*
X184267589Y-97811000D01*
X184540411Y-97811000D01*
X184807989Y-97757775D01*
X185060043Y-97653371D01*
X185286886Y-97501799D01*
X185479799Y-97308886D01*
X185559000Y-97190353D01*
X185559000Y-100650184D01*
X185517783Y-100599960D01*
X185479799Y-100543114D01*
X185431454Y-100494769D01*
X185388081Y-100441919D01*
X185335231Y-100398546D01*
X185286886Y-100350201D01*
X185230040Y-100312217D01*
X185177188Y-100268843D01*
X185116890Y-100236613D01*
X185060043Y-100198629D01*
X184996877Y-100172465D01*
X184936581Y-100140236D01*
X184871155Y-100120389D01*
X184807989Y-100094225D01*
X184740932Y-100080886D01*
X184675507Y-100061040D01*
X184607470Y-100054339D01*
X184540411Y-100041000D01*
X179897686Y-100041000D01*
X177407000Y-97550315D01*
X177407000Y-87109685D01*
X183983892Y-80532794D01*
X184057620Y-80518129D01*
X184350621Y-80396763D01*
X184614315Y-80220569D01*
X184838569Y-79996315D01*
X185014763Y-79732621D01*
X185136129Y-79439620D01*
X185198000Y-79128571D01*
X185198000Y-78811429D01*
X185136129Y-78500380D01*
X185014763Y-78207379D01*
X184838569Y-77943685D01*
X184614315Y-77719431D01*
X184350621Y-77543237D01*
X184057620Y-77421871D01*
X183746571Y-77360000D01*
X183429429Y-77360000D01*
X183118380Y-77421871D01*
X182825379Y-77543237D01*
X182561685Y-77719431D01*
X182337431Y-77943685D01*
X182161237Y-78207379D01*
X182039871Y-78500380D01*
X182025206Y-78574108D01*
X175090764Y-85508551D01*
X175037920Y-85551919D01*
X174994551Y-85604764D01*
X174994548Y-85604767D01*
X174864844Y-85762812D01*
X174736236Y-86003420D01*
X174657040Y-86264493D01*
X174630300Y-86536000D01*
X174637001Y-86604039D01*
X174637000Y-98055971D01*
X174630300Y-98124000D01*
X174637000Y-98192029D01*
X174637000Y-98192036D01*
X174657040Y-98395506D01*
X174736236Y-98656580D01*
X174864843Y-98897187D01*
X175037919Y-99108080D01*
X175090765Y-99151450D01*
X178296550Y-102357236D01*
X178339919Y-102410081D01*
X178392764Y-102453450D01*
X178392766Y-102453452D01*
X178392772Y-102453457D01*
X178441114Y-102501799D01*
X178497960Y-102539783D01*
X178550812Y-102583157D01*
X178611110Y-102615387D01*
X178667957Y-102653371D01*
X178731123Y-102679535D01*
X178791419Y-102711764D01*
X178856845Y-102731611D01*
X178920011Y-102757775D01*
X178987068Y-102771114D01*
X179052493Y-102790960D01*
X179120530Y-102797661D01*
X179187589Y-102811000D01*
X179255972Y-102811000D01*
X179323999Y-102817700D01*
X179392026Y-102811000D01*
X184540411Y-102811000D01*
X184607470Y-102797661D01*
X184675507Y-102790960D01*
X184740932Y-102771114D01*
X184807989Y-102757775D01*
X184871155Y-102731611D01*
X184936581Y-102711764D01*
X184996877Y-102679535D01*
X185060043Y-102653371D01*
X185116890Y-102615387D01*
X185177188Y-102583157D01*
X185230040Y-102539783D01*
X185286886Y-102501799D01*
X185335233Y-102453452D01*
X185388081Y-102410081D01*
X185431454Y-102357231D01*
X185479799Y-102308886D01*
X185517783Y-102252040D01*
X185559000Y-102201816D01*
X185559000Y-103312315D01*
X183830315Y-105041000D01*
X179187589Y-105041000D01*
X179120530Y-105054339D01*
X179052493Y-105061040D01*
X178987068Y-105080886D01*
X178920011Y-105094225D01*
X178856845Y-105120389D01*
X178791419Y-105140236D01*
X178731123Y-105172465D01*
X178667957Y-105198629D01*
X178611110Y-105236613D01*
X178550812Y-105268843D01*
X178497960Y-105312217D01*
X178441114Y-105350201D01*
X178392769Y-105398546D01*
X178339919Y-105441919D01*
X178296548Y-105494767D01*
X178248201Y-105543114D01*
X178210217Y-105599960D01*
X178166843Y-105652812D01*
X178159794Y-105666000D01*
X178091322Y-105666000D01*
X178053999Y-105662324D01*
X178016676Y-105666000D01*
X178016667Y-105666000D01*
X177905014Y-105676997D01*
X177761753Y-105720454D01*
X177629724Y-105791026D01*
X177513999Y-105885999D01*
X177490201Y-105914997D01*
X174310199Y-109095000D01*
X170494802Y-109095000D01*
X166471802Y-105072000D01*
X170727928Y-105072000D01*
X170727928Y-107272000D01*
X170740188Y-107396482D01*
X170776498Y-107516180D01*
X170835463Y-107626494D01*
X170914815Y-107723185D01*
X171011506Y-107802537D01*
X171121820Y-107861502D01*
X171241518Y-107897812D01*
X171366000Y-107910072D01*
X173566000Y-107910072D01*
X173690482Y-107897812D01*
X173810180Y-107861502D01*
X173920494Y-107802537D01*
X174017185Y-107723185D01*
X174096537Y-107626494D01*
X174155502Y-107516180D01*
X174191812Y-107396482D01*
X174204072Y-107272000D01*
X174204072Y-105072000D01*
X174191812Y-104947518D01*
X174155502Y-104827820D01*
X174096537Y-104717506D01*
X174017185Y-104620815D01*
X173920494Y-104541463D01*
X173810180Y-104482498D01*
X173690482Y-104446188D01*
X173566000Y-104433928D01*
X173226000Y-104433928D01*
X173226000Y-97575148D01*
X173287831Y-97549537D01*
X173571998Y-97359663D01*
X173813663Y-97117998D01*
X174003537Y-96833831D01*
X174134325Y-96518081D01*
X174201000Y-96182883D01*
X174201000Y-95841117D01*
X174134325Y-95505919D01*
X174003537Y-95190169D01*
X173813663Y-94906002D01*
X173571998Y-94664337D01*
X173287831Y-94474463D01*
X172972081Y-94343675D01*
X172636883Y-94277000D01*
X172295117Y-94277000D01*
X171959919Y-94343675D01*
X171644169Y-94474463D01*
X171360002Y-94664337D01*
X171118337Y-94906002D01*
X170928463Y-95190169D01*
X170797675Y-95505919D01*
X170731000Y-95841117D01*
X170731000Y-96182883D01*
X170797675Y-96518081D01*
X170928463Y-96833831D01*
X171118337Y-97117998D01*
X171360002Y-97359663D01*
X171644169Y-97549537D01*
X171706001Y-97575149D01*
X171706000Y-104433928D01*
X171366000Y-104433928D01*
X171241518Y-104446188D01*
X171121820Y-104482498D01*
X171011506Y-104541463D01*
X170914815Y-104620815D01*
X170835463Y-104717506D01*
X170776498Y-104827820D01*
X170740188Y-104947518D01*
X170727928Y-105072000D01*
X166471802Y-105072000D01*
X164774804Y-103375003D01*
X164751001Y-103345999D01*
X164635276Y-103251026D01*
X164503247Y-103180454D01*
X164359986Y-103136997D01*
X164248333Y-103126000D01*
X164248322Y-103126000D01*
X164211000Y-103122324D01*
X164173678Y-103126000D01*
X160434914Y-103126000D01*
X160270581Y-102961667D01*
X160075676Y-102831436D01*
X159859110Y-102741731D01*
X159629205Y-102696000D01*
X159396802Y-102696000D01*
X158240000Y-101539199D01*
X158240000Y-95818801D01*
X158361230Y-95697571D01*
X158322000Y-95894795D01*
X158322000Y-96129205D01*
X158367731Y-96359110D01*
X158457436Y-96575676D01*
X158587667Y-96770581D01*
X158753419Y-96936333D01*
X158948324Y-97066564D01*
X159164890Y-97156269D01*
X159394795Y-97202000D01*
X159629205Y-97202000D01*
X159826429Y-97162770D01*
X159627198Y-97362000D01*
X159394795Y-97362000D01*
X159164890Y-97407731D01*
X158948324Y-97497436D01*
X158753419Y-97627667D01*
X158587667Y-97793419D01*
X158457436Y-97988324D01*
X158367731Y-98204890D01*
X158322000Y-98434795D01*
X158322000Y-98669205D01*
X158367731Y-98899110D01*
X158457436Y-99115676D01*
X158587667Y-99310581D01*
X158753419Y-99476333D01*
X158948324Y-99606564D01*
X159164890Y-99696269D01*
X159394795Y-99742000D01*
X159629205Y-99742000D01*
X159859110Y-99696269D01*
X160075676Y-99606564D01*
X160270581Y-99476333D01*
X160436333Y-99310581D01*
X160566564Y-99115676D01*
X160656269Y-98899110D01*
X160702000Y-98669205D01*
X160702000Y-98436802D01*
X161388730Y-97750072D01*
X163406000Y-97750072D01*
X163530482Y-97737812D01*
X163650180Y-97701502D01*
X163760494Y-97642537D01*
X163857185Y-97563185D01*
X163936537Y-97466494D01*
X163995502Y-97356180D01*
X164031812Y-97236482D01*
X164044072Y-97112000D01*
X164044072Y-94912000D01*
X164031812Y-94787518D01*
X163995502Y-94667820D01*
X163936537Y-94557506D01*
X163857185Y-94460815D01*
X163760494Y-94381463D01*
X163650180Y-94322498D01*
X163530482Y-94286188D01*
X163406000Y-94273928D01*
X161206000Y-94273928D01*
X161081518Y-94286188D01*
X160961820Y-94322498D01*
X160851506Y-94381463D01*
X160754815Y-94460815D01*
X160675463Y-94557506D01*
X160616498Y-94667820D01*
X160580188Y-94787518D01*
X160567928Y-94912000D01*
X160567928Y-95451617D01*
X160566564Y-95448324D01*
X160436333Y-95253419D01*
X160270581Y-95087667D01*
X160075676Y-94957436D01*
X159859110Y-94867731D01*
X159629205Y-94822000D01*
X159394795Y-94822000D01*
X159197571Y-94861230D01*
X159396802Y-94662000D01*
X159629205Y-94662000D01*
X159859110Y-94616269D01*
X160075676Y-94526564D01*
X160270581Y-94396333D01*
X160436333Y-94230581D01*
X160566564Y-94035676D01*
X160656269Y-93819110D01*
X160702000Y-93589205D01*
X160702000Y-93354795D01*
X160656269Y-93124890D01*
X160566564Y-92908324D01*
X160436333Y-92713419D01*
X160270581Y-92547667D01*
X160075676Y-92417436D01*
X159859110Y-92327731D01*
X159629205Y-92282000D01*
X159394795Y-92282000D01*
X159164890Y-92327731D01*
X158948324Y-92417436D01*
X158753419Y-92547667D01*
X158587667Y-92713419D01*
X158457436Y-92908324D01*
X158367731Y-93124890D01*
X158322000Y-93354795D01*
X158322000Y-93587198D01*
X156969003Y-94940196D01*
X156939999Y-94963999D01*
X156886160Y-95029603D01*
X156845026Y-95079724D01*
X156806233Y-95152300D01*
X156774454Y-95211754D01*
X156730997Y-95355015D01*
X156720000Y-95466668D01*
X156720000Y-95466678D01*
X156716324Y-95504000D01*
X152972129Y-95504000D01*
X152963549Y-95481320D01*
X152928566Y-95415872D01*
X152709558Y-95374047D01*
X152071605Y-96012000D01*
X151712395Y-96012000D01*
X151074442Y-95374047D01*
X150855434Y-95415872D01*
X150759053Y-95629549D01*
X150706210Y-95857925D01*
X150698935Y-96092221D01*
X149263000Y-96092221D01*
X149263000Y-95870665D01*
X149226688Y-95688114D01*
X149720360Y-95194442D01*
X151254047Y-95194442D01*
X151892000Y-95832395D01*
X152529953Y-95194442D01*
X152488128Y-94975434D01*
X152274451Y-94879053D01*
X152046075Y-94826210D01*
X151811779Y-94818935D01*
X151580565Y-94857510D01*
X151361320Y-94940451D01*
X151295872Y-94975434D01*
X151254047Y-95194442D01*
X149720360Y-95194442D01*
X150682803Y-94232000D01*
X150735613Y-94232000D01*
X150747498Y-94271180D01*
X150806463Y-94381494D01*
X150885815Y-94478185D01*
X150982506Y-94557537D01*
X151092820Y-94616502D01*
X151212518Y-94652812D01*
X151337000Y-94665072D01*
X152447000Y-94665072D01*
X152571482Y-94652812D01*
X152691180Y-94616502D01*
X152801494Y-94557537D01*
X152898185Y-94478185D01*
X152977537Y-94381494D01*
X153036502Y-94271180D01*
X153072812Y-94151482D01*
X153085072Y-94027000D01*
X153085072Y-92917000D01*
X153072812Y-92792518D01*
X153036502Y-92672820D01*
X152977537Y-92562506D01*
X152898185Y-92465815D01*
X152801494Y-92386463D01*
X152691180Y-92327498D01*
X152571482Y-92291188D01*
X152447000Y-92278928D01*
X151337000Y-92278928D01*
X151212518Y-92291188D01*
X151092820Y-92327498D01*
X150982506Y-92386463D01*
X150885815Y-92465815D01*
X150806463Y-92562506D01*
X150747498Y-92672820D01*
X150735613Y-92712000D01*
X150405322Y-92712000D01*
X150367999Y-92708324D01*
X150330676Y-92712000D01*
X150330667Y-92712000D01*
X150219014Y-92722997D01*
X150075753Y-92766454D01*
X149943724Y-92837026D01*
X149943722Y-92837027D01*
X149943723Y-92837027D01*
X149856996Y-92908201D01*
X149856992Y-92908205D01*
X149827999Y-92931999D01*
X149804205Y-92960992D01*
X148151886Y-94613312D01*
X147969335Y-94577000D01*
X147686665Y-94577000D01*
X147409426Y-94632147D01*
X147148273Y-94740320D01*
X146913241Y-94897363D01*
X146713363Y-95097241D01*
X146556320Y-95332273D01*
X146448147Y-95593426D01*
X146393000Y-95870665D01*
X139103000Y-95870665D01*
X139047853Y-95593426D01*
X138939680Y-95332273D01*
X138782637Y-95097241D01*
X138582759Y-94897363D01*
X138428000Y-94793957D01*
X138428000Y-87540322D01*
X138431676Y-87502999D01*
X138428000Y-87465676D01*
X138428000Y-87465667D01*
X138417003Y-87354014D01*
X138373546Y-87210753D01*
X138346418Y-87160000D01*
X138302974Y-87078723D01*
X138231799Y-86991997D01*
X138208001Y-86962999D01*
X138179003Y-86939201D01*
X131118316Y-79878514D01*
X132015000Y-79878514D01*
X132015000Y-80141486D01*
X132066304Y-80399405D01*
X132166939Y-80642359D01*
X132313038Y-80861013D01*
X132498987Y-81046962D01*
X132717641Y-81193061D01*
X132960595Y-81293696D01*
X133218514Y-81345000D01*
X133481486Y-81345000D01*
X133739405Y-81293696D01*
X133982359Y-81193061D01*
X134201013Y-81046962D01*
X134386962Y-80861013D01*
X134533061Y-80642359D01*
X134633696Y-80399405D01*
X134685000Y-80141486D01*
X134685000Y-79878514D01*
X134633696Y-79620595D01*
X134533061Y-79377641D01*
X134386962Y-79158987D01*
X134201013Y-78973038D01*
X133982359Y-78826939D01*
X133739405Y-78726304D01*
X133481486Y-78675000D01*
X133218514Y-78675000D01*
X132960595Y-78726304D01*
X132717641Y-78826939D01*
X132498987Y-78973038D01*
X132313038Y-79158987D01*
X132166939Y-79377641D01*
X132066304Y-79620595D01*
X132015000Y-79878514D01*
X131118316Y-79878514D01*
X129030000Y-77790199D01*
X129030000Y-76061429D01*
X143478000Y-76061429D01*
X143478000Y-76378571D01*
X143539871Y-76689620D01*
X143661237Y-76982621D01*
X143837431Y-77246315D01*
X144061685Y-77470569D01*
X144325379Y-77646763D01*
X144618380Y-77768129D01*
X144929429Y-77830000D01*
X145246571Y-77830000D01*
X145557620Y-77768129D01*
X145850621Y-77646763D01*
X146114315Y-77470569D01*
X146338569Y-77246315D01*
X146514763Y-76982621D01*
X146636129Y-76689620D01*
X146698000Y-76378571D01*
X146698000Y-76061429D01*
X146636129Y-75750380D01*
X146514763Y-75457379D01*
X146338569Y-75193685D01*
X146114315Y-74969431D01*
X145850621Y-74793237D01*
X145557620Y-74671871D01*
X145246571Y-74610000D01*
X144929429Y-74610000D01*
X144618380Y-74671871D01*
X144325379Y-74793237D01*
X144061685Y-74969431D01*
X143837431Y-75193685D01*
X143661237Y-75457379D01*
X143539871Y-75750380D01*
X143478000Y-76061429D01*
X129030000Y-76061429D01*
X129030000Y-72258514D01*
X132015000Y-72258514D01*
X132015000Y-72521486D01*
X132066304Y-72779405D01*
X132166939Y-73022359D01*
X132313038Y-73241013D01*
X132498987Y-73426962D01*
X132717641Y-73573061D01*
X132960595Y-73673696D01*
X133218514Y-73725000D01*
X133481486Y-73725000D01*
X133739405Y-73673696D01*
X133982359Y-73573061D01*
X134201013Y-73426962D01*
X134386962Y-73241013D01*
X134533061Y-73022359D01*
X134633696Y-72779405D01*
X134685000Y-72521486D01*
X134685000Y-72258514D01*
X134633696Y-72000595D01*
X134533061Y-71757641D01*
X134386962Y-71538987D01*
X134201013Y-71353038D01*
X133982359Y-71206939D01*
X133739405Y-71106304D01*
X133481486Y-71055000D01*
X133218514Y-71055000D01*
X132960595Y-71106304D01*
X132717641Y-71206939D01*
X132498987Y-71353038D01*
X132313038Y-71538987D01*
X132166939Y-71757641D01*
X132066304Y-72000595D01*
X132015000Y-72258514D01*
X129030000Y-72258514D01*
X129030000Y-69887323D01*
X129033676Y-69850000D01*
X129030000Y-69812677D01*
X129030000Y-69812667D01*
X129019003Y-69701014D01*
X128975546Y-69557753D01*
X128904974Y-69425724D01*
X128810001Y-69309999D01*
X128781003Y-69286201D01*
X128466802Y-68972000D01*
X130541928Y-68972000D01*
X130554188Y-69096482D01*
X130590498Y-69216180D01*
X130649463Y-69326494D01*
X130728815Y-69423185D01*
X130825506Y-69502537D01*
X130935820Y-69561502D01*
X131055518Y-69597812D01*
X131180000Y-69610072D01*
X131794250Y-69607000D01*
X131953000Y-69448250D01*
X131953000Y-68199000D01*
X130703750Y-68199000D01*
X130545000Y-68357750D01*
X130541928Y-68972000D01*
X128466802Y-68972000D01*
X126928804Y-67434003D01*
X126905001Y-67404999D01*
X126789276Y-67310026D01*
X126657247Y-67239454D01*
X126513986Y-67195997D01*
X126402333Y-67185000D01*
X126402322Y-67185000D01*
X126365000Y-67181324D01*
X126327678Y-67185000D01*
X112432322Y-67185000D01*
X112394999Y-67181324D01*
X112357676Y-67185000D01*
X112357667Y-67185000D01*
X112246014Y-67195997D01*
X112102753Y-67239454D01*
X111970724Y-67310026D01*
X111970722Y-67310027D01*
X111970723Y-67310027D01*
X111883996Y-67381201D01*
X111883992Y-67381205D01*
X111854999Y-67404999D01*
X111831205Y-67433992D01*
X110178886Y-69086312D01*
X109996335Y-69050000D01*
X109713665Y-69050000D01*
X109436426Y-69105147D01*
X109175273Y-69213320D01*
X108940241Y-69370363D01*
X108740363Y-69570241D01*
X108583320Y-69805273D01*
X108475147Y-70066426D01*
X108420000Y-70343665D01*
X105575000Y-70343665D01*
X105575000Y-70216665D01*
X105519853Y-69939426D01*
X105411680Y-69678273D01*
X105254637Y-69443241D01*
X105054759Y-69243363D01*
X104819727Y-69086320D01*
X104558574Y-68978147D01*
X104281335Y-68923000D01*
X103998665Y-68923000D01*
X103721426Y-68978147D01*
X103460273Y-69086320D01*
X103225241Y-69243363D01*
X103025363Y-69443241D01*
X102868320Y-69678273D01*
X102760147Y-69939426D01*
X102705000Y-70216665D01*
X99187000Y-70216665D01*
X99187000Y-66708881D01*
X101618724Y-66708881D01*
X101978912Y-67198548D01*
X102642882Y-67558849D01*
X103364385Y-67782694D01*
X104115695Y-67861480D01*
X104867938Y-67792178D01*
X105592208Y-67577452D01*
X106260670Y-67225555D01*
X106301088Y-67198548D01*
X106320616Y-67172000D01*
X130541928Y-67172000D01*
X130545000Y-67786250D01*
X130703750Y-67945000D01*
X131953000Y-67945000D01*
X131953000Y-66695750D01*
X132207000Y-66695750D01*
X132207000Y-67945000D01*
X132227000Y-67945000D01*
X132227000Y-68199000D01*
X132207000Y-68199000D01*
X132207000Y-69448250D01*
X132365750Y-69607000D01*
X132980000Y-69610072D01*
X133104482Y-69597812D01*
X133224180Y-69561502D01*
X133334494Y-69502537D01*
X133431185Y-69423185D01*
X133510537Y-69326494D01*
X133569502Y-69216180D01*
X133575056Y-69197873D01*
X133641495Y-69264312D01*
X133892905Y-69432299D01*
X134172257Y-69548011D01*
X134468816Y-69607000D01*
X134771184Y-69607000D01*
X135067743Y-69548011D01*
X135347095Y-69432299D01*
X135488845Y-69337584D01*
X144150021Y-69337584D01*
X144242766Y-69599429D01*
X144528120Y-69737820D01*
X144834990Y-69817883D01*
X145151584Y-69836540D01*
X145465733Y-69793074D01*
X145765367Y-69689156D01*
X145933234Y-69599429D01*
X146025979Y-69337584D01*
X145088000Y-68399605D01*
X144150021Y-69337584D01*
X135488845Y-69337584D01*
X135598505Y-69264312D01*
X135812312Y-69050505D01*
X135980299Y-68799095D01*
X136096011Y-68519743D01*
X136142985Y-68283584D01*
X143471460Y-68283584D01*
X143514926Y-68597733D01*
X143618844Y-68897367D01*
X143708571Y-69065234D01*
X143970416Y-69157979D01*
X144908395Y-68220000D01*
X145267605Y-68220000D01*
X146205584Y-69157979D01*
X146467429Y-69065234D01*
X146605820Y-68779880D01*
X146685883Y-68473010D01*
X146704540Y-68156416D01*
X146661074Y-67842267D01*
X146557156Y-67542633D01*
X146467429Y-67374766D01*
X146205584Y-67282021D01*
X145267605Y-68220000D01*
X144908395Y-68220000D01*
X143970416Y-67282021D01*
X143708571Y-67374766D01*
X143570180Y-67660120D01*
X143490117Y-67966990D01*
X143471460Y-68283584D01*
X136142985Y-68283584D01*
X136155000Y-68223184D01*
X136155000Y-67920816D01*
X136096011Y-67624257D01*
X135980299Y-67344905D01*
X135818273Y-67102416D01*
X144150021Y-67102416D01*
X145088000Y-68040395D01*
X146025979Y-67102416D01*
X145933234Y-66840571D01*
X145647880Y-66702180D01*
X145341010Y-66622117D01*
X145024416Y-66603460D01*
X144710267Y-66646926D01*
X144410633Y-66750844D01*
X144242766Y-66840571D01*
X144150021Y-67102416D01*
X135818273Y-67102416D01*
X135812312Y-67093495D01*
X135598505Y-66879688D01*
X135347095Y-66711701D01*
X135067743Y-66595989D01*
X134771184Y-66537000D01*
X134468816Y-66537000D01*
X134172257Y-66595989D01*
X133892905Y-66711701D01*
X133641495Y-66879688D01*
X133575056Y-66946127D01*
X133569502Y-66927820D01*
X133510537Y-66817506D01*
X133431185Y-66720815D01*
X133334494Y-66641463D01*
X133224180Y-66582498D01*
X133104482Y-66546188D01*
X132980000Y-66533928D01*
X132365750Y-66537000D01*
X132207000Y-66695750D01*
X131953000Y-66695750D01*
X131794250Y-66537000D01*
X131180000Y-66533928D01*
X131055518Y-66546188D01*
X130935820Y-66582498D01*
X130825506Y-66641463D01*
X130728815Y-66720815D01*
X130649463Y-66817506D01*
X130590498Y-66927820D01*
X130554188Y-67047518D01*
X130541928Y-67172000D01*
X106320616Y-67172000D01*
X106661276Y-66708881D01*
X104140000Y-64187605D01*
X101618724Y-66708881D01*
X99187000Y-66708881D01*
X99187000Y-63983695D01*
X100286520Y-63983695D01*
X100355822Y-64735938D01*
X100570548Y-65460208D01*
X100922445Y-66128670D01*
X100949452Y-66169088D01*
X101439119Y-66529276D01*
X103960395Y-64008000D01*
X104319605Y-64008000D01*
X106840881Y-66529276D01*
X107330548Y-66169088D01*
X107690849Y-65505118D01*
X107914694Y-64783615D01*
X107945306Y-64491695D01*
X187154520Y-64491695D01*
X187223822Y-65243938D01*
X187438548Y-65968208D01*
X187790445Y-66636670D01*
X187817452Y-66677088D01*
X188307119Y-67037276D01*
X188492811Y-66851584D01*
X188507007Y-66872830D01*
X188651170Y-67016993D01*
X188672416Y-67031189D01*
X188486724Y-67216881D01*
X188846912Y-67706548D01*
X189510882Y-68066849D01*
X190232385Y-68290694D01*
X190983695Y-68369480D01*
X191735938Y-68300178D01*
X192460208Y-68085452D01*
X193128670Y-67733555D01*
X193169088Y-67706548D01*
X193529276Y-67216881D01*
X193343584Y-67031189D01*
X193364830Y-67016993D01*
X193508993Y-66872830D01*
X193523189Y-66851584D01*
X193708881Y-67037276D01*
X194198548Y-66677088D01*
X194558849Y-66013118D01*
X194782694Y-65291615D01*
X194861480Y-64540305D01*
X194792178Y-63788062D01*
X194577452Y-63063792D01*
X194225555Y-62395330D01*
X194198548Y-62354912D01*
X193708881Y-61994724D01*
X193523189Y-62180416D01*
X193508993Y-62159170D01*
X193364830Y-62015007D01*
X193343584Y-62000811D01*
X193529276Y-61815119D01*
X193169088Y-61325452D01*
X192505118Y-60965151D01*
X191783615Y-60741306D01*
X191032305Y-60662520D01*
X190280062Y-60731822D01*
X189555792Y-60946548D01*
X188887330Y-61298445D01*
X188846912Y-61325452D01*
X188486724Y-61815119D01*
X191008000Y-64336395D01*
X191886923Y-63457472D01*
X191901119Y-63478718D01*
X192045282Y-63622881D01*
X192066528Y-63637077D01*
X191187605Y-64516000D01*
X192066528Y-65394923D01*
X192045282Y-65409119D01*
X191901119Y-65553282D01*
X191886923Y-65574528D01*
X191008000Y-64695605D01*
X190129077Y-65574528D01*
X190114881Y-65553282D01*
X189970718Y-65409119D01*
X189949472Y-65394923D01*
X190828395Y-64516000D01*
X188307119Y-61994724D01*
X187817452Y-62354912D01*
X187457151Y-63018882D01*
X187233306Y-63740385D01*
X187154520Y-64491695D01*
X107945306Y-64491695D01*
X107993480Y-64032305D01*
X107924178Y-63280062D01*
X107709452Y-62555792D01*
X107357555Y-61887330D01*
X107330548Y-61846912D01*
X106840881Y-61486724D01*
X104319605Y-64008000D01*
X103960395Y-64008000D01*
X101439119Y-61486724D01*
X100949452Y-61846912D01*
X100589151Y-62510882D01*
X100365306Y-63232385D01*
X100286520Y-63983695D01*
X99187000Y-63983695D01*
X99187000Y-61307119D01*
X101618724Y-61307119D01*
X104140000Y-63828395D01*
X106661276Y-61307119D01*
X106301088Y-60817452D01*
X105637118Y-60457151D01*
X104915615Y-60233306D01*
X104164305Y-60154520D01*
X103412062Y-60223822D01*
X102687792Y-60438548D01*
X102019330Y-60790445D01*
X101978912Y-60817452D01*
X101618724Y-61307119D01*
X99187000Y-61307119D01*
X99187000Y-59182000D01*
X196088000Y-59182000D01*
X196088000Y-152273000D01*
G37*
%TD.AperFunction*%
D30*
X118813198Y-120523000D02*
X118607408Y-120523000D01*
X118337510Y-120576686D01*
X118083273Y-120681995D01*
X117854465Y-120834880D01*
X117659880Y-121029465D01*
X117506995Y-121258273D01*
X117475000Y-121335515D01*
X117443005Y-121258273D01*
X117290120Y-121029465D01*
X117095535Y-120834880D01*
X116965000Y-120747659D01*
X116965000Y-118674801D01*
X118813198Y-120523000D01*
%TA.AperFunction,Conductor*%
D31*
G36*
X118813198Y-120523000D02*
G01*
X118607408Y-120523000D01*
X118337510Y-120576686D01*
X118083273Y-120681995D01*
X117854465Y-120834880D01*
X117659880Y-121029465D01*
X117506995Y-121258273D01*
X117475000Y-121335515D01*
X117443005Y-121258273D01*
X117290120Y-121029465D01*
X117095535Y-120834880D01*
X116965000Y-120747659D01*
X116965000Y-118674801D01*
X118813198Y-120523000D01*
G37*
%TD.AperFunction*%
D30*
X128232667Y-113790000D02*
X128232677Y-113790000D01*
X128270000Y-113793676D01*
X128307323Y-113790000D01*
X134305199Y-113790000D01*
X134855000Y-114339802D01*
X134855000Y-114401939D01*
X134894774Y-114601898D01*
X134972795Y-114790256D01*
X134985987Y-114810000D01*
X129219802Y-114810000D01*
X128196211Y-113786409D01*
X128232667Y-113790000D01*
%TA.AperFunction,Conductor*%
D31*
G36*
X128232667Y-113790000D02*
G01*
X128232677Y-113790000D01*
X128270000Y-113793676D01*
X128307323Y-113790000D01*
X134305199Y-113790000D01*
X134855000Y-114339802D01*
X134855000Y-114401939D01*
X134894774Y-114601898D01*
X134972795Y-114790256D01*
X134985987Y-114810000D01*
X129219802Y-114810000D01*
X128196211Y-113786409D01*
X128232667Y-113790000D01*
G37*
%TD.AperFunction*%
D30*
X127510001Y-70164803D02*
X127510001Y-71825198D01*
X126493688Y-70808886D01*
X126530000Y-70626335D01*
X126530000Y-70343665D01*
X126474853Y-70066426D01*
X126366680Y-69805273D01*
X126209637Y-69570241D01*
X126009759Y-69370363D01*
X125774727Y-69213320D01*
X125513574Y-69105147D01*
X125236335Y-69050000D01*
X124953665Y-69050000D01*
X124676426Y-69105147D01*
X124415273Y-69213320D01*
X124180241Y-69370363D01*
X123980363Y-69570241D01*
X123823320Y-69805273D01*
X123715147Y-70066426D01*
X123660000Y-70343665D01*
X123660000Y-70626335D01*
X123715147Y-70903574D01*
X123823320Y-71164727D01*
X123980363Y-71399759D01*
X124180241Y-71599637D01*
X124412759Y-71755000D01*
X124180241Y-71910363D01*
X123980363Y-72110241D01*
X123823320Y-72345273D01*
X123715147Y-72606426D01*
X123660000Y-72883665D01*
X123660000Y-73166335D01*
X123715147Y-73443574D01*
X123823320Y-73704727D01*
X123980363Y-73939759D01*
X124180241Y-74139637D01*
X124412759Y-74295000D01*
X124180241Y-74450363D01*
X123980363Y-74650241D01*
X123823320Y-74885273D01*
X123715147Y-75146426D01*
X123660000Y-75423665D01*
X123660000Y-75706335D01*
X123715147Y-75983574D01*
X123823320Y-76244727D01*
X123980363Y-76479759D01*
X124180241Y-76679637D01*
X124412759Y-76835000D01*
X124180241Y-76990363D01*
X123980363Y-77190241D01*
X123823320Y-77425273D01*
X123715147Y-77686426D01*
X123660000Y-77963665D01*
X123660000Y-78246335D01*
X123715147Y-78523574D01*
X123823320Y-78784727D01*
X123980363Y-79019759D01*
X124180241Y-79219637D01*
X124412759Y-79375000D01*
X124180241Y-79530363D01*
X123980363Y-79730241D01*
X123823320Y-79965273D01*
X123715147Y-80226426D01*
X123660000Y-80503665D01*
X123660000Y-80786335D01*
X123715147Y-81063574D01*
X123823320Y-81324727D01*
X123980363Y-81559759D01*
X124180241Y-81759637D01*
X124412759Y-81915000D01*
X124180241Y-82070363D01*
X123980363Y-82270241D01*
X123823320Y-82505273D01*
X123715147Y-82766426D01*
X123660000Y-83043665D01*
X123660000Y-83326335D01*
X123715147Y-83603574D01*
X123823320Y-83864727D01*
X123980363Y-84099759D01*
X124180241Y-84299637D01*
X124412759Y-84455000D01*
X124180241Y-84610363D01*
X123980363Y-84810241D01*
X123823320Y-85045273D01*
X123715147Y-85306426D01*
X123660000Y-85583665D01*
X123660000Y-85866335D01*
X123696312Y-86048886D01*
X121408998Y-88336201D01*
X121380000Y-88359999D01*
X121356202Y-88388997D01*
X121356201Y-88388998D01*
X121285026Y-88475724D01*
X121214454Y-88607754D01*
X121170998Y-88751015D01*
X121156324Y-88900000D01*
X121160001Y-88937332D01*
X121160000Y-96451289D01*
X121116063Y-96495226D01*
X121002795Y-96664744D01*
X120924774Y-96853102D01*
X120885000Y-97053061D01*
X120885000Y-97256939D01*
X120924774Y-97456898D01*
X121002795Y-97645256D01*
X121116063Y-97814774D01*
X121260226Y-97958937D01*
X121429744Y-98072205D01*
X121618102Y-98150226D01*
X121818061Y-98190000D01*
X122021939Y-98190000D01*
X122221898Y-98150226D01*
X122410256Y-98072205D01*
X122430000Y-98059012D01*
X122430001Y-107912667D01*
X122426324Y-107950000D01*
X122430001Y-107987333D01*
X122433592Y-108023790D01*
X112323804Y-97914003D01*
X112300001Y-97884999D01*
X112184276Y-97790026D01*
X112052247Y-97719454D01*
X111908986Y-97675997D01*
X111797333Y-97665000D01*
X111797322Y-97665000D01*
X111760000Y-97661324D01*
X111722678Y-97665000D01*
X111073043Y-97665000D01*
X110969637Y-97510241D01*
X110769759Y-97310363D01*
X110537241Y-97155000D01*
X110769759Y-96999637D01*
X110969637Y-96799759D01*
X111126680Y-96564727D01*
X111234853Y-96303574D01*
X111290000Y-96026335D01*
X111290000Y-95743665D01*
X111234853Y-95466426D01*
X111126680Y-95205273D01*
X110969637Y-94970241D01*
X110769759Y-94770363D01*
X110537241Y-94615000D01*
X110769759Y-94459637D01*
X110969637Y-94259759D01*
X111126680Y-94024727D01*
X111234853Y-93763574D01*
X111290000Y-93486335D01*
X111290000Y-93203665D01*
X111234853Y-92926426D01*
X111126680Y-92665273D01*
X110969637Y-92430241D01*
X110769759Y-92230363D01*
X110537241Y-92075000D01*
X110769759Y-91919637D01*
X110969637Y-91719759D01*
X111126680Y-91484727D01*
X111234853Y-91223574D01*
X111290000Y-90946335D01*
X111290000Y-90663665D01*
X111234853Y-90386426D01*
X111126680Y-90125273D01*
X110969637Y-89890241D01*
X110769759Y-89690363D01*
X110537241Y-89535000D01*
X110769759Y-89379637D01*
X110969637Y-89179759D01*
X111126680Y-88944727D01*
X111234853Y-88683574D01*
X111290000Y-88406335D01*
X111290000Y-88123665D01*
X111234853Y-87846426D01*
X111126680Y-87585273D01*
X110969637Y-87350241D01*
X110769759Y-87150363D01*
X110537241Y-86995000D01*
X110769759Y-86839637D01*
X110969637Y-86639759D01*
X111126680Y-86404727D01*
X111234853Y-86143574D01*
X111290000Y-85866335D01*
X111290000Y-85583665D01*
X111234853Y-85306426D01*
X111126680Y-85045273D01*
X110969637Y-84810241D01*
X110769759Y-84610363D01*
X110537241Y-84455000D01*
X110769759Y-84299637D01*
X110969637Y-84099759D01*
X111126680Y-83864727D01*
X111234853Y-83603574D01*
X111290000Y-83326335D01*
X111290000Y-83043665D01*
X111234853Y-82766426D01*
X111126680Y-82505273D01*
X110969637Y-82270241D01*
X110769759Y-82070363D01*
X110537241Y-81915000D01*
X110769759Y-81759637D01*
X110969637Y-81559759D01*
X111126680Y-81324727D01*
X111234853Y-81063574D01*
X111290000Y-80786335D01*
X111290000Y-80503665D01*
X111234853Y-80226426D01*
X111126680Y-79965273D01*
X110969637Y-79730241D01*
X110769759Y-79530363D01*
X110537241Y-79375000D01*
X110769759Y-79219637D01*
X110969637Y-79019759D01*
X111126680Y-78784727D01*
X111234853Y-78523574D01*
X111290000Y-78246335D01*
X111290000Y-77963665D01*
X111234853Y-77686426D01*
X111126680Y-77425273D01*
X110969637Y-77190241D01*
X110769759Y-76990363D01*
X110537241Y-76835000D01*
X110769759Y-76679637D01*
X110969637Y-76479759D01*
X111126680Y-76244727D01*
X111234853Y-75983574D01*
X111290000Y-75706335D01*
X111290000Y-75423665D01*
X111234853Y-75146426D01*
X111126680Y-74885273D01*
X110969637Y-74650241D01*
X110769759Y-74450363D01*
X110537241Y-74295000D01*
X110769759Y-74139637D01*
X110969637Y-73939759D01*
X111126680Y-73704727D01*
X111234853Y-73443574D01*
X111290000Y-73166335D01*
X111290000Y-72883665D01*
X111234853Y-72606426D01*
X111126680Y-72345273D01*
X110969637Y-72110241D01*
X110769759Y-71910363D01*
X110537241Y-71755000D01*
X110769759Y-71599637D01*
X110969637Y-71399759D01*
X111126680Y-71164727D01*
X111234853Y-70903574D01*
X111290000Y-70626335D01*
X111290000Y-70343665D01*
X111253688Y-70161114D01*
X112709803Y-68705000D01*
X126050199Y-68705000D01*
X127510001Y-70164803D01*
%TA.AperFunction,Conductor*%
D31*
G36*
X127510001Y-70164803D02*
G01*
X127510001Y-71825198D01*
X126493688Y-70808886D01*
X126530000Y-70626335D01*
X126530000Y-70343665D01*
X126474853Y-70066426D01*
X126366680Y-69805273D01*
X126209637Y-69570241D01*
X126009759Y-69370363D01*
X125774727Y-69213320D01*
X125513574Y-69105147D01*
X125236335Y-69050000D01*
X124953665Y-69050000D01*
X124676426Y-69105147D01*
X124415273Y-69213320D01*
X124180241Y-69370363D01*
X123980363Y-69570241D01*
X123823320Y-69805273D01*
X123715147Y-70066426D01*
X123660000Y-70343665D01*
X123660000Y-70626335D01*
X123715147Y-70903574D01*
X123823320Y-71164727D01*
X123980363Y-71399759D01*
X124180241Y-71599637D01*
X124412759Y-71755000D01*
X124180241Y-71910363D01*
X123980363Y-72110241D01*
X123823320Y-72345273D01*
X123715147Y-72606426D01*
X123660000Y-72883665D01*
X123660000Y-73166335D01*
X123715147Y-73443574D01*
X123823320Y-73704727D01*
X123980363Y-73939759D01*
X124180241Y-74139637D01*
X124412759Y-74295000D01*
X124180241Y-74450363D01*
X123980363Y-74650241D01*
X123823320Y-74885273D01*
X123715147Y-75146426D01*
X123660000Y-75423665D01*
X123660000Y-75706335D01*
X123715147Y-75983574D01*
X123823320Y-76244727D01*
X123980363Y-76479759D01*
X124180241Y-76679637D01*
X124412759Y-76835000D01*
X124180241Y-76990363D01*
X123980363Y-77190241D01*
X123823320Y-77425273D01*
X123715147Y-77686426D01*
X123660000Y-77963665D01*
X123660000Y-78246335D01*
X123715147Y-78523574D01*
X123823320Y-78784727D01*
X123980363Y-79019759D01*
X124180241Y-79219637D01*
X124412759Y-79375000D01*
X124180241Y-79530363D01*
X123980363Y-79730241D01*
X123823320Y-79965273D01*
X123715147Y-80226426D01*
X123660000Y-80503665D01*
X123660000Y-80786335D01*
X123715147Y-81063574D01*
X123823320Y-81324727D01*
X123980363Y-81559759D01*
X124180241Y-81759637D01*
X124412759Y-81915000D01*
X124180241Y-82070363D01*
X123980363Y-82270241D01*
X123823320Y-82505273D01*
X123715147Y-82766426D01*
X123660000Y-83043665D01*
X123660000Y-83326335D01*
X123715147Y-83603574D01*
X123823320Y-83864727D01*
X123980363Y-84099759D01*
X124180241Y-84299637D01*
X124412759Y-84455000D01*
X124180241Y-84610363D01*
X123980363Y-84810241D01*
X123823320Y-85045273D01*
X123715147Y-85306426D01*
X123660000Y-85583665D01*
X123660000Y-85866335D01*
X123696312Y-86048886D01*
X121408998Y-88336201D01*
X121380000Y-88359999D01*
X121356202Y-88388997D01*
X121356201Y-88388998D01*
X121285026Y-88475724D01*
X121214454Y-88607754D01*
X121170998Y-88751015D01*
X121156324Y-88900000D01*
X121160001Y-88937332D01*
X121160000Y-96451289D01*
X121116063Y-96495226D01*
X121002795Y-96664744D01*
X120924774Y-96853102D01*
X120885000Y-97053061D01*
X120885000Y-97256939D01*
X120924774Y-97456898D01*
X121002795Y-97645256D01*
X121116063Y-97814774D01*
X121260226Y-97958937D01*
X121429744Y-98072205D01*
X121618102Y-98150226D01*
X121818061Y-98190000D01*
X122021939Y-98190000D01*
X122221898Y-98150226D01*
X122410256Y-98072205D01*
X122430000Y-98059012D01*
X122430001Y-107912667D01*
X122426324Y-107950000D01*
X122430001Y-107987333D01*
X122433592Y-108023790D01*
X112323804Y-97914003D01*
X112300001Y-97884999D01*
X112184276Y-97790026D01*
X112052247Y-97719454D01*
X111908986Y-97675997D01*
X111797333Y-97665000D01*
X111797322Y-97665000D01*
X111760000Y-97661324D01*
X111722678Y-97665000D01*
X111073043Y-97665000D01*
X110969637Y-97510241D01*
X110769759Y-97310363D01*
X110537241Y-97155000D01*
X110769759Y-96999637D01*
X110969637Y-96799759D01*
X111126680Y-96564727D01*
X111234853Y-96303574D01*
X111290000Y-96026335D01*
X111290000Y-95743665D01*
X111234853Y-95466426D01*
X111126680Y-95205273D01*
X110969637Y-94970241D01*
X110769759Y-94770363D01*
X110537241Y-94615000D01*
X110769759Y-94459637D01*
X110969637Y-94259759D01*
X111126680Y-94024727D01*
X111234853Y-93763574D01*
X111290000Y-93486335D01*
X111290000Y-93203665D01*
X111234853Y-92926426D01*
X111126680Y-92665273D01*
X110969637Y-92430241D01*
X110769759Y-92230363D01*
X110537241Y-92075000D01*
X110769759Y-91919637D01*
X110969637Y-91719759D01*
X111126680Y-91484727D01*
X111234853Y-91223574D01*
X111290000Y-90946335D01*
X111290000Y-90663665D01*
X111234853Y-90386426D01*
X111126680Y-90125273D01*
X110969637Y-89890241D01*
X110769759Y-89690363D01*
X110537241Y-89535000D01*
X110769759Y-89379637D01*
X110969637Y-89179759D01*
X111126680Y-88944727D01*
X111234853Y-88683574D01*
X111290000Y-88406335D01*
X111290000Y-88123665D01*
X111234853Y-87846426D01*
X111126680Y-87585273D01*
X110969637Y-87350241D01*
X110769759Y-87150363D01*
X110537241Y-86995000D01*
X110769759Y-86839637D01*
X110969637Y-86639759D01*
X111126680Y-86404727D01*
X111234853Y-86143574D01*
X111290000Y-85866335D01*
X111290000Y-85583665D01*
X111234853Y-85306426D01*
X111126680Y-85045273D01*
X110969637Y-84810241D01*
X110769759Y-84610363D01*
X110537241Y-84455000D01*
X110769759Y-84299637D01*
X110969637Y-84099759D01*
X111126680Y-83864727D01*
X111234853Y-83603574D01*
X111290000Y-83326335D01*
X111290000Y-83043665D01*
X111234853Y-82766426D01*
X111126680Y-82505273D01*
X110969637Y-82270241D01*
X110769759Y-82070363D01*
X110537241Y-81915000D01*
X110769759Y-81759637D01*
X110969637Y-81559759D01*
X111126680Y-81324727D01*
X111234853Y-81063574D01*
X111290000Y-80786335D01*
X111290000Y-80503665D01*
X111234853Y-80226426D01*
X111126680Y-79965273D01*
X110969637Y-79730241D01*
X110769759Y-79530363D01*
X110537241Y-79375000D01*
X110769759Y-79219637D01*
X110969637Y-79019759D01*
X111126680Y-78784727D01*
X111234853Y-78523574D01*
X111290000Y-78246335D01*
X111290000Y-77963665D01*
X111234853Y-77686426D01*
X111126680Y-77425273D01*
X110969637Y-77190241D01*
X110769759Y-76990363D01*
X110537241Y-76835000D01*
X110769759Y-76679637D01*
X110969637Y-76479759D01*
X111126680Y-76244727D01*
X111234853Y-75983574D01*
X111290000Y-75706335D01*
X111290000Y-75423665D01*
X111234853Y-75146426D01*
X111126680Y-74885273D01*
X110969637Y-74650241D01*
X110769759Y-74450363D01*
X110537241Y-74295000D01*
X110769759Y-74139637D01*
X110969637Y-73939759D01*
X111126680Y-73704727D01*
X111234853Y-73443574D01*
X111290000Y-73166335D01*
X111290000Y-72883665D01*
X111234853Y-72606426D01*
X111126680Y-72345273D01*
X110969637Y-72110241D01*
X110769759Y-71910363D01*
X110537241Y-71755000D01*
X110769759Y-71599637D01*
X110969637Y-71399759D01*
X111126680Y-71164727D01*
X111234853Y-70903574D01*
X111290000Y-70626335D01*
X111290000Y-70343665D01*
X111253688Y-70161114D01*
X112709803Y-68705000D01*
X126050199Y-68705000D01*
X127510001Y-70164803D01*
G37*
%TD.AperFunction*%
D30*
X123660000Y-88406335D02*
X123715147Y-88683574D01*
X123823320Y-88944727D01*
X123980363Y-89179759D01*
X124180241Y-89379637D01*
X124412759Y-89535000D01*
X124180241Y-89690363D01*
X123980363Y-89890241D01*
X123823320Y-90125273D01*
X123715147Y-90386426D01*
X123660000Y-90663665D01*
X123660000Y-90946335D01*
X123696312Y-91128886D01*
X122680000Y-92145199D01*
X122680000Y-89214801D01*
X123660000Y-88234801D01*
X123660000Y-88406335D01*
%TA.AperFunction,Conductor*%
D31*
G36*
X123660000Y-88406335D02*
G01*
X123715147Y-88683574D01*
X123823320Y-88944727D01*
X123980363Y-89179759D01*
X124180241Y-89379637D01*
X124412759Y-89535000D01*
X124180241Y-89690363D01*
X123980363Y-89890241D01*
X123823320Y-90125273D01*
X123715147Y-90386426D01*
X123660000Y-90663665D01*
X123660000Y-90946335D01*
X123696312Y-91128886D01*
X122680000Y-92145199D01*
X122680000Y-89214801D01*
X123660000Y-88234801D01*
X123660000Y-88406335D01*
G37*
%TD.AperFunction*%
%TD*%
M02*
